<svg data-name="Capa 1" xmlns="http://www.w3.org/2000/svg" viewBox="0 0 373 215"><path fill="#eeede7" d="M0 0h373v215H0z"/><path d="M128.5 109.4h-11.2a5 5 0 0 1 1.6 1.8 8.6 8.6 0 0 1 .4.9 4.5 4.5 0 0 1 .2 1.5v7.7l-.4.1h-2.7c-2.9 0-5.2-1.4-7-4.2a18.8 18.8 0 0 1-2.5-10 14.6 14.6 0 0 1 1.7-7.7c1.7-2.7 4.3-4.2 8-4h.6a5.6 5.6 0 0 1 3.7.2 10.4 10.4 0 0 1 2.6 1l2 1.4v-7.7a25.7 25.7 0 0 0-8.5-1 21.1 21.1 0 0 0-14.4 5.3 17.2 17.2 0 0 0-6.2 13.4q0 8.9 6.3 14.2a21.6 21.6 0 0 0 14.4 4.9 46 46 0 0 0 7-.7 27 27 0 0 0 4.3-1zM267.4 96.4a4.2 4.2 0 0 1 .8 1 10.7 10.7 0 0 1 .5 1 12.9 12.9 0 0 1 .6 1.3 4.3 4.3 0 0 1 .1 1.2V115l-14-18.6h-9.6a4.3 4.3 0 0 1 1 1 8.8 8.8 0 0 1 1 1.6 5.8 5.8 0 0 1 .5 1.7 11.6 11.6 0 0 1 .1 1.9v19a6.4 6.4 0 0 1-2 4.8h9.1a6 6 0 0 1-1.2-1.4 5.8 5.8 0 0 1-.9-3.3v-14l10.6 14a10.3 10.3 0 0 0 2 2 19.1 19.1 0 0 0 3.4 2.2 12.4 12.4 0 0 0 2.4 1 25 25 0 0 0 2.6.6V101a4.8 4.8 0 0 1 .3-1.6 5.3 5.3 0 0 1 .4-1l.6-1a4.5 4.5 0 0 1 .8-.9zm-34.7-9l-8.3 5 2.1 1.1 7.9-3.1zm3.2 32.3a7 7 0 0 1-6.1 3q-3.7 0-6.1-4a16 16 0 0 1-2.2-8.5 11.8 11.8 0 0 1 1.9-7 6.7 6.7 0 0 1 5.8-2.9 7.2 7.2 0 0 1 6.5 4 17.3 17.3 0 0 1 2 8.7 11.7 11.7 0 0 1-1.8 6.7m6-19.7a17.6 17.6 0 0 0-12.1-4.2 17.1 17.1 0 0 0-12.3 4.5 15.8 15.8 0 0 0-.4 22.3 15.8 15.8 0 0 0 11.7 4.7q8 0 12.8-4.4t5-12a13.8 13.8 0 0 0-4.7-11m-30.2 26a4.2 4.2 0 0 1-1.1-2 7.5 7.5 0 0 1-.1-1.3V99.8a5 5 0 0 1 .2-.9 3 3 0 0 1 .5-1 10.3 10.3 0 0 1 .6-.9 3.5 3.5 0 0 1 .8-.6h-13.4a3.6 3.6 0 0 1 .9.6 9.5 9.5 0 0 1 .7.8 2.9 2.9 0 0 1 .5 1 4 4 0 0 1 .1 1v22.8a5.3 5.3 0 0 1-.2 1.8 3.3 3.3 0 0 1-1 1.3 3.6 3.6 0 0 1-1 .7h13.4a5.4 5.4 0 0 1-1-.6m-35.1-29.4l-1.7 7a7.1 7.1 0 0 1 1.8-1.3 5 5 0 0 1 2.1-.7h2.4l.4.2v21a4.5 4.5 0 0 1-1.2 3 4.5 4.5 0 0 1-.9.8H193a5.3 5.3 0 0 1-1.6-1.4 4.4 4.4 0 0 1-.8-1.3 8.5 8.5 0 0 1 0-1.6v-20.4l.6-.3h2.2a2.8 2.8 0 0 1 2.2 1l.4.4a2.6 2.6 0 0 1 .4.7l1.7-7zM175 112a10.5 10.5 0 0 0-4.1-3.3l-3-1.4a52 52 0 0 1-2.8-1.3c-1.4-.9-2.1-1.7-2.1-2.7a2.7 2.7 0 0 1 .2-1 2.8 2.8 0 0 1 1.6-1.6 6.7 6.7 0 0 1 2.5-.4 7.9 7.9 0 0 1 2.3.4 11.5 11.5 0 0 1 2 .7l1.9 1V97l-3-.7a16.8 16.8 0 0 0-2.4-.4l-2.6-.2a13.1 13.1 0 0 0-7.8 2.3 7 7 0 0 0-3.2 6 8.6 8.6 0 0 0 1.7 5.6 16.7 16.7 0 0 0 5.8 4l3.1 1.5a8.3 8.3 0 0 1 2.3 1.6 3.4 3.4 0 0 1 1 2.3 2.8 2.8 0 0 1-1.2 2.5 5.5 5.5 0 0 1-3.1.8 16.4 16.4 0 0 1-3.6-.4 12 12 0 0 1-3.1-1.2L154 119l1.4 6.3 1.1.4a24.9 24.9 0 0 0 4 1 22.5 22.5 0 0 0 3.8.4 14.2 14.2 0 0 0 9-2.7 8.8 8.8 0 0 0 3.5-7.3 8.3 8.3 0 0 0-1.8-5.1m-24.3 9.5a10.5 10.5 0 0 1-3.6 1 4.2 4.2 0 0 0-.5 0h-.3a15 15 0 0 1-2.7-.2 11.6 11.6 0 0 1-2.1-.6v-8.2h2.7c.2-.7.6-.6 1-.5a2.6 2.6 0 0 1 1 .4 3.9 3.9 0 0 1 1.2 1.5v-6.9l-.6.5h-5.4v-7h4.7a3.7 3.7 0 0 1 1 .2 4 4 0 0 1 1.2.5 3.8 3.8 0 0 1 .7.6 2.6 2.6 0 0 1 .4.7v-7.2l-.5.2h-18.6a3.3 3.3 0 0 1 .8.7 6.9 6.9 0 0 1 .7.8 3 3 0 0 1 .5 1 3.8 3.8 0 0 1 .2.9v22.7a5.2 5.2 0 0 1-.3 1.7 3.6 3.6 0 0 1-.9 1.4 2 2 0 0 1-.4.4l-.7.4H151l2-7a20.6 20.6 0 0 1-2.4 1.8" fill="#b1b0a8"/></svg>