<svg xmlns="http://www.w3.org/2000/svg" xmlns:xlink="http://www.w3.org/1999/xlink" width="120" height="80" viewBox="0 0 120 80"><defs><clipPath id="b"><rect width="120" height="80"/></clipPath></defs><g id="a" clip-path="url(#b)"><path d="M17.762,222.458a4.136,4.136,0,0,1-3.769,2.785c-2.918,0-3.619-1.568-1.568-13.24,1.9-10.756,3.235-12.774,6.22-12.774a2.8,2.8,0,0,1,2.852,1.934Zm9.1,12.323,10.456-59.249-11.373.517L24.283,185.1l-.9,5.97-.183.15a7.6,7.6,0,0,0-6.2-2.918c-7.554,0-13.19,6.587-16.125,23.246-3.1,17.559.467,23.98,8.338,23.98a10.939,10.939,0,0,0,8.438-3.8h.217l.367,3.052Z" transform="translate(41.244 -165.533)"/></g></svg>