<svg xmlns="http://www.w3.org/2000/svg" viewBox="0 0 13.012 12.928">
  <path d="M6.365.11c.451.12.908.229,1.355.364a6.462,6.462,0,0,1,4.38,6.9,6.571,6.571,0,0,1-5.482,5.589,6.787,6.787,0,0,1-3.978-.647,1.134,1.134,0,0,0-.687-.057c-.755.181-1.5.41-2.248.615-.137.037-.282.05-.517.092.351-.832.686-1.56.971-2.312A.774.774,0,0,0,.14,10.05,6.463,6.463,0,0,1,4.731.188.539.539,0,0,0,4.879.11ZM6.107,3.775c1.533.417,2.595.043,2.937-1.015-1.108.536-1.1.526-2.282-.056a.655.655,0,0,0-.572.074c-.647.5-1.276,1.017-1.882,1.564a.96.96,0,0,0-.288.618c-.033.831,0,1.664-.023,2.5a3.775,3.775,0,0,1-.158.768l-.2-.043c-1.2-1.908-.647-3.519,1.014-4.942A3.891,3.891,0,0,0,1.954,7.375a3.791,3.791,0,0,0,3.9,3.265C7.443,10.6,9.124,9.5,9.267,8.382A4.657,4.657,0,0,1,6.108,9.52Z" transform="translate(0.874 -0.11)" />
</svg>