<svg xmlns="http://www.w3.org/2000/svg" viewBox="0 0 20.045 21.103">
  <g transform="translate(0.029 0)">
    <path d="M11.744,2.338V1.2a1.091,1.091,0,0,0-2.182,0V2.317a2.992,2.992,0,0,0,0,5.61V20.122a1.091,1.091,0,0,0,2.182,0V7.906a3,3,0,0,0,0-5.568Z" transform="translate(-7.64 -0.11)" />
    <path d="M111.371,11.346V1.2a1.091,1.091,0,1,0-2.182,0V11.346a3,3,0,0,0,0,5.59v3.185a1.091,1.091,0,1,0,2.182,0V16.936a3,3,0,0,0,0-5.59Z" transform="translate(-100.286 -0.11)" />
    <path d="M211.017,7.338V1.2a1.091,1.091,0,1,0-2.182,0V7.338a3,3,0,0,0,0,5.589v7.194a1.091,1.091,0,1,0,2.182,0V12.927a3,3,0,0,0,0-5.589Z" transform="translate(-192.917 -0.11)" />
  </g>
</svg>