<svg xmlns="http://www.w3.org/2000/svg" viewBox="0 0 19.84 18.27">
  <path d="M17.524 6.966a20.264 20.264 0 0 0-4.737-3.315L14.378.577 13.263 0l-1.7 3.271a8.793 8.793 0 0 0-1.969-.207c-5.25 0-7.334 3.685-9.6 6.058 1.053 1.34 2.243 3.157 3.62 4a15.715 15.715 0 0 0 2.173 1.289l-1.7 3.281 1.123.578 1.768-3.41a9.055 9.055 0 0 0 2.557.347c3.894.014 5.817-2.05 8.551-4.361.792-.672 1.048-.988 1.753-1.679a16.033 16.033 0 0 0-2.315-2.201ZM5.41 9.794a4.2 4.2 0 0 1 3.523-4.832 4.131 4.131 0 0 1 1.72.066l-.6 1.146a2.958 2.958 0 0 0-1.127.062 2.828 2.828 0 0 0-1.785 1.176A2.967 2.967 0 0 0 6.68 9.8a3.057 3.057 0 0 0 .766 1.421l-.593 1.144A4.286 4.286 0 0 1 5.41 9.794ZM8.802 8.6a1.076 1.076 0 0 1-.609-2.06 1.018 1.018 0 0 1 1.364.6Zm1.451 4.713a4.09 4.09 0 0 1-2.331-.279l.575-1.108a3 3 0 0 0 4.007-3.444 3.055 3.055 0 0 0-1.261-1.848l.573-1.106a4.315 4.315 0 0 1 1.946 2.9 4.229 4.229 0 0 1-3.509 4.889Z" />
</svg>