<svg xmlns="http://www.w3.org/2000/svg" viewBox="0 0 19.839 12.143">
  <path d="M.001 6.057c1.052 1.34 2.242 3.157 3.619 4a9.534 9.534 0 0 0 5.915 2.087c3.894.014 5.817-2.05 8.551-4.36.791-.672 1.048-.988 1.753-1.679a15.782 15.782 0 0 0-2.311-2.2c-2.58-2.068-4.309-3.907-7.925-3.9-5.253 0-7.337 3.685-9.6 6.057Zm8.934-4.159a4.229 4.229 0 1 0 4.826 3.468 4.2 4.2 0 0 0-4.826-3.468Z" fill-rule="evenodd" />
  <path d="M8.931 3.175a2.828 2.828 0 0 0-1.784 1.176 3 3 0 1 0 1.787-1.173Zm-.737.306a1.075 1.075 0 1 0 .778 2 1.075 1.075 0 0 0-.779-1.999Z" fill-rule="evenodd" />
</svg>