<svg xmlns="http://www.w3.org/2000/svg" viewBox="0 0 297.49 254.55">
    <path d="M45.52,277.27A148.74,148.74,0,0,1,44.13,66.92c57.6-58.37,152-59,210.35-1.4a148.76,148.76,0,0,1,1.4,210.35L237.23,258.8l.72-.74a123.49,123.49,0,0,0-1.23-174.55c-23.47-23.16-54.14-35.66-87.54-35.58a123.47,123.47,0,0,0-85.9,211.35Z" transform="translate(-1.26 -22.73)" />
    <path d="M119.88,202.32a43.13,43.13,0,1,1,61-.85l-18.05-17.7a17.85,17.85,0,1,0-25.32.42Z" transform="translate(-1.26 -22.73)" />
    <path d="M84.13,238.32A93.9,93.9,0,0,1,149.21,77.49H150a93.9,93.9,0,0,1,66.91,159.74l-18.18-17.56a68.62,68.62,0,0,0-.65-97.2C185,109.62,168,103,149.41,102.77a68.62,68.62,0,0,0-47.55,117.54Z" transform="translate(-1.26 -22.73)" />
</svg>