<svg xmlns="http://www.w3.org/2000/svg" viewBox="0 0 14.437 13.732">
  <path d="M15.208,11.6a.66.66,0,0,0-.387-.3H10.153S8.295,7.349,8.24,7.254A.452.452,0,0,0,7.788,7a.514.514,0,0,0-.433.269L5.692,11.306s-4.355,0-4.445.01a.557.557,0,0,0-.4.375.55.55,0,0,0,.127.481l3.938,2.774s-1.673,4.978-1.721,5.11a.494.494,0,0,0,.185.575.586.586,0,0,0,.6,0l3.838-3.3s3.965,3.2,4.1,3.291a.505.505,0,0,0,.623,0,.57.57,0,0,0,.174-.528l-1.642-5.144s3.871-2.629,4.049-2.761A.479.479,0,0,0,15.208,11.6Zm-5.071,2.742a.639.639,0,0,0-.14.659c.14.392,1.22,3.786,1.22,3.786l-3.1-2.5a.512.512,0,0,0-.659.014c-.35.28-2.734,2.342-2.734,2.342l1.26-3.716s.2-.322-.238-.645-2.807-1.963-2.807-1.963H5.957s.308.126.519-.308S7.823,8.765,7.823,8.765l1.557,3.3a.578.578,0,0,0,.421.284c.266.011,3.309,0,3.309,0Z" transform="translate(-0.828 -6.999)" />
</svg>