<?xml version="1.0" encoding="UTF-8"?>
<svg width="1033px" height="468px" viewBox="0 0 1033 468" version="1.1" xmlns="http://www.w3.org/2000/svg" xmlns:xlink="http://www.w3.org/1999/xlink">
    <title>Spots/States/404@1.5x</title>
    <defs>
        <polygon id="path-1" points="0 0 38.5500368 0 38.5500368 5.00293362 0 5.00293362"></polygon>
    </defs>
    <g id="Error-pages" stroke="none" stroke-width="1" fill="none" fill-rule="evenodd">
        <g id="404" transform="translate(-204.000000, -216.000000)">
            <g id="Spots/States/404" transform="translate(204.000000, 216.000000)">
                <g id="404" transform="translate(0.000000, 0.000000)">
                    <path d="M980.224248,465.046694 C980.224248,464.921621 980.224248,464.797548 980.224248,464.672475 C980.224248,208.040991 772.361666,0 515.950261,0 C259.538856,0 51.6762741,208.040991 51.6762741,464.672475 C51.6762741,464.797548 51.6762741,464.921621 51.6762741,465.046694 L980.224248,465.046694 Z" id="Fill-1" fill="#FFFFFF"></path>
                    <path d="M922.26238,441.866101 L733.22169,441.866101 C726.826425,441.866101 721.641833,436.677059 721.641833,430.276305 C721.641833,423.875552 726.826425,418.686509 733.22169,418.686509 L922.26238,418.686509 C928.656645,418.686509 933.842237,423.875552 933.842237,430.276305 C933.842237,436.677059 928.656645,441.866101 922.26238,441.866101" id="Fill-3" fill="#FFFFFF"></path>
                    <path d="M929.203896,76.368581 L831.855318,76.368581 C827.417523,76.368581 823.8195,72.7674694 823.8195,68.3258649 C823.8195,63.8832598 827.417523,60.2821482 831.855318,60.2821482 L929.203896,60.2821482 C933.641692,60.2821482 937.240715,63.8832598 937.240715,68.3258649 C937.240715,72.7674694 933.641692,76.368581 929.203896,76.368581" id="Fill-5" fill="#FFFFFF"></path>
                    <path d="M963.040412,92.4547136 L865.691835,92.4547136 C861.254039,92.4547136 857.656016,88.853602 857.656016,84.4119975 C857.656016,79.9693924 861.254039,76.3682808 865.691835,76.3682808 L963.040412,76.3682808 C967.478208,76.3682808 971.077231,79.9693924 971.077231,84.4119975 C971.077231,88.853602 967.478208,92.4547136 963.040412,92.4547136" id="Fill-7" fill="#FFFFFF"></path>
                    <path d="M913.64262,108.540746 L850.129858,108.540746 C845.691063,108.540746 842.094039,104.939634 842.094039,100.49803 C842.094039,96.055425 845.691063,92.4543133 850.129858,92.4543133 L913.64262,92.4543133 C918.080415,92.4543133 921.678439,96.055425 921.678439,100.49803 C921.678439,104.939634 918.080415,108.540746 913.64262,108.540746" id="Fill-9" fill="#FFFFFF"></path>
                    <path d="M174.227111,85.9244844 L79.2638863,85.9244844 C74.825091,85.9244844 71.2280673,82.3233728 71.2280673,77.8817683 C71.2280673,73.4391632 74.825091,69.8380516 79.2638863,69.8380516 L174.227111,69.8380516 C178.664907,69.8380516 182.26293,73.4391632 182.26293,77.8817683 C182.26293,82.3233728 178.664907,85.9244844 174.227111,85.9244844" id="Fill-11" fill="#FFFFFF"></path>
                    <path d="M189.674119,102.010617 L112.388096,102.010617 C107.9503,102.010617 104.352277,98.4095053 104.352277,93.9679009 C104.352277,89.5252958 107.9503,85.9241842 112.388096,85.9241842 L189.674119,85.9241842 C194.111914,85.9241842 197.709938,89.5252958 197.709938,93.9679009 C197.709938,98.4095053 194.111914,102.010617 189.674119,102.010617" id="Fill-13" fill="#FFFFFF"></path>
                    <path d="M130.236151,389.540519 L13.4828405,389.540519 C9.04404527,389.540519 5.44702157,385.939407 5.44702157,381.497803 C5.44702157,377.055198 9.04404527,373.455086 13.4828405,373.455086 L130.236151,373.455086 C134.673947,373.455086 138.27197,377.055198 138.27197,381.497803 C138.27197,385.939407 134.673947,389.540519 130.236151,389.540519" id="Fill-15" fill="#FFFFFF"></path>
                    <path d="M169.861096,405.627051 L53.1077855,405.627051 C48.6689903,405.627051 45.0719666,402.024939 45.0719666,397.583335 C45.0719666,393.14073 48.6689903,389.540619 53.1077855,389.540619 L169.861096,389.540619 C174.298892,389.540619 177.897915,393.14073 177.897915,397.583335 C177.897915,402.024939 174.298892,405.627051 169.861096,405.627051" id="Fill-17" fill="#FFFFFF"></path>
                    <path d="M1005.12859,307.465992 L905.483634,307.465992 C901.045839,307.465992 897.447815,303.86488 897.447815,299.423276 C897.447815,294.980671 901.045839,291.38056 905.483634,291.38056 L1005.12859,291.38056 C1009.56538,291.38056 1013.16441,294.980671 1013.16441,299.423276 C1013.16441,303.86488 1009.56538,307.465992 1005.12859,307.465992" id="Fill-19" fill="#FFFFFF"></path>
                    <path d="M964.530208,323.551624 L864.886253,323.551624 C860.448458,323.551624 856.850434,319.950512 856.850434,315.508908 C856.850434,311.066303 860.448458,307.466192 864.886253,307.466192 L964.530208,307.466192 C968.968003,307.466192 972.567027,311.066303 972.567027,315.508908 C972.567027,319.950512 968.968003,323.551624 964.530208,323.551624" id="Fill-21" fill="#FFFFFF"></path>
                    <path d="M857.412782,465.046694 L668.373091,465.046694 C661.977826,465.046694 656.792234,459.857651 656.792234,453.456898 C656.792234,447.056145 661.977826,441.866101 668.373091,441.866101 L857.412782,441.866101 C863.808046,441.866101 868.992639,447.056145 868.992639,453.456898 C868.992639,459.857651 863.808046,465.046694 857.412782,465.046694" id="Fill-23" fill="#FFFFFF"></path>
                    <path d="M311.992419,116.534233 L311.992419,381.669703 C311.992419,393.2605 321.468847,402.744061 333.050704,402.744061 L677.784136,402.744061 C689.366993,402.744061 698.842421,393.2605 698.842421,381.669703 L698.842421,116.534233 L311.992419,116.534233 Z" id="Fill-25" fill="#F2F2F2"></path>
                    <path d="M316.550782,116.534233 L316.550782,381.669703 C316.550782,390.775043 323.951773,398.183387 333.051303,398.183387 L677.783736,398.183387 C686.883267,398.183387 694.285258,390.775043 694.285258,381.669703 L694.285258,116.534233 L316.550782,116.534233 Z" id="Fill-27" fill="#F7F7F7"></path>
                    <path d="M698.842521,109.269273 C698.842521,97.6774761 689.366093,88.1929145 677.784236,88.1929145 L333.050804,88.1929145 C321.468947,88.1929145 311.992519,97.6774761 311.992519,109.269273 L311.992519,116.534533 L698.842521,116.534533 L698.842521,109.269273 Z" id="Fill-29" fill="#00A99D"></path>
                    <path d="M376.783434,103.385923 C376.783434,100.222068 379.345738,97.6575644 382.50688,97.6575644 C385.668022,97.6575644 388.229327,100.222068 388.229327,103.385923 C388.229327,106.549779 385.668022,109.113282 382.50688,109.113282 C379.345738,109.113282 376.783434,106.549779 376.783434,103.385923" id="Fill-31" fill="#FFFFFF"></path>
                    <path d="M355.777435,109.837406 C354.632746,109.837406 354.164873,109.025931 354.736718,108.03535 L360.582131,97.9014074 C361.153976,96.909826 362.090722,96.909826 362.661567,97.9014074 L368.50598,108.03535 C369.078825,109.025931 368.611952,109.837406 367.467262,109.837406 L355.777435,109.837406 Z" id="Fill-33" fill="#FFFFFF"></path>
                    <path d="M333.667236,99.3937825 C333.667236,98.4382222 334.447025,97.6577645 335.399766,97.6577645 L343.3786,97.6577645 C344.332342,97.6577645 345.11213,98.4382222 345.11213,99.3937825 L345.11213,107.377464 C345.11213,108.333024 344.332342,109.113482 343.3786,109.113482 L335.399766,109.113482 C334.447025,109.113482 333.667236,108.333024 333.667236,107.377464 L333.667236,99.3937825 Z" id="Fill-35" fill="#FFFFFF"></path>
                    <path d="M643.563624,106.459025 C643.563624,108.777385 641.668139,110.674497 639.352767,110.674497 L408.937307,110.674497 C406.619936,110.674497 404.72445,108.777385 404.72445,106.459025 L404.72445,98.2672219 C404.72445,95.9488625 406.619936,94.0527506 408.937307,94.0527506 L639.352767,94.0527506 C641.668139,94.0527506 643.563624,95.9488625 643.563624,98.2672219 L643.563624,106.459025 Z" id="Fill-37" fill="#06B7A6"></path>
                    <path d="M340.518877,149.608828 C340.518877,145.774579 343.623034,142.667757 347.453994,142.667757 C351.284955,142.667757 354.390112,145.774579 354.390112,149.608828 C354.390112,153.442075 351.284955,156.549898 347.453994,156.549898 C343.623034,156.549898 340.518877,153.442075 340.518877,149.608828" id="Fill-39" fill="#E0E0E0"></path>
                    <path d="M367.539843,149.608828 C367.539843,145.774579 370.645,142.667757 374.47496,142.667757 C378.30692,142.667757 381.411078,145.774579 381.411078,149.608828 C381.411078,153.442075 378.30692,156.549898 374.47496,156.549898 C370.645,156.549898 367.539843,153.442075 367.539843,149.608828" id="Fill-41" fill="#E0E0E0"></path>
                    <path d="M447.088652,142.667257 L401.497026,142.667257 C397.667066,142.667257 394.561908,145.77508 394.561908,149.608327 C394.561908,153.442576 397.667066,156.550398 401.497026,156.550398 L447.088652,156.550398 C450.919612,156.550398 454.023769,153.442576 454.023769,149.608327 C454.023769,145.77508 450.919612,142.667257 447.088652,142.667257" id="Fill-43" fill="#E0E0E0"></path>
                    <path d="M384.661196,216.059893 C384.021369,216.059893 383.382543,215.81575 382.893675,215.327464 L367.138951,199.557216 C366.162217,198.580644 366.162217,196.996715 367.138951,196.020142 C368.114687,195.042569 369.696257,195.042569 370.672992,196.020142 L386.428716,211.789389 C387.404451,212.765962 387.404451,214.350891 386.428716,215.327464 C385.939848,215.81575 385.301022,216.059893 384.661196,216.059893" id="Fill-45" fill="#00A99D"></path>
                    <path d="M368.905772,216.059893 C368.265946,216.059893 367.627119,215.81575 367.138252,215.327464 C366.162516,214.350891 366.162516,212.765962 367.138252,211.789389 L382.893975,196.020142 C383.87071,195.042569 385.452281,195.042569 386.428016,196.020142 C387.404751,196.996715 387.404751,198.580644 386.428016,199.557216 L370.673292,215.327464 C370.184425,215.81575 369.545598,216.059893 368.905772,216.059893" id="Fill-47" fill="#00A99D"></path>
                    <path d="M639.385059,347.808048 C638.745232,347.808048 638.106406,347.563904 637.617538,347.075618 L621.862814,331.305371 C620.88608,330.327798 620.88608,328.743869 621.862814,327.768297 C622.83855,326.790723 624.42012,326.790723 625.396855,327.768297 L641.152579,343.537543 C642.128314,344.515117 642.128314,346.099045 641.152579,347.075618 C640.663712,347.563904 640.024885,347.808048 639.385059,347.808048" id="Fill-49" fill="#00A99D"></path>
                    <path d="M623.629535,347.808048 C622.989709,347.808048 622.350882,347.563904 621.862015,347.075618 C620.88628,346.099045 620.88628,344.515117 621.862015,343.537543 L637.617738,327.768297 C638.594473,326.790723 640.176044,326.790723 641.151779,327.768297 C642.128514,328.743869 642.128514,330.327798 641.151779,331.305371 L625.397055,347.075618 C624.908188,347.563904 624.269361,347.808048 623.629535,347.808048" id="Fill-51" fill="#00A99D"></path>
                    <path d="M658.699116,247.970205 C658.05929,247.970205 657.420463,247.726062 656.931596,247.237775 L631.871398,222.155067 C630.894663,221.178495 630.894663,219.594566 631.871398,218.617993 C632.848133,217.64042 634.429704,217.64042 635.405439,218.617993 L660.466637,243.699701 C661.442372,244.677274 661.442372,246.260202 660.466637,247.237775 C659.977769,247.726062 659.338943,247.970205 658.699116,247.970205" id="Fill-53" fill="#00A99D"></path>
                    <path d="M633.638518,247.970205 C632.998692,247.970205 632.359865,247.726062 631.870998,247.237775 C630.895263,246.260202 630.895263,244.677274 631.870998,243.699701 L656.932196,218.617993 C657.907931,217.64042 659.489502,217.64042 660.466237,218.617993 C661.442972,219.594566 661.442972,221.178495 660.466237,222.155067 L635.406039,247.237775 C634.917171,247.726062 634.278345,247.970205 633.638518,247.970205" id="Fill-55" fill="#00A99D"></path>
                    <path d="M504.761398,345.286969 C458.080068,345.286969 420.100377,306.86544 420.100377,259.64375 C420.100377,212.418058 458.080068,173.992526 504.761398,173.992526 C551.448726,173.992526 589.426418,212.418058 589.426418,259.64375 C589.426418,306.86544 551.448726,345.286969 504.761398,345.286969" id="Fill-57" fill="#ABD8D3"></path>
                    <path d="M487.376517,175.851716 C487.409508,175.857719 487.449497,175.868726 487.477489,175.881733 C486.916641,176.720225 485.252093,176.457071 484.297198,176.909336 C484.286355,177.333585 484.865198,177.17149 484.979167,177.477669 C486.464764,180.58349 490.97654,178.861481 493.951732,179.529873 C495.400339,181.04376 496.083153,183.324098 497.586745,184.785955 C497.194852,185.961644 497.46078,187.066292 498.154591,187.862759 C500.825866,186.558994 502.119515,189.648806 501.902574,191.634971 C501.452696,192.002186 500.561938,192.422433 501.103791,193.115839 C500.275016,193.809246 498.60247,194.184466 498.493499,195.288113 C498.362535,196.632902 500.214032,197.326308 500.766882,198.140786 C500.648914,199.97286 501.251751,200.760322 501.333728,202.703461 C503.078255,203.500929 505.395626,203.718056 505.990464,205.673203 L507.467064,205.673203 C507.742989,205.416052 508.052905,205.194922 508.370818,204.988801 C508.590759,203.57097 509.191596,202.538364 509.627477,201.334659 C511.329015,200.465149 511.364006,198.457972 513.373461,198.364917 C513.606397,198.353911 514.035281,198.553027 514.281214,198.482986 C514.927039,198.296877 515.228957,197.376337 515.872782,196.997115 C516.789533,196.4598 517.607311,196.586875 518.374103,196.08458 C518.573049,195.678342 518.697016,195.196059 519.169887,195.056977 C522.641945,195.327136 525.253236,193.809246 527.913514,192.887705 C528.141452,192.542503 527.663582,191.92314 527.346668,191.747037 C526.707841,191.831086 525.741104,191.936147 525.418191,191.402835 C526.473905,190.319199 527.385657,191.685 528.709298,191.634971 C529.148179,190.37123 527.594601,189.429678 528.027483,187.754696 C527.776551,187.466527 526.808814,187.908786 527.00576,187.18236 C527.852531,186.63704 528.529347,188.025855 529.731021,187.862759 C530.018943,187.316439 530.943692,186.745104 531.093651,185.697489 C531.149636,185.301257 530.87571,184.843989 530.980682,184.439752 C531.043665,184.19861 531.340584,184.055526 531.43056,183.869417 C531.899432,182.955882 531.322589,182.440579 531.20862,181.702146 C531.824453,181.557061 532.443285,181.422983 533.025127,181.242877 C532.999134,179.898089 532.083382,179.454829 531.093651,179.075606 C531.043665,178.768426 531.053662,178.492264 531.093651,178.242118 C522.833893,175.486502 514.018286,173.992626 504.862771,173.992626 C498.867398,173.992626 493.020985,174.633001 487.376517,175.851716" id="Fill-59" fill="#47ADA1"></path>
                    <path d="M576.644288,232.726866 C575.901489,232.449704 572.168502,232.42569 571.075799,232.726866 C570.55694,232.870951 570.256022,233.581367 569.368262,233.414269 C570.097065,232.804912 569.145323,232.386667 569.145323,231.701265 C569.148322,231.13093 569.6002,230.957829 570.051077,230.329461 C570.81587,229.28885 571.116788,228.081142 572.438429,227.815987 C572.639375,228.303272 573.06226,228.560423 573.68809,228.618457 C573.602113,229.156773 573.816055,229.40792 573.80006,229.872192 C574.642831,230.125341 575.432617,229.702093 576.186412,229.302859 C576.283386,228.744531 575.8605,228.717515 575.959474,228.159188 C576.67228,227.836999 578.142881,228.319282 578.570765,227.476788 C578.92167,228.06013 578.083897,228.429346 577.890949,228.847592 C578.534775,230.633639 579.974384,231.62522 581.301024,232.726866 C581.373004,233.179132 580.868141,233.051056 580.960116,233.530337 C580.206321,233.62039 579.617481,234.183721 578.570765,233.981602 C577.841963,233.835516 577.382087,233.000026 576.644288,232.726866 M580.617209,255.556253 C581.493971,256.906044 581.219046,258.771138 581.409994,260.695266 C583.08154,262.462303 585.690832,260.362071 588.230143,260.5822 C588.518065,260.280023 588.834979,260.004862 589.173887,259.74571 C589.173887,259.708688 589.178886,259.675669 589.178886,259.641649 C589.178886,256.191626 588.968942,252.790631 588.577049,249.444669 C588.504069,249.409649 588.42709,249.359619 588.340113,249.279572 C588.048192,248.902351 588.359108,248.367037 588.340113,247.91077 C587.934223,247.17834 586.979482,246.997234 586.979482,245.856565 C587.424362,245.786524 587.791262,245.856565 588.103177,245.998649 C585.031011,226.589267 575.518593,209.338152 561.863299,196.589676 C560.479675,197.231052 558.993079,197.759362 558.354252,198.821985 C556.655713,199.096146 555.202107,200.648056 555.290084,202.704262 C554.399325,204.761468 552.202922,206.045221 550.518379,206.925737 C550.874282,208.233504 550.532375,210.099598 550.518379,211.496417 C550.739319,212.079759 551.5471,211.777582 552.106948,212.065751 C552.444856,212.237852 552.338885,212.581053 552.788762,212.640088 C553.818483,212.772165 554.349339,211.942679 555.175115,211.496417 C555.711969,211.787588 556.167845,212.171813 556.992621,212.18382 C557.344526,212.922253 557.833393,213.541616 558.696159,213.773753 C559.721881,212.715132 560.451683,211.355334 561.080512,209.89848 C560.820583,209.320141 560.348711,208.95993 559.940821,208.525675 C559.458952,205.568941 563.574835,205.557935 564.14568,202.932395 C564.714526,202.484133 566.014173,201.580603 566.76097,202.36106 C566.912929,202.584191 566.674994,202.82033 566.87294,203.16153 C565.111418,204.666412 562.943006,206.019205 563.466864,209.215079 C564.172673,209.263108 564.555569,210.17164 565.51031,210.354748 C566.379074,210.518844 567.511766,209.973524 568.353538,210.013548 C568.52849,210.018551 568.453511,210.311723 568.578477,210.354748 C568.793419,210.427791 569.34027,209.951511 569.368262,210.354748 C569.131327,210.345742 569.097336,210.651922 569.031354,210.811015 C567.900661,210.572876 565.449326,210.865047 565.394341,211.720549 C565.376346,212.079759 566.251109,212.419959 566.306094,212.86522 C566.469049,214.198001 565.123415,214.43514 564.03671,213.663688 C562.956003,213.720721 563.168945,215.077517 563.010988,216.062094 C561.624364,216.866566 560.186755,216.545378 557.900375,216.629427 C557.321532,215.384697 556.787677,213.471575 555.401053,212.977286 C554.430317,212.631083 553.53356,213.318486 552.788762,213.773753 C552.080955,215.493761 554.473305,218.652613 551.083225,218.228365 C550.099492,219.254967 548.461937,219.626184 547.903089,221.088042 C546.160562,221.345192 545.588717,222.788038 544.045136,223.253311 C544.075128,222.950133 543.804201,222.958138 543.58826,222.909109 C543.191367,224.029767 541.313877,223.036184 540.975969,224.281914 C542.00269,225.153425 543.242354,225.805808 543.701229,227.246653 C543.36532,227.819989 543.433302,228.801565 543.133383,229.415925 C541.090938,229.635053 538.006775,228.684496 536.205264,229.872192 C536.725122,232.043466 536.10629,233.436282 536.205264,235.805672 C537.177,236.429037 538.215718,236.982362 539.3864,237.40661 C539.624336,237.306552 539.71931,237.058406 540.069215,237.066411 C542.545543,237.619735 545.037866,236.124859 544.726951,233.530337 C546.035595,232.827926 547.535188,232.316626 547.903089,230.675664 C549.219731,230.455534 549.81257,230.091321 550.973255,230.675664 C552.089952,230.561597 552.956717,229.330875 554.154392,229.530992 C555.56201,229.768131 556.650714,231.856356 556.194838,233.181133 C557.234556,233.850525 556.942635,235.860704 558.919099,235.58054 C559.287998,235.258351 559.50294,234.72904 559.265005,234.100672 C559.479946,233.899554 559.961816,233.96059 559.940821,233.530337 C559.188026,232.840933 558.61818,231.971423 558.58319,230.556594 C560.217746,230.267424 561.224473,231.53917 561.080512,233.414269 C562.297182,234.510912 563.243925,235.882717 563.466864,237.974944 C565.267376,237.906904 565.321361,235.789662 565.058432,234.555939 C565.832222,234.049642 566.79796,233.429278 567.783693,233.750467 C567.751701,234.976185 567.696716,235.511499 567.556754,236.835275 C567.981639,237.47365 568.551484,237.962937 569.031354,238.54828 C570.658912,238.660346 572.529405,238.534272 573.573121,239.23068 C574.247938,239.11161 574.603841,238.671352 575.389628,238.660346 C575.717539,240.482414 574.566851,241.917255 574.142967,243.46016 C573.09825,243.799359 572.269475,243.107954 571.302737,243.115958 C570.733892,243.120961 570.174044,243.541208 569.6002,243.572226 C566.379074,243.740324 563.859758,240.250278 560.851574,242.199421 C560.761599,242.565636 560.778594,243.044917 560.625635,243.343091 C559.534931,243.754333 558.733149,242.617666 558.58319,242.087355 C557.571464,241.711135 556.204835,241.222848 554.947177,240.603485 C555.097136,239.584888 555.003161,239.114612 555.061146,237.52468 C554.67825,236.687189 553.24064,236.914322 552.336885,236.608142 C551.771039,237.073415 550.446398,237.01438 549.838563,236.608142 C547.524191,237.61073 543.637246,237.583714 541.431845,238.325149 C540.874996,237.839864 540.060217,237.375592 539.158462,237.862878 C538.570622,239.487831 536.852088,239.96411 535.750387,241.058752 L535.750387,242.886824 C535.379488,243.389118 534.70667,243.587235 534.387757,244.143561 C533.081112,244.741912 531.75947,245.892586 530.980682,246.655034 C531.264605,247.853736 529.212162,248.496113 528.934237,249.624775 C528.844261,249.981984 529.110189,250.256145 529.161175,250.763443 C529.236155,251.434836 529.167174,252.165265 529.276144,252.931714 C529.471091,254.308521 528.88625,255.169026 528.59233,256.700924 C528.282414,258.348891 529.171173,258.695094 529.960958,259.323462 C530.483816,261.387672 532.515265,261.927989 532.912157,264.118274 C533.804915,264.323394 533.968871,265.347995 534.274788,265.83528 C535.091566,266.466651 536.116288,266.80685 537.338956,266.747816 C538.151735,266.072419 539.653328,266.327569 540.635061,266.858881 C542.276616,266.698787 544.371047,266.566709 545.864642,265.721214 C546.20255,266.049406 546.553455,265.753232 547.221274,265.83528 C547.693146,267.033983 549.085768,267.310145 550.746317,267.314148 C550.988251,267.76141 551.13821,268.292721 551.427132,268.685952 C551.489115,270.157815 550.709327,270.782181 550.290441,271.76876 C551.091223,274.017078 553.648529,274.879584 553.356608,277.592174 C553.905459,278.330607 554.315348,278.944968 554.495299,279.645378 C555.353066,283.038368 551.739047,284.767382 552.218917,287.863197 C552.364878,288.785738 553.046692,289.580204 553.356608,290.488737 C553.734506,291.596386 554.062417,292.686025 554.039423,294.026811 C554.507296,296.083017 554.549285,299.124801 555.401053,300.41956 C556.314805,300.344516 556.467764,302.011493 556.538745,303.159166 C557.729422,305.844741 563.352895,304.416904 566.189125,304.071701 C566.306094,303.731502 566.422062,303.393304 566.534032,303.0461 C568.665453,302.029504 569.824139,300.037336 571.302737,298.365355 C571.398711,297.292726 571.33173,297.288724 571.415707,296.30915 C572.269475,295.784842 572.772339,295.736814 573.118245,295.168481 C573.816055,294.037818 573.140239,293.111275 573.006275,292.317809 C572.867313,291.48432 574.561853,290.463722 575.389628,289.803335 C575.906488,289.393094 576.551313,288.827763 577.095165,288.548599 C578.972656,287.582032 578.629749,286.26526 578.690732,283.985924 C578.202865,283.56968 578.436801,283.002347 578.234856,282.501053 C577.780979,281.401408 576.846233,280.680986 577.211134,279.189111 C577.41008,278.360625 578.858687,275.60701 579.25058,275.0777 C579.852417,274.280232 581.736905,273.350687 583.003562,272.343096 C584.043279,271.503604 584.950033,270.539039 585.842791,269.829623 C586.490615,268.310732 587.06246,266.715797 588.107176,265.601143 C588.171159,264.663593 588.61004,264.104265 589.082912,263.577957 C589.096908,263.253767 589.109904,262.931578 589.120901,262.606387 C587.119444,261.913981 585.784807,263.608975 584.139253,263.545938 C582.991565,263.504914 582.763627,262.835521 582.209777,262.405269 C581.206049,261.625812 580.338285,261.192558 579.592487,260.006863 C579.609483,259.492561 579.131613,258.839178 579.138611,258.29686 C578.024913,257.32529 577.395084,255.682327 576.872226,254.18745 C576.063445,251.899109 574.985738,249.705822 574.370905,247.682636 C574.357908,247.488522 573.887036,247.809711 573.915028,247.340435 C575.231671,246.592997 575.847504,248.733252 576.300381,249.624775 C577.119159,251.220711 578.706728,251.410822 578.341827,253.276916 C578.966657,254.16944 579.894405,254.763788 580.617209,255.556253" id="Fill-61" fill="#47ADA1"></path>
                    <path d="M464.308578,217.888565 C464.991392,217.701456 465.189339,217.024059 466.126084,217.086095 C466.408008,217.373263 466.692931,217.656429 466.91787,218.002632 C467.286769,217.934592 467.446726,218.079678 467.710654,218.114698 C467.482716,218.533944 467.828622,218.461902 468.166531,218.566963 C468.188525,219.242359 468.35348,219.218345 468.047563,219.712635 C467.055832,219.666608 466.73192,218.59498 465.897147,218.342832 C464.916413,218.046658 463.93168,218.887151 463.054918,218.342832 C463.15689,217.874557 463.791718,217.938595 464.308578,217.888565 M468.850345,219.831705 C469.883065,219.887738 470.226971,220.652186 471.346667,220.627171 C471.589602,222.112042 469.597142,222.36519 469.757099,223.826047 C468.946319,222.558304 470.125999,221.055422 468.621407,220.738236 C468.411464,220.698213 466.562966,221.309571 466.461993,221.427641 C465.88315,222.080023 467.036837,224.144234 465.44227,224.504445 C465.160347,222.769427 465.880151,219.060252 468.395468,220.396036 C468.682391,220.349008 468.585417,219.904748 468.850345,219.831705 M506.785049,280.215112 C507.327901,280.031005 507.860757,279.853901 508.370618,279.644778 C508.412607,279.06844 508.604555,278.655198 508.717524,278.158907 C510.376074,278.040838 510.337085,276.208763 510.992907,275.0781 C510.87194,274.546789 510.596014,274.178573 510.423061,273.708297 C509.077427,273.224013 508.002718,272.170395 506.902017,271.654092 C505.261462,270.888644 504.540658,269.94409 503.036066,270.284289 C501.714425,269.254685 500.042879,268.578289 498.609268,267.65975 C497.577548,267.70978 496.915728,268.124022 495.995977,268.002951 C496.24291,267.104425 496.962715,266.68718 497.473576,266.057811 C497.331615,264.905135 496.479846,264.475883 495.995977,263.660405 C493.96053,263.198134 492.655884,261.10991 490.315519,260.5816 C489.969613,260.056292 489.419762,259.736104 489.065858,259.212797 C488.744945,259.194787 488.592986,259.002674 488.273073,258.97866 C487.472291,257.567833 485.981695,257.311682 484.63806,256.928458 C483.329415,257.576838 483.270431,257.077545 482.02177,256.586257 C481.69086,256.450177 480.975054,256.467187 480.775108,256.359124 C480.112288,255.990908 480.14128,255.403563 479.527447,255.444588 C478.650685,255.50062 478.515722,256.906445 477.706941,256.586257 C477.817911,256.192026 477.680948,255.41457 477.593972,254.874253 C476.368304,254.912275 475.866441,256.23305 474.526804,256.701324 C473.73102,256.511213 473.03021,256.877428 472.25842,257.385726 C471.866526,257.206621 471.866526,256.632284 471.346667,256.586257 C469.190253,256.384138 467.010844,256.390142 466.91787,254.760186 C466.871882,253.992736 468.038565,252.587912 467.488715,251.218109 C466.926867,251.071023 466.826894,250.388623 466.235055,250.075439 C465.283313,249.575146 463.764725,250.167493 463.054918,249.164905 C462.486072,247.438893 464.04265,246.889571 463.964671,245.287632 C462.587045,244.045904 460.50661,245.031481 460.333657,246.655434 C459.709826,246.593397 459.341926,247.147722 458.739089,247.227769 C456.717638,247.488922 455.522962,245.35267 454.539229,244.256027 C454.771166,243.311473 454.512237,241.870628 455.218045,241.405355 C455.364005,237.375992 459.049005,237.16687 462.376102,237.975344 C462.742003,237.856274 462.757999,237.374992 463.054918,237.177876 C464.758456,236.67258 465.571235,237.980347 467.369747,237.748211 C467.336756,238.015367 467.701657,237.877286 467.710654,238.094414 C468.210519,239.796412 469.151263,241.059152 470.321946,242.087755 C471.458637,240.54385 469.853073,238.879874 469.984037,236.949743 C470.457909,236.326377 470.681848,236.074229 471.00576,235.236738 C473.58406,234.476292 475.841447,232.700251 475.09465,229.872593 C475.763469,229.820562 475.802458,230.08972 476.232341,229.872593 C476.71521,227.460178 479.29451,227.167006 480.775108,225.766185 C481.051033,225.454002 480.652142,225.125809 480.775108,224.622514 C483.247437,224.709565 483.574349,222.642353 485.99969,222.683377 C486.787477,222.320164 486.573535,220.649184 486.341598,220.170904 C486.837463,219.259369 488.076127,219.100276 488.158104,217.773498 C486.07367,217.477324 484.083211,218.887151 481.9098,218.805103 C483.240439,218.635003 484.140195,217.099103 485.545814,216.857961 C487.239354,216.570793 489.071856,217.564375 490.656426,217.086095 C491.34324,216.885978 491.757128,216.34466 492.363963,216.178563 C493.335699,215.907404 494.306436,215.878387 494.976254,214.69069 C495.203192,214.191397 495.130212,213.122771 494.861285,212.748551 C494.191467,212.591459 493.267718,212.736544 492.701871,212.412354 C492.802844,211.863032 493.605626,212.023126 493.613624,211.383751 C493.423675,211.189637 492.946805,211.289696 492.588902,211.270685 C492.215003,210.312123 491.329244,209.862859 490.656426,209.21548 C489.836649,206.749033 489.736676,204.273582 487.020413,203.736267 C486.514551,204.681821 486.418577,205.905539 484.63806,206.018605 C483.160461,205.287176 483.836278,203.180941 482.934522,202.130325 C482.477646,201.608019 481.329958,201.445924 480.775108,200.990657 C480.503182,200.769527 480.51218,200.349281 480.093293,200.19419 C478.303779,200.328268 477.466007,199.482773 475.552526,200.076121 C475.098649,200.701487 475.325587,201.263817 475.780464,201.792127 C476.124371,204.604776 475.05966,205.693414 475.662496,207.95374 C474.932694,209.353561 472.672308,210.259092 473.844989,212.522419 C473.301137,212.809587 473.494085,214.067325 472.481359,214.003287 C471.091737,213.921239 471.183712,210.901468 470.78282,209.438611 C469.314219,208.672161 467.096821,206.636968 465.215332,206.127669 C464.662482,205.980583 463.108903,206.149682 463.852701,205.561337 C463.568779,205.573344 463.299852,205.575345 463.168887,205.445269 C462.990935,204.175524 462.008202,203.717256 461.013472,203.277998 C460.645572,202.20637 461.254407,201.171763 461.469348,200.308257 C462.695016,199.558817 463.035923,197.649698 465.44227,197.799786 C466.148078,197.361529 466.912871,196.993313 467.596685,196.543049 C467.569693,197.059352 467.789633,197.337515 467.940592,197.680716 C469.388199,198.518207 471.324673,197.638691 472.36939,197.913853 C472.568336,197.311499 473.817997,198.151992 473.734019,197.111382 C472.729292,196.371949 471.70557,195.663533 470.440913,195.744581 C470.190981,195.349349 470.026026,194.866066 469.757099,194.483841 C470.995763,194.356767 472.385386,193.724396 473.164174,193.231107 C472.805272,191.521104 474.35885,189.866134 472.481359,189.00763 C471.541615,188.834529 471.305679,189.254775 470.440913,189.00763 C469.476175,189.085676 469.27423,191.852298 468.166531,191.747237 C467.131811,191.646177 467.625677,190.164308 467.031839,189.349831 C466.549969,189.335823 466.587959,189.609983 466.007117,189.692032 C464.320574,188.958601 464.52052,186.31205 463.054918,185.351486 C463.035923,185.34148 463.023926,185.32347 463.007931,185.309462 C462.019199,185.8858 461.050462,186.482149 460.089723,187.098511 C460.583589,188.159133 461.801258,188.880556 461.469348,190.604567 C461.044464,190.671606 461.017471,191.143883 460.557596,191.1739 C460.145708,190.55854 459.429902,190.254361 458.968027,189.692032 C459.231956,189.31381 459.997748,189.486911 460.444626,189.573962 C460.619579,189.411867 460.5436,188.992621 460.557596,188.661427 C460.134711,188.296213 459.368918,188.066078 458.584131,188.080086 C458.291211,188.281204 457.992292,188.475318 457.700371,188.678437 C457.792346,189.158719 458.284213,189.234763 458.398182,189.692032 C457.518421,190.078258 457.477432,191.740233 456.127798,191.287967 C455.987836,190.908745 455.676921,190.629581 455.282028,190.410453 C446.474418,196.939281 438.95146,205.155099 433.183026,214.591632 C433.300994,214.782744 433.416962,214.966852 433.523933,215.147958 C433.375973,215.147958 433.416962,215.347075 433.294995,215.377093 C433.124042,215.302049 432.973083,215.234009 432.828122,215.169971 C432.527204,215.673266 432.230284,216.179563 431.940363,216.686861 C432.030339,217.004047 432.086323,217.31623 432.048334,217.660432 C431.985351,218.263785 431.502482,218.686033 431.365519,219.370434 C431.013615,221.126464 431.679434,222.984554 431.253549,224.961713 C431.856386,226.488608 432.683161,227.78837 433.294995,229.303259 C433.579918,229.482364 433.678891,229.768532 434.08978,229.530392 L434.08978,229.988661 L435.000532,229.988661 C436.422147,231.186363 437.105961,233.119497 437.613823,235.236738 C438.394611,235.538915 438.550569,236.389414 439.316361,237.177876 C438.906472,237.516075 439.397339,237.516075 439.316361,238.094414 C441.174857,238.815837 441.156862,241.415361 443.289283,241.85762 C443.581204,240.589877 442.957373,240.343733 442.724436,239.348149 C441.485772,238.140441 440.184126,236.030203 440.001175,234.209135 C440.442056,234.627381 441.069885,235.070641 441.585745,235.695007 C442.803415,238.886878 445.499683,240.589877 446.923296,243.571625 C446.928295,243.45956 447.125242,243.428542 447.157233,243.571625 C447.457152,245.543782 448.212946,247.687039 449.881494,247.683036 C449.78252,248.045249 450.059445,248.033242 450.109432,248.254371 C451.463064,248.273382 452.707726,249.71823 453.629476,250.19551 C454.31529,250.543714 455.144065,250.19551 455.90086,250.19551 C457.664381,250.183503 459.121985,250.358605 460.333657,251.449245 C460.243681,252.119638 461.052461,252.537883 461.469348,253.047182 C461.843247,252.849066 461.970212,253.107217 462.488072,253.047182 C463.505796,253.355362 463.632761,254.558068 464.193609,255.325518 C464.412549,255.6357 465.077369,255.990908 465.556239,256.473191 C466.759912,257.671894 468.432458,259.397906 470.321946,258.182193 C472.031482,259.339872 472.292411,260.546579 471.459637,262.181538 C471.368661,262.364645 469.929052,264.530916 469.534159,264.804076 C469.211247,265.023204 469.146265,264.740038 468.963314,265.03221 C468.691388,265.470466 469.09028,266.748216 468.963314,267.430616 C468.790361,268.338148 467.904602,268.805422 467.824623,269.485821 C467.701657,270.560451 468.548427,271.285877 468.963314,272.115363 C469.20025,272.585639 469.132268,273.144967 469.534159,273.369098 C469.919055,274.240609 469.830079,275.047082 470.212975,275.881571 C470.736833,277.011234 471.952503,277.764676 472.36939,278.844309 C472.840262,280.066025 472.781278,281.322762 473.844989,282.27432 C474.276872,282.368375 474.595786,282.582501 475.209619,282.501453 C477.105104,283.616107 476.405294,285.341118 476.002404,287.862597 C475.841447,288.905208 476.269331,290.304028 475.780464,290.374069 C475.841447,292.661411 475.098649,293.805081 473.734019,295.736214 C473.783006,297.205075 474.241882,297.868464 474.189896,299.503423 C473.310135,300.483998 472.960229,302.002888 472.139452,303.0465 C472.022484,304.385285 472.198436,305.422894 472.823267,306.01324 C472.641316,307.740253 472.362392,309.450255 471.575605,311.036185 C471.209705,311.123236 470.823809,311.193277 470.553883,311.380387 C470.430916,312.862256 471.180712,313.24348 470.553883,314.348127 C470.685847,315.240651 471.045749,315.903039 471.00576,316.974668 C471.489629,317.750122 473.156176,317.91722 473.051205,318.914805 C473.378116,319.117924 473.939964,319.084905 474.071928,319.483138 C474.162903,320.067481 473.69503,320.668834 473.734019,321.542346 C474.350852,321.976601 475.307592,321.746466 476.45828,322.224746 C476.93815,321.560356 477.497998,321.726454 478.277786,321.653411 C478.231799,320.710858 477.070114,320.067481 476.687218,319.254004 C476.556253,318.980844 476.60524,318.665659 476.45828,318.456536 C476.136367,317.994265 475.544528,318.021281 475.552526,317.429934 C475.552526,317.014691 476.631233,315.833999 477.028125,315.487796 C477.15909,315.369726 477.45201,315.473787 477.593972,315.37573 C478.308778,314.875437 478.700671,313.844832 479.18354,313.320525 C478.909615,312.985328 478.369761,312.915287 478.163817,312.519055 C478.784649,311.068204 480.241253,309.5263 481.115016,307.953378 C481.192995,307.456086 480.925068,307.313002 481.001047,306.816711 C481.346953,306.019243 482.68459,306.21736 483.276429,305.67304 C483.31142,305.285813 482.932523,304.73449 483.160461,304.531371 C484.997962,304.424308 487.681234,303.630843 488.72895,302.0219 C488.521006,301.218428 487.385314,300.796181 487.590259,299.961691 C489.2788,300.301891 490.031596,299.749567 491.905087,299.503423 C492.48393,298.718963 492.924811,297.791419 493.613624,297.109019 C494.306436,297.275116 494.40241,296.840861 494.861285,296.76982 C494.858286,295.734213 495.539101,295.399016 496.332886,295.168881 C496.940721,294.560524 496.849745,293.115677 496.561824,292.202141 C497.167659,291.368653 498.161389,290.917388 498.833207,290.148937 C500.779679,289.779721 502.304265,288.992259 504.289726,288.661065 C505.009531,286.688909 505.420419,284.399566 506.672079,282.95672 C506.727065,282.05219 506.846032,281.225705 506.785049,280.215112" id="Fill-63" fill="#47ADA1"></path>
                    <path d="M486.986922,178.296549 C487.009916,178.274537 487.049905,178.253524 487.075898,178.231511 C487.021913,178.24552 486.965928,178.259528 486.917941,178.271535 C486.935936,178.278539 486.961929,178.291547 486.986922,178.296549" id="Fill-65" fill="#47ADA1"></path>
                    <path d="M979.823857,467.548161 L52.0756657,467.548161 C50.6950404,467.548161 49.576344,466.428504 49.576344,465.046694 C49.576344,463.664884 50.6950404,462.545227 52.0756657,462.545227 L979.823857,462.545227 C981.204482,462.545227 982.323179,463.664884 982.323179,465.046694 C982.323179,466.428504 981.204482,467.548161 979.823857,467.548161" id="Fill-67" fill="#00A99D"></path>
                    <g id="Group-71" transform="translate(0.000000, 462.545227)">
                        <mask id="mask-2" fill="white">
                            <use xlink:href="#path-1"></use>
                        </mask>
                        <g id="Clip-70"></g>
                        <path d="M36.0507151,5.00293362 L2.49882177,5.00293362 C1.11919623,5.00293362 -0.000499864327,3.88327707 -0.000499864327,2.50146681 C-0.000499864327,1.11965654 1.11919623,0 2.49882177,0 L36.0507151,0 C37.4313404,0 38.5500368,1.11965654 38.5500368,2.50146681 C38.5500368,3.88327707 37.4313404,5.00293362 36.0507151,5.00293362" id="Fill-69" fill="#00A99D" mask="url(#mask-2)"></path>
                    </g>
                    <path d="M1029.94015,467.548161 L996.388261,467.548161 C995.008636,467.548161 993.888939,466.428504 993.888939,465.046694 C993.888939,463.664884 995.008636,462.545227 996.388261,462.545227 L1029.94015,462.545227 C1031.32078,462.545227 1032.43948,463.664884 1032.43948,465.046694 C1032.43948,466.428504 1031.32078,467.548161 1029.94015,467.548161" id="Fill-72" fill="#00A99D"></path>
                    <path d="M447.190124,172.68626 C447.003175,172.68626 446.815226,172.665247 446.626277,172.622222 C443.965999,172.006861 441.438685,171.608628 439.112316,171.437527 C437.73569,171.337469 436.701971,170.138766 436.801944,168.760958 C436.901916,167.38315 438.10559,166.34254 439.477217,166.448602 C442.058517,166.637713 444.841761,167.074969 447.750972,167.746363 C449.095607,168.058546 449.934379,169.401334 449.623464,170.748123 C449.356536,171.903801 448.327815,172.68626 447.190124,172.68626 M418.933793,180.862054 C418.580889,180.862054 418.219987,180.78701 417.87908,180.626916 C416.628419,180.042573 416.087566,178.5537 416.671407,177.301966 C417.586159,175.341817 418.794831,173.601797 420.263432,172.131935 C420.959244,171.435526 421.720037,170.79315 422.526818,170.220814 C423.651513,169.423346 425.214089,169.688502 426.010872,170.816163 C426.808656,171.943824 426.543728,173.50474 425.417034,174.303208 C424.83919,174.712448 424.295338,175.172718 423.798473,175.669009 C422.74176,176.726629 421.867997,177.987368 421.201178,179.419208 C420.776293,180.327741 419.875538,180.862054 418.933793,180.862054 M469.574049,181.176238 C469.198151,181.176238 468.816254,181.091188 468.456352,180.911083 C466.039008,179.700373 463.644658,178.584718 461.339284,177.595138 C460.071628,177.050819 459.483787,175.579957 460.02764,174.310212 C460.571492,173.040467 462.043093,172.455124 463.309749,172.997442 C465.705099,174.025045 468.188425,175.182724 470.694744,176.437459 C471.92841,177.055822 472.428274,178.557703 471.810442,179.793427 C471.37256,180.669941 470.4908,181.176238 469.574049,181.176238 M419.031767,204.404859 C417.934065,204.404859 416.928338,203.676432 416.62342,202.566781 C415.840633,199.723114 415.263789,196.982507 414.909885,194.419003 C414.720937,193.050201 415.676677,191.78746 417.043306,191.598349 C418.416934,191.413241 419.673593,192.364799 419.861541,193.733601 C420.185454,196.080978 420.718309,198.605458 421.442113,201.238002 C421.809013,202.569783 421.027225,203.947591 419.696586,204.313805 C419.474647,204.374841 419.251707,204.404859 419.031767,204.404859 M428.130297,226.581863 C427.229542,226.581863 426.360777,226.092576 425.913899,225.240076 C424.614252,222.75662 423.408579,220.297178 422.330871,217.93079 C421.758027,216.674053 422.311876,215.190183 423.567536,214.616847 C424.822195,214.043511 426.305792,214.598836 426.878637,215.855573 C427.919354,218.138912 429.084038,220.515306 430.341697,222.918715 C430.982523,224.142433 430.509651,225.654319 429.287983,226.295695 C428.918083,226.488808 428.521191,226.581863 428.130297,226.581863 M440.588916,247.09189 C439.794131,247.09189 439.011344,246.712667 438.527475,246.007254 C436.991892,243.769942 435.4903,241.49961 434.062687,239.259297 C433.320888,238.094614 433.663795,236.547707 434.827479,235.805271 C435.990164,235.062836 437.536744,235.404036 438.278543,236.56972 C439.674164,238.763006 441.144765,240.984308 442.647357,243.173592 C443.429145,244.31226 443.140223,245.869173 442.003532,246.651632 C441.570649,246.948806 441.077783,247.09189 440.588916,247.09189 M455.054989,266.247122 C454.334185,266.247122 453.620379,265.937941 453.125513,265.336588 C451.40598,263.248364 449.707441,261.130121 448.077883,259.039896 C447.229113,257.950257 447.423061,256.378335 448.510766,255.527836 C449.60147,254.68134 451.171043,254.874453 452.019813,255.962091 C453.621378,258.018297 455.291925,260.101518 456.982466,262.155723 C457.861228,263.220347 457.708269,264.797272 456.643558,265.675787 C456.178684,266.060012 455.615837,266.247122 455.054989,266.247122 M471.010659,284.179637 C470.353837,284.179637 469.697015,283.921486 469.206148,283.409185 C467.344654,281.465045 465.492156,279.483884 463.699643,277.520733 C462.767896,276.500134 462.838877,274.918206 463.8586,273.98666 C464.878323,273.053113 466.458894,273.126156 467.389641,274.145754 C469.156162,276.079888 470.980667,278.032032 472.815169,279.948156 C473.770909,280.945741 473.736919,282.528669 472.740189,283.484229 C472.255321,283.949502 471.63249,284.179637 471.010659,284.179637 M488.218988,300.91445 C487.62115,300.91445 487.022313,300.701325 486.543443,300.268071 C484.559981,298.472018 482.570521,296.627937 480.631047,294.784856 C479.630319,293.834298 479.58933,292.25137 480.540072,291.248782 C481.490814,290.246194 483.071385,290.20517 484.074113,291.157729 C485.983595,292.971793 487.943063,294.788858 489.896533,296.556895 C490.920255,297.484439 490.999233,299.065366 490.074484,300.090967 C489.579619,300.636287 488.901803,300.91445 488.218988,300.91445 M586.727251,301.427751 C585.770511,301.427751 584.856759,300.873426 584.442871,299.94188 C583.422148,297.645533 582.277459,295.260135 581.040794,292.854724 C580.409966,291.627004 580.892835,290.118119 582.120501,289.485749 C583.348168,288.855379 584.854759,289.337662 585.486588,290.566382 C586.765241,293.055842 587.950919,295.526291 589.009631,297.907687 C589.571479,299.170427 589.003633,300.648294 587.742975,301.210624 C587.413065,301.356709 587.067159,301.427751 586.727251,301.427751 M506.619994,316.322485 C506.088138,316.322485 505.551284,316.153386 505.097407,315.803181 C502.978982,314.169222 500.851559,312.481233 498.775123,310.786239 C497.704413,309.912727 497.545457,308.336802 498.41722,307.266175 C499.288983,306.194546 500.863556,306.036454 501.934265,306.908965 C503.975711,308.575943 506.066144,310.233915 508.147579,311.839857 C509.240282,312.683351 509.444227,314.253272 508.602456,315.347914 C508.110589,315.987289 507.36879,316.322485 506.619994,316.322485 M593.597386,324.340187 C592.341727,324.340187 591.260021,323.396633 591.117059,322.117883 C590.854131,319.780513 590.375261,317.253031 589.693446,314.604478 C589.348539,313.267694 590.153321,311.902894 591.489958,311.558692 C592.819597,311.216491 594.189226,312.017961 594.534132,313.355745 C595.273931,316.229431 595.79579,318.990049 596.084711,321.559556 C596.238669,322.932361 595.251937,324.170087 593.87931,324.324177 C593.785335,324.335184 593.690361,324.340187 593.597386,324.340187 M526.282657,330.07655 C525.82978,330.07655 525.370904,329.953478 524.959016,329.695327 C522.721623,328.294505 520.441242,326.807633 518.181855,325.277736 C517.038166,324.503282 516.737248,322.94837 517.511038,321.8047 C518.284828,320.659028 519.842405,320.360853 520.982095,321.133306 C523.193495,322.631184 525.42389,324.085037 527.610296,325.45484 C528.780979,326.18827 529.135882,327.732176 528.403081,328.902862 C527.92921,329.660306 527.114431,330.07655 526.282657,330.07655 M547.401925,341.443215 C547.065016,341.443215 546.724109,341.374175 546.395198,341.23009 C544.006846,340.176473 541.533517,338.997781 539.045193,337.727036 C537.815527,337.099668 537.327659,335.592785 537.955489,334.362063 C538.582318,333.131341 540.088909,332.644056 541.317576,333.271424 C543.721923,334.499144 546.108276,335.63581 548.410651,336.651406 C549.674308,337.207732 550.247152,338.684598 549.690303,339.949339 C549.278415,340.884888 548.361664,341.443215 547.401925,341.443215 M585.853488,345.617663 C585.004718,345.617663 584.175943,345.184409 583.70807,344.40195 C582.998263,343.216255 583.382159,341.680354 584.566837,340.969938 C585.475591,340.424618 586.307365,339.778239 587.037167,339.047811 C587.860943,338.222327 588.577749,337.269768 589.166589,336.214149 C589.838407,335.008442 591.363992,334.575188 592.566666,335.249584 C593.771339,335.922978 594.203222,337.446872 593.530404,338.65358 C592.717625,340.110434 591.721895,341.43421 590.571208,342.584885 C589.552484,343.605483 588.396798,344.505011 587.13614,345.261454 C586.734249,345.502596 586.291369,345.617663 585.853488,345.617663 M570.340699,348.172161 C570.256721,348.172161 570.171744,348.168159 570.085768,348.160154 C567.511466,347.899001 564.748216,347.400709 561.867998,346.678285 C560.529362,346.343089 559.715582,344.985292 560.051491,343.644506 C560.3864,342.304721 561.738033,341.484239 563.082669,341.82644 C565.72895,342.488829 568.255265,342.946097 570.589631,343.182235 C571.963258,343.322317 572.963987,344.549037 572.824025,345.922842 C572.69306,347.211598 571.607355,348.172161 570.340699,348.172161" id="Fill-74" fill="#00A99D"></path>
                    <path d="M411.100319,364.511142 C384.503538,364.511142 362.941391,342.930487 362.941391,316.309878 C362.941391,289.689268 384.503538,268.108613 411.100319,268.108613 C437.6981,268.108613 459.260248,289.689268 459.260248,316.309878 C459.260248,342.930487 437.6981,364.511142 411.100319,364.511142 M411.100319,249.171509 C374.052375,249.171509 344.019526,279.230135 344.019526,316.309878 C344.019526,353.389621 374.052375,383.449247 411.100319,383.449247 C448.149264,383.449247 478.182112,353.389621 478.182112,316.309878 C478.182112,279.230135 448.149264,249.171509 411.100319,249.171509" id="Fill-76" fill="#FFFFFF"></path>
                    <path d="M411.101319,364.511142 C384.503538,364.511142 362.941391,342.930487 362.941391,316.309878 C362.941391,289.689268 384.503538,268.108613 411.101319,268.108613 C437.6981,268.108613 459.260248,289.689268 459.260248,316.309878 C459.260248,342.930487 437.6981,364.511142 411.101319,364.511142 M411.101319,249.171509 C374.052375,249.171509 344.019526,279.231135 344.019526,316.309878 C344.019526,353.389621 374.052375,383.449247 411.101319,383.449247 C448.149264,383.449247 478.182112,353.389621 478.182112,316.309878 C478.182112,279.231135 448.149264,249.171509 411.101319,249.171509 M411.101319,369.514076 C440.411364,369.514076 464.258891,345.64608 464.258891,316.309878 C464.258891,286.973676 440.411364,263.10568 411.101319,263.10568 C381.789275,263.10568 357.942747,286.973676 357.942747,316.309878 C357.942747,345.64608 381.789275,369.514076 411.101319,369.514076 M411.101319,254.174443 C445.333028,254.174443 473.183469,282.047787 473.183469,316.309878 C473.183469,350.570968 445.333028,378.446313 411.101319,378.446313 C376.868611,378.446313 349.01817,350.570968 349.01817,316.309878 C349.01817,282.047787 376.868611,254.174443 411.101319,254.174443" id="Fill-78" fill="#0A3C4C"></path>
                    <path d="M350.586444,371.764495 C348.113115,371.764495 345.640786,372.708048 343.754298,374.596156 L298.204662,420.185888 C294.431686,423.962103 294.431686,430.085694 298.204662,433.862908 C300.091149,435.750015 302.564478,436.694569 305.036807,436.694569 C307.510136,436.694569 309.982465,435.750015 311.868953,433.862908 L357.41859,388.273176 C361.191566,384.496961 361.191566,378.37237 357.41859,374.596156 C355.532102,372.708048 353.059773,371.764495 350.586444,371.764495 M350.586444,376.767429 C351.832106,376.767429 353.003788,377.252713 353.884549,378.13423 C355.702056,379.954297 355.702056,382.916034 353.884549,384.736101 L308.334912,430.323833 C307.453151,431.20535 306.283469,431.691635 305.036807,431.691635 C303.790146,431.691635 302.620463,431.20535 301.739702,430.323833 C299.920196,428.504767 299.920196,425.54303 301.738702,423.722963 L347.288339,378.13423 C348.1691,377.252713 349.340782,376.767429 350.586444,376.767429" id="Fill-80" fill="#0A3C4C"></path>
                    <path d="M357.41859,377.097622 C356.778763,377.097622 356.139937,376.853479 355.651069,376.365193 C354.675334,375.38762 354.675334,373.803691 355.651069,372.827118 L365.277457,363.193469 C366.254192,362.216897 367.835762,362.216897 368.811497,363.193469 C369.788232,364.171043 369.788232,365.754971 368.811497,366.731544 L359.18611,376.365193 C358.697243,376.853479 358.058416,377.097622 357.41859,377.097622" id="Fill-82" fill="#0A3C4C"></path>
                    <path d="M421.428616,331.448855 C420.78879,331.448855 420.149963,331.204712 419.661096,330.716425 L396.706326,307.741954 C395.730591,306.76438 395.730591,305.181452 396.706326,304.203879 C397.683061,303.227306 399.264632,303.227306 400.241367,304.203879 L423.196136,327.178351 C424.171872,328.155924 424.171872,329.738852 423.196136,330.716425 C422.707269,331.204712 422.068443,331.448855 421.428616,331.448855" id="Fill-84" fill="#DA1E28"></path>
                    <path d="M398.473847,331.448855 C397.83402,331.448855 397.195194,331.204712 396.706326,330.716425 C395.730591,329.738852 395.730591,328.155924 396.706326,327.178351 L419.661096,304.203879 C420.637831,303.227306 422.219402,303.227306 423.196136,304.203879 C424.171872,305.181452 424.171872,306.76438 423.196136,307.741954 L400.241367,330.716425 C399.752499,331.204712 399.113673,331.448855 398.473847,331.448855" id="Fill-86" fill="#DA1E28"></path>
                </g>
            </g>
        </g>
    </g>
</svg>