<?xml version="1.0" encoding="UTF-8"?>
<svg width="1033px" height="468px" viewBox="0 0 1033 468" version="1.1" xmlns="http://www.w3.org/2000/svg" xmlns:xlink="http://www.w3.org/1999/xlink">
    <title>Spots/States/404@1.5x</title>
    <defs>
        <polygon id="path-1" points="0 0 38.5605 0 38.5605 5 0 5"></polygon>
        <polygon id="path-3" points="0 467.274 1032.72 467.274 1032.72 0 0 0"></polygon>
    </defs>
    <g id="Error-pages" stroke="none" stroke-width="1" fill="none" fill-rule="evenodd">
        <g id="500" transform="translate(-204.000000, -216.000000)">
            <g id="500" transform="translate(204.000000, 216.000000)">
                <path d="M52.2284,464.774 C52.2284,464.649 52.2284,464.524 52.2284,464.4 C52.2284,207.919 260.1474,0 516.6284,0 C773.1104,0 981.0294,207.919 981.0294,464.4 C981.0294,464.524 981.0294,464.649 981.0294,464.774 L52.2284,464.774 Z" id="Fill-1" fill="#FFFFFF"></path>
                <path d="M103.2627,76.3238 L200.6387,76.3238 C205.0777,76.3238 208.6767,72.7248 208.6767,68.2858 C208.6767,63.8458 205.0777,60.2468 200.6387,60.2468 L103.2627,60.2468 C98.8237,60.2468 95.2247,63.8458 95.2247,68.2858 C95.2247,72.7248 98.8237,76.3238 103.2627,76.3238" id="Fill-3" fill="#FFFFFF"></path>
                <path d="M69.417,92.4 L166.793,92.4 C171.232,92.4 174.831,88.801 174.831,84.362 C174.831,79.922 171.232,76.324 166.793,76.324 L69.417,76.324 C64.978,76.324 61.379,79.922 61.379,84.362 C61.379,88.801 64.978,92.4 69.417,92.4" id="Fill-5" fill="#FFFFFF"></path>
                <path d="M118.8291,108.4771 L182.3581,108.4771 C186.7981,108.4771 190.3971,104.8781 190.3971,100.4391 C190.3971,95.9991 186.7981,92.4001 182.3581,92.4001 L118.8291,92.4001 C114.3901,92.4001 110.7911,95.9991 110.7911,100.4391 C110.7911,104.8781 114.3901,108.4771 118.8291,108.4771" id="Fill-7" fill="#FFFFFF"></path>
                <path d="M858.4453,85.8736 L953.4333,85.8736 C957.8733,85.8736 961.4713,82.2746 961.4713,77.8356 C961.4713,73.3956 957.8733,69.7976 953.4333,69.7976 L858.4453,69.7976 C854.0063,69.7976 850.4063,73.3956 850.4063,77.8356 C850.4063,82.2746 854.0063,85.8736 858.4453,85.8736" id="Fill-9" fill="#FFFFFF"></path>
                <path d="M842.9932,101.9508 L920.3002,101.9508 C924.7392,101.9508 928.3382,98.3518 928.3382,93.9128 C928.3382,89.4728 924.7392,85.8738 920.3002,85.8738 L842.9932,85.8738 C838.5542,85.8738 834.9552,89.4728 834.9552,93.9128 C834.9552,98.3518 838.5542,101.9508 842.9932,101.9508" id="Fill-11" fill="#FFFFFF"></path>
                <path d="M902.4482,389.3121 L1019.2322,389.3121 C1023.6722,389.3121 1027.2712,385.7131 1027.2712,381.2741 C1027.2712,376.8341 1023.6722,373.2351 1019.2322,373.2351 L902.4482,373.2351 C898.0092,373.2351 894.4092,376.8341 894.4092,381.2741 C894.4092,385.7131 898.0092,389.3121 902.4482,389.3121" id="Fill-13" fill="#FFFFFF"></path>
                <path d="M862.8115,405.3883 L979.5965,405.3883 C984.0365,405.3883 987.6345,401.7893 987.6345,397.3503 C987.6345,392.9103 984.0365,389.3123 979.5965,389.3123 L862.8115,389.3123 C858.3725,389.3123 854.7735,392.9103 854.7735,397.3503 C854.7735,401.7893 858.3725,405.3883 862.8115,405.3883" id="Fill-15" fill="#FFFFFF"></path>
                <path d="M27.3184,307.2857 L126.9894,307.2857 C131.4284,307.2857 135.0274,303.6857 135.0274,299.2467 C135.0274,294.8067 131.4284,291.2087 126.9894,291.2087 L27.3184,291.2087 C22.8794,291.2087 19.2804,294.8067 19.2804,299.2467 C19.2804,303.6857 22.8794,307.2857 27.3184,307.2857" id="Fill-17" fill="#FFFFFF"></path>
                <path d="M67.9268,323.3619 L167.5978,323.3619 C172.0368,323.3619 175.6358,319.7629 175.6358,315.3239 C175.6358,310.8839 172.0368,307.2859 167.5978,307.2859 L67.9268,307.2859 C63.4878,307.2859 59.8888,310.8839 59.8888,315.3239 C59.8888,319.7629 63.4878,323.3619 67.9268,323.3619" id="Fill-19" fill="#FFFFFF"></path>
                <path d="M980.6289,467.274 L52.6289,467.274 C51.2479,467.274 50.1289,466.155 50.1289,464.774 C50.1289,463.393 51.2479,462.274 52.6289,462.274 L980.6289,462.274 C982.0099,462.274 983.1289,463.393 983.1289,464.774 C983.1289,466.155 982.0099,467.274 980.6289,467.274" id="Fill-21" fill="#00A99D"></path>
                <path d="M1030.2197,467.274 L996.6587,467.274 C995.2787,467.274 994.1587,466.155 994.1587,464.774 C994.1587,463.393 995.2787,462.274 996.6587,462.274 L1030.2197,462.274 C1031.6007,462.274 1032.7197,463.393 1032.7197,464.774 C1032.7197,466.155 1031.6007,467.274 1030.2197,467.274" id="Fill-23" fill="#00A99D"></path>
                <g id="Group-27" transform="translate(0.000000, 462.274000)">
                    <mask id="mask-2" fill="white">
                        <use xlink:href="#path-1"></use>
                    </mask>
                    <g id="Clip-26"></g>
                    <path d="M36.0605,5 L2.4995,5 C1.1195,5 -0.0005,3.881 -0.0005,2.5 C-0.0005,1.119 1.1195,0 2.4995,0 L36.0605,0 C37.4415,0 38.5605,1.119 38.5605,2.5 C38.5605,3.881 37.4415,5 36.0605,5" id="Fill-25" fill="#00A99D" mask="url(#mask-2)"></path>
                </g>
                <path d="M377.7168,107.7594 L369.7168,107.7594 C368.3358,107.7594 367.2168,106.6404 367.2168,105.2594 C367.2168,103.8784 368.3358,102.7594 369.7168,102.7594 L377.7168,102.7594 C379.0978,102.7594 380.2168,103.8784 380.2168,105.2594 C380.2168,106.6404 379.0978,107.7594 377.7168,107.7594 M401.7168,107.7594 L393.7168,107.7594 C392.3358,107.7594 391.2168,106.6404 391.2168,105.2594 C391.2168,103.8784 392.3358,102.7594 393.7168,102.7594 L401.7168,102.7594 C403.0978,102.7594 404.2168,103.8784 404.2168,105.2594 C404.2168,106.6404 403.0978,107.7594 401.7168,107.7594 M425.7168,107.7594 L417.7168,107.7594 C416.3358,107.7594 415.2168,106.6404 415.2168,105.2594 C415.2168,103.8784 416.3358,102.7594 417.7168,102.7594 L425.7168,102.7594 C427.0978,102.7594 428.2168,103.8784 428.2168,105.2594 C428.2168,106.6404 427.0978,107.7594 425.7168,107.7594 M449.7168,107.7594 L441.7168,107.7594 C440.3358,107.7594 439.2168,106.6404 439.2168,105.2594 C439.2168,103.8784 440.3358,102.7594 441.7168,102.7594 L449.7168,102.7594 C451.0978,102.7594 452.2168,103.8784 452.2168,105.2594 C452.2168,106.6404 451.0978,107.7594 449.7168,107.7594 M473.7168,107.7594 L465.7168,107.7594 C464.3358,107.7594 463.2168,106.6404 463.2168,105.2594 C463.2168,103.8784 464.3358,102.7594 465.7168,102.7594 L473.7168,102.7594 C475.0978,102.7594 476.2168,103.8784 476.2168,105.2594 C476.2168,106.6404 475.0978,107.7594 473.7168,107.7594 M497.7168,107.7594 L489.7168,107.7594 C488.3358,107.7594 487.2168,106.6404 487.2168,105.2594 C487.2168,103.8784 488.3358,102.7594 489.7168,102.7594 L497.7168,102.7594 C499.0978,102.7594 500.2168,103.8784 500.2168,105.2594 C500.2168,106.6404 499.0978,107.7594 497.7168,107.7594 M521.7168,107.7594 L513.7168,107.7594 C512.3358,107.7594 511.2168,106.6404 511.2168,105.2594 C511.2168,103.8784 512.3358,102.7594 513.7168,102.7594 L521.7168,102.7594 C523.0978,102.7594 524.2168,103.8784 524.2168,105.2594 C524.2168,106.6404 523.0978,107.7594 521.7168,107.7594 M545.7168,107.7594 L537.7168,107.7594 C536.3358,107.7594 535.2168,106.6404 535.2168,105.2594 C535.2168,103.8784 536.3358,102.7594 537.7168,102.7594 L545.7168,102.7594 C547.0978,102.7594 548.2168,103.8784 548.2168,105.2594 C548.2168,106.6404 547.0978,107.7594 545.7168,107.7594 M569.7168,107.7594 L561.7168,107.7594 C560.3358,107.7594 559.2168,106.6404 559.2168,105.2594 C559.2168,103.8784 560.3358,102.7594 561.7168,102.7594 L569.7168,102.7594 C571.0978,102.7594 572.2168,103.8784 572.2168,105.2594 C572.2168,106.6404 571.0978,107.7594 569.7168,107.7594 M593.7168,107.7594 L585.7168,107.7594 C584.3358,107.7594 583.2168,106.6404 583.2168,105.2594 C583.2168,103.8784 584.3358,102.7594 585.7168,102.7594 L593.7168,102.7594 C595.0978,102.7594 596.2168,103.8784 596.2168,105.2594 C596.2168,106.6404 595.0978,107.7594 593.7168,107.7594 M617.7168,107.7594 L609.7168,107.7594 C608.3358,107.7594 607.2168,106.6404 607.2168,105.2594 C607.2168,103.8784 608.3358,102.7594 609.7168,102.7594 L617.7168,102.7594 C619.0978,102.7594 620.2168,103.8784 620.2168,105.2594 C620.2168,106.6404 619.0978,107.7594 617.7168,107.7594 M641.7168,107.7594 L633.7168,107.7594 C632.3358,107.7594 631.2168,106.6404 631.2168,105.2594 C631.2168,103.8784 632.3358,102.7594 633.7168,102.7594 L641.7168,102.7594 C643.0978,102.7594 644.2168,103.8784 644.2168,105.2594 C644.2168,106.6404 643.0978,107.7594 641.7168,107.7594 M651.7828,121.6934 C650.4028,121.6934 649.2828,120.5734 649.2828,119.1934 L649.2828,111.1934 C649.2828,109.8124 650.4028,108.6934 651.7828,108.6934 C653.1638,108.6934 654.2828,109.8124 654.2828,111.1934 L654.2828,119.1934 C654.2828,120.5734 653.1638,121.6934 651.7828,121.6934 M363.2048,125.2474 C361.8238,125.2474 360.7048,124.1284 360.7048,122.7474 L360.7048,114.7474 C360.7048,113.3664 361.8238,112.2474 363.2048,112.2474 C364.5858,112.2474 365.7048,113.3664 365.7048,114.7474 L365.7048,122.7474 C365.7048,124.1284 364.5858,125.2474 363.2048,125.2474 M651.7828,145.6934 C650.4028,145.6934 649.2828,144.5734 649.2828,143.1934 L649.2828,135.1934 C649.2828,133.8124 650.4028,132.6934 651.7828,132.6934 C653.1638,132.6934 654.2828,133.8124 654.2828,135.1934 L654.2828,143.1934 C654.2828,144.5734 653.1638,145.6934 651.7828,145.6934 M363.2048,149.2474 C361.8238,149.2474 360.7048,148.1284 360.7048,146.7474 L360.7048,138.7474 C360.7048,137.3664 361.8238,136.2474 363.2048,136.2474 C364.5858,136.2474 365.7048,137.3664 365.7048,138.7474 L365.7048,146.7474 C365.7048,148.1284 364.5858,149.2474 363.2048,149.2474 M363.2048,173.2474 C361.8238,173.2474 360.7048,172.1284 360.7048,170.7474 L360.7048,162.7474 C360.7048,161.3664 361.8238,160.2474 363.2048,160.2474 C364.5858,160.2474 365.7048,161.3664 365.7048,162.7474 L365.7048,170.7474 C365.7048,172.1284 364.5858,173.2474 363.2048,173.2474 M363.2048,197.2474 C361.8238,197.2474 360.7048,196.1284 360.7048,194.7474 L360.7048,186.7474 C360.7048,185.3664 361.8238,184.2474 363.2048,184.2474 C364.5858,184.2474 365.7048,185.3664 365.7048,186.7474 L365.7048,194.7474 C365.7048,196.1284 364.5858,197.2474 363.2048,197.2474 M363.2048,221.2474 C361.8238,221.2474 360.7048,220.1284 360.7048,218.7474 L360.7048,210.7474 C360.7048,209.3664 361.8238,208.2474 363.2048,208.2474 C364.5858,208.2474 365.7048,209.3664 365.7048,210.7474 L365.7048,218.7474 C365.7048,220.1284 364.5858,221.2474 363.2048,221.2474" id="Fill-28" fill="#00A99D"></path>
                <mask id="mask-4" fill="white">
                    <use xlink:href="#path-3"></use>
                </mask>
                <g id="Clip-31"></g>
                <polygon id="Fill-30" fill="#01776B" mask="url(#mask-4)" points="641.469 150.475 732.563 150.475 732.563 142.78 641.469 142.78"></polygon>
                <polygon id="Fill-32" fill="#01776B" mask="url(#mask-4)" points="644.61 462.243 735.704 462.243 735.704 454.549 644.61 454.549"></polygon>
                <path d="M701.4199,149.9869 C701.4199,146.0089 698.1909,142.7799 694.2129,142.7799 L528.4549,142.7799 C524.4779,142.7799 521.2489,146.0089 521.2489,149.9869 L521.2489,455.0379 C521.2489,459.0149 524.4779,462.2439 528.4549,462.2439 L694.2129,462.2439 C698.1909,462.2439 701.4199,459.0149 701.4199,455.0379 L701.4199,149.9869 Z" id="Fill-33" fill="#ABD8D3" mask="url(#mask-4)"></path>
                <path d="M747.0508,148.6773 C747.0508,145.4223 744.4088,142.7803 741.1548,142.7803 L707.3158,142.7803 C704.0608,142.7803 701.4188,145.4223 701.4188,148.6773 L701.4188,456.3473 C701.4188,459.6013 704.0608,462.2433 707.3158,462.2433 L741.1548,462.2433 C744.4088,462.2433 747.0508,459.6013 747.0508,456.3473 L747.0508,148.6773 Z" id="Fill-34" fill="#47ADA1" mask="url(#mask-4)"></path>
                <path d="M687.0234,164.731 C687.0234,163.138 685.7314,161.845 684.1384,161.845 L538.5304,161.845 C536.9374,161.845 535.6454,163.138 535.6454,164.731 L535.6454,187.809 C535.6454,189.401 536.9374,190.694 538.5304,190.694 L684.1384,190.694 C685.7314,190.694 687.0234,189.401 687.0234,187.809 L687.0234,164.731 Z" id="Fill-35" fill="#00A99D" mask="url(#mask-4)"></path>
                <path d="M681.3975,169.5836 C681.3975,168.0026 680.1135,166.7186 678.5325,166.7186 L602.2135,166.7186 C600.6315,166.7186 599.3485,168.0026 599.3485,169.5836 L599.3485,182.9556 C599.3485,184.5376 600.6315,185.8206 602.2135,185.8206 L678.5325,185.8206 C680.1135,185.8206 681.3975,184.5376 681.3975,182.9556 L681.3975,169.5836 Z" id="Fill-36" fill="#F2F2F2" mask="url(#mask-4)"></path>
                <path d="M577.2139,169.9176 C577.2139,169.3056 576.7169,168.8096 576.1049,168.8096 L570.9309,168.8096 C570.3179,168.8096 569.8209,169.3056 569.8209,169.9176 L569.8209,182.6226 C569.8209,183.2346 570.3179,183.7306 570.9309,183.7306 L576.1049,183.7306 C576.7169,183.7306 577.2139,183.2346 577.2139,182.6226 L577.2139,169.9176 Z" id="Fill-37" fill="#ABD8D3" mask="url(#mask-4)"></path>
                <path d="M591.4902,169.9176 C591.4902,169.3056 590.9932,168.8096 590.3812,168.8096 L585.2062,168.8096 C584.5942,168.8096 584.0972,169.3056 584.0972,169.9176 L584.0972,182.6226 C584.0972,183.2346 584.5942,183.7306 585.2062,183.7306 L590.3812,183.7306 C590.9932,183.7306 591.4902,183.2346 591.4902,182.6226 L591.4902,169.9176 Z" id="Fill-38" fill="#00FFFF" mask="url(#mask-4)"></path>
                <path d="M562.9385,169.9176 C562.9385,169.3056 562.4415,168.8096 561.8295,168.8096 L556.6555,168.8096 C556.0425,168.8096 555.5455,169.3056 555.5455,169.9176 L555.5455,182.6226 C555.5455,183.2346 556.0425,183.7306 556.6555,183.7306 L561.8295,183.7306 C562.4415,183.7306 562.9385,183.2346 562.9385,182.6226 L562.9385,169.9176 Z" id="Fill-39" fill="#00FFFF" mask="url(#mask-4)"></path>
                <path d="M548.6621,169.9176 C548.6621,169.3056 548.1651,168.8096 547.5541,168.8096 L542.3791,168.8096 C541.7661,168.8096 541.2701,169.3056 541.2701,169.9176 L541.2701,182.6226 C541.2701,183.2346 541.7661,183.7306 542.3791,183.7306 L547.5541,183.7306 C548.1651,183.7306 548.6621,183.2346 548.6621,182.6226 L548.6621,169.9176 Z" id="Fill-40" fill="#ABD8D3" mask="url(#mask-4)"></path>
                <path d="M687.0234,207.2086 C687.0234,205.6166 685.7314,204.3236 684.1384,204.3236 L538.5304,204.3236 C536.9374,204.3236 535.6454,205.6166 535.6454,207.2086 L535.6454,230.2866 C535.6454,231.8796 536.9374,233.1726 538.5304,233.1726 L684.1384,233.1726 C685.7314,233.1726 687.0234,231.8796 687.0234,230.2866 L687.0234,207.2086 Z" id="Fill-41" fill="#00A99D" mask="url(#mask-4)"></path>
                <path d="M681.3975,212.0611 C681.3975,210.4801 680.1135,209.1961 678.5325,209.1961 L602.2135,209.1961 C600.6315,209.1961 599.3485,210.4801 599.3485,212.0611 L599.3485,225.4331 C599.3485,227.0151 600.6315,228.2991 602.2135,228.2991 L678.5325,228.2991 C680.1135,228.2991 681.3975,227.0151 681.3975,225.4331 L681.3975,212.0611 Z" id="Fill-42" fill="#F2F2F2" mask="url(#mask-4)"></path>
                <path d="M577.2139,212.3951 C577.2139,211.7831 576.7169,211.2871 576.1049,211.2871 L570.9309,211.2871 C570.3179,211.2871 569.8209,211.7831 569.8209,212.3951 L569.8209,225.1001 C569.8209,225.7121 570.3179,226.2091 570.9309,226.2091 L576.1049,226.2091 C576.7169,226.2091 577.2139,225.7121 577.2139,225.1001 L577.2139,212.3951 Z" id="Fill-43" fill="#ABD8D3" mask="url(#mask-4)"></path>
                <path d="M591.4902,212.3951 C591.4902,211.7831 590.9932,211.2871 590.3812,211.2871 L585.2062,211.2871 C584.5942,211.2871 584.0972,211.7831 584.0972,212.3951 L584.0972,225.1001 C584.0972,225.7121 584.5942,226.2091 585.2062,226.2091 L590.3812,226.2091 C590.9932,226.2091 591.4902,225.7121 591.4902,225.1001 L591.4902,212.3951 Z" id="Fill-44" fill="#00FFFF" mask="url(#mask-4)"></path>
                <path d="M562.9385,212.3951 C562.9385,211.7831 562.4415,211.2871 561.8295,211.2871 L556.6555,211.2871 C556.0425,211.2871 555.5455,211.7831 555.5455,212.3951 L555.5455,225.1001 C555.5455,225.7121 556.0425,226.2091 556.6555,226.2091 L561.8295,226.2091 C562.4415,226.2091 562.9385,225.7121 562.9385,225.1001 L562.9385,212.3951 Z" id="Fill-45" fill="#00FFFF" mask="url(#mask-4)"></path>
                <path d="M548.6621,212.3951 C548.6621,211.7831 548.1651,211.2871 547.5541,211.2871 L542.3791,211.2871 C541.7661,211.2871 541.2701,211.7831 541.2701,212.3951 L541.2701,225.1001 C541.2701,225.7121 541.7661,226.2091 542.3791,226.2091 L547.5541,226.2091 C548.1651,226.2091 548.6621,225.7121 548.6621,225.1001 L548.6621,212.3951 Z" id="Fill-46" fill="#ABD8D3" mask="url(#mask-4)"></path>
                <path d="M687.0234,249.6861 C687.0234,248.0941 685.7314,246.8011 684.1384,246.8011 L538.5304,246.8011 C536.9374,246.8011 535.6454,248.0941 535.6454,249.6861 L535.6454,272.7651 C535.6454,274.3571 536.9374,275.6501 538.5304,275.6501 L684.1384,275.6501 C685.7314,275.6501 687.0234,274.3571 687.0234,272.7651 L687.0234,249.6861 Z" id="Fill-47" fill="#00A99D" mask="url(#mask-4)"></path>
                <path d="M681.3975,254.5396 C681.3975,252.9576 680.1135,251.6736 678.5325,251.6736 L602.2135,251.6736 C600.6315,251.6736 599.3485,252.9576 599.3485,254.5396 L599.3485,267.9116 C599.3485,269.4926 600.6315,270.7766 602.2135,270.7766 L678.5325,270.7766 C680.1135,270.7766 681.3975,269.4926 681.3975,267.9116 L681.3975,254.5396 Z" id="Fill-48" fill="#F2F2F2" mask="url(#mask-4)"></path>
                <path d="M577.2139,254.8736 C577.2139,254.2616 576.7169,253.7646 576.1049,253.7646 L570.9309,253.7646 C570.3179,253.7646 569.8209,254.2616 569.8209,254.8736 L569.8209,267.5776 C569.8209,268.1896 570.3179,268.6866 570.9309,268.6866 L576.1049,268.6866 C576.7169,268.6866 577.2139,268.1896 577.2139,267.5776 L577.2139,254.8736 Z" id="Fill-49" fill="#ABD8D3" mask="url(#mask-4)"></path>
                <path d="M591.4902,254.8736 C591.4902,254.2616 590.9932,253.7646 590.3812,253.7646 L585.2062,253.7646 C584.5942,253.7646 584.0972,254.2616 584.0972,254.8736 L584.0972,267.5776 C584.0972,268.1896 584.5942,268.6866 585.2062,268.6866 L590.3812,268.6866 C590.9932,268.6866 591.4902,268.1896 591.4902,267.5776 L591.4902,254.8736 Z" id="Fill-50" fill="#00FFFF" mask="url(#mask-4)"></path>
                <path d="M562.9385,254.8736 C562.9385,254.2616 562.4415,253.7646 561.8295,253.7646 L556.6555,253.7646 C556.0425,253.7646 555.5455,254.2616 555.5455,254.8736 L555.5455,267.5776 C555.5455,268.1896 556.0425,268.6866 556.6555,268.6866 L561.8295,268.6866 C562.4415,268.6866 562.9385,268.1896 562.9385,267.5776 L562.9385,254.8736 Z" id="Fill-51" fill="#00FFFF" mask="url(#mask-4)"></path>
                <path d="M548.6621,254.8736 C548.6621,254.2616 548.1651,253.7646 547.5541,253.7646 L542.3791,253.7646 C541.7661,253.7646 541.2701,254.2616 541.2701,254.8736 L541.2701,267.5776 C541.2701,268.1896 541.7661,268.6866 542.3791,268.6866 L547.5541,268.6866 C548.1651,268.6866 548.6621,268.1896 548.6621,267.5776 L548.6621,254.8736 Z" id="Fill-52" fill="#ABD8D3" mask="url(#mask-4)"></path>
                <path d="M687.0234,292.1646 C687.0234,290.5716 685.7314,289.2786 684.1384,289.2786 L538.5304,289.2786 C536.9374,289.2786 535.6454,290.5716 535.6454,292.1646 L535.6454,315.2426 C535.6454,316.8346 536.9374,318.1276 538.5304,318.1276 L684.1384,318.1276 C685.7314,318.1276 687.0234,316.8346 687.0234,315.2426 L687.0234,292.1646 Z" id="Fill-53" fill="#00A99D" mask="url(#mask-4)"></path>
                <path d="M681.3975,297.0172 C681.3975,295.4362 680.1135,294.1522 678.5325,294.1522 L602.2135,294.1522 C600.6315,294.1522 599.3485,295.4362 599.3485,297.0172 L599.3485,310.3892 C599.3485,311.9702 600.6315,313.2542 602.2135,313.2542 L678.5325,313.2542 C680.1135,313.2542 681.3975,311.9702 681.3975,310.3892 L681.3975,297.0172 Z" id="Fill-54" fill="#F2F2F2" mask="url(#mask-4)"></path>
                <path d="M577.2139,297.3511 C577.2139,296.7391 576.7169,296.2421 576.1049,296.2421 L570.9309,296.2421 C570.3179,296.2421 569.8209,296.7391 569.8209,297.3511 L569.8209,310.0561 C569.8209,310.6681 570.3179,311.1641 570.9309,311.1641 L576.1049,311.1641 C576.7169,311.1641 577.2139,310.6681 577.2139,310.0561 L577.2139,297.3511 Z" id="Fill-55" fill="#ABD8D3" mask="url(#mask-4)"></path>
                <path d="M591.4902,297.3511 C591.4902,296.7391 590.9932,296.2421 590.3812,296.2421 L585.2062,296.2421 C584.5942,296.2421 584.0972,296.7391 584.0972,297.3511 L584.0972,310.0561 C584.0972,310.6681 584.5942,311.1641 585.2062,311.1641 L590.3812,311.1641 C590.9932,311.1641 591.4902,310.6681 591.4902,310.0561 L591.4902,297.3511 Z" id="Fill-56" fill="#00FFFF" mask="url(#mask-4)"></path>
                <path d="M562.9385,297.3511 C562.9385,296.7391 562.4415,296.2421 561.8295,296.2421 L556.6555,296.2421 C556.0425,296.2421 555.5455,296.7391 555.5455,297.3511 L555.5455,310.0561 C555.5455,310.6681 556.0425,311.1641 556.6555,311.1641 L561.8295,311.1641 C562.4415,311.1641 562.9385,310.6681 562.9385,310.0561 L562.9385,297.3511 Z" id="Fill-57" fill="#00FFFF" mask="url(#mask-4)"></path>
                <path d="M548.6621,297.3511 C548.6621,296.7391 548.1651,296.2421 547.5541,296.2421 L542.3791,296.2421 C541.7661,296.2421 541.2701,296.7391 541.2701,297.3511 L541.2701,310.0561 C541.2701,310.6681 541.7661,311.1641 542.3791,311.1641 L547.5541,311.1641 C548.1651,311.1641 548.6621,310.6681 548.6621,310.0561 L548.6621,297.3511 Z" id="Fill-58" fill="#ABD8D3" mask="url(#mask-4)"></path>
                <path d="M687.0234,334.6422 C687.0234,333.0502 685.7314,331.7572 684.1384,331.7572 L538.5304,331.7572 C536.9374,331.7572 535.6454,333.0502 535.6454,334.6422 L535.6454,357.7202 C535.6454,359.3132 536.9374,360.6062 538.5304,360.6062 L684.1384,360.6062 C685.7314,360.6062 687.0234,359.3132 687.0234,357.7202 L687.0234,334.6422 Z" id="Fill-59" fill="#00A99D" mask="url(#mask-4)"></path>
                <path d="M681.3975,339.4947 C681.3975,337.9137 680.1135,336.6297 678.5325,336.6297 L602.2135,336.6297 C600.6315,336.6297 599.3485,337.9137 599.3485,339.4947 L599.3485,352.8667 C599.3485,354.4487 600.6315,355.7327 602.2135,355.7327 L678.5325,355.7327 C680.1135,355.7327 681.3975,354.4487 681.3975,352.8667 L681.3975,339.4947 Z" id="Fill-60" fill="#F2F2F2" mask="url(#mask-4)"></path>
                <path d="M577.2139,339.8287 C577.2139,339.2167 576.7169,338.7207 576.1049,338.7207 L570.9309,338.7207 C570.3179,338.7207 569.8209,339.2167 569.8209,339.8287 L569.8209,352.5337 C569.8209,353.1457 570.3179,353.6417 570.9309,353.6417 L576.1049,353.6417 C576.7169,353.6417 577.2139,353.1457 577.2139,352.5337 L577.2139,339.8287 Z" id="Fill-61" fill="#ABD8D3" mask="url(#mask-4)"></path>
                <path d="M591.4902,339.8287 C591.4902,339.2167 590.9932,338.7207 590.3812,338.7207 L585.2062,338.7207 C584.5942,338.7207 584.0972,339.2167 584.0972,339.8287 L584.0972,352.5337 C584.0972,353.1457 584.5942,353.6417 585.2062,353.6417 L590.3812,353.6417 C590.9932,353.6417 591.4902,353.1457 591.4902,352.5337 L591.4902,339.8287 Z" id="Fill-62" fill="#00FFFF" mask="url(#mask-4)"></path>
                <path d="M562.9385,339.8287 C562.9385,339.2167 562.4415,338.7207 561.8295,338.7207 L556.6555,338.7207 C556.0425,338.7207 555.5455,339.2167 555.5455,339.8287 L555.5455,352.5337 C555.5455,353.1457 556.0425,353.6417 556.6555,353.6417 L561.8295,353.6417 C562.4415,353.6417 562.9385,353.1457 562.9385,352.5337 L562.9385,339.8287 Z" id="Fill-63" fill="#00FFFF" mask="url(#mask-4)"></path>
                <path d="M548.6621,339.8287 C548.6621,339.2167 548.1651,338.7207 547.5541,338.7207 L542.3791,338.7207 C541.7661,338.7207 541.2701,339.2167 541.2701,339.8287 L541.2701,352.5337 C541.2701,353.1457 541.7661,353.6417 542.3791,353.6417 L547.5541,353.6417 C548.1651,353.6417 548.6621,353.1457 548.6621,352.5337 L548.6621,339.8287 Z" id="Fill-64" fill="#ABD8D3" mask="url(#mask-4)"></path>
                <path d="M687.0234,377.1197 C687.0234,375.5277 685.7314,374.2347 684.1384,374.2347 L538.5304,374.2347 C536.9374,374.2347 535.6454,375.5277 535.6454,377.1197 L535.6454,400.1987 C535.6454,401.7907 536.9374,403.0837 538.5304,403.0837 L684.1384,403.0837 C685.7314,403.0837 687.0234,401.7907 687.0234,400.1987 L687.0234,377.1197 Z" id="Fill-65" fill="#00A99D" mask="url(#mask-4)"></path>
                <path d="M681.3975,381.9732 C681.3975,380.3912 680.1135,379.1072 678.5325,379.1072 L602.2135,379.1072 C600.6315,379.1072 599.3485,380.3912 599.3485,381.9732 L599.3485,395.3452 C599.3485,396.9262 600.6315,398.2102 602.2135,398.2102 L678.5325,398.2102 C680.1135,398.2102 681.3975,396.9262 681.3975,395.3452 L681.3975,381.9732 Z" id="Fill-66" fill="#F2F2F2" mask="url(#mask-4)"></path>
                <path d="M577.2139,382.3072 C577.2139,381.6952 576.7169,381.1982 576.1049,381.1982 L570.9309,381.1982 C570.3179,381.1982 569.8209,381.6952 569.8209,382.3072 L569.8209,395.0112 C569.8209,395.6232 570.3179,396.1202 570.9309,396.1202 L576.1049,396.1202 C576.7169,396.1202 577.2139,395.6232 577.2139,395.0112 L577.2139,382.3072 Z" id="Fill-67" fill="#ABD8D3" mask="url(#mask-4)"></path>
                <path d="M591.4902,382.3072 C591.4902,381.6952 590.9932,381.1982 590.3812,381.1982 L585.2062,381.1982 C584.5942,381.1982 584.0972,381.6952 584.0972,382.3072 L584.0972,395.0112 C584.0972,395.6232 584.5942,396.1202 585.2062,396.1202 L590.3812,396.1202 C590.9932,396.1202 591.4902,395.6232 591.4902,395.0112 L591.4902,382.3072 Z" id="Fill-68" fill="#00FFFF" mask="url(#mask-4)"></path>
                <path d="M562.9385,382.3072 C562.9385,381.6952 562.4415,381.1982 561.8295,381.1982 L556.6555,381.1982 C556.0425,381.1982 555.5455,381.6952 555.5455,382.3072 L555.5455,395.0112 C555.5455,395.6232 556.0425,396.1202 556.6555,396.1202 L561.8295,396.1202 C562.4415,396.1202 562.9385,395.6232 562.9385,395.0112 L562.9385,382.3072 Z" id="Fill-69" fill="#00FFFF" mask="url(#mask-4)"></path>
                <path d="M548.6621,382.3072 C548.6621,381.6952 548.1651,381.1982 547.5541,381.1982 L542.3791,381.1982 C541.7661,381.1982 541.2701,381.6952 541.2701,382.3072 L541.2701,395.0112 C541.2701,395.6232 541.7661,396.1202 542.3791,396.1202 L547.5541,396.1202 C548.1651,396.1202 548.6621,395.6232 548.6621,395.0112 L548.6621,382.3072 Z" id="Fill-70" fill="#ABD8D3" mask="url(#mask-4)"></path>
                <path d="M687.0234,419.5982 C687.0234,418.0052 685.7314,416.7122 684.1384,416.7122 L538.5304,416.7122 C536.9374,416.7122 535.6454,418.0052 535.6454,419.5982 L535.6454,442.6762 C535.6454,444.2682 536.9374,445.5612 538.5304,445.5612 L684.1384,445.5612 C685.7314,445.5612 687.0234,444.2682 687.0234,442.6762 L687.0234,419.5982 Z" id="Fill-71" fill="#00A99D" mask="url(#mask-4)"></path>
                <path d="M681.3975,424.4508 C681.3975,422.8698 680.1135,421.5858 678.5325,421.5858 L602.2135,421.5858 C600.6315,421.5858 599.3485,422.8698 599.3485,424.4508 L599.3485,437.8228 C599.3485,439.4038 600.6315,440.6878 602.2135,440.6878 L678.5325,440.6878 C680.1135,440.6878 681.3975,439.4038 681.3975,437.8228 L681.3975,424.4508 Z" id="Fill-72" fill="#F2F2F2" mask="url(#mask-4)"></path>
                <path d="M577.2139,424.7847 C577.2139,424.1727 576.7169,423.6757 576.1049,423.6757 L570.9309,423.6757 C570.3179,423.6757 569.8209,424.1727 569.8209,424.7847 L569.8209,437.4897 C569.8209,438.1007 570.3179,438.5977 570.9309,438.5977 L576.1049,438.5977 C576.7169,438.5977 577.2139,438.1017 577.2139,437.4897 L577.2139,424.7847 Z" id="Fill-73" fill="#ABD8D3" mask="url(#mask-4)"></path>
                <path d="M591.4902,424.7847 C591.4902,424.1727 590.9932,423.6757 590.3812,423.6757 L585.2062,423.6757 C584.5942,423.6757 584.0972,424.1727 584.0972,424.7847 L584.0972,437.4897 C584.0972,438.1007 584.5942,438.5977 585.2062,438.5977 L590.3812,438.5977 C590.9932,438.5977 591.4902,438.1017 591.4902,437.4897 L591.4902,424.7847 Z" id="Fill-74" fill="#00FFFF" mask="url(#mask-4)"></path>
                <path d="M562.9385,424.7847 C562.9385,424.1727 562.4415,423.6757 561.8295,423.6757 L556.6555,423.6757 C556.0425,423.6757 555.5455,424.1727 555.5455,424.7847 L555.5455,437.4897 C555.5455,438.1007 556.0425,438.5977 556.6555,438.5977 L561.8295,438.5977 C562.4415,438.5977 562.9385,438.1017 562.9385,437.4897 L562.9385,424.7847 Z" id="Fill-75" fill="#00FFFF" mask="url(#mask-4)"></path>
                <path d="M548.6621,424.7847 C548.6621,424.1727 548.1651,423.6757 547.5541,423.6757 L542.3791,423.6757 C541.7661,423.6757 541.2701,424.1727 541.2701,424.7847 L541.2701,437.4897 C541.2701,438.1007 541.7661,438.5977 542.3791,438.5977 L547.5541,438.5977 C548.1651,438.5977 548.6621,438.1017 548.6621,437.4897 L548.6621,424.7847 Z" id="Fill-76" fill="#ABD8D3" mask="url(#mask-4)"></path>
                <path d="M358.5684,65.8658 C359.5664,64.2658 361.3194,63.2938 363.2054,63.2938 C365.0904,63.2938 366.8424,64.2658 367.8404,65.8658 C375.6414,78.3648 391.3364,103.5128 399.5084,116.6098 C400.5604,118.2948 400.6154,120.4178 399.6514,122.1538 C398.6884,123.8908 396.8584,124.9688 394.8724,124.9688 L331.5374,124.9688 C329.5504,124.9688 327.7214,123.8908 326.7574,122.1538 C325.7954,120.4178 325.8494,118.2948 326.9014,116.6098 C335.0744,103.5128 350.7684,78.3648 358.5684,65.8658" id="Fill-77" fill="#DA1E28" mask="url(#mask-4)"></path>
                <path d="M366.2109,86.0465 C366.2489,85.2255 365.9489,84.4245 365.3809,83.8295 C364.8129,83.2345 364.0259,82.8985 363.2039,82.8985 C362.3809,82.8985 361.5949,83.2345 361.0259,83.8295 C360.4589,84.4245 360.1589,85.2255 360.1959,86.0465 C360.4299,91.1305 360.8839,101.0065 361.0789,105.2595 C361.1319,106.3955 362.0669,107.2885 363.2039,107.2885 C364.3409,107.2885 365.2759,106.3955 365.3279,105.2595 C365.5239,101.0065 365.9779,91.1305 366.2109,86.0465 M363.2039,110.0005 C364.4849,110.0005 365.5259,111.1365 365.5259,112.5335 C365.5259,113.9315 364.4849,115.0675 363.2039,115.0675 C361.9219,115.0675 360.8809,113.9315 360.8809,112.5335 C360.8809,111.1365 361.9219,110.0005 363.2039,110.0005" id="Fill-78" fill="#FFFFFF" mask="url(#mask-4)"></path>
                <path d="M293.913,409.063 L432.497,409.063 L432.497,237.661 L293.913,237.661 L293.913,409.063 Z M434.997,414.063 L291.413,414.063 C290.032,414.063 288.913,412.944 288.913,411.563 L288.913,235.161 C288.913,233.78 290.032,232.661 291.413,232.661 L434.997,232.661 C436.378,232.661 437.497,233.78 437.497,235.161 L437.497,411.563 C437.497,412.944 436.378,414.063 434.997,414.063 L434.997,414.063 Z" id="Fill-79" fill="#0A3C4C" mask="url(#mask-4)"></path>
                <path d="M434.9971,262.275 L291.4131,262.275 C290.0321,262.275 288.9131,261.156 288.9131,259.775 C288.9131,258.394 290.0321,257.275 291.4131,257.275 L434.9971,257.275 C436.3781,257.275 437.4971,258.394 437.4971,259.775 C437.4971,261.156 436.3781,262.275 434.9971,262.275" id="Fill-80" fill="#0A3C4C" mask="url(#mask-4)"></path>
                <path d="M308.2939,249.9674 L303.7199,249.9674 C302.3389,249.9674 301.2199,248.8484 301.2199,247.4674 C301.2199,246.0864 302.3389,244.9674 303.7199,244.9674 L308.2939,244.9674 C309.6749,244.9674 310.7939,246.0864 310.7939,247.4674 C310.7939,248.8484 309.6749,249.9674 308.2939,249.9674" id="Fill-81" fill="#0A3C4C" mask="url(#mask-4)"></path>
                <path d="M322.4658,249.9674 L318.0148,249.9674 C316.6338,249.9674 315.5148,248.8484 315.5148,247.4674 C315.5148,246.0864 316.6338,244.9674 318.0148,244.9674 L322.4658,244.9674 C323.8468,244.9674 324.9658,246.0864 324.9658,247.4674 C324.9658,248.8484 323.8468,249.9674 322.4658,249.9674" id="Fill-82" fill="#0A3C4C" mask="url(#mask-4)"></path>
                <path d="M337.1826,249.9674 L332.7316,249.9674 C331.3506,249.9674 330.2316,248.8484 330.2316,247.4674 C330.2316,246.0864 331.3506,244.9674 332.7316,244.9674 L337.1826,244.9674 C338.5636,244.9674 339.6826,246.0864 339.6826,247.4674 C339.6826,248.8484 338.5636,249.9674 337.1826,249.9674" id="Fill-83" fill="#0A3C4C" mask="url(#mask-4)"></path>
                <path d="M373.5918,368.0777 L352.8188,368.0777 C351.4378,368.0777 350.3188,366.9587 350.3188,365.5777 C350.3188,364.1967 351.4378,363.0777 352.8188,363.0777 L373.5918,363.0777 C374.9728,363.0777 376.0918,364.1967 376.0918,365.5777 C376.0918,366.9587 374.9728,368.0777 373.5918,368.0777" id="Fill-84" fill="#0A3C4C" mask="url(#mask-4)"></path>
                <path d="M402.1777,384.4869 L324.2327,384.4869 C322.8517,384.4869 321.7327,383.3679 321.7327,381.9869 C321.7327,380.6059 322.8517,379.4869 324.2327,379.4869 L402.1777,379.4869 C403.5587,379.4869 404.6777,380.6059 404.6777,381.9869 C404.6777,383.3679 403.5587,384.4869 402.1777,384.4869" id="Fill-85" fill="#0A3C4C" mask="url(#mask-4)"></path>
                <path d="M386.4766,348.6812 C385.8366,348.6812 385.1976,348.4372 384.7086,347.9492 L338.1646,301.4052 C337.1886,300.4282 337.1886,298.8462 338.1646,297.8692 C339.1416,296.8932 340.7236,296.8932 341.7006,297.8692 L388.2446,344.4132 C389.2206,345.3902 389.2206,346.9722 388.2446,347.9492 C387.7556,348.4372 387.1166,348.6812 386.4766,348.6812" id="Fill-86" fill="#0A3C4C" mask="url(#mask-4)"></path>
                <path d="M339.9326,348.6812 C339.2926,348.6812 338.6536,348.4372 338.1646,347.9492 C337.1886,346.9722 337.1886,345.3902 338.1646,344.4132 L384.7086,297.8692 C385.6856,296.8932 387.2676,296.8932 388.2446,297.8692 C389.2206,298.8462 389.2206,300.4282 388.2446,301.4052 L341.7006,347.9492 C341.2116,348.4372 340.5726,348.6812 339.9326,348.6812" id="Fill-87" fill="#0A3C4C" mask="url(#mask-4)"></path>
                <path d="M263.4297,292.9439 C262.7897,292.9439 262.1507,292.6999 261.6617,292.2119 L246.8677,277.4179 C245.8917,276.4409 245.8917,274.8589 246.8677,273.8819 C247.8447,272.9059 249.4267,272.9059 250.4037,273.8819 L265.1977,288.6759 C266.1737,289.6529 266.1737,291.2349 265.1977,292.2119 C264.7087,292.6999 264.0697,292.9439 263.4297,292.9439" id="Fill-88" fill="#0A3C4C" mask="url(#mask-4)"></path>
                <path d="M248.6357,292.9439 C247.9957,292.9439 247.3567,292.6999 246.8677,292.2119 C245.8917,291.2349 245.8917,289.6529 246.8677,288.6759 L261.6617,273.8819 C262.6387,272.9059 264.2207,272.9059 265.1977,273.8819 C266.1737,274.8589 266.1737,276.4409 265.1977,277.4179 L250.4037,292.2119 C249.9147,292.6999 249.2757,292.9439 248.6357,292.9439" id="Fill-89" fill="#0A3C4C" mask="url(#mask-4)"></path>
                <path d="M477.6035,407.2476 C476.9635,407.2476 476.3245,407.0036 475.8355,406.5156 L461.0415,391.7206 C460.0655,390.7436 460.0655,389.1606 461.0415,388.1856 C462.0185,387.2086 463.6005,387.2086 464.5775,388.1856 L479.3715,402.9796 C480.3475,403.9566 480.3475,405.5396 479.3715,406.5156 C478.8825,407.0036 478.2435,407.2476 477.6035,407.2476" id="Fill-90" fill="#0A3C4C" mask="url(#mask-4)"></path>
                <path d="M462.8096,407.2476 C462.1696,407.2476 461.5306,407.0036 461.0416,406.5156 C460.0656,405.5396 460.0656,403.9566 461.0416,402.9796 L475.8356,388.1856 C476.8126,387.2086 478.3946,387.2086 479.3716,388.1856 C480.3476,389.1606 480.3476,390.7436 479.3716,391.7206 L464.5776,406.5156 C464.0886,407.0036 463.4496,407.2476 462.8096,407.2476" id="Fill-91" fill="#0A3C4C" mask="url(#mask-4)"></path>
            </g>
        </g>
    </g>
</svg>