<?xml version="1.0" encoding="UTF-8"?>
<svg width="129px" height="26px" viewBox="0 0 129 26" version="1.1" xmlns="http://www.w3.org/2000/svg" xmlns:xlink="http://www.w3.org/1999/xlink">
    <title>Brand/logo/ 2. white</title>
    <g id="Brand/logo/-2.-white" stroke="none" stroke-width="1" fill="FFFFF" fill-rule="evenodd">  
        <g id="Group-23" transform="translate(0, 0)">
            <path d="M11.3068334,6.68931834 C11.3188334,8.55131834 11.2918334,10.4153183 11.3308334,12.2773183 C11.3808334,14.6733183 10.4538334,16.4653183 8.33283338,17.5983183 L8.33283338,20.5143183 C8.77883338,20.2763183 9.22383338,20.0363183 9.66583338,19.7923183 C12.4228334,18.2693183 13.8288334,15.8823183 13.8818334,12.7373183 C13.9178334,10.6493183 13.8848334,8.55931834 13.8708334,6.47031834 C13.8688334,6.07931834 13.8698334,5.68531834 13.8518334,5.29431834 C13.6918334,5.35631834 13.5378334,5.42831834 13.3918334,5.50831834 C12.6928334,5.89331834 11.9988334,6.29131834 11.3068334,6.68931834" id="Fill-1" fill="#00FFFF"></path>
            <path d="M5.77613338,18.9324183 C4.83913338,19.4264183 3.90313338,19.9224183 2.96513338,20.4154183 C2.85213338,20.4754183 2.73613338,20.5304183 2.56013338,20.6174183 L2.56013338,20.1704183 C2.56013338,15.6244183 2.56613338,11.0784183 2.55113338,6.53341834 C2.55013338,6.07241834 2.69513338,5.80041834 3.10613338,5.57441834 C4.62113338,4.73841834 6.10513338,3.84841834 7.62013338,3.01441834 C8.00513338,2.80241834 8.45413338,2.64241834 8.88813338,2.60041834 C9.84513338,2.50641834 10.6211334,3.00441834 10.9891334,3.90941834 C11.3871334,3.68141834 11.7871334,3.45741834 12.1891334,3.23841834 C12.5551334,3.03741834 12.9221334,2.87541834 13.2881334,2.75441834 C12.9801334,2.07141834 12.5261334,1.46441834 11.8701334,0.982418344 C10.1251334,-0.303581656 8.26813338,-0.267581656 6.41613338,0.744418344 C4.84713338,1.60141834 3.31813338,2.53241834 1.75513338,3.40241834 C0.542133382,4.07741834 -0.00986661768,5.08941834 0.000133382323,6.46341834 C0.0161333823,8.86141834 0.00413338232,11.2594183 0.00413338232,13.6574183 C0.00413338232,16.1034183 0.00213338232,18.5484183 0.00813338232,20.9944183 C0.00813338232,21.2644183 0.0251333823,21.5444183 0.0941333823,21.8044183 C0.463133382,23.1804183 1.97913338,23.8204183 3.27913338,23.1454183 C4.11113338,22.7134183 4.94513338,22.2854183 5.77713338,21.8544183 C5.77613338,20.8804183 5.77613338,19.9074183 5.77613338,18.9324183" id="Fill-3" fill="#00FFFF"></path>
            <path d="M8.35133338,23.1111183 C8.52733338,23.0241183 8.64333338,22.9691183 8.75733338,22.9101183 C10.5083334,21.9901183 12.2523334,21.0551183 14.0123334,20.1531183 C16.2133334,19.0231183 17.1733334,17.2111183 17.1223334,14.7711183 C17.0803334,12.7421183 17.1163334,10.7131183 17.0943334,8.68311834 C17.0883334,8.09411834 17.0583334,7.49411834 16.9383334,6.92111834 C16.6823334,5.69411834 15.8063334,4.98411834 14.6793334,5.09411834 C14.2463334,5.13611834 13.7963334,5.29711834 13.4123334,5.50811834 C11.8963334,6.34211834 10.4123334,7.23211834 8.89733338,8.06811834 C8.48633338,8.29511834 8.34133338,8.56611834 8.34331301,9.02711834 C8.35733338,13.5731183 8.35133338,18.1191183 8.35133338,22.6651183 L8.35133338,23.1111183 Z M5.79533338,16.1511183 C5.79533338,13.7541183 5.80733338,11.3551183 5.79122495,8.95811834 C5.78233338,7.58411834 6.33333338,6.57111834 7.54633338,5.89611834 C9.10933338,5.02611834 10.6383334,4.09511834 12.2073334,3.23811834 C14.0593334,2.22611834 15.9163334,2.19011834 17.6623334,3.47611834 C18.8703334,4.36611834 19.3943334,5.67511834 19.5853334,7.11911834 C19.6653334,7.72711834 19.6593334,8.34911834 19.6633334,8.96511834 C19.6763334,11.0531183 19.7093334,13.1431183 19.6743334,15.2311183 C19.6213334,18.3771183 18.2143334,20.7631183 15.4573334,22.2861183 C13.3523334,23.4481183 11.2053334,24.5311183 9.07133338,25.6391183 C7.77033338,26.3141183 6.25433338,25.6741183 5.88533338,24.2981183 C5.81633338,24.0391183 5.80033338,23.7581183 5.79933338,23.4881183 C5.79333338,21.0431183 5.79633338,18.5971183 5.79533338,16.1511183 L5.79533338,16.1511183 Z" id="Fill-5" fill="#00A99D"></path>
            <path d="M33.1208334,10.1317183 C31.2018334,10.1317183 30.0698334,11.4657183 30.0698334,13.2837183 C30.0698334,15.0417183 31.2618334,16.4147183 33.1208334,16.4147183 C34.9998334,16.4147183 36.1718334,15.2237183 36.1718334,13.2837183 C36.1718334,11.4447183 34.9998334,10.1317183 33.1208334,10.1317183 L33.1208334,10.1317183 Z M36.0498334,18.4637183 C36.0498334,18.2027183 35.7568334,18.0527183 35.5458334,18.2057183 C34.9008334,18.6737183 33.8568334,19.0817183 32.6758334,19.0817183 C29.1608334,19.0817183 27.0998334,16.4757183 27.0998334,13.2837183 C27.0998334,10.0917183 29.1608334,7.48571834 32.6758334,7.48571834 C33.9058334,7.48571834 34.8898334,7.85971834 35.5388334,8.36671834 C35.7468334,8.52971834 36.0498334,8.37871834 36.0498334,8.11471834 L36.0498334,3.88571834 C36.0498334,3.70871834 36.1928334,3.56671834 36.3698334,3.56671834 L38.7208334,3.56671834 C38.8978334,3.56671834 39.0398334,3.70871834 39.0398334,3.88571834 L39.0398334,18.5207183 C39.0398334,18.6967183 38.8978334,18.8397183 38.7208334,18.8397183 L36.3698334,18.8397183 C36.1928334,18.8397183 36.0498334,18.6967183 36.0498334,18.5207183 L36.0498334,18.4637183 Z" id="Fill-7" fill="#F2F2F2"></path>
            <path d="M47.5246334,10.1317183 C45.6056334,10.1317183 44.4746334,11.4657183 44.4746334,13.2837183 C44.4746334,15.0417183 45.6666334,16.4147183 47.5246334,16.4147183 C49.4036334,16.4147183 50.5756334,15.2237183 50.5756334,13.2837183 C50.5756334,11.4447183 49.4036334,10.1317183 47.5246334,10.1317183 L47.5246334,10.1317183 Z M50.4546334,18.4637183 C50.4546334,18.2027183 50.1616334,18.0527183 49.9496334,18.2057183 C49.3046334,18.6737183 48.2606334,19.0817183 47.0806334,19.0817183 C43.5656334,19.0817183 41.5036334,16.4757183 41.5036334,13.2837183 C41.5036334,10.0917183 43.5656334,7.48571834 47.0806334,7.48571834 C48.3096334,7.48571834 49.2936334,7.85971834 49.9426334,8.36671834 C50.1516334,8.52971834 50.4546334,8.37871834 50.4546334,8.11471834 L50.4546334,8.04671834 C50.4546334,7.87071834 50.5976334,7.72871834 50.7736334,7.72871834 L53.1256334,7.72871834 C53.3016334,7.72871834 53.4446334,7.87071834 53.4446334,8.04671834 L53.4446334,18.5207183 C53.4446334,18.6967183 53.3016334,18.8397183 53.1256334,18.8397183 L50.7736334,18.8397183 C50.5976334,18.8397183 50.4546334,18.6967183 50.4546334,18.5207183 L50.4546334,18.4637183 Z" id="Fill-9" fill="#F2F2F2"></path>
            <path d="M59.4035334,13.9305183 L59.4035334,18.5205183 C59.4035334,18.6975183 59.2605334,18.8395183 59.0845334,18.8395183 L56.7125334,18.8395183 C56.5365334,18.8395183 56.3935334,18.6975183 56.3935334,18.5205183 L56.3935334,8.04651834 C56.3935334,7.87051834 56.5365334,7.72851834 56.7125334,7.72851834 L59.0845334,7.72851834 C59.2605334,7.72851834 59.4035334,7.87051834 59.4035334,8.04651834 L59.4035334,8.39751834 C59.4035334,8.67251834 59.7265334,8.81551834 59.9335334,8.63351834 C60.8925334,7.79451834 62.1115334,7.56751834 62.8645334,7.53051834 C63.0485334,7.52151834 63.2015334,7.66551834 63.2015334,7.84951834 L63.2015334,10.1485183 C63.2015334,10.3235183 63.0635334,10.4635183 62.8885334,10.4665183 C61.8435334,10.4835183 59.4035334,10.9225183 59.4035334,13.9305183" id="Fill-11" fill="#F2F2F2"></path>
            <path d="M64.5622334,17.1121183 L65.7712334,15.5011183 C65.8682334,15.3711183 66.0492334,15.3321183 66.1872334,15.4171183 C67.0602334,15.9511183 68.3282334,16.4561183 69.5452334,16.4561183 C70.4742334,16.4561183 71.1412334,16.0311183 71.1412334,15.4661183 C71.1412334,14.7181183 69.5852334,14.6371183 68.9992334,14.5361183 C67.4842334,14.2731183 64.5952334,13.8291183 64.5952334,11.0411183 C64.5952334,7.78811834 68.1102334,7.52611834 69.1812334,7.52611834 C70.8312334,7.52611834 72.1782334,7.97011834 73.5402334,8.92711834 C73.6872334,9.03111834 73.7172334,9.24011834 73.6082334,9.38311834 L72.4012334,10.9611183 C72.3042334,11.0881183 72.1292334,11.1221183 71.9902334,11.0441183 C71.1962334,10.5991183 70.1962334,10.1521183 69.0802334,10.1521183 C68.4942334,10.1521183 67.6252334,10.4351183 67.6252334,10.9801183 C67.6252334,11.7281183 69.2422334,11.9101183 69.7272334,11.9701183 C71.6052334,12.2941183 74.1512334,12.6171183 74.1512334,15.4861183 C74.1512334,17.7891183 72.4952334,19.1021183 69.5852334,19.1021183 C67.3612334,19.1021183 65.8062334,18.4341183 64.6232334,17.5571183 C64.4822334,17.4531183 64.4572334,17.2521183 64.5622334,17.1121183" id="Fill-13" fill="#F2F2F2"></path>
            <path d="M86.9392334,12.2733183 L86.9392334,18.5203183 C86.9392334,18.6973183 86.7962334,18.8393183 86.6202334,18.8393183 L84.1882334,18.8393183 C84.0112334,18.8393183 83.8682334,18.6973183 83.8682334,18.5203183 L83.8682334,12.2733183 C83.8682334,10.5563183 82.8782334,10.0313183 81.7072334,10.0313183 C80.8782334,10.0313183 79.5242334,10.5363183 79.5852334,12.9603183 L79.5852334,18.5203183 C79.5852334,18.6973183 79.4422334,18.8393183 79.2662334,18.8393183 L76.8942334,18.8393183 C76.7182334,18.8393183 76.5752334,18.6973183 76.5752334,18.5203183 L76.5752334,3.86531834 C76.5752334,3.68831834 76.7182334,3.54531834 76.8942334,3.54531834 L79.2662334,3.54531834 C79.4422334,3.54531834 79.5852334,3.68831834 79.5852334,3.86531834 L79.5852334,8.04631834 C79.5852334,8.30231834 79.8702334,8.45531834 80.0812334,8.31031834 C80.8112334,7.81131834 81.7612334,7.52631834 82.5552334,7.52631834 C85.7672334,7.52631834 86.9392334,9.38431834 86.9392334,12.2733183" id="Fill-15" fill="#F2F2F2"></path>
            <path d="M95.3830334,10.1317183 C93.4640334,10.1317183 92.3330334,11.4657183 92.3330334,13.2837183 C92.3330334,15.0417183 93.5250334,16.4147183 95.3830334,16.4147183 C97.2620334,16.4147183 98.4340334,15.2237183 98.4340334,13.2837183 C98.4340334,11.4447183 97.2620334,10.1317183 95.3830334,10.1317183 L95.3830334,10.1317183 Z M98.3130334,18.4637183 C98.3130334,18.2027183 98.0200334,18.0527183 97.8080334,18.2057183 C97.1630334,18.6737183 96.1190334,19.0817183 94.9390334,19.0817183 C91.4240334,19.0817183 89.3620334,16.4757183 89.3620334,13.2837183 C89.3620334,10.0917183 91.4240334,7.48571834 94.9390334,7.48571834 C96.1680334,7.48571834 97.1520334,7.85971834 97.8010334,8.36671834 C98.0100334,8.52971834 98.3130334,8.37871834 98.3130334,8.11471834 L98.3130334,8.04671834 C98.3130334,7.87071834 98.4560334,7.72871834 98.6320334,7.72871834 L100.984033,7.72871834 C101.160033,7.72871834 101.303033,7.87071834 101.303033,8.04671834 L101.303033,18.5207183 C101.303033,18.6967183 101.160033,18.8397183 100.984033,18.8397183 L98.6320334,18.8397183 C98.4560334,18.8397183 98.3130334,18.6967183 98.3130334,18.5207183 L98.3130334,18.4637183 Z" id="Fill-17" fill="#F2F2F2"></path>
            <path d="M114.636433,12.2733183 L114.636433,18.5203183 C114.636433,18.6973183 114.493433,18.8393183 114.317433,18.8393183 L111.864433,18.8393183 C111.687433,18.8393183 111.545433,18.6973183 111.545433,18.5203183 L111.545433,12.2733183 C111.545433,10.5563183 110.575433,10.0313183 109.403433,10.0313183 C108.575433,10.0313183 107.221433,10.5363183 107.282433,12.9603183 L107.282433,18.5203183 C107.282433,18.6973183 107.139433,18.8393183 106.963433,18.8393183 L104.591433,18.8393183 C104.414433,18.8393183 104.271433,18.6973183 104.271433,18.5203183 L104.271433,8.04631834 C104.271433,7.87131834 104.414433,7.72831834 104.591433,7.72831834 L106.963433,7.72831834 C107.139433,7.72831834 107.282433,7.87131834 107.282433,8.04631834 C107.282433,8.30231834 107.566433,8.45531834 107.777433,8.31031834 C108.508433,7.81131834 109.458433,7.52631834 110.252433,7.52631834 C113.464433,7.52631834 114.636433,9.38431834 114.636433,12.2733183" id="Fill-19" fill="#F2F2F2"></path>
            <path d="M123.080333,10.1317183 C121.161333,10.1317183 120.029333,11.4657183 120.029333,13.2837183 C120.029333,15.0417183 121.221333,16.4147183 123.080333,16.4147183 C124.959333,16.4147183 126.130333,15.2237183 126.130333,13.2837183 C126.130333,11.4447183 124.959333,10.1317183 123.080333,10.1317183 L123.080333,10.1317183 Z M126.009333,18.4637183 C126.009333,18.2027183 125.716333,18.0527183 125.505333,18.2057183 C124.860333,18.6737183 123.816333,19.0817183 122.635333,19.0817183 C119.120333,19.0817183 117.059333,16.4757183 117.059333,13.2837183 C117.059333,10.0917183 119.120333,7.48571834 122.635333,7.48571834 C123.865333,7.48571834 124.849333,7.85971834 125.498333,8.36671834 C125.706333,8.52971834 126.009333,8.37871834 126.009333,8.11471834 L126.009333,8.04671834 C126.009333,7.87071834 126.152333,7.72871834 126.329333,7.72871834 L128.680333,7.72871834 C128.856333,7.72871834 128.999333,7.87071834 128.999333,8.04671834 L128.999333,18.5207183 C128.999333,18.6967183 128.856333,18.8397183 128.680333,18.8397183 L126.329333,18.8397183 C126.152333,18.8397183 126.009333,18.6967183 126.009333,18.5207183 L126.009333,18.4637183 Z" id="Fill-21" fill="#F2F2F2"></path>
        </g>
    </g>
</svg>