<?xml version="1.0" encoding="UTF-8"?>
<svg version="1.1" width="129px" height="26px" viewBox="0 0 129.0 26.0" xmlns="http://www.w3.org/2000/svg" xmlns:xlink="http://www.w3.org/1999/xlink">
	<defs>
		<clipPath id="i0">
			<path d="M5.519,0 C5.537,0.392 5.536,0.786 5.538,1.177 L5.56225,4.310875 C5.56775,5.3555 5.567,6.4 5.549,7.444 C5.496,10.589 4.09,12.975 1.333,14.498 C0.891,14.742 0.446,14.983 0,15.221 L0,12.305 C2.121,11.172 3.048,9.38 2.998,6.983 C2.959,5.122 2.986,3.258 2.974,1.395 C3.666,0.997 4.36,0.6 5.059,0.214 C5.205,0.135 5.359,0.062 5.519,0 Z">
			</path>
		</clipPath>
		<clipPath id="i1">
			<path d="M6.41613338,0.74356067 C8.26813338,-0.26743933 10.1251334,-0.30343933 11.8701334,0.98256067 C12.5261334,1.46456067 12.9801334,2.07156067 13.2881334,2.75456067 C12.9221334,2.87556067 12.5551334,3.03656067 12.1891334,3.23756067 C11.7871334,3.45656067 11.3871334,3.68156067 10.9891334,3.90856067 C10.6211334,3.00456067 9.84513338,2.50556067 8.88813338,2.60056067 C8.45413338,2.64256067 8.00513338,2.80256067 7.62013338,3.01356067 C6.10513338,3.84756067 4.62113338,4.73856067 3.10613338,5.57456067 C2.69513338,5.80056067 2.55013338,6.07156067 2.55113338,6.53256067 C2.56613338,11.0785607 2.56013338,15.6235607 2.56013338,20.1695607 L2.56013338,20.6175607 C2.73613338,20.5295607 2.85213338,20.4745607 2.96513338,20.4145607 C3.90313338,19.9225607 4.83913338,19.4265607 5.77613338,18.9325607 C5.77613338,19.9065607 5.77613338,20.8805607 5.77713338,21.8545607 C4.94513338,22.2855607 4.11113338,22.7125607 3.27913338,23.1455607 C1.97913338,23.8205607 0.463133382,23.1805607 0.0941333823,21.8035607 C0.0251333823,21.5445607 0.00813338232,21.2645607 0.00813338232,20.9945607 C0.00213338232,18.5485607 0.00413338232,16.1025607 0.00413338232,13.6575607 L0.00828153047,8.86126437 L0.000133382323,6.46256067 C-0.00986661768,5.08956067 0.542133382,4.07756067 1.75513338,3.40256067 C3.31813338,2.53256067 4.84713338,1.60056067 6.41613338,0.74356067 Z">
			</path>
		</clipPath>
		<clipPath id="i2">
			<path d="M11.8711084,0.98256067 C13.0791084,1.87256067 13.6031084,3.18156067 13.7941084,4.62556067 C13.8741084,5.23356067 13.8681084,5.85456067 13.8721084,6.47156067 C13.8851084,8.55956067 13.9181084,10.6495607 13.8821084,12.7375607 C13.8301084,15.8835607 12.4231084,18.2685607 9.66610843,19.7915607 C7.56110843,20.9535607 5.41410843,22.0375607 3.28010843,23.1455607 C1.97910843,23.8205607 0.463108429,23.1805607 0.0941084293,21.8045607 C0.0251084293,21.5455607 0.00910842927,21.2645607 0.00810842927,20.9945607 C0.00210842927,18.5495607 0.00510842927,16.1025607 0.00410842927,13.6575607 C0.00410842927,11.2605607 0.0161084293,8.86156067 0,6.46356067 C-0.00889157073,5.09056067 0.542108429,4.07756067 1.75510843,3.40256067 C3.31810843,2.53256067 4.84710843,1.60056067 6.41610843,0.74356067 C8.26810843,-0.26743933 10.1251084,-0.30343933 11.8711084,0.98256067 Z M8.88810843,2.60056067 C8.45510843,2.64256067 8.00510843,2.80356067 7.62110843,3.01356067 C6.10510843,3.84756067 4.62110843,4.73856067 3.10610843,5.57456067 C2.69510843,5.80156067 2.55010843,6.07156067 2.55208806,6.53256067 C2.56610843,11.0785607 2.56010843,15.6245607 2.56010843,20.1705607 L2.56010843,20.6175607 C2.73610843,20.5295607 2.85210843,20.4745607 2.96610843,20.4155607 C4.71710843,19.4955607 6.46110843,18.5615607 8.22110843,17.6585607 C10.4221084,16.5295607 11.3821084,14.7165607 11.3311084,12.2765607 C11.2891084,10.2485607 11.3251084,8.21856067 11.3031084,6.18856067 C11.2971084,5.59956067 11.2671084,5.00056067 11.1471084,4.42656067 C10.8911084,3.20056067 10.0151084,2.48956067 8.88810843,2.60056067 Z">
			</path>
		</clipPath>
		<clipPath id="i3">
			<path d="M11.621,0 C11.798,0 11.94,0.143 11.94,0.319 L11.94,14.955 C11.94,15.13 11.798,15.274 11.621,15.274 L9.27,15.274 C9.093,15.274 8.95,15.13 8.95,14.955 L8.95,14.898 C8.95,14.637 8.657,14.487 8.446,14.64 C7.801,15.108 6.757,15.516 5.576,15.516 C2.061,15.516 0,12.91 0,9.717 C0,6.526 2.061,3.92 5.576,3.92 C6.806,3.92 7.79,4.294 8.439,4.801 C8.647,4.964 8.95,4.813 8.95,4.548 L8.95,0.319 C8.95,0.143 9.093,0 9.27,0 L11.621,0 Z M6.021,6.566 C4.102,6.566 2.97,7.899 2.97,9.717 C2.97,11.475 4.162,12.849 6.021,12.849 C7.9,12.849 9.072,11.657 9.072,9.717 C9.072,7.879 7.9,6.566 6.021,6.566 Z">
			</path>
		</clipPath>
		<clipPath id="i4">
			<path d="M5.577,0 C6.806,0 7.79,0.374 8.439,0.881 C8.648,1.044 8.951,0.893 8.951,0.628 L8.951,0.561 C8.951,0.385 9.093,0.242 9.27,0.242 L11.622,0.242 C11.798,0.242 11.941,0.385 11.941,0.561 L11.941,11.035 C11.941,11.21 11.798,11.354 11.622,11.354 L9.27,11.354 C9.093,11.354 8.951,11.21 8.951,11.035 L8.951,10.978 C8.951,10.717 8.658,10.567 8.446,10.72 C7.801,11.188 6.757,11.596 5.577,11.596 C2.062,11.596 0,8.99 0,5.797 C0,2.606 2.062,0 5.577,0 Z M6.021,2.646 C4.102,2.646 2.971,3.979 2.971,5.797 C2.971,7.555 4.163,8.929 6.021,8.929 C7.9,8.929 9.072,7.737 9.072,5.797 C9.072,3.959 7.9,2.646 6.021,2.646 Z">
			</path>
		</clipPath>
		<clipPath id="i5">
			<path d="M6.471,0.000399981732 C6.655,-0.00860001827 6.808,0.135399982 6.808,0.319399982 L6.808,2.61839998 C6.808,2.79339998 6.67,2.93339998 6.495,2.93639998 C5.45,2.95339998 3.01,3.39239998 3.01,6.39939998 L3.01,10.9904 C3.01,11.1664 2.867,11.3094 2.691,11.3094 L0.319,11.3094 C0.143,11.3094 0,11.1664 0,10.9904 L0,0.516399982 C0,0.340399982 0.143,0.197399982 0.319,0.197399982 L2.691,0.197399982 C2.867,0.197399982 3.01,0.340399982 3.01,0.516399982 L3.01,0.867399982 C3.01,1.14239998 3.333,1.28539998 3.54,1.10339998 C4.499,0.264399982 5.718,0.0373999817 6.471,0.000399981732 Z">
			</path>
		</clipPath>
		<clipPath id="i6">
			<path d="M4.68355932,0 C6.33355932,0 7.68055932,0.445 9.04255932,1.402 C9.18955932,1.506 9.21955932,1.715 9.11055932,1.858 L7.90355932,3.436 C7.80655932,3.563 7.63155932,3.597 7.49255932,3.519 C6.69855932,3.074 5.69855932,2.627 4.58255932,2.627 C3.99655932,2.627 3.12755932,2.909 3.12755932,3.455 C3.12755932,4.202 4.74455932,4.385 5.22955932,4.445 C7.10755932,4.769 9.65355932,5.092 9.65355932,7.96 C9.65355932,10.264 7.99755932,11.577 5.08755932,11.577 C2.86355932,11.577 1.30855932,10.908 0.12555932,10.031 C-0.0154406797,9.928 -0.0404406797,9.727 0.0645593203,9.587 L1.27355932,7.976 C1.37055932,7.846 1.55155932,7.807 1.68955932,7.892 C2.56255932,8.425 3.83055932,8.93 5.04755932,8.93 C5.97655932,8.93 6.64355932,8.506 6.64355932,7.941 C6.64355932,7.192 5.08755932,7.111 4.50155932,7.011 C2.98655932,6.748 0.0975593203,6.304 0.0975593203,3.516 C0.0975593203,0.263 3.61255932,0 4.68355932,0 Z">
			</path>
		</clipPath>
		<clipPath id="i7">
			<path d="M2.691,0 C2.867,0 3.01,0.143 3.01,0.32 L3.01,4.501 C3.01,4.757 3.295,4.909 3.506,4.765 C4.236,4.266 5.186,3.98 5.98,3.98 C9.192,3.98 10.364,5.839 10.364,8.728 L10.364,14.975 C10.364,15.151 10.221,15.294 10.045,15.294 L7.613,15.294 C7.436,15.294 7.293,15.151 7.293,14.975 L7.293,8.728 C7.293,7.01 6.303,6.486 5.132,6.486 C4.303,6.486 2.949,6.991 3.01,9.415 L3.01,14.975 C3.01,15.151 2.867,15.294 2.691,15.294 L0.319,15.294 C0.143,15.294 0,15.151 0,14.975 L0,0.32 C0,0.143 0.143,0 0.319,0 L2.691,0 Z">
			</path>
		</clipPath>
		<clipPath id="i8">
			<path d="M5.577,0 C6.806,0 7.79,0.374 8.439,0.881 C8.648,1.044 8.951,0.893 8.951,0.628 L8.951,0.561 C8.951,0.385 9.094,0.242 9.27,0.242 L11.622,0.242 C11.798,0.242 11.941,0.385 11.941,0.561 L11.941,11.035 C11.941,11.21 11.798,11.354 11.622,11.354 L9.27,11.354 C9.094,11.354 8.951,11.21 8.951,11.035 L8.951,10.978 C8.951,10.717 8.658,10.567 8.446,10.72 C7.801,11.188 6.757,11.596 5.577,11.596 C2.062,11.596 0,8.99 0,5.797 C0,2.606 2.062,0 5.577,0 Z M6.021,2.646 C4.102,2.646 2.971,3.979 2.971,5.797 C2.971,7.555 4.163,8.929 6.021,8.929 C7.9,8.929 9.072,7.737 9.072,5.797 C9.072,3.959 7.9,2.646 6.021,2.646 Z">
			</path>
		</clipPath>
		<clipPath id="i9">
			<path d="M5.981,0 C9.193,0 10.365,1.859 10.365,4.748 L10.365,10.995 C10.365,11.171 10.222,11.314 10.046,11.314 L7.593,11.314 C7.416,11.314 7.274,11.171 7.274,10.995 L7.274,4.748 C7.274,3.03 6.304,2.506 5.132,2.506 C4.304,2.506 2.95,3.011 3.011,5.435 L3.011,10.995 C3.011,11.171 2.868,11.314 2.692,11.314 L0.32,11.314 C0.143,11.314 0,11.171 0,10.995 L0,0.521 C0,0.346 0.143,0.202 0.32,0.202 L2.692,0.202 C2.868,0.202 3.011,0.346 3.011,0.521 C3.011,0.777 3.295,0.929 3.506,0.785 C4.237,0.286 5.187,0 5.981,0 Z">
			</path>
		</clipPath>
		<clipPath id="i10">
			<path d="M5.576,0 C6.806,0 7.79,0.374 8.439,0.881 C8.647,1.044 8.95,0.893 8.95,0.628 L8.95,0.561 C8.95,0.385 9.093,0.242 9.27,0.242 L11.621,0.242 C11.797,0.242 11.94,0.385 11.94,0.561 L11.94,11.035 C11.94,11.21 11.797,11.354 11.621,11.354 L9.27,11.354 C9.093,11.354 8.95,11.21 8.95,11.035 L8.95,10.978 C8.95,10.717 8.657,10.567 8.446,10.72 C7.801,11.188 6.757,11.596 5.576,11.596 C2.061,11.596 0,8.99 0,5.797 C0,2.606 2.061,0 5.576,0 Z M6.021,2.646 C4.102,2.646 2.97,3.979 2.97,5.797 C2.97,7.555 4.162,8.929 6.021,8.929 C7.9,8.929 9.071,7.737 9.071,5.797 C9.071,3.959 7.9,2.646 6.021,2.646 Z">
			</path>
		</clipPath>
	</defs>
	<g transform="">
		<g transform="translate(8.332833382322503 5.293360669768287)">
			<g clip-path="url(#i0)">
				<polygon points="0,0 5.56526019,0 5.56526019,15.221 0,15.221 0,0" stroke="none" fill="#18A79B">
				</polygon>
			</g>
		</g>
		<g transform="">
			<g clip-path="url(#i1)">
				<polygon points="0,-1.55431223e-15 13.2881334,-1.55431223e-15 13.2881334,23.416129 0,23.416129 0,-1.55431223e-15" stroke="none" fill="#18A79B">
				</polygon>
			</g>
		</g>
		<g transform="translate(5.791224953048189 2.493699999999997)">
			<g clip-path="url(#i2)">
				<polygon points="-0.000105853409,1.88737914e-15 13.898405,1.88737914e-15 13.898405,23.4161494 -0.000105853409,23.4161494 -0.000105853409,1.88737914e-15" stroke="none" fill="#093B4B">
				</polygon>
			</g>
		</g>
		<g transform="translate(27.0998333823225 3.565760669768287)">
			<g clip-path="url(#i3)">
				<polygon points="0,0 11.94,0 11.94,15.516 0,15.516 0,0" stroke="none" fill="#093B4B">
				</polygon>
			</g>
		</g>
		<g transform="translate(41.5036333823225 7.48576066976829)">
			<g clip-path="url(#i4)">
				<polygon points="0,0 11.941,0 11.941,11.596 0,11.596 0,0" stroke="none" fill="#093B4B">
				</polygon>
			</g>
		</g>
		<g transform="translate(56.393533382322516 7.530260688035952)">
			<g clip-path="url(#i5)">
				<polygon points="0,1.31638407e-15 6.808,1.31638407e-15 6.808,11.3094 0,11.3094 0,1.31638407e-15" stroke="none" fill="#093B4B">
				</polygon>
			</g>
		</g>
		<g transform="translate(64.49767406198136 7.525260669768286)">
			<g clip-path="url(#i6)">
				<polygon points="5.52335955e-15,0 9.65355932,0 9.65355932,11.577 5.52335955e-15,11.577 5.52335955e-15,0" stroke="none" fill="#093B4B">
				</polygon>
			</g>
		</g>
		<g transform="translate(76.57523338232251 3.545360669768286)">
			<g clip-path="url(#i7)">
				<polygon points="0,0 10.364,0 10.364,15.294 0,15.294 0,0" stroke="none" fill="#093B4B">
				</polygon>
			</g>
		</g>
		<g transform="translate(89.36203338232251 7.48576066976829)">
			<g clip-path="url(#i8)">
				<polygon points="0,0 11.941,0 11.941,11.596 0,11.596 0,0" stroke="none" fill="#093B4B">
				</polygon>
			</g>
		</g>
		<g transform="translate(104.2714333823225 7.525360669768286)">
			<g clip-path="url(#i9)">
				<polygon points="0,0 10.365,0 10.365,11.314 0,11.314 0,0" stroke="none" fill="#093B4B">
				</polygon>
			</g>
		</g>
		<g transform="translate(117.0593333823225 7.48576066976829)">
			<g clip-path="url(#i10)">
				<polygon points="0,0 11.94,0 11.94,11.596 0,11.596 0,0" stroke="none" fill="#093B4B">
				</polygon>
			</g>
		</g>
	</g>
</svg>
