<?xml version="1.0" encoding="UTF-8"?>
<svg width="1033px" height="468px" viewBox="0 0 1033 468" version="1.1" xmlns="http://www.w3.org/2000/svg" xmlns:xlink="http://www.w3.org/1999/xlink">
    <title>Spots/States/404@1.5x</title>
    <defs>
        <polygon id="path-1" points="0 0 38.5605 0 38.5605 5 0 5"></polygon>
        <polygon id="path-3" points="0 467.274 1032.72 467.274 1032.72 0 0 0"></polygon>
    </defs>
    <g id="Error-pages" stroke="none" stroke-width="1" fill="none" fill-rule="evenodd">
        <g id="Maintenance" transform="translate(-204.000000, -216.000000)">
            <g id="Maintenance" transform="translate(204.000000, 216.000000)">
                <path d="M980.4903,464.774 C980.4903,464.649 980.4903,464.525 980.4903,464.4 C980.4903,207.919 772.5713,0 516.0903,0 C259.6093,0 51.6903,207.919 51.6903,464.4 C51.6903,464.525 51.6903,464.649 51.6903,464.774 L980.4903,464.774 Z" id="Fill-1" fill="#FFFFFF"></path>
                <path d="M929.4561,76.3238 L832.0811,76.3238 C827.6421,76.3238 824.0431,72.7248 824.0431,68.2858 C824.0431,63.8458 827.6421,60.2478 832.0811,60.2478 L929.4561,60.2478 C933.8951,60.2478 937.4951,63.8458 937.4951,68.2858 C937.4951,72.7248 933.8951,76.3238 929.4561,76.3238" id="Fill-3" fill="#FFFFFF"></path>
                <path d="M963.3018,92.401 L865.9268,92.401 C861.4878,92.401 857.8888,88.801 857.8888,84.362 C857.8888,79.922 861.4878,76.324 865.9268,76.324 L963.3018,76.324 C967.7408,76.324 971.3408,79.922 971.3408,84.362 C971.3408,88.801 967.7408,92.401 963.3018,92.401" id="Fill-5" fill="#FFFFFF"></path>
                <path d="M913.8906,108.4771 L850.3606,108.4771 C845.9206,108.4771 842.3226,104.8781 842.3226,100.4391 C842.3226,95.9991 845.9206,92.4011 850.3606,92.4011 L913.8906,92.4011 C918.3296,92.4011 921.9286,95.9991 921.9286,100.4391 C921.9286,104.8781 918.3296,108.4771 913.8906,108.4771" id="Fill-7" fill="#FFFFFF"></path>
                <path d="M174.2744,85.8736 L79.2854,85.8736 C74.8454,85.8736 71.2474,82.2746 71.2474,77.8356 C71.2474,73.3956 74.8454,69.7976 79.2854,69.7976 L174.2744,69.7976 C178.7134,69.7976 182.3124,73.3956 182.3124,77.8356 C182.3124,82.2746 178.7134,85.8736 174.2744,85.8736" id="Fill-9" fill="#FFFFFF"></path>
                <path d="M189.7256,101.9508 L112.4186,101.9508 C107.9796,101.9508 104.3806,98.3518 104.3806,93.9128 C104.3806,89.4728 107.9796,85.8738 112.4186,85.8738 L189.7256,85.8738 C194.1646,85.8738 197.7636,89.4728 197.7636,93.9128 C197.7636,98.3518 194.1646,101.9508 189.7256,101.9508" id="Fill-11" fill="#FFFFFF"></path>
                <path d="M130.2715,389.3121 L13.4865,389.3121 C9.0465,389.3121 5.4485,385.7131 5.4485,381.2741 C5.4485,376.8341 9.0465,373.2361 13.4865,373.2361 L130.2715,373.2361 C134.7105,373.2361 138.3095,376.8341 138.3095,381.2741 C138.3095,385.7131 134.7105,389.3121 130.2715,389.3121" id="Fill-13" fill="#FFFFFF"></path>
                <path d="M169.9072,405.3883 L53.1222,405.3883 C48.6822,405.3883 45.0842,401.7893 45.0842,397.3503 C45.0842,392.9103 48.6822,389.3123 53.1222,389.3123 L169.9072,389.3123 C174.3462,389.3123 177.9462,392.9103 177.9462,397.3503 C177.9462,401.7893 174.3462,405.3883 169.9072,405.3883" id="Fill-15" fill="#FFFFFF"></path>
                <path d="M1005.4014,307.2857 L905.7294,307.2857 C901.2904,307.2857 897.6914,303.6867 897.6914,299.2477 C897.6914,294.8077 901.2904,291.2087 905.7294,291.2087 L1005.4014,291.2087 C1009.8394,291.2087 1013.4394,294.8077 1013.4394,299.2477 C1013.4394,303.6867 1009.8394,307.2857 1005.4014,307.2857" id="Fill-17" fill="#FFFFFF"></path>
                <path d="M964.792,323.3619 L865.121,323.3619 C860.682,323.3619 857.083,319.7629 857.083,315.3239 C857.083,310.8839 860.682,307.2859 865.121,307.2859 L964.792,307.2859 C969.231,307.2859 972.831,310.8839 972.831,315.3239 C972.831,319.7629 969.231,323.3619 964.792,323.3619" id="Fill-19" fill="#FFFFFF"></path>
                <path d="M980.0898,467.274 L52.0898,467.274 C50.7088,467.274 49.5898,466.155 49.5898,464.774 C49.5898,463.393 50.7088,462.274 52.0898,462.274 L980.0898,462.274 C981.4708,462.274 982.5898,463.393 982.5898,464.774 C982.5898,466.155 981.4708,467.274 980.0898,467.274" id="Fill-21" fill="#00A99D"></path>
                <g id="Group-25" transform="translate(0.000000, 462.274000)">
                    <mask id="mask-2" fill="white">
                        <use xlink:href="#path-1"></use>
                    </mask>
                    <g id="Clip-24"></g>
                    <path d="M36.0605,5 L2.4995,5 C1.1195,5 -0.0005,3.881 -0.0005,2.5 C-0.0005,1.119 1.1195,0 2.4995,0 L36.0605,0 C37.4415,0 38.5605,1.119 38.5605,2.5 C38.5605,3.881 37.4415,5 36.0605,5" id="Fill-23" fill="#00A99D" mask="url(#mask-2)"></path>
                </g>
                <path d="M1030.2197,467.274 L996.6587,467.274 C995.2787,467.274 994.1587,466.155 994.1587,464.774 C994.1587,463.393 995.2787,462.274 996.6587,462.274 L1030.2197,462.274 C1031.6007,462.274 1032.7197,463.393 1032.7197,464.774 C1032.7197,466.155 1031.6007,467.274 1030.2197,467.274" id="Fill-26" fill="#00A99D"></path>
                <path d="M322.6133,129.3629 L322.6133,394.3419 C322.6133,405.9269 332.0923,415.4059 343.6773,415.4059 L688.5033,415.4059 C700.0893,415.4059 709.5673,405.9269 709.5673,394.3419 L709.5673,129.3629 L322.6133,129.3629 Z" id="Fill-28" fill="#F2F2F2"></path>
                <path d="M327.1719,129.3629 L327.1719,394.3419 C327.1719,403.4429 334.5759,410.8469 343.6779,410.8469 L688.5029,410.8469 C697.6049,410.8469 705.0089,403.4429 705.0089,394.3419 L705.0089,129.3629 L327.1719,129.3629 Z" id="Fill-30" fill="#F7F7F7"></path>
                <path d="M709.5674,122.1021 C709.5674,110.5161 700.0884,101.0381 688.5034,101.0381 L343.6774,101.0381 C332.0914,101.0381 322.6134,110.5161 322.6134,122.1021 L322.6134,129.3631 L709.5674,129.3631 L709.5674,122.1021 Z" id="Fill-32" fill="#00A99D"></path>
                <path d="M387.4209,116.2222 C387.4209,113.0602 389.9839,110.4972 393.1459,110.4972 C396.3079,110.4972 398.8699,113.0602 398.8699,116.2222 C398.8699,119.3842 396.3079,121.9472 393.1459,121.9472 C389.9839,121.9472 387.4209,119.3842 387.4209,116.2222" id="Fill-34" fill="#FFFFFF"></path>
                <path d="M366.4092,122.6695 C365.2642,122.6695 364.7962,121.8595 365.3682,120.8685 L371.2152,110.7415 C371.7872,109.7505 372.7242,109.7505 373.2962,110.7415 L379.1422,120.8685 C379.7152,121.8595 379.2472,122.6695 378.1022,122.6695 L366.4092,122.6695 Z" id="Fill-36" fill="#FFFFFF"></path>
                <path d="M344.293,112.232 C344.293,111.278 345.073,110.498 346.027,110.498 L354.008,110.498 C354.961,110.498 355.741,111.278 355.741,112.232 L355.741,120.211 C355.741,121.167 354.961,121.947 354.008,121.947 L346.027,121.947 C345.073,121.947 344.293,121.167 344.293,120.211 L344.293,112.232 Z" id="Fill-38" fill="#FFFFFF"></path>
                <path d="M654.2734,119.2935 C654.2734,121.6105 652.3774,123.5065 650.0624,123.5065 L419.5844,123.5065 C417.2664,123.5065 415.3704,121.6105 415.3704,119.2935 L415.3704,111.1065 C415.3704,108.7895 417.2664,106.8945 419.5844,106.8945 L650.0624,106.8945 C652.3774,106.8945 654.2734,108.7895 654.2734,111.1065 L654.2734,119.2935 Z" id="Fill-40" fill="#06B7A6"></path>
                <path d="M541.6416,242.4732 L352.2926,242.4732 C347.8746,242.4732 344.2926,238.8912 344.2926,234.4732 L344.2926,166.3932 C344.2926,161.9752 347.8746,158.3932 352.2926,158.3932 L541.6416,158.3932 C546.0596,158.3932 549.6416,161.9752 549.6416,166.3932 L549.6416,234.4732 C549.6416,238.8912 546.0596,242.4732 541.6416,242.4732" id="Fill-42" fill="#FFFFFF"></path>
                <path d="M365.7227,159.3931 L357.7227,159.3931 C357.1697,159.3931 356.7227,158.9461 356.7227,158.3931 C356.7227,157.8401 357.1697,157.3931 357.7227,157.3931 L365.7227,157.3931 C366.2757,157.3931 366.7227,157.8401 366.7227,158.3931 C366.7227,158.9461 366.2757,159.3931 365.7227,159.3931 M381.7227,159.3931 L373.7227,159.3931 C373.1697,159.3931 372.7227,158.9461 372.7227,158.3931 C372.7227,157.8401 373.1697,157.3931 373.7227,157.3931 L381.7227,157.3931 C382.2757,157.3931 382.7227,157.8401 382.7227,158.3931 C382.7227,158.9461 382.2757,159.3931 381.7227,159.3931 M397.7227,159.3931 L389.7227,159.3931 C389.1697,159.3931 388.7227,158.9461 388.7227,158.3931 C388.7227,157.8401 389.1697,157.3931 389.7227,157.3931 L397.7227,157.3931 C398.2757,157.3931 398.7227,157.8401 398.7227,158.3931 C398.7227,158.9461 398.2757,159.3931 397.7227,159.3931 M413.7227,159.3931 L405.7227,159.3931 C405.1697,159.3931 404.7227,158.9461 404.7227,158.3931 C404.7227,157.8401 405.1697,157.3931 405.7227,157.3931 L413.7227,157.3931 C414.2757,157.3931 414.7227,157.8401 414.7227,158.3931 C414.7227,158.9461 414.2757,159.3931 413.7227,159.3931 M429.7227,159.3931 L421.7227,159.3931 C421.1697,159.3931 420.7227,158.9461 420.7227,158.3931 C420.7227,157.8401 421.1697,157.3931 421.7227,157.3931 L429.7227,157.3931 C430.2757,157.3931 430.7227,157.8401 430.7227,158.3931 C430.7227,158.9461 430.2757,159.3931 429.7227,159.3931 M445.7227,159.3931 L437.7227,159.3931 C437.1697,159.3931 436.7227,158.9461 436.7227,158.3931 C436.7227,157.8401 437.1697,157.3931 437.7227,157.3931 L445.7227,157.3931 C446.2757,157.3931 446.7227,157.8401 446.7227,158.3931 C446.7227,158.9461 446.2757,159.3931 445.7227,159.3931 M461.7227,159.3931 L453.7227,159.3931 C453.1697,159.3931 452.7227,158.9461 452.7227,158.3931 C452.7227,157.8401 453.1697,157.3931 453.7227,157.3931 L461.7227,157.3931 C462.2757,157.3931 462.7227,157.8401 462.7227,158.3931 C462.7227,158.9461 462.2757,159.3931 461.7227,159.3931 M477.7227,159.3931 L469.7227,159.3931 C469.1697,159.3931 468.7227,158.9461 468.7227,158.3931 C468.7227,157.8401 469.1697,157.3931 469.7227,157.3931 L477.7227,157.3931 C478.2757,157.3931 478.7227,157.8401 478.7227,158.3931 C478.7227,158.9461 478.2757,159.3931 477.7227,159.3931 M493.7227,159.3931 L485.7227,159.3931 C485.1697,159.3931 484.7227,158.9461 484.7227,158.3931 C484.7227,157.8401 485.1697,157.3931 485.7227,157.3931 L493.7227,157.3931 C494.2757,157.3931 494.7227,157.8401 494.7227,158.3931 C494.7227,158.9461 494.2757,159.3931 493.7227,159.3931 M509.7227,159.3931 L501.7227,159.3931 C501.1697,159.3931 500.7227,158.9461 500.7227,158.3931 C500.7227,157.8401 501.1697,157.3931 501.7227,157.3931 L509.7227,157.3931 C510.2757,157.3931 510.7227,157.8401 510.7227,158.3931 C510.7227,158.9461 510.2757,159.3931 509.7227,159.3931 M525.7227,159.3931 L517.7227,159.3931 C517.1697,159.3931 516.7227,158.9461 516.7227,158.3931 C516.7227,157.8401 517.1697,157.3931 517.7227,157.3931 L525.7227,157.3931 C526.2757,157.3931 526.7227,157.8401 526.7227,158.3931 C526.7227,158.9461 526.2757,159.3931 525.7227,159.3931 M541.7227,159.3931 L533.7227,159.3931 C533.1697,159.3931 532.7227,158.9461 532.7227,158.3931 C532.7227,157.8401 533.1697,157.3931 533.7227,157.3931 L541.6417,157.3931 C542.1947,157.3931 542.6827,157.8401 542.6827,158.3931 C542.6827,158.9461 542.2757,159.3931 541.7227,159.3931 M344.5407,165.4131 C344.4587,165.4131 344.3757,165.4031 344.2927,165.3811 C343.7577,165.2461 343.4347,164.7011 343.5717,164.1651 C344.3297,161.1841 346.5287,158.8231 349.4517,157.8501 C349.9747,157.6761 350.5407,157.9591 350.7157,158.4841 C350.8897,159.0071 350.6067,159.5741 350.0817,159.7481 C347.8427,160.4931 346.0907,162.3741 345.5087,164.6601 C345.3937,165.1121 344.9877,165.4131 344.5407,165.4131 M549.6417,170.9031 C549.0887,170.9031 548.6417,170.4561 548.6417,169.9031 L548.6417,166.3931 C548.6417,165.0691 548.2717,163.7811 547.5707,162.6681 C547.2757,162.2011 547.4157,161.5831 547.8827,161.2891 C548.3527,160.9961 548.9697,161.1351 549.2617,161.6021 C550.1647,163.0351 550.6417,164.6921 550.6417,166.3931 L550.6417,169.9031 C550.6417,170.4561 550.1947,170.9031 549.6417,170.9031 M344.2927,181.3921 C343.7407,181.3921 343.2927,180.9451 343.2927,180.3921 L343.2927,172.3921 C343.2927,171.8391 343.7407,171.3921 344.2927,171.3921 C344.8457,171.3921 345.2927,171.8391 345.2927,172.3921 L345.2927,180.3921 C345.2927,180.9451 344.8457,181.3921 344.2927,181.3921 M549.6417,186.9031 C549.0887,186.9031 548.6417,186.4551 548.6417,185.9031 L548.6417,177.9031 C548.6417,177.3501 549.0887,176.9031 549.6417,176.9031 C550.1947,176.9031 550.6417,177.3501 550.6417,177.9031 L550.6417,185.9031 C550.6417,186.4551 550.1947,186.9031 549.6417,186.9031 M344.2927,197.3921 C343.7407,197.3921 343.2927,196.9451 343.2927,196.3921 L343.2927,188.3921 C343.2927,187.8391 343.7407,187.3921 344.2927,187.3921 C344.8457,187.3921 345.2927,187.8391 345.2927,188.3921 L345.2927,196.3921 C345.2927,196.9451 344.8457,197.3921 344.2927,197.3921 M549.6417,202.9031 C549.0887,202.9031 548.6417,202.4561 548.6417,201.9031 L548.6417,193.9031 C548.6417,193.3501 549.0887,192.9031 549.6417,192.9031 C550.1947,192.9031 550.6417,193.3501 550.6417,193.9031 L550.6417,201.9031 C550.6417,202.4561 550.1947,202.9031 549.6417,202.9031 M344.2927,213.3921 C343.7407,213.3921 343.2927,212.9451 343.2927,212.3921 L343.2927,204.3921 C343.2927,203.8391 343.7407,203.3921 344.2927,203.3921 C344.8457,203.3921 345.2927,203.8391 345.2927,204.3921 L345.2927,212.3921 C345.2927,212.9451 344.8457,213.3921 344.2927,213.3921 M549.6417,218.9031 C549.0887,218.9031 548.6417,218.4561 548.6417,217.9031 L548.6417,209.9031 C548.6417,209.3501 549.0887,208.9031 549.6417,208.9031 C550.1947,208.9031 550.6417,209.3501 550.6417,209.9031 L550.6417,217.9031 C550.6417,218.4561 550.1947,218.9031 549.6417,218.9031 M344.2927,229.3921 C343.7407,229.3921 343.2927,228.9451 343.2927,228.3921 L343.2927,220.3921 C343.2927,219.8391 343.7407,219.3921 344.2927,219.3921 C344.8457,219.3921 345.2927,219.8391 345.2927,220.3921 L345.2927,228.3921 C345.2927,228.9451 344.8457,229.3921 344.2927,229.3921 M549.6417,234.9031 C549.0887,234.9031 548.6417,234.4561 548.6417,233.9031 L548.6417,225.9031 C548.6417,225.3501 549.0887,224.9031 549.6417,224.9031 C550.1947,224.9031 550.6417,225.3501 550.6417,225.9031 L550.6417,233.9031 C550.6417,234.4561 550.1947,234.9031 549.6417,234.9031 M349.6897,243.0401 C349.5817,243.0401 349.4717,243.0231 349.3647,242.9861 C346.4507,241.9831 344.2767,239.6001 343.5477,236.6101 C343.4167,236.0741 343.7457,235.5331 344.2837,235.4021 C344.8187,235.2671 345.3607,235.6001 345.4917,236.1371 C346.0487,238.4271 347.7827,240.3271 350.0147,241.0951 C350.5367,241.2751 350.8147,241.8431 350.6347,242.3661 C350.4927,242.7811 350.1047,243.0401 349.6897,243.0401 M365.6417,243.4731 L357.6417,243.4731 C357.0887,243.4731 356.6417,243.0261 356.6417,242.4731 C356.6417,241.9201 357.0887,241.4731 357.6417,241.4731 L365.6417,241.4731 C366.1947,241.4731 366.6417,241.9201 366.6417,242.4731 C366.6417,243.0261 366.1947,243.4731 365.6417,243.4731 M381.6417,243.4731 L373.6417,243.4731 C373.0887,243.4731 372.6417,243.0261 372.6417,242.4731 C372.6417,241.9201 373.0887,241.4731 373.6417,241.4731 L381.6417,241.4731 C382.1947,241.4731 382.6417,241.9201 382.6417,242.4731 C382.6417,243.0261 382.1947,243.4731 381.6417,243.4731 M397.6417,243.4731 L389.6417,243.4731 C389.0887,243.4731 388.6417,243.0261 388.6417,242.4731 C388.6417,241.9201 389.0887,241.4731 389.6417,241.4731 L397.6417,241.4731 C398.1947,241.4731 398.6417,241.9201 398.6417,242.4731 C398.6417,243.0261 398.1947,243.4731 397.6417,243.4731 M413.6417,243.4731 L405.6417,243.4731 C405.0887,243.4731 404.6417,243.0261 404.6417,242.4731 C404.6417,241.9201 405.0887,241.4731 405.6417,241.4731 L413.6417,241.4731 C414.1947,241.4731 414.6417,241.9201 414.6417,242.4731 C414.6417,243.0261 414.1947,243.4731 413.6417,243.4731 M429.6417,243.4731 L421.6417,243.4731 C421.0887,243.4731 420.6417,243.0261 420.6417,242.4731 C420.6417,241.9201 421.0887,241.4731 421.6417,241.4731 L429.6417,241.4731 C430.1947,241.4731 430.6417,241.9201 430.6417,242.4731 C430.6417,243.0261 430.1947,243.4731 429.6417,243.4731 M445.6417,243.4731 L437.6417,243.4731 C437.0887,243.4731 436.6417,243.0261 436.6417,242.4731 C436.6417,241.9201 437.0887,241.4731 437.6417,241.4731 L445.6417,241.4731 C446.1947,241.4731 446.6417,241.9201 446.6417,242.4731 C446.6417,243.0261 446.1947,243.4731 445.6417,243.4731 M461.6417,243.4731 L453.6417,243.4731 C453.0887,243.4731 452.6417,243.0261 452.6417,242.4731 C452.6417,241.9201 453.0887,241.4731 453.6417,241.4731 L461.6417,241.4731 C462.1947,241.4731 462.6417,241.9201 462.6417,242.4731 C462.6417,243.0261 462.1947,243.4731 461.6417,243.4731 M477.6417,243.4731 L469.6417,243.4731 C469.0887,243.4731 468.6417,243.0261 468.6417,242.4731 C468.6417,241.9201 469.0887,241.4731 469.6417,241.4731 L477.6417,241.4731 C478.1947,241.4731 478.6417,241.9201 478.6417,242.4731 C478.6417,243.0261 478.1947,243.4731 477.6417,243.4731 M493.6417,243.4731 L485.6417,243.4731 C485.0887,243.4731 484.6417,243.0261 484.6417,242.4731 C484.6417,241.9201 485.0887,241.4731 485.6417,241.4731 L493.6417,241.4731 C494.1947,241.4731 494.6417,241.9201 494.6417,242.4731 C494.6417,243.0261 494.1947,243.4731 493.6417,243.4731 M509.6417,243.4731 L501.6417,243.4731 C501.0887,243.4731 500.6417,243.0261 500.6417,242.4731 C500.6417,241.9201 501.0887,241.4731 501.6417,241.4731 L509.6417,241.4731 C510.1947,241.4731 510.6417,241.9201 510.6417,242.4731 C510.6417,243.0261 510.1947,243.4731 509.6417,243.4731 M525.6417,243.4731 L517.6417,243.4731 C517.0887,243.4731 516.6417,243.0261 516.6417,242.4731 C516.6417,241.9201 517.0887,241.4731 517.6417,241.4731 L525.6417,241.4731 C526.1947,241.4731 526.6417,241.9201 526.6417,242.4731 C526.6417,243.0261 526.1947,243.4731 525.6417,243.4731 M541.6467,243.4731 L541.6407,243.4731 L533.6417,243.4731 C533.0887,243.4731 532.6417,243.0261 532.6417,242.4731 C532.6417,241.9201 533.0887,241.4731 533.6417,241.4731 L541.6417,241.4731 L541.6457,241.4731 C543.1687,241.4731 544.6187,240.9911 545.8347,240.0801 C546.2777,239.7471 546.9047,239.8391 547.2347,240.2801 C547.5667,240.7221 547.4767,241.3481 547.0347,241.6801 C545.4687,242.8531 543.6057,243.4731 541.6467,243.4731" id="Fill-44" fill="#E6E6E6"></path>
                <path d="M680.0527,354.1842 L577.3577,354.1842 C572.9397,354.1842 569.3577,350.6032 569.3577,346.1842 L569.3577,166.3932 C569.3577,161.9752 572.9397,158.3932 577.3577,158.3932 L680.0527,158.3932 C684.4707,158.3932 688.0527,161.9752 688.0527,166.3932 L688.0527,346.1842 C688.0527,350.6032 684.4707,354.1842 680.0527,354.1842" id="Fill-46" fill="#FFFFFF"></path>
                <path d="M597.7275,159.3931 L589.7275,159.3931 C589.1745,159.3931 588.7275,158.9461 588.7275,158.3931 C588.7275,157.8401 589.1745,157.3931 589.7275,157.3931 L597.7275,157.3931 C598.2805,157.3931 598.7275,157.8401 598.7275,158.3931 C598.7275,158.9461 598.2805,159.3931 597.7275,159.3931 M613.7275,159.3931 L605.7275,159.3931 C605.1745,159.3931 604.7275,158.9461 604.7275,158.3931 C604.7275,157.8401 605.1745,157.3931 605.7275,157.3931 L613.7275,157.3931 C614.2805,157.3931 614.7275,157.8401 614.7275,158.3931 C614.7275,158.9461 614.2805,159.3931 613.7275,159.3931 M629.7275,159.3931 L621.7275,159.3931 C621.1745,159.3931 620.7275,158.9461 620.7275,158.3931 C620.7275,157.8401 621.1745,157.3931 621.7275,157.3931 L629.7275,157.3931 C630.2805,157.3931 630.7275,157.8401 630.7275,158.3931 C630.7275,158.9461 630.2805,159.3931 629.7275,159.3931 M645.7275,159.3931 L637.7275,159.3931 C637.1745,159.3931 636.7275,158.9461 636.7275,158.3931 C636.7275,157.8401 637.1745,157.3931 637.7275,157.3931 L645.7275,157.3931 C646.2805,157.3931 646.7275,157.8401 646.7275,158.3931 C646.7275,158.9461 646.2805,159.3931 645.7275,159.3931 M661.7275,159.3931 L653.7275,159.3931 C653.1745,159.3931 652.7275,158.9461 652.7275,158.3931 C652.7275,157.8401 653.1745,157.3931 653.7275,157.3931 L661.7275,157.3931 C662.2805,157.3931 662.7275,157.8401 662.7275,158.3931 C662.7275,158.9461 662.2805,159.3931 661.7275,159.3931 M677.7275,159.3931 L669.7275,159.3931 C669.1745,159.3931 668.7275,158.9461 668.7275,158.3931 C668.7275,157.8401 669.1745,157.3931 669.7275,157.3931 L677.7275,157.3931 C678.2805,157.3931 678.7275,157.8401 678.7275,158.3931 C678.7275,158.9461 678.2805,159.3931 677.7275,159.3931 M573.8525,160.2001 C573.4825,160.2001 573.1265,159.9941 572.9535,159.6391 C572.7105,159.1431 572.9155,158.5431 573.4125,158.3011 C574.6445,157.6991 575.9695,157.3931 577.3505,157.3931 L577.3585,157.3931 L581.7275,157.3931 C582.2805,157.3931 582.7275,157.8401 582.7275,158.3931 C582.7275,158.9461 582.2805,159.3931 581.7275,159.3931 L577.3575,159.3931 L577.3515,159.3931 C576.2775,159.3931 575.2485,159.6301 574.2905,160.0981 C574.1495,160.1671 573.9995,160.2001 573.8525,160.2001 M688.0525,168.4971 C687.4995,168.4971 687.0525,168.0491 687.0525,167.4971 L687.0525,166.3931 C687.0515,164.3481 686.1615,162.4121 684.6095,161.0801 C684.1905,160.7201 684.1425,160.0881 684.5015,159.6691 C684.8625,159.2491 685.4955,159.2041 685.9125,159.5621 C687.9075,161.2741 689.0515,163.7641 689.0525,166.3931 L689.0525,167.4971 C689.0525,168.0491 688.6055,168.4971 688.0525,168.4971 M569.3575,174.4521 C568.8045,174.4521 568.3575,174.0041 568.3575,173.4521 L568.3575,166.3931 C568.3575,166.0371 568.3775,165.6841 568.4185,165.3371 C568.4835,164.7901 568.9845,164.3961 569.5285,164.4601 C570.0775,164.5251 570.4695,165.0211 570.4055,165.5701 C570.3735,165.8401 570.3575,166.1151 570.3575,166.3931 L570.3575,173.4521 C570.3575,174.0041 569.9105,174.4521 569.3575,174.4521 M688.0525,184.4971 C687.4995,184.4971 687.0525,184.0491 687.0525,183.4971 L687.0525,175.4971 C687.0525,174.9441 687.4995,174.4971 688.0525,174.4971 C688.6055,174.4971 689.0525,174.9441 689.0525,175.4971 L689.0525,183.4971 C689.0525,184.0491 688.6055,184.4971 688.0525,184.4971 M569.3575,190.4521 C568.8045,190.4521 568.3575,190.0041 568.3575,189.4521 L568.3575,181.4521 C568.3575,180.8991 568.8045,180.4521 569.3575,180.4521 C569.9105,180.4521 570.3575,180.8991 570.3575,181.4521 L570.3575,189.4521 C570.3575,190.0041 569.9105,190.4521 569.3575,190.4521 M688.0525,200.4971 C687.4995,200.4971 687.0525,200.0491 687.0525,199.4971 L687.0525,191.4971 C687.0525,190.9441 687.4995,190.4971 688.0525,190.4971 C688.6055,190.4971 689.0525,190.9441 689.0525,191.4971 L689.0525,199.4971 C689.0525,200.0491 688.6055,200.4971 688.0525,200.4971 M569.3575,206.4521 C568.8045,206.4521 568.3575,206.0041 568.3575,205.4521 L568.3575,197.4521 C568.3575,196.8991 568.8045,196.4521 569.3575,196.4521 C569.9105,196.4521 570.3575,196.8991 570.3575,197.4521 L570.3575,205.4521 C570.3575,206.0041 569.9105,206.4521 569.3575,206.4521 M688.0525,216.4971 C687.4995,216.4971 687.0525,216.0491 687.0525,215.4971 L687.0525,207.4971 C687.0525,206.9441 687.4995,206.4971 688.0525,206.4971 C688.6055,206.4971 689.0525,206.9441 689.0525,207.4971 L689.0525,215.4971 C689.0525,216.0491 688.6055,216.4971 688.0525,216.4971 M569.3575,222.4521 C568.8045,222.4521 568.3575,222.0041 568.3575,221.4521 L568.3575,213.4521 C568.3575,212.8991 568.8045,212.4521 569.3575,212.4521 C569.9105,212.4521 570.3575,212.8991 570.3575,213.4521 L570.3575,221.4521 C570.3575,222.0041 569.9105,222.4521 569.3575,222.4521 M688.0525,232.4971 C687.4995,232.4971 687.0525,232.0491 687.0525,231.4971 L687.0525,223.4971 C687.0525,222.9441 687.4995,222.4971 688.0525,222.4971 C688.6055,222.4971 689.0525,222.9441 689.0525,223.4971 L689.0525,231.4971 C689.0525,232.0491 688.6055,232.4971 688.0525,232.4971 M569.3575,238.4521 C568.8045,238.4521 568.3575,238.0041 568.3575,237.4521 L568.3575,229.4521 C568.3575,228.8991 568.8045,228.4521 569.3575,228.4521 C569.9105,228.4521 570.3575,228.8991 570.3575,229.4521 L570.3575,237.4521 C570.3575,238.0041 569.9105,238.4521 569.3575,238.4521 M688.0525,248.4971 C687.4995,248.4971 687.0525,248.0491 687.0525,247.4971 L687.0525,239.4971 C687.0525,238.9441 687.4995,238.4971 688.0525,238.4971 C688.6055,238.4971 689.0525,238.9441 689.0525,239.4971 L689.0525,247.4971 C689.0525,248.0491 688.6055,248.4971 688.0525,248.4971 M569.3575,254.4521 C568.8045,254.4521 568.3575,254.0041 568.3575,253.4521 L568.3575,245.4521 C568.3575,244.8991 568.8045,244.4521 569.3575,244.4521 C569.9105,244.4521 570.3575,244.8991 570.3575,245.4521 L570.3575,253.4521 C570.3575,254.0041 569.9105,254.4521 569.3575,254.4521 M688.0525,264.4971 C687.4995,264.4971 687.0525,264.0491 687.0525,263.4971 L687.0525,255.4971 C687.0525,254.9441 687.4995,254.4971 688.0525,254.4971 C688.6055,254.4971 689.0525,254.9441 689.0525,255.4971 L689.0525,263.4971 C689.0525,264.0491 688.6055,264.4971 688.0525,264.4971 M569.3575,270.4521 C568.8045,270.4521 568.3575,270.0041 568.3575,269.4521 L568.3575,261.4521 C568.3575,260.8991 568.8045,260.4521 569.3575,260.4521 C569.9105,260.4521 570.3575,260.8991 570.3575,261.4521 L570.3575,269.4521 C570.3575,270.0041 569.9105,270.4521 569.3575,270.4521 M688.0525,280.4971 C687.4995,280.4971 687.0525,280.0491 687.0525,279.4971 L687.0525,271.4971 C687.0525,270.9441 687.4995,270.4971 688.0525,270.4971 C688.6055,270.4971 689.0525,270.9441 689.0525,271.4971 L689.0525,279.4971 C689.0525,280.0491 688.6055,280.4971 688.0525,280.4971 M569.3575,286.4521 C568.8045,286.4521 568.3575,286.0041 568.3575,285.4521 L568.3575,277.4521 C568.3575,276.8991 568.8045,276.4521 569.3575,276.4521 C569.9105,276.4521 570.3575,276.8991 570.3575,277.4521 L570.3575,285.4521 C570.3575,286.0041 569.9105,286.4521 569.3575,286.4521 M688.0525,296.4971 C687.4995,296.4971 687.0525,296.0491 687.0525,295.4971 L687.0525,287.4971 C687.0525,286.9441 687.4995,286.4971 688.0525,286.4971 C688.6055,286.4971 689.0525,286.9441 689.0525,287.4971 L689.0525,295.4971 C689.0525,296.0491 688.6055,296.4971 688.0525,296.4971 M569.3575,302.4521 C568.8045,302.4521 568.3575,302.0041 568.3575,301.4521 L568.3575,293.4521 C568.3575,292.8991 568.8045,292.4521 569.3575,292.4521 C569.9105,292.4521 570.3575,292.8991 570.3575,293.4521 L570.3575,301.4521 C570.3575,302.0041 569.9105,302.4521 569.3575,302.4521 M688.0525,312.4971 C687.4995,312.4971 687.0525,312.0491 687.0525,311.4971 L687.0525,303.4971 C687.0525,302.9441 687.4995,302.4971 688.0525,302.4971 C688.6055,302.4971 689.0525,302.9441 689.0525,303.4971 L689.0525,311.4971 C689.0525,312.0491 688.6055,312.4971 688.0525,312.4971 M569.3575,318.4521 C568.8045,318.4521 568.3575,318.0041 568.3575,317.4521 L568.3575,309.4521 C568.3575,308.8991 568.8045,308.4521 569.3575,308.4521 C569.9105,308.4521 570.3575,308.8991 570.3575,309.4521 L570.3575,317.4521 C570.3575,318.0041 569.9105,318.4521 569.3575,318.4521 M688.0525,328.4971 C687.4995,328.4971 687.0525,328.0491 687.0525,327.4971 L687.0525,319.4971 C687.0525,318.9441 687.4995,318.4971 688.0525,318.4971 C688.6055,318.4971 689.0525,318.9441 689.0525,319.4971 L689.0525,327.4971 C689.0525,328.0491 688.6055,328.4971 688.0525,328.4971 M569.3575,334.4521 C568.8045,334.4521 568.3575,334.0041 568.3575,333.4521 L568.3575,325.4521 C568.3575,324.8991 568.8045,324.4521 569.3575,324.4521 C569.9105,324.4521 570.3575,324.8991 570.3575,325.4521 L570.3575,333.4521 C570.3575,334.0041 569.9105,334.4521 569.3575,334.4521 M688.0525,344.4971 C687.4995,344.4971 687.0525,344.0491 687.0525,343.4971 L687.0525,335.4971 C687.0525,334.9441 687.4995,334.4971 688.0525,334.4971 C688.6055,334.4971 689.0525,334.9441 689.0525,335.4971 L689.0525,343.4971 C689.0525,344.0491 688.6055,344.4971 688.0525,344.4971 M570.0145,350.3611 C569.6275,350.3611 569.2595,350.1351 569.0955,349.7581 C568.6075,348.6291 568.3585,347.4271 568.3575,346.1851 L568.3575,341.4521 C568.3575,340.8991 568.8045,340.4521 569.3575,340.4521 C569.9105,340.4521 570.3575,340.8991 570.3575,341.4521 L570.3575,346.1841 C570.3585,347.1511 570.5515,348.0861 570.9315,348.9631 C571.1505,349.4701 570.9175,350.0591 570.4115,350.2791 C570.2825,350.3341 570.1465,350.3611 570.0145,350.3611 M584.0525,355.1841 L577.3575,355.1841 C576.8715,355.1841 576.3795,355.1451 575.8995,355.0671 C575.3545,354.9781 574.9845,354.4641 575.0725,353.9191 C575.1615,353.3741 575.6635,352.9991 576.2195,353.0921 C576.5945,353.1531 576.9775,353.1841 577.3575,353.1841 L584.0525,353.1841 C584.6055,353.1841 585.0525,353.6311 585.0525,354.1841 C585.0525,354.7371 584.6055,355.1841 584.0525,355.1841 M600.0525,355.1841 L592.0525,355.1841 C591.4995,355.1841 591.0525,354.7371 591.0525,354.1841 C591.0525,353.6311 591.4995,353.1841 592.0525,353.1841 L600.0525,353.1841 C600.6055,353.1841 601.0525,353.6311 601.0525,354.1841 C601.0525,354.7371 600.6055,355.1841 600.0525,355.1841 M616.0525,355.1841 L608.0525,355.1841 C607.4995,355.1841 607.0525,354.7371 607.0525,354.1841 C607.0525,353.6311 607.4995,353.1841 608.0525,353.1841 L616.0525,353.1841 C616.6055,353.1841 617.0525,353.6311 617.0525,354.1841 C617.0525,354.7371 616.6055,355.1841 616.0525,355.1841 M632.0525,355.1841 L624.0525,355.1841 C623.4995,355.1841 623.0525,354.7371 623.0525,354.1841 C623.0525,353.6311 623.4995,353.1841 624.0525,353.1841 L632.0525,353.1841 C632.6055,353.1841 633.0525,353.6311 633.0525,354.1841 C633.0525,354.7371 632.6055,355.1841 632.0525,355.1841 M648.0525,355.1841 L640.0525,355.1841 C639.4995,355.1841 639.0525,354.7371 639.0525,354.1841 C639.0525,353.6311 639.4995,353.1841 640.0525,353.1841 L648.0525,353.1841 C648.6055,353.1841 649.0525,353.6311 649.0525,354.1841 C649.0525,354.7371 648.6055,355.1841 648.0525,355.1841 M664.0525,355.1841 L656.0525,355.1841 C655.4995,355.1841 655.0525,354.7371 655.0525,354.1841 C655.0525,353.6311 655.4995,353.1841 656.0525,353.1841 L664.0525,353.1841 C664.6055,353.1841 665.0525,353.6311 665.0525,354.1841 C665.0525,354.7371 664.6055,355.1841 664.0525,355.1841 M680.0525,355.1841 L672.0525,355.1841 C671.4995,355.1841 671.0525,354.7371 671.0525,354.1841 C671.0525,353.6311 671.4995,353.1841 672.0525,353.1841 L680.0525,353.1841 C682.2185,353.1841 684.2295,352.2051 685.5675,350.4971 C685.9085,350.0631 686.5355,349.9861 686.9715,350.3271 C687.4065,350.6671 687.4825,351.2961 687.1415,351.7311 C685.4215,353.9251 682.8375,355.1841 680.0525,355.1841" id="Fill-48" fill="#E6E6E6"></path>
                <path d="M541.6416,354.1842 L352.2926,354.1842 C347.8746,354.1842 344.2926,350.6032 344.2926,346.1842 L344.2926,278.1052 C344.2926,273.6862 347.8746,270.1052 352.2926,270.1052 L541.6416,270.1052 C546.0596,270.1052 549.6416,273.6862 549.6416,278.1052 L549.6416,346.1842 C549.6416,350.6032 546.0596,354.1842 541.6416,354.1842" id="Fill-50" fill="#FFFFFF"></path>
                <path d="M365.7236,271.1051 L357.7236,271.1051 C357.1706,271.1051 356.7236,270.6581 356.7236,270.1051 C356.7236,269.5521 357.1706,269.1051 357.7236,269.1051 L365.7236,269.1051 C366.2766,269.1051 366.7236,269.5521 366.7236,270.1051 C366.7236,270.6581 366.2766,271.1051 365.7236,271.1051 M381.7236,271.1051 L373.7236,271.1051 C373.1706,271.1051 372.7236,270.6581 372.7236,270.1051 C372.7236,269.5521 373.1706,269.1051 373.7236,269.1051 L381.7236,269.1051 C382.2766,269.1051 382.7236,269.5521 382.7236,270.1051 C382.7236,270.6581 382.2766,271.1051 381.7236,271.1051 M397.7236,271.1051 L389.7236,271.1051 C389.1706,271.1051 388.7236,270.6581 388.7236,270.1051 C388.7236,269.5521 389.1706,269.1051 389.7236,269.1051 L397.7236,269.1051 C398.2766,269.1051 398.7236,269.5521 398.7236,270.1051 C398.7236,270.6581 398.2766,271.1051 397.7236,271.1051 M413.7236,271.1051 L405.7236,271.1051 C405.1706,271.1051 404.7236,270.6581 404.7236,270.1051 C404.7236,269.5521 405.1706,269.1051 405.7236,269.1051 L413.7236,269.1051 C414.2766,269.1051 414.7236,269.5521 414.7236,270.1051 C414.7236,270.6581 414.2766,271.1051 413.7236,271.1051 M429.7236,271.1051 L421.7236,271.1051 C421.1706,271.1051 420.7236,270.6581 420.7236,270.1051 C420.7236,269.5521 421.1706,269.1051 421.7236,269.1051 L429.7236,269.1051 C430.2766,269.1051 430.7236,269.5521 430.7236,270.1051 C430.7236,270.6581 430.2766,271.1051 429.7236,271.1051 M445.7236,271.1051 L437.7236,271.1051 C437.1706,271.1051 436.7236,270.6581 436.7236,270.1051 C436.7236,269.5521 437.1706,269.1051 437.7236,269.1051 L445.7236,269.1051 C446.2766,269.1051 446.7236,269.5521 446.7236,270.1051 C446.7236,270.6581 446.2766,271.1051 445.7236,271.1051 M461.7236,271.1051 L453.7236,271.1051 C453.1706,271.1051 452.7236,270.6581 452.7236,270.1051 C452.7236,269.5521 453.1706,269.1051 453.7236,269.1051 L461.7236,269.1051 C462.2766,269.1051 462.7236,269.5521 462.7236,270.1051 C462.7236,270.6581 462.2766,271.1051 461.7236,271.1051 M477.7236,271.1051 L469.7236,271.1051 C469.1706,271.1051 468.7236,270.6581 468.7236,270.1051 C468.7236,269.5521 469.1706,269.1051 469.7236,269.1051 L477.7236,269.1051 C478.2766,269.1051 478.7236,269.5521 478.7236,270.1051 C478.7236,270.6581 478.2766,271.1051 477.7236,271.1051 M493.7236,271.1051 L485.7236,271.1051 C485.1706,271.1051 484.7236,270.6581 484.7236,270.1051 C484.7236,269.5521 485.1706,269.1051 485.7236,269.1051 L493.7236,269.1051 C494.2766,269.1051 494.7236,269.5521 494.7236,270.1051 C494.7236,270.6581 494.2766,271.1051 493.7236,271.1051 M509.7236,271.1051 L501.7236,271.1051 C501.1706,271.1051 500.7236,270.6581 500.7236,270.1051 C500.7236,269.5521 501.1706,269.1051 501.7236,269.1051 L509.7236,269.1051 C510.2766,269.1051 510.7236,269.5521 510.7236,270.1051 C510.7236,270.6581 510.2766,271.1051 509.7236,271.1051 M525.7236,271.1051 L517.7236,271.1051 C517.1706,271.1051 516.7236,270.6581 516.7236,270.1051 C516.7236,269.5521 517.1706,269.1051 517.7236,269.1051 L525.7236,269.1051 C526.2766,269.1051 526.7236,269.5521 526.7236,270.1051 C526.7236,270.6581 526.2766,271.1051 525.7236,271.1051 M541.7236,271.1051 L533.7236,271.1051 C533.1706,271.1051 532.7236,270.6581 532.7236,270.1051 C532.7236,269.5521 533.1706,269.1051 533.7236,269.1051 L541.6416,269.1051 C542.1946,269.1051 542.6826,269.5521 542.6826,270.1051 C542.6826,270.6581 542.2766,271.1051 541.7236,271.1051 M344.5406,277.1251 C344.4586,277.1251 344.3756,277.1151 344.2926,277.0931 C343.7576,276.9581 343.4346,276.4131 343.5716,275.8771 C344.3196,272.9401 346.5726,270.5201 349.4526,269.5631 C349.9746,269.3941 350.5416,269.6731 350.7166,270.1971 C350.8906,270.7211 350.6076,271.2871 350.0826,271.4611 C347.8436,272.2061 346.0906,274.0861 345.5086,276.3721 C345.3936,276.8241 344.9876,277.1251 344.5406,277.1251 M549.6416,282.6151 C549.0886,282.6151 548.6416,282.1681 548.6416,281.6151 L548.6416,278.1051 C548.6426,276.7821 548.2726,275.4951 547.5716,274.3811 C547.2766,273.9141 547.4166,273.2961 547.8836,273.0021 C548.3546,272.7081 548.9696,272.8481 549.2626,273.3151 C550.1656,274.7491 550.6426,276.4051 550.641602,278.1061 L550.641602,281.6151 C550.641602,282.1681 550.1946,282.6151 549.6416,282.6151 M344.2926,293.1031 C343.7406,293.1031 343.2926,292.6561 343.2926,292.1031 L343.2926,284.1031 C343.2926,283.5501 343.7406,283.1031 344.2926,283.1031 C344.8456,283.1031 345.2926,283.5501 345.2926,284.1031 L345.2926,292.1031 C345.2926,292.6561 344.8456,293.1031 344.2926,293.1031 M549.6416,298.6151 C549.0886,298.6151 548.6416,298.1671 548.6416,297.6151 L548.6416,289.6151 C548.6416,289.0621 549.0886,288.6151 549.6416,288.6151 C550.1946,288.6151 550.6416,289.0621 550.6416,289.6151 L550.6416,297.6151 C550.6416,298.1671 550.1946,298.6151 549.6416,298.6151 M344.2926,309.1031 C343.7406,309.1031 343.2926,308.6561 343.2926,308.1031 L343.2926,300.1031 C343.2926,299.5501 343.7406,299.1031 344.2926,299.1031 C344.8456,299.1031 345.2926,299.5501 345.2926,300.1031 L345.2926,308.1031 C345.2926,308.6561 344.8456,309.1031 344.2926,309.1031 M549.6416,314.6151 C549.0886,314.6151 548.6416,314.1681 548.6416,313.6151 L548.6416,305.6151 C548.6416,305.0621 549.0886,304.6151 549.6416,304.6151 C550.1946,304.6151 550.6416,305.0621 550.6416,305.6151 L550.6416,313.6151 C550.6416,314.1681 550.1946,314.6151 549.6416,314.6151 M344.2926,325.1031 C343.7406,325.1031 343.2926,324.6561 343.2926,324.1031 L343.2926,316.1031 C343.2926,315.5501 343.7406,315.1031 344.2926,315.1031 C344.8456,315.1031 345.2926,315.5501 345.2926,316.1031 L345.2926,324.1031 C345.2926,324.6561 344.8456,325.1031 344.2926,325.1031 M549.6416,330.6151 C549.0886,330.6151 548.6416,330.1681 548.6416,329.6151 L548.6416,321.6151 C548.6416,321.0621 549.0886,320.6151 549.6416,320.6151 C550.1946,320.6151 550.6416,321.0621 550.6416,321.6151 L550.6416,329.6151 C550.6416,330.1681 550.1946,330.6151 549.6416,330.6151 M344.2926,341.1031 C343.7406,341.1031 343.2926,340.6561 343.2926,340.1031 L343.2926,332.1031 C343.2926,331.5501 343.7406,331.1031 344.2926,331.1031 C344.8456,331.1031 345.2926,331.5501 345.2926,332.1031 L345.2926,340.1031 C345.2926,340.6561 344.8456,341.1031 344.2926,341.1031 M549.6416,346.6151 C549.0886,346.6151 548.6416,346.1681 548.6416,345.6151 L548.6416,337.6151 C548.6416,337.0621 549.0886,336.6151 549.6416,336.6151 C550.1946,336.6151 550.6416,337.0621 550.6416,337.6151 L550.6416,345.6151 C550.6416,346.1681 550.1946,346.6151 549.6416,346.6151 M349.6896,354.7511 C349.5816,354.7511 349.4716,354.7341 349.3646,354.6971 C346.4516,353.6961 344.2766,351.3121 343.5476,348.3221 C343.4166,347.7861 343.7456,347.2451 344.2836,347.1141 C344.8186,346.9811 345.3606,347.3121 345.4916,347.8491 C346.0486,350.1391 347.7826,352.0391 350.0146,352.8061 C350.5366,352.9851 350.8146,353.5541 350.6346,354.0771 C350.4926,354.4911 350.1046,354.7511 349.6896,354.7511 M365.6416,355.1841 L357.6416,355.1841 C357.0886,355.1841 356.6416,354.7371 356.6416,354.1841 C356.6416,353.6311 357.0886,353.1841 357.6416,353.1841 L365.6416,353.1841 C366.1946,353.1841 366.6416,353.6311 366.6416,354.1841 C366.6416,354.7371 366.1946,355.1841 365.6416,355.1841 M381.6416,355.1841 L373.6416,355.1841 C373.0886,355.1841 372.6416,354.7371 372.6416,354.1841 C372.6416,353.6311 373.0886,353.1841 373.6416,353.1841 L381.6416,353.1841 C382.1946,353.1841 382.6416,353.6311 382.6416,354.1841 C382.6416,354.7371 382.1946,355.1841 381.6416,355.1841 M397.6416,355.1841 L389.6416,355.1841 C389.0886,355.1841 388.6416,354.7371 388.6416,354.1841 C388.6416,353.6311 389.0886,353.1841 389.6416,353.1841 L397.6416,353.1841 C398.1946,353.1841 398.6416,353.6311 398.6416,354.1841 C398.6416,354.7371 398.1946,355.1841 397.6416,355.1841 M413.6416,355.1841 L405.6416,355.1841 C405.0886,355.1841 404.6416,354.7371 404.6416,354.1841 C404.6416,353.6311 405.0886,353.1841 405.6416,353.1841 L413.6416,353.1841 C414.1946,353.1841 414.6416,353.6311 414.6416,354.1841 C414.6416,354.7371 414.1946,355.1841 413.6416,355.1841 M429.6416,355.1841 L421.6416,355.1841 C421.0886,355.1841 420.6416,354.7371 420.6416,354.1841 C420.6416,353.6311 421.0886,353.1841 421.6416,353.1841 L429.6416,353.1841 C430.1946,353.1841 430.6416,353.6311 430.6416,354.1841 C430.6416,354.7371 430.1946,355.1841 429.6416,355.1841 M445.6416,355.1841 L437.6416,355.1841 C437.0886,355.1841 436.6416,354.7371 436.6416,354.1841 C436.6416,353.6311 437.0886,353.1841 437.6416,353.1841 L445.6416,353.1841 C446.1946,353.1841 446.6416,353.6311 446.6416,354.1841 C446.6416,354.7371 446.1946,355.1841 445.6416,355.1841 M461.6416,355.1841 L453.6416,355.1841 C453.0886,355.1841 452.6416,354.7371 452.6416,354.1841 C452.6416,353.6311 453.0886,353.1841 453.6416,353.1841 L461.6416,353.1841 C462.1946,353.1841 462.6416,353.6311 462.6416,354.1841 C462.6416,354.7371 462.1946,355.1841 461.6416,355.1841 M477.6416,355.1841 L469.6416,355.1841 C469.0886,355.1841 468.6416,354.7371 468.6416,354.1841 C468.6416,353.6311 469.0886,353.1841 469.6416,353.1841 L477.6416,353.1841 C478.1946,353.1841 478.6416,353.6311 478.6416,354.1841 C478.6416,354.7371 478.1946,355.1841 477.6416,355.1841 M493.6416,355.1841 L485.6416,355.1841 C485.0886,355.1841 484.6416,354.7371 484.6416,354.1841 C484.6416,353.6311 485.0886,353.1841 485.6416,353.1841 L493.6416,353.1841 C494.1946,353.1841 494.6416,353.6311 494.6416,354.1841 C494.6416,354.7371 494.1946,355.1841 493.6416,355.1841 M509.6416,355.1841 L501.6416,355.1841 C501.0886,355.1841 500.6416,354.7371 500.6416,354.1841 C500.6416,353.6311 501.0886,353.1841 501.6416,353.1841 L509.6416,353.1841 C510.1946,353.1841 510.6416,353.6311 510.6416,354.1841 C510.6416,354.7371 510.1946,355.1841 509.6416,355.1841 M525.6416,355.1841 L517.6416,355.1841 C517.0886,355.1841 516.6416,354.7371 516.6416,354.1841 C516.6416,353.6311 517.0886,353.1841 517.6416,353.1841 L525.6416,353.1841 C526.1946,353.1841 526.6416,353.6311 526.6416,354.1841 C526.6416,354.7371 526.1946,355.1841 525.6416,355.1841 M541.6416,355.1841 L533.6416,355.1841 C533.0886,355.1841 532.6416,354.7371 532.6416,354.1841 C532.6416,353.6311 533.0886,353.1841 533.6416,353.1841 L541.6416,353.1841 C543.1676,353.1841 544.6186,352.7021 545.8346,351.7911 C546.2776,351.4591 546.9046,351.5501 547.2346,351.9911 C547.5666,352.4331 547.4766,353.0591 547.0346,353.3911 C545.4686,354.5641 543.6036,355.1841 541.6416,355.1841" id="Fill-52" fill="#E6E6E6"></path>
                <path d="M472.5195,242.4732 L283.1705,242.4732 C278.7525,242.4732 275.1705,238.8912 275.1705,234.4732 L275.1705,166.3932 C275.1705,161.9752 278.7525,158.3932 283.1705,158.3932 L472.5195,158.3932 C476.9385,158.3932 480.5195,161.9752 480.5195,166.3932 L480.5195,234.4732 C480.5195,238.8912 476.9385,242.4732 472.5195,242.4732" id="Fill-54" fill="#00A99D"></path>
                <path d="M348.8799,200.4332 C348.8799,214.9402 337.1199,226.7012 322.6129,226.7012 C308.1059,226.7012 296.3459,214.9402 296.3459,200.4332 C296.3459,185.9262 308.1059,174.1652 322.6129,174.1652 C337.1199,174.1652 348.8799,185.9262 348.8799,200.4332" id="Fill-56" fill="#FFFFFF"></path>
                <path d="M455.5352,217.8834 L368.2242,217.8834 C366.8442,217.8834 365.7242,216.7644 365.7242,215.3834 C365.7242,214.0024 366.8442,212.8834 368.2242,212.8834 L455.5352,212.8834 C456.9162,212.8834 458.0352,214.0024 458.0352,215.3834 C458.0352,216.7644 456.9162,217.8834 455.5352,217.8834" id="Fill-58" fill="#FFFFFF"></path>
                <path d="M415.3701,202.9332 L368.2241,202.9332 C366.8441,202.9332 365.7241,201.8142 365.7241,200.4332 C365.7241,199.0522 366.8441,197.9332 368.2241,197.9332 L415.3701,197.9332 C416.7511,197.9332 417.8701,199.0522 417.8701,200.4332 C417.8701,201.8142 416.7511,202.9332 415.3701,202.9332" id="Fill-60" fill="#FFFFFF"></path>
                <path d="M442.71,187.983 L368.225,187.983 C366.844,187.983 365.725,186.864 365.725,185.483 C365.725,184.102 366.844,182.983 368.225,182.983 L442.71,182.983 C444.091,182.983 445.21,184.102 445.21,185.483 C445.21,186.864 444.091,187.983 442.71,187.983" id="Fill-62" fill="#FFFFFF"></path>
                <path d="M609.4814,222.1597 L647.9284,222.1597 C654.2984,222.1597 659.4624,227.3237 659.4624,233.6937 L659.4624,272.1417 C659.4624,278.5127 654.2984,283.6767 647.9284,283.6767 L609.4814,283.6767 C603.1114,283.6767 597.9474,278.5127 597.9474,272.1417 L597.9474,233.6937 C597.9474,227.3237 603.1114,222.1597 609.4814,222.1597" id="Fill-64" fill="#FFFFFF"></path>
                <path d="M609.4814,223.1597 C603.6724,223.1597 598.9474,227.8857 598.9474,233.6937 L598.9474,272.1417 C598.9474,277.9507 603.6724,282.6767 609.4814,282.6767 L647.9284,282.6767 C653.7374,282.6767 658.4624,277.9507 658.4624,272.1417 L658.4624,233.6937 C658.4624,227.8857 653.7374,223.1597 647.9284,223.1597 L609.4814,223.1597 Z M647.9284,284.6767 L609.4814,284.6767 C602.5704,284.6767 596.9474,279.0537 596.9474,272.1417 L596.9474,233.6937 C596.9474,226.7827 602.5704,221.1597 609.4814,221.1597 L647.9284,221.1597 C654.8394,221.1597 660.4624,226.7827 660.4624,233.6937 L660.4624,272.1417 C660.4624,279.0537 654.8394,284.6767 647.9284,284.6767 L647.9284,284.6767 Z" id="Fill-66" fill="#E6E6E6"></path>
                <path d="M636.3945,260.607 L640.2395,256.762 C643.8075,253.329 648.2055,253.329 651.7735,256.762 L659.4625,264.453 L659.4625,273.17 C659.4625,278.972 654.7585,283.676 648.9565,283.676 L608.4545,283.676 C602.6515,283.676 597.9475,278.972 597.9475,273.17 L597.9475,264.453 L613.3265,249.073 C616.8945,245.639 621.2915,245.639 624.8605,249.073 L644.0835,268.297" id="Fill-68" fill="#E6E6E6"></path>
                <path d="M645.1914,239.4478 C645.1914,241.6728 643.3874,243.4748 641.1644,243.4748 C638.9394,243.4748 637.1354,241.6728 637.1354,239.4478 C637.1354,237.2228 638.9394,235.4208 641.1644,235.4208 C643.3874,235.4208 645.1914,237.2228 645.1914,239.4478" id="Fill-70" fill="#E6E6E6"></path>
                <path d="M806.2979,296.1295 C806.2979,283.4195 795.9579,273.0795 783.2489,273.0795 C770.5389,273.0795 760.1989,283.4195 760.1989,296.1295 C760.1989,297.5105 759.0799,298.6295 757.6989,298.6295 C756.3189,298.6295 755.1989,297.5105 755.1989,296.1295 C755.1989,280.6625 767.7819,268.0795 783.2489,268.0795 C798.7149,268.0795 811.2979,280.6625 811.2979,296.1295 C811.2979,297.5105 810.1789,298.6295 808.7979,298.6295 C807.4169,298.6295 806.2979,297.5105 806.2979,296.1295 Z" id="Fill-86" fill="#DA1E28"></path>
                <mask id="mask-4" fill="white">
                    <use xlink:href="#path-3"></use>
                </mask>
                <g id="Clip-73"></g>
                <path d="M663.112,339.618 L903.385,339.618 L903.385,298.63 L663.112,298.63 L663.112,339.618 Z M658.113,344.618 L908.386,344.618 L908.386,293.63 L658.113,293.63 L658.113,344.618 Z" id="Fill-72" fill="#0A3C4C" mask="url(#mask-4)"></path>
                <path d="M660.6104,344.6177 C660.1334,344.6177 659.6514,344.4817 659.2254,344.1977 C658.0774,343.4317 657.7664,341.8797 658.5324,340.7307 L689.1914,294.7427 C689.9564,293.5937 691.5094,293.2827 692.6584,294.0497 C693.8064,294.8147 694.1174,296.3677 693.3514,297.5157 L662.6924,343.5047 C662.2114,344.2267 661.4184,344.6177 660.6104,344.6177" id="Fill-74" fill="#0A3C4C" mask="url(#mask-4)"></path>
                <path d="M691.2695,344.6177 C690.7925,344.6177 690.3105,344.4817 689.8845,344.1977 C688.7365,343.4317 688.4255,341.8797 689.1915,340.7307 L719.8505,294.7427 C720.6165,293.5937 722.1695,293.2827 723.3175,294.0497 C724.4655,294.8147 724.7765,296.3677 724.0105,297.5157 L693.3515,343.5047 C692.8705,344.2267 692.0775,344.6177 691.2695,344.6177" id="Fill-75" fill="#0A3C4C" mask="url(#mask-4)"></path>
                <path d="M721.9287,344.6177 C721.4517,344.6177 720.9697,344.4817 720.5437,344.1977 C719.3957,343.4317 719.0847,341.8797 719.8507,340.7307 L750.5097,294.7427 C751.2757,293.5937 752.8277,293.2827 753.9767,294.0497 C755.1247,294.8147 755.4357,296.3677 754.6697,297.5157 L724.0107,343.5047 C723.5297,344.2267 722.7367,344.6177 721.9287,344.6177" id="Fill-76" fill="#0A3C4C" mask="url(#mask-4)"></path>
                <path d="M752.5879,344.6177 C752.1109,344.6177 751.6289,344.4817 751.2029,344.1977 C750.0549,343.4317 749.7439,341.8797 750.5099,340.7307 L781.1689,294.7427 C781.9339,293.5937 783.4869,293.2827 784.6359,294.0497 C785.7839,294.8147 786.0949,296.3677 785.3289,297.5157 L754.6699,343.5047 C754.1889,344.2267 753.3959,344.6177 752.5879,344.6177" id="Fill-77" fill="#0A3C4C" mask="url(#mask-4)"></path>
                <path d="M783.2471,344.6177 C782.7701,344.6177 782.2881,344.4817 781.8621,344.1977 C780.7141,343.4317 780.4031,341.8797 781.1691,340.7307 L811.8281,294.7427 C812.5941,293.5937 814.1461,293.2827 815.2951,294.0497 C816.4431,294.8147 816.7541,296.3677 815.9881,297.5157 L785.3291,343.5047 C784.8481,344.2267 784.0551,344.6177 783.2471,344.6177" id="Fill-78" fill="#0A3C4C" mask="url(#mask-4)"></path>
                <path d="M813.9062,344.6177 C813.4292,344.6177 812.9472,344.4817 812.5212,344.1977 C811.3732,343.4317 811.0622,341.8797 811.8282,340.7307 L842.4872,294.7427 C843.2522,293.5937 844.8052,293.2827 845.9542,294.0497 C847.1022,294.8147 847.4132,296.3677 846.6472,297.5157 L815.9882,343.5047 C815.5072,344.2267 814.7142,344.6177 813.9062,344.6177" id="Fill-79" fill="#0A3C4C" mask="url(#mask-4)"></path>
                <path d="M844.5654,344.6177 C844.0884,344.6177 843.6064,344.4817 843.1804,344.1977 C842.0324,343.4317 841.7214,341.8797 842.4874,340.7307 L873.1464,294.7427 C873.9124,293.5937 875.4644,293.2827 876.6134,294.0497 C877.7614,294.8147 878.0724,296.3677 877.3064,297.5157 L846.6474,343.5047 C846.1664,344.2267 845.3734,344.6177 844.5654,344.6177" id="Fill-80" fill="#0A3C4C" mask="url(#mask-4)"></path>
                <path d="M875.2246,344.6177 C874.7476,344.6177 874.2656,344.4817 873.8396,344.1977 C872.6916,343.4317 872.3806,341.8797 873.1466,340.7307 L903.8056,294.7427 C904.5706,293.5937 906.1236,293.2827 907.2726,294.0497 C908.4206,294.8147 908.7316,296.3677 907.9656,297.5157 L877.3066,343.5047 C876.8256,344.2267 876.0326,344.6177 875.2246,344.6177" id="Fill-81" fill="#0A3C4C" mask="url(#mask-4)"></path>
                <path d="M678.442,462.254 L693.881,462.254 L693.881,344.617 L678.442,344.617 L678.442,462.254 Z M673.443,467.254 L698.882,467.254 L698.882,339.617 L673.443,339.617 L673.443,467.254 Z" id="Fill-82" fill="#0A3C4C" mask="url(#mask-4)"></path>
                <path d="M872.616,462.254 L888.055,462.254 L888.055,344.617 L872.616,344.617 L872.616,462.254 Z M867.617,467.254 L893.056,467.254 L893.056,339.617 L867.617,339.617 L867.617,467.254 Z" id="Fill-83" fill="#0A3C4C" mask="url(#mask-4)"></path>
                <path d="M711.7109,467.2545 L660.6119,467.2545 C659.2319,467.2545 658.1119,466.1355 658.1119,464.7545 C658.1119,463.3735 659.2319,462.2545 660.6119,462.2545 L711.7109,462.2545 C713.0919,462.2545 714.2109,463.3735 714.2109,464.7545 C714.2109,466.1355 713.0919,467.2545 711.7109,467.2545" id="Fill-84" fill="#0A3C4C" mask="url(#mask-4)"></path>
                <path d="M905.8857,467.2545 L854.7867,467.2545 C853.4067,467.2545 852.2867,466.1355 852.2867,464.7545 C852.2867,463.3735 853.4067,462.2545 854.7867,462.2545 L905.8857,462.2545 C907.2667,462.2545 908.3857,463.3735 908.3857,464.7545 C908.3857,466.1355 907.2667,467.2545 905.8857,467.2545" id="Fill-85" fill="#0A3C4C" mask="url(#mask-4)"></path>
                <path d="M783.249,252.6402 C781.868,252.6402 780.749,251.5212 780.749,250.1402 L780.749,239.9212 C780.749,238.5402 781.868,237.4212 783.249,237.4212 C784.63,237.4212 785.749,238.5402 785.749,239.9212 L785.749,250.1402 C785.749,251.5212 784.63,252.6402 783.249,252.6402" id="Fill-87" fill="#DA1E28" mask="url(#mask-4)"></path>
                <path d="M750.7305,266.1099 C750.0905,266.1099 749.4515,265.8659 748.9625,265.3779 L741.7365,258.1519 C740.7595,257.1759 740.7595,255.5929 741.7365,254.6169 C742.7125,253.6399 744.2945,253.6399 745.2715,254.6169 L752.4985,261.8419 C753.4745,262.8179 753.4745,264.4009 752.4985,265.3779 C752.0095,265.8659 751.3705,266.1099 750.7305,266.1099" id="Fill-88" fill="#DA1E28" mask="url(#mask-4)"></path>
                <path d="M815.7676,266.1099 C815.1276,266.1099 814.4886,265.8659 813.9996,265.3779 C813.0236,264.4009 813.0236,262.8179 813.9996,261.8419 L821.2266,254.6169 C822.2036,253.6399 823.7856,253.6399 824.7616,254.6169 C825.7386,255.5929 825.7386,257.1759 824.7616,258.1519 L817.5356,265.3779 C817.0466,265.8659 816.4076,266.1099 815.7676,266.1099" id="Fill-89" fill="#DA1E28" mask="url(#mask-4)"></path>
                <path d="M261.7861,447.7144 C260.6781,447.7144 259.6661,446.9714 259.3701,445.8504 L223.8291,310.7924 L201.6971,310.7924 L173.4281,442.7134 L206.1951,442.7134 C207.5761,442.7134 208.6951,443.8324 208.6951,445.2134 C208.6951,446.5944 207.5761,447.7144 206.1951,447.7144 L170.3351,447.7144 C169.5801,447.7144 168.8651,447.3724 168.3901,446.7844 C167.9161,446.1974 167.7321,445.4284 167.8901,444.6904 L197.2311,307.7694 C197.4781,306.6154 198.4971,305.7924 199.6761,305.7924 L225.7561,305.7924 C226.8911,305.7924 227.8851,306.5584 228.1741,307.6554 L264.2061,444.5764 C264.5571,445.9124 263.7601,447.2794 262.4251,447.6314 C262.2111,447.6874 261.9971,447.7144 261.7861,447.7144" id="Fill-90" fill="#0A3C4C" mask="url(#mask-4)"></path>
                <path d="M160.31,462.274 L272.671,462.274 L272.671,447.713 L160.31,447.713 L160.31,462.274 Z M275.171,467.274 L157.81,467.274 C156.429,467.274 155.31,466.155 155.31,464.774 L155.31,445.213 C155.31,443.833 156.429,442.713 157.81,442.713 L275.171,442.713 C276.552,442.713 277.671,443.833 277.671,445.213 L277.671,464.774 C277.671,466.155 276.552,467.274 275.171,467.274 L275.171,467.274 Z" id="Fill-91" fill="#0A3C4C" mask="url(#mask-4)"></path>
                <path d="M235.5361,356.4332 L189.8951,356.4332 C188.5151,356.4332 187.3951,355.3142 187.3951,353.9332 C187.3951,352.5522 188.5151,351.4332 189.8951,351.4332 L235.5361,351.4332 C236.9171,351.4332 238.0361,352.5522 238.0361,353.9332 C238.0361,355.3142 236.9171,356.4332 235.5361,356.4332" id="Fill-92" fill="#0A3C4C" mask="url(#mask-4)"></path>
                <path d="M249.9482,402.0728 L183.3752,402.0728 C181.9942,402.0728 180.8752,400.9538 180.8752,399.5728 C180.8752,398.1918 181.9942,397.0728 183.3752,397.0728 L249.9482,397.0728 C251.3292,397.0728 252.4482,398.1918 252.4482,399.5728 C252.4482,400.9538 251.3292,402.0728 249.9482,402.0728" id="Fill-93" fill="#0A3C4C" mask="url(#mask-4)"></path>
            </g>
        </g>
    </g>
</svg>