<?xml version="1.0" encoding="UTF-8"?>
<svg width="132px" height="32px" viewBox="0 0 132 32" version="1.1" xmlns="http://www.w3.org/2000/svg" xmlns:xlink="http://www.w3.org/1999/xlink">
    <title>paypal-seeklogo.com</title>
    <g id="2.Talento" stroke="none" stroke-width="1" fill="none" fill-rule="evenodd">
        <g id="1.8.5.0-Darshana-talento" transform="translate(-120.000000, -392.000000)">
            <g id="paypal-seeklogo.com" transform="translate(120.000000, 392.000000)">
                <path d="M11.1922922,7 L20.431696,7 C25.3924498,7 27.2598873,9.5066654 26.971305,13.1892973 C26.4943095,19.2690916 22.8119038,22.6327366 17.9274694,22.6327366 L15.4614024,22.6327366 C14.7912237,22.6327366 14.3404629,23.0755094 14.1592046,24.2752809 L13.1121993,31.2501428 C13.043035,31.7024376 12.8045372,31.9642925 12.4467905,32 L6.64175468,32 C6.09559478,32 5.90241158,31.5834127 6.04551025,30.6812036 L9.58481723,8.32117692 C9.72314594,7.42610931 10.2144514,7 11.1922922,7 Z" id="Path" fill="#009EE3"></path>
                <path d="M49.9375333,7 C52.9850149,7 55.7969987,8.6612046 55.4122745,12.8013295 C54.9459422,17.7216816 52.322823,20.4442764 48.1841238,20.4559916 L44.5677168,20.4559916 C44.0477563,20.4559916 43.7959369,20.8824221 43.6607005,21.7563703 L42.961202,26.2245187 C42.8562773,26.8993098 42.5111914,27.2320193 42.0028892,27.2320193 L38.6383016,27.2320193 C38.1020194,27.2320193 37.9154865,26.8875947 38.0344013,26.1167395 L40.8114101,8.20900081 C40.9489781,7.32802348 41.2777424,7 41.8769794,7 L49.9305383,7 L49.9375333,7 Z M44.4581287,16.5876576 L47.197831,16.5876576 C48.9116022,16.5220529 50.049453,15.3294532 50.1637044,13.1785565 C50.2336543,11.8500614 49.3406279,10.8987933 47.9206461,10.9057837 L45.3418284,10.9175375 L44.4581287,16.5876576 L44.4581287,16.5876576 Z M64.5593826,25.8613498 C64.8671619,25.5801868 65.1796046,25.4349193 65.135303,25.781687 L65.0257149,26.6111178 C64.969755,27.0445774 65.1399663,27.2741938 65.5410121,27.2741938 L68.5302022,27.2741938 C69.033841,27.2741938 69.2786655,27.0703506 69.4022436,26.2877803 L71.2442562,14.6710633 C71.3375226,14.0876501 71.1952913,13.8018011 70.7546072,13.8018011 L67.4669645,13.8018011 C67.1708435,13.8018011 67.0262805,13.9681558 66.9493357,14.4227026 L66.8280893,15.1373252 C66.7651344,15.5098662 66.5949231,15.5754708 66.4363701,15.2005869 C65.879103,13.8744348 64.4567895,13.2793065 62.4725456,13.326167 C57.8628507,13.422231 54.754746,16.9391113 54.4213184,21.4470911 C54.1648356,24.933512 56.6503868,27.672508 59.9287028,27.672508 C62.3069976,27.672508 63.3702352,26.9696006 64.5687093,25.8683789 L64.5687093,25.8683789 L64.5593826,25.8613498 Z M62.0551781,24.0736219 C60.0709342,24.0736219 58.6882589,22.482708 58.9750533,20.5333114 C59.2618477,18.5839147 61.1178502,16.9930009 63.1020942,16.9930009 C65.0863381,16.9930009 66.4690134,18.5839147 66.182219,20.5333114 C65.8954247,22.482708 64.0417538,24.0736219 62.0551781,24.0736219 L62.0551781,24.0736219 Z M77.0943949,13.7643127 L74.0632349,13.7643127 C73.4383496,13.7643127 73.1841985,14.2329176 73.3823898,14.8093017 L77.1456914,25.882437 L73.4546713,31.1518999 C73.1445603,31.5923885 73.3847214,31.9930458 73.8207421,31.9930458 L77.2272996,31.9930458 C77.6327612,32.0401536 78.0282727,31.8450971 78.2392407,31.4939815 L89.8136084,14.8116448 C90.1703526,14.2985223 90.002473,13.7596266 89.417226,13.7596266 L86.1925381,13.7596266 C85.6399343,13.7596266 85.4184265,13.9798709 85.1013205,14.4414468 L80.2747812,21.4705213 L78.1179943,14.4250457 C77.9920846,13.9986151 77.6773103,13.7643127 77.0967266,13.7643127 L77.0943949,13.7643127 Z" id="Shape" fill="#113984"></path>
                <path d="M102.093194,7.00475921 C105.181016,7.00475921 108.030224,8.69189802 107.640407,12.8966572 C107.167902,17.8938244 104.510059,20.6589235 100.316574,20.6708215 L96.6546569,20.6708215 C96.1278135,20.6708215 95.8726606,21.1039093 95.735634,21.9915014 L95.0268759,26.5294051 C94.9205622,27.2147309 94.5709082,27.5526346 94.0558774,27.5526346 L90.6467511,27.5526346 C90.1033699,27.5526346 89.9143678,27.2028329 90.0348566,26.4199433 L92.8533512,8.22787535 C92.9927403,7.33314448 93.3258566,7 93.933026,7 L102.093194,7 L102.093194,7.00475921 Z M96.5412557,16.7420963 L99.3172247,16.7420963 C101.053682,16.6754674 102.206595,15.4642493 102.322359,13.2797734 C102.393235,11.9305382 101.488387,10.9644193 100.049608,10.9715188 L97.4366533,10.9834561 L96.5412557,16.7420963 L96.5412557,16.7420963 L96.5412557,16.7420963 Z M116.9086,26.1605666 C117.220453,25.8750142 117.537032,25.7274788 117.492144,26.0796601 L117.381105,26.9220397 C117.324405,27.3622663 117.496869,27.5954674 117.903224,27.5954674 L120.931983,27.5954674 C121.442289,27.5954674 121.690354,27.3884419 121.815568,26.5936544 L123.681964,14.7955807 C123.776465,14.2030595 123.632351,13.9127479 123.185834,13.9127479 L119.859396,13.9127479 C119.559355,13.9127479 119.412878,14.0816997 119.334915,14.5433428 L119.212064,15.2691218 C119.148275,15.6474788 118.975811,15.7141076 118.815159,15.3333711 C118.250515,13.9865156 116.809374,13.3820963 114.798863,13.4296884 C110.128148,13.5272521 106.978899,17.0990368 106.641058,21.6773938 C106.38118,25.2182436 108.899634,28 112.221347,28 C114.631124,28 115.708436,27.286119 116.922775,26.1677054 L116.922775,26.1677054 L116.9086,26.1605666 Z M114.373609,24.3449292 C112.363098,24.3449292 110.96212,22.7291785 111.252711,20.7493484 C111.543301,18.7695184 113.423873,17.1537677 115.434383,17.1537677 C117.444893,17.1537677 118.845872,18.7695184 118.555281,20.7493484 C118.26469,22.7291785 116.384119,24.3449292 114.373609,24.3449292 L114.373609,24.3449292 Z M128.34323,27.6145042 L124.84669,27.6145042 C124.723552,27.6200522 124.604378,27.5699712 124.521669,27.4779189 C124.438959,27.3858666 124.401341,27.2614443 124.419073,27.1385836 L127.490358,7.54016997 C127.550734,7.26476576 127.791544,7.06756948 128.071539,7.06424929 L131.568079,7.06424929 C131.691217,7.0587013 131.810391,7.10878233 131.893101,7.20083463 C131.97581,7.29288693 132.013428,7.41730925 131.995696,7.54016997 L128.924412,27.1385836 C128.865941,27.4158766 128.624648,27.6154434 128.34323,27.6192635 L128.34323,27.6145042 Z" id="Shape" fill="#009EE3"></path>
                <path d="M6.02131353,0 L15.27338,0 C17.8786551,0 20.9706299,0.0804201543 23.036718,1.83817495 C24.4180863,3.01230921 25.1433644,4.88035451 24.9763595,6.89315608 C24.4085432,13.6967011 20.1833215,17.5086164 14.514701,17.5086164 L9.95308393,17.5086164 C9.17531867,17.5086164 8.66237532,18.0049237 8.44288328,19.3467914 L7.16887516,27.159035 C7.08537275,27.6645331 6.85872337,27.9632365 6.45314025,28 L0.743961511,28 C0.111729014,28 -0.112534589,27.5404563 0.0520844383,26.5248646 L4.15563122,1.48432628 C4.32025024,0.477925488 4.89522395,0 6.02131353,0 Z" id="Path" fill="#113984"></path>
                <path d="M8,18 L9.59481743,8.2628536 C9.73380448,7.4088375 10.2190813,7 11.1849234,7 L20.3109541,7 C21.8209658,7 23.0435807,7.22713194 24,7.64732604 C23.0836278,13.6345241 19.0671378,16.9597357 13.8091873,16.9597357 L9.31213192,16.9597357 C8.70906949,16.962007 8.26619552,17.2527359 8,18 Z" id="Path" fill="#172C70"></path>
            </g>
        </g>
    </g>
</svg>