<svg viewBox="0 0 200 200" xmlns="http://www.w3.org/2000/svg"><path fill="currentColor" d="M177.623 106.15h-56.298c3.27 2.296 5.817 5.157 7.673 8.585 1.29 2.297 1.982 3.648 2.139 4.089.724 1.855 1.07 4.214 1.07 7.077v36.39l-1.699.629h-13.65c-13.65 0-24.658-6.826-33.056-20.475-7.832-12.801-11.732-28.653-11.732-47.556 0-14.94 2.768-27.018 8.303-36.265 7.675-12.8 20.413-19.971 38.184-21.544h2.768c4.969 0 10.819 1.038 17.487 3.145 5.536 1.699 9.656 3.429 12.36 5.253l10.033 6.102V15.346C150.387 11.793 136.704 10 120.192 10c-26.199 0-49.065 8.555-68.565 25.696-19.5 17.141-29.251 38.434-29.251 63.879 0 28.024 10.002 50.418 30.068 67.183C70.938 182.263 93.679 190 120.695 190c9.373 0 20.35-1.007 32.931-2.989 12.581-1.98 20.601-3.616 23.997-4.906V106.15Z"/></svg>