<svg xmlns="http://www.w3.org/2000/svg" width="166" height="72" viewBox="0 0 164 72"><path style="stroke:none;fill-rule:nonzero;fill:#222;fill-opacity:1" d="m144.617 61.223 4.508-25.703c1.094-6.22 4.168-9.286 8.367-9.286 1.192-.02 2.375.137 3.52.461L164 14.066a12.57 12.57 0 0 0-3.809-.53c-3.21 0-6.59 1.714-9.629 6.44h-.222l.34-5.91-9.407.395-8.214 46.762Zm-30.734-23.27c2.203-12.508 3.414-14.207 6.555-14.207 3.144 0 3.656 1.715 1.488 14.207-2.172 12.492-3.504 14.207-6.406 14.207-2.903 0-3.84-1.715-1.707-14.207m19.91 0c3.418-19.039-.766-24.402-11.543-24.402-10.774 0-16.801 5.312-20.149 24.316-3.347 19.004.922 24.352 11.645 24.352 10.722 0 16.804-5.14 20.183-24.352m-45.812-1.062c-2.238 12.734-3.965 14.617-6.645 14.617-1.707 0-2.492-1.457-2.75-3.067l3.723-21.078a4.75 4.75 0 0 1 4.031-2.914c2.817 0 3.516 1.715 1.707 12.442m11.766.91c3.414-19.348-.734-24.094-8.54-24.094a13.752 13.752 0 0 0-9.05 3.598l-1.11-3.29-8.042.532-10.125 57.2H74.57l1.043-5.915.907-5.996h.238a7.534 7.534 0 0 0 5.754 1.953c8.351 0 14.5-8.07 17.297-23.988m-51.774-4.988c1.555-7.282 2.68-8.723 5.516-8.723 2.441 0 3.414 1.715 2.203 8.758Zm1.453 29.132c3.93-.027 7.82-.78 11.473-2.23l.668-10.281A21.27 21.27 0 0 1 52.8 51.27c-5.672 0-7.192-2.23-6.27-9.598h18.203c.567-2.313 1.114-4.61 1.52-6.856 2.75-15.66-1.246-21.195-11.113-21.195-10.727 0-16.79 7.145-19.672 23.578-3.024 17.137 1.074 24.727 14.02 24.727M18.44 48.559a4.233 4.233 0 0 1-3.859 2.863c-2.988 0-3.703-1.61-1.605-13.606 1.949-11.05 3.312-13.125 6.37-13.125a2.86 2.86 0 0 1 2.919 1.989Zm9.325 12.664L38.473.34 26.828.87l-1.71 9.305-.923 6.136-.187.153a7.789 7.789 0 0 0-6.352-3c-7.734 0-13.508 6.77-16.511 23.89-3.176 18.043.476 24.641 8.539 24.641a11.2 11.2 0 0 0 8.64-3.906h.219l.379 3.133Zm0 0"/></svg>