<svg xmlns="http://www.w3.org/2000/svg" width="264" height="72" viewBox="0 0 262 72"><path style="fill:#000;fill-opacity:1;stroke:none" d="M0 0h262v72H0z"/><path style="stroke:none;fill-rule:nonzero;fill:#ff8400;fill-opacity:1" d="M259.156 72H262V58.95h-2.844c-26.574 0-48.058-21.524-48.133-48.15 0-3.675.375-7.277 1.27-10.8h-12.95c-.671 3.676-1.046 7.426-1.046 11.102 0 33.671 27.246 60.898 60.86 60.898Zm0 0"/><path style="stroke:none;fill-rule:nonzero;fill:#ff8400;fill-opacity:1" d="M262 36.676c-14.973.074-27.098-12.074-27.172-27 0-3.301.598-6.602 1.719-9.676h-12.649c-4.64 21.074 8.61 41.926 29.645 46.648a39.9 39.9 0 0 0 8.457.903V36.676ZM249.875 0c-4.867 6.602-3.445 15.977 3.14 20.852 2.622 1.875 5.766 2.921 8.985 2.921V0Zm0 0"/><path style="stroke:none;fill-rule:nonzero;fill:#fff;fill-opacity:1" d="M44.09 29.398H29.492v17.25c0 2.403.528 3.227 2.848 3.227 3.293 0 3.14-2.398 3.293-4.95v-2.1h10.031v3.448c0 10.5-3.894 12.829-14.223 12.829-8.086 0-14.75-1.051-14.75-10.727v-19.05h-4.714v-9.15h4.714V12H29.27v8.176h14.523ZM67.52 35.102c0-2.704.152-5.704-3.293-5.704-3.442 0-4.715 3-4.715 6.153v23.176H46.934V20.176h12.203V25.8h.523c.676-1.95 2.024-3.676 3.742-4.727 1.797-.972 3.82-1.5 5.914-1.426 8.758 0 9.508 7.125 9.508 14.25v3H67.598v-1.796Zm0 0"/><path style="stroke:none;fill-rule:nonzero;fill:#fff;fill-opacity:1" d="M90.277 39.45c0 8.323.75 9.976 6.813 9.976 6.062 0 6.437-1.653 6.437-9.977S102.93 29.4 97.09 29.4s-6.813 1.652-6.813 10.05Zm25.903 0c0 15.823-3.297 19.652-19.239 19.652-15.945 0-19.164-4.278-19.164-19.653 0-15.75 3.145-19.722 19.164-19.722 16.02 0 19.239 3.449 19.239 19.722Zm0 0"/><path style="stroke:none;fill-rule:nonzero;fill:#fff;fill-opacity:1" d="M127.855 20.176v5.398h.45c1.574-4.574 6.215-5.847 10.554-5.847 5.391 0 11.004.972 11.602 7.574h.601c.672-5.477 5.84-7.574 10.704-7.574 8.832 0 13.398 3.671 13.398 12.597v26.324H162.59V36.375c-.227-4.05-.149-6.977-5.09-6.977s-5.84 3.301-5.84 7.426v21.903h-12.5V35.324c-.152-3.523-.375-5.926-4.715-5.926-5.168 0-6.14 2.778-6.14 7.426v21.903H115.73V20.176Zm0 0"/><path style="stroke:none;fill-rule:nonzero;fill:#fff;fill-opacity:1" d="M200.691 34.426c0-5.926-2.171-6.301-6.586-6.301-4.417 0-6.062 1.05-6.214 6.3Zm13.028 11.699c0 6.074-2.024 9.523-5.39 11.477A31.188 31.188 0 0 1 194.253 60c-15.719 0-19.54-5.477-19.54-20.477 0-15.375 3.52-20.472 19.54-20.472 14.973 0 19.465 4.125 19.465 20.472V41.7h-25.903c0 7.051 1.047 9.074 6.438 9.074 4.043 0 6.586-.449 6.586-4.722Zm0 0"/></svg>