<svg xmlns="http://www.w3.org/2000/svg" xmlns:xlink="http://www.w3.org/1999/xlink" width="120" height="80" viewBox="0 0 120 80"><defs><clipPath id="b"><rect width="120" height="80"/></clipPath></defs><g id="a" clip-path="url(#b)"><path d="M55.449,61.05H36.683a8.255,8.255,0,0,1,2.558,2.862,14.478,14.478,0,0,1,.713,1.363,6.573,6.573,0,0,1,.356,2.359v12.13l-.566.21h-4.55q-6.825,0-11.019-6.825-3.916-6.4-3.911-15.852,0-7.47,2.768-12.088,3.837-6.4,12.728-7.182h.923a19.746,19.746,0,0,1,5.829,1.048,16.135,16.135,0,0,1,4.12,1.751l3.344,2.034V30.782A44.493,44.493,0,0,0,36.305,29,33.522,33.522,0,0,0,13.45,37.565,27.21,27.21,0,0,0,3.7,58.858q0,14.012,10.023,22.394Q22.97,89.005,36.473,89A71.845,71.845,0,0,0,47.45,88a52.978,52.978,0,0,0,8-1.636V61.05Z" transform="translate(30.3 -19)"/></g></svg>