<?xml version="1.0" encoding="UTF-8"?>
<svg width="32px" height="32px" viewBox="0 0 32 32" version="1.1" xmlns="http://www.w3.org/2000/svg" xmlns:xlink="http://www.w3.org/1999/xlink">
    <title>twitter</title>
    <g id="Mailing" stroke="none" stroke-width="1" fill="none" fill-rule="evenodd">
        <g id="Mail_Ejemplo-1" transform="translate(-309.000000, -599.000000)">
            <g id="Group" transform="translate(16.000000, 566.500000)">
                <g id="twitter" transform="translate(293.000000, 32.500000)">
                    <rect id="Rectangle" stroke="#7F8D98" x="0.5" y="0.5" width="31" height="31" rx="15.5"></rect>
                    <g id="icon/positive/search-copy-6" transform="translate(8.000000, 10.000000)" fill="#7F8D98">
                        <path d="M16,0.00686308935 C15.3035527,0.458589515 14.5324421,0.804087753 13.7163636,1.03005265 C12.8191706,0.0814541395 11.37336,-0.251198485 10.0960592,0.197091706 C8.81875852,0.645381897 7.98167292,1.77925537 8,3.03630669 L8,3.70505804 C5.40411987,3.76695258 2.9469275,2.62968615 1.45454545,0.675614436 C1.45454545,0.675614436 -1.45454545,6.69437656 5.09090909,9.36938194 C3.59311096,10.3042738 1.80884139,10.7730438 0,10.7068846 C6.54545455,14.0506414 14.5454545,10.7068846 14.5454545,3.01624415 C14.5447848,2.82996589 14.5253073,2.64414716 14.4872727,2.46118053 C15.2295296,1.78807767 15.753329,0.938241641 16,0.00686308935 Z" id="twitter"></path>
                    </g>
                </g>
            </g>
        </g>
    </g>
</svg>