<?xml version="1.0" encoding="UTF-8"?>
<svg width="32px" height="32px" viewBox="0 0 32 32" version="1.1" xmlns="http://www.w3.org/2000/svg" xmlns:xlink="http://www.w3.org/1999/xlink">
    <title>Web</title>
    <g id="Mailing" stroke="none" stroke-width="1" fill="none" fill-rule="evenodd">
        <g id="Mail_Ejemplo-1" transform="translate(-365.000000, -599.000000)">
            <g id="Group" transform="translate(16.000000, 566.500000)">
                <g id="Web" transform="translate(349.000000, 32.500000)">
                    <rect id="Rectangle" stroke="#7F8D98" x="0.5" y="0.5" width="31" height="31" rx="15.5"></rect>
                    <g id="icon/positive/search-copy-6" transform="translate(7.666667, 7.666667)" fill="#7F8D98">
                        <path d="M8.33333333,8.8817842e-16 C12.9357062,8.8817842e-16 16.6666667,3.73096042 16.6666667,8.33333333 C16.6666667,12.9357062 12.9357062,16.6666667 8.33333333,16.6666667 C3.73096042,16.6666667 8.8817842e-16,12.9357062 8.8817842e-16,8.33333333 C8.8817842e-16,3.73096042 3.73096042,8.8817842e-16 8.33333333,8.8817842e-16 Z M4.54663292,9.16729048 L1.71834409,9.16746256 C2.04931779,11.819064 3.93751625,13.9869392 6.43881653,14.7269651 C5.44164705,13.1685839 4.80670243,11.3989016 4.58536947,9.54018476 L4.54663292,9.16729048 Z M14.9483226,9.16746256 L12.1223249,9.16718075 C11.9487123,11.1519617 11.296273,13.0588024 10.2294156,14.726681 C12.6538079,14.0088883 14.5024103,11.9488335 14.9139748,9.4071319 L14.9483226,9.16746256 Z M10.4507565,9.16721474 L6.21840142,9.16740314 C6.39505901,10.9107969 6.99934509,12.5802338 7.97246256,14.028721 L8.17198638,14.3154289 L8.33333333,14.5316667 L8.49468029,14.3155711 C9.52127043,12.891484 10.179688,11.2372058 10.410346,9.51295121 L10.4507565,9.16721474 Z M6.43725111,1.93998568 L6.33905909,1.97007269 C3.88716248,2.73772552 2.04451054,4.88342699 1.71823973,7.5000406 L4.54426891,7.5003193 C4.7069278,5.63930627 5.29055628,3.84679478 6.2420609,2.25551847 L6.43725111,1.93998568 Z M8.33333333,2.13416667 L8.17198638,2.35109558 C7.07679308,3.870349 6.40062368,5.65158718 6.21582721,7.50028143 L10.4483496,7.50009644 C10.2718019,5.75641882 9.66748857,4.08669676 8.69423317,2.63798891 L8.49468029,2.35123777 L8.33333333,2.13416667 Z M10.2278501,1.93970152 L10.2915685,2.03871368 C11.3172028,3.67742826 11.9466902,5.54460336 12.1201078,7.50021072 L14.9484269,7.5000406 C14.6274719,4.92605809 12.8391444,2.80776808 10.4469609,2.00868704 L10.2278501,1.93970152 Z" id="Shape"></path>
                    </g>
                </g>
            </g>
        </g>
    </g>
</svg>