<svg viewBox="0 0 200 200" xmlns="http://www.w3.org/2000/svg"><path fill="currentColor" d="M104.405 168.641c-9.382-1.383-19.236-4.596-25.339-7.811-5.628-2.753-13.606-7.801-21.585-16.524 7.513-5.972 20.178-18.369 26.277-24.797a32.016 32.016 0 0 0 6.569-11.02l.938-14.691V36.862l13.14-11.02v142.799Zm80.712-26.17-3.286 2.294c-10.792 9.181-22.05 14.692-31.908 18.363-10.327 4.589-21.119 6.431-32.846 6.431h-6.569V31.352c10.789 5.51 16.892 7.804 29.088 7.804 16.895 0 31.912-11.476 43.645-28.468l-4.693-2.757c-5.63 7.811-13.137 11.942-21.115 11.942-10.324 0-22.057-5.514-37.543-15.154L62.174 52.015v57.392c0 15.612 0 19.746-1.407 22.499a27.517 27.517 0 0 1-6.103 7.801c-11.285-13.485-17.575-30.32-17.83-47.751 0-14.229 3.755-27.541 11.734-39.941 6.096-9.181 14.071-19.287 26.743-28.468l1.879-.918-3.283-3.671-1.41.915c-16.748 8.719-31.58 20.576-43.638 34.896-40.822 55.301-5.149 133.102 64.205 140.039 3.141.312 6.3.469 9.462.459 21.96.368 43.421-6.414 61.006-19.284a105.982 105.982 0 0 0 22.054-26.17l2.814-4.589-3.283-2.301v-.452Z"/></svg>