<?xml version="1.0" encoding="UTF-8"?>
<svg width="24px" height="24px" viewBox="0 0 24 24" version="1.1" xmlns="http://www.w3.org/2000/svg" xmlns:xlink="http://www.w3.org/1999/xlink">
    <title>icon/Star/Active</title>
    <g id="Symbols" stroke="none" stroke-width="1" fill="none" fill-rule="evenodd">
        <g id="icon/Star/Active" fill="#0A3C4C" fill-rule="nonzero">
            <path d="M21.5659672,11.0636626 C21.959635,10.6632111 22.0986002,10.0754922 21.9287984,9.52915604 C21.7585961,8.98281988 21.3152693,8.59281863 20.7706221,8.51005309 L15.9280677,7.77561343 C15.7218226,7.74426284 15.5436109,7.60924633 15.4515014,7.4140367 L13.2865288,2.83434352 C13.0434399,2.31977595 12.5500536,2 12.0002002,2 C11.4507473,2 10.957361,2.31977595 10.7142722,2.83434352 L8.54889905,7.41445471 C8.4567896,7.60966434 8.27817735,7.74468085 8.07193227,7.77603143 L3.22937786,8.51047109 C2.68513113,8.59281863 2.24140385,8.98323789 2.0712016,9.52957405 C1.90139982,10.0759102 2.04036496,10.6636291 2.43403275,11.0640806 L5.93779628,14.6288509 C6.08717378,14.7810057 6.15565516,15.0000418 6.12041328,15.2140618 L5.29383105,20.2477114 C5.22054397,20.6907996 5.33187626,21.1217657 5.60660272,21.461606 C6.03351001,21.9912218 6.77879564,22.1525728 7.37470376,21.8256908 L11.70545,19.4488985 C11.8864651,19.3498307 12.1143359,19.3506667 12.2949505,19.4488985 L16.6260972,21.8256908 C16.8367475,21.9414789 17.0614145,22 17.29329,22 C17.716593,22 18.1178699,21.8035363 18.3937978,21.461606 C18.6689247,21.1217657 18.7798565,20.6899636 18.7065694,20.2477114 L17.8795867,15.2140618 C17.8443448,14.9996238 17.9128262,14.7810057 18.0622037,14.6288509 L21.5659672,11.0636626 Z" id="Path-Copy"></path>
        </g>
    </g>
</svg>
