<?xml version="1.0" encoding="UTF-8"?>
<svg width="33px" height="34px" viewBox="0 0 24 24" version="1.1" xmlns="http://www.w3.org/2000/svg" xmlns:xlink="http://www.w3.org/1999/xlink">
    <title>icon/Alert</title>
    <g id="Symbols" stroke="none" stroke-width="1" fill="none" fill-rule="evenodd">
        <g id="icon/Alert" fill="#7F8D98">
            <path d="M12,2 C17.5228475,2 22,6.4771525 22,12 C22,17.5228475 17.5228475,22 12,22 C6.4771525,22 2,17.5228475 2,12 C2,6.4771525 6.4771525,2 12,2 Z M12,4 C7.581722,4 4,7.581722 4,12 C4,16.418278 7.581722,20 12,20 C16.418278,20 20,16.418278 20,12 C20,7.581722 16.418278,4 12,4 Z M12.01,15 C12.5622847,15 13.01,15.4477153 13.01,16 C13.01,16.5128358 12.6239598,16.9355072 12.1266211,16.9932723 L12,17 C11.4477153,17 11,16.5522847 11,16 C11,15.4871642 11.3860402,15.0644928 11.8833789,15.0067277 L12.01,15 Z M12,7 C12.5128358,7 12.9355072,7.38604019 12.9932723,7.88337887 L13,8 L13,12 C13,12.5522847 12.5522847,13 12,13 C11.4871642,13 11.0644928,12.6139598 11.0067277,12.1166211 L11,12 L11,8 C11,7.44771525 11.4477153,7 12,7 Z" id="Shape"></path>
        </g>
    </g>
</svg>
