<?xml version="1.0" encoding="UTF-8"?>
<svg width="24px" height="24px" viewBox="0 0 24 24" version="1.1" xmlns="http://www.w3.org/2000/svg" xmlns:xlink="http://www.w3.org/1999/xlink">
    <title>User/Avatar/1.Outline</title>
    <g id="Symbols" stroke="none" stroke-width="1" fill="none" fill-rule="evenodd">
        <g id="User/Avatar/1.Outline" fill="#1A3447">
            <path d="M12,2 C17.5228475,2 22,6.4771525 22,12 C22,14.9231096 20.7458024,17.5532856 18.7461809,19.3817542 L18.4667101,19.6297256 L18.4667101,19.6297256 C16.7225539,21.1077715 14.4654725,22 12,22 C6.4771525,22 2,17.5228475 2,12 C2,6.4771525 6.4771525,2 12,2 Z M14,16.9999994 L9.99970571,16.9999994 C8.89777231,16.9996754 7.90416574,17.6005809 7.38175507,18.5329317 C8.68742727,19.4574174 10.2803502,19.9999994 12,19.9999994 C13.7200863,19.9999994 15.3133813,19.457142 16.6179055,18.5334055 C16.1236661,17.6510195 15.2091606,17.06634 14.179895,17.0052931 L14,16.9999994 Z M12,4 C7.581722,4 4,7.581722 4,12 C4,13.9649351 4.70840595,15.764413 5.88375291,17.156969 C6.75979564,15.8922139 8.18841077,15.0762238 9.77260917,15.0050662 L10,15 L13.9996551,15 C15.6746716,14.9994221 17.1993253,15.8323382 18.115176,17.1573691 C19.2912544,15.7652757 20,13.965406 20,12 C20,7.581722 16.418278,4 12,4 Z M12,6 C14.209139,6 16,7.790861 16,10 C16,12.209139 14.209139,14 12,14 C9.790861,14 8,12.209139 8,10 C8,7.790861 9.790861,6 12,6 Z M12,8 C10.8954305,8 10,8.8954305 10,10 C10,11.1045695 10.8954305,12 12,12 C13.1045695,12 14,11.1045695 14,10 C14,8.8954305 13.1045695,8 12,8 Z" id="Shape"></path>
        </g>
    </g>
</svg>