<?xml version="1.0" encoding="UTF-8"?>
<svg width="32px" height="32px" viewBox="0 0 32 32" version="1.1" xmlns="http://www.w3.org/2000/svg" xmlns:xlink="http://www.w3.org/1999/xlink">
    <title>button/3. Back arrow 2</title>
    <g id="1.-Guest-User" stroke="none" stroke-width="1" fill="none" fill-rule="evenodd">
        <g id="1.1.0.0-Darshana-Guest-User" transform="translate(-20.000000, -162.000000)" fill="#FFFFFF">
            <g id="button/3.-Back-arrow-2" transform="translate(20.000000, 162.000000)">
                <g id="Navigation/Arrow/2.left/1.Outline" transform="translate(5.333333, 5.333333)">
                    <path d="M0.0532563578,11.0409744 L0.049491497,11.0274438 C0.0443945959,11.0092422 0.0396913746,10.9909535 0.0353818331,10.9725912 C0.0293325266,10.9473677 0.0240527987,10.9214857 0.0195343624,10.895343 C0.0168248779,10.8790975 0.0142567208,10.8624242 0.0120052463,10.8457163 C0.00860758475,10.8210166 0.00598972329,10.7963193 0.00405525398,10.7714303 C0.00229987205,10.7485115 0.00109071346,10.7254677 0.000476225138,10.7024111 C0.000160867518,10.6908057 8.8817842e-16,10.678755 8.8817842e-16,10.6666667 L0.000276689856,10.6394198 C0.000696378445,10.6187578 0.00159351093,10.5981038 0.00296808732,10.5774756 L8.8817842e-16,10.6666667 C8.8817842e-16,10.6099459 0.00354177817,10.5540523 0.010416242,10.4991951 C0.0129072893,10.4799747 0.0158356793,10.4602152 0.0192081637,10.4405169 C0.0233285779,10.4158211 0.0281294067,10.3918219 0.033564852,10.3680646 C0.0375989946,10.3509557 0.0418505847,10.3339217 0.0464427183,10.3169607 C0.0540922338,10.2883201 0.0628276237,10.2599336 0.0724671787,10.2319683 C0.0770668901,10.2187644 0.0820165895,10.2050877 0.0871971278,10.1914788 C0.0971414378,10.1653745 0.107613965,10.1403233 0.118814882,10.1156732 C0.127418248,10.0965978 0.136759099,10.0772406 0.1465949,10.0580718 C0.155965741,10.0400116 0.165605322,10.0222663 0.175630109,10.00477 C0.186820468,9.98499206 0.198919424,9.96507224 0.211587196,9.94541256 C0.223782081,9.92672463 0.235900238,9.90890381 0.248431528,9.89139888 C0.258198291,9.87757337 0.26874398,9.8634372 0.27960615,9.84946741 L0.292798579,9.83288394 C0.321342769,9.79730761 0.351673789,9.76322642 0.383655506,9.7307765 L9.72385763,0.390524292 C10.2445567,-0.130174764 11.0887767,-0.130174764 11.6094757,0.390524292 C12.090121,0.871169574 12.1270937,1.62747765 11.7203939,2.15053259 L11.6094757,2.27614237 L4.552,9.333 L20,9.33333333 C20.7363797,9.33333333 21.3333333,9.930287 21.3333333,10.6666667 C21.3333333,11.3504478 20.8186131,11.9140095 20.1554948,11.9910297 L20,12 L4.553,12 L11.6094757,19.057191 C12.090121,19.5378362 12.1270937,20.2941443 11.7203939,20.8171993 L11.6094757,20.942809 C11.1288304,21.4234543 10.3725224,21.460427 9.84946741,21.0537272 L9.72385763,20.942809 L0.390524292,11.6094757 L0.372868452,11.591485 C0.352058999,11.5698786 0.331971758,11.5475717 0.312645581,11.5246032 L0.390524292,11.6094757 C0.352578612,11.57153 0.317398204,11.5318662 0.284983068,11.4907347 C0.263913526,11.4638678 0.243519661,11.4358081 0.224221924,11.4069533 C0.218446947,11.3985212 0.213151514,11.3904077 0.207953527,11.3822499 C0.184764438,11.3456544 0.163086745,11.3076757 0.143278031,11.2685895 C0.128493506,11.2394698 0.11538535,11.2110205 0.103331733,11.1822343 C0.09842136,11.1705118 0.0938183092,11.159091 0.0893700779,11.147593 C0.0845421339,11.1350262 0.0797626259,11.1220525 0.0751915345,11.1090219 L0.0893700779,11.147593 C0.075885738,11.1127381 0.0638240879,11.0771748 0.0532563578,11.0409744 Z" id="Combined-Shape" transform="translate(10.666667, 10.666667) rotate(-360.000000) translate(-10.666667, -10.666667) "></path>
                </g>
            </g>
        </g>
    </g>
</svg>