<?xml version="1.0" encoding="UTF-8"?>
<svg width="24px" height="24px" viewBox="0 0 24 24" version="1.1" xmlns="http://www.w3.org/2000/svg" xmlns:xlink="http://www.w3.org/1999/xlink">
    <title>icon/positive/search copy 2</title>
    <g id="Symbols" stroke="none" stroke-width="1" fill="none" fill-rule="evenodd">
        <g id="search/1.default/-3.-Tipo-de-publicación" transform="translate(-24.000000, -16.000000)" fill="#1A3447">
            <g id="icon/positive/search-copy" transform="translate(24.000000, 16.000000)">
                <path d="M5.62615561,21.5784335 L6.15952405,21.5784335 C8.80042793,21.5784335 11.0352063,19.5723841 11.3145423,16.9312989 C11.3653805,16.4487641 11.3398725,15.9662747 11.2637041,15.48374 L11.1622044,13.5791766 L12.8127354,13.5791766 L12.7112357,15.48374 C12.3557263,17.3374697 13.0667452,19.2420331 14.5143131,20.4356048 C15.4285035,21.1974755 16.5967264,21.6038277 17.7900714,21.6038277 L18.3232585,21.6038277 C21.192846,21.3244827 23.2751233,18.7597251 22.9703932,15.8901376 L22.9703932,15.8648073 C22.9450629,15.6616312 22.9195549,15.4584596 22.8688935,15.2553017 L22.8688935,15.1029638 L22.7673939,14.7221237 L19.9739436,5.19930673 C19.6692679,3.37092588 17.942364,2.15205066 16.1139831,2.45673545 C14.437922,2.73608048 13.2190467,4.2342826 13.3205328,5.93569257 L13.3205328,6.49436449 L10.7302812,6.49436449 L10.7302812,5.93569257 C10.8317808,4.08196288 9.40973857,2.50738777 7.55600888,2.40590175 C5.85459892,2.30440212 4.35638773,3.52329095 4.07705177,5.19935208 L1.23294912,14.722169 L1.13144949,15.1030092 L1.13144949,15.255347 C1.08061125,15.4585231 1.05528056,15.6616947 1.02994987,15.8648527 C0.725097289,18.7089553 2.78201215,21.2484185 5.62629619,21.5785428 L5.62615561,21.5784335 Z M8.16557347,18.8613471 C6.819682,19.9787363 4.8134512,19.8008864 3.69624339,18.4296688 C3.16287494,17.7694655 2.9090692,16.9314576 2.98520639,16.0934043 C3.01053663,15.9663972 3.03604463,15.83939 3.06137532,15.7125642 L3.16287494,15.3317241 C3.62006085,14.0871826 4.81340586,13.2491294 6.13399384,13.2491294 L6.46417257,13.2491294 C7.83536752,13.4014672 8.95275672,14.3918221 9.23209269,15.7377135 L9.28293093,16.7027377 C9.206762,17.5407456 8.80039619,18.3279651 8.16554172,18.8613335 L8.16557347,18.8613471 Z M20.2785966,18.4041612 C19.1612074,19.7500527 17.155158,19.9532061 15.8092666,18.8358396 C15.1744121,18.3024711 14.7427111,17.5407818 14.6665739,16.7281228 L14.7174121,15.7630986 C14.9967571,14.4172072 16.1141373,13.4015307 17.4853322,13.2490296 L17.8153341,13.2492067 C19.1358767,13.2492067 20.3294031,14.0872146 20.786453,15.3316201 L20.8879526,15.7124602 C20.9132829,15.8394674 20.9387909,15.9664745 20.9641216,16.0933003 C21.0404673,16.9313082 20.786453,17.7693615 20.2786148,18.4042159 L20.2785966,18.4041612 Z M16.4694699,4.38657467 C17.2058103,4.31040573 17.8406648,4.84357919 17.9170287,5.58010106 C17.9170287,5.6309393 17.942359,5.68160068 17.942359,5.73243892 L19.6690724,11.5477058 C18.0946787,10.9382002 16.3169502,11.1160274 14.920361,12.055544 L15.2758705,6.01172954 L15.2758705,5.85939168 C15.1997015,5.12305119 15.7075488,4.48819673 16.4185631,4.38652932 L16.4694014,4.38652932 L16.4694699,4.38657467 Z M13.0920441,8.52587112 L12.9141987,11.5222935 L11.0349841,11.5222935 L10.8571387,8.52587112 L13.0920441,8.52587112 Z M6.48955768,4.6913955 C7.02292613,4.20886076 7.86075263,4.25971714 8.34328737,4.79289513 C8.59730171,5.07224016 8.72412749,5.47858329 8.67346611,5.85945063 L8.67346611,6.01178849 L9.02897554,12.0809972 C7.63225037,11.1414579 5.85470322,10.963608 4.28026415,11.5731589 L6.0069776,5.75789205 C6.0069776,5.70705381 6.03230784,5.65639243 6.03230784,5.60555419 C6.05781538,5.25004476 6.23566079,4.91986602 6.48949374,4.69136376 L6.48955768,4.6913955 Z" id="Shape"></path>
            </g>
        </g>
    </g>
</svg>