<svg id="calendar-4" xmlns="http://www.w3.org/2000/svg" width="18" height="18" viewBox="0 0 18 18">
  <path id="Shape" d="M15.68,18H2.32A2.323,2.323,0,0,1,0,15.68V3.727A2.323,2.323,0,0,1,2.32,1.406H3.938V.563a.563.563,0,0,1,1.125,0v.843h7.875V.563a.563.563,0,0,1,1.125,0v.843H15.68A2.323,2.323,0,0,1,18,3.727V15.68A2.323,2.323,0,0,1,15.68,18ZM1.125,6.188V15.68a1.2,1.2,0,0,0,1.2,1.2H15.68a1.2,1.2,0,0,0,1.2-1.2V6.188Zm1.2-3.657a1.2,1.2,0,0,0-1.2,1.2V5.063h15.75V3.727a1.2,1.2,0,0,0-1.2-1.2H14.063v.563a.563.563,0,1,1-1.125,0V2.531H5.063v.563a.563.563,0,1,1-1.125,0V2.531Z" fill="#555"/>
</svg>
