<?xml version="1.0" encoding="UTF-8"?>
<svg width="24px" height="24px" viewBox="0 0 24 24" version="1.1" xmlns="http://www.w3.org/2000/svg" xmlns:xlink="http://www.w3.org/1999/xlink">
    <title>Files/Clipboard_list/1.Outline</title>
    <g id="Symbols" stroke="none" stroke-width="1" fill="none" fill-rule="evenodd">
        <g id="Files/Clipboard_list/1.Outline" fill="#1A3447">
            <path d="M14.8,2 C15.8368235,2 16.6893753,2.78896083 16.7900534,3.79928044 L17.6,3.8 C19.0891233,3.8 20.3067389,4.96246286 20.39489,6.42943181 L20.4,6.6 L20.4,19.2 C20.4,20.6891233 19.2375371,21.9067389 17.7705682,21.99489 L17.6,22 L6.8,22 C5.31087667,22 4.0932611,20.8375371 4.00511004,19.3705682 L4,19.2 L4,6.6 C4,5.11087667 5.16246286,3.8932611 6.62943181,3.80511004 L6.8,3.8 L7.60994662,3.79928044 C7.7106247,2.78896083 8.56317651,2 9.6,2 L9.6,2 Z M7.60984669,5.79971419 L6.8,5.8 C6.39215895,5.8 6.05559842,6.10518815 6.00623314,6.4996497 L6,6.6 L6,19.2 C6,19.607841 6.30518815,19.9444016 6.6996497,19.9937669 L6.8,20 L17.6,20 C18.007841,20 18.3444016,19.6948119 18.3937669,19.3003503 L18.4,19.2 L18.4,6.6 C18.4,6.19215895 18.0948119,5.85559842 17.7003503,5.80623314 L17.6,5.8 L16.7901533,5.79971419 C16.6899408,6.81051572 15.8371674,7.6 14.8,7.6 L14.8,7.6 L9.6,7.6 C8.56283262,7.6 7.71005918,6.81051572 7.60984669,5.79971419 Z M17,15 L17,17 L11,17 L11,15 L17,15 Z M9,15 C9.55228475,15 10,15.4477153 10,16 C10,16.5522847 9.55228475,17 9,17 C8.44771525,17 8,16.5522847 8,16 C8,15.4477153 8.44771525,15 9,15 Z M17,11 L17,13 L11,13 L11,11 L17,11 Z M9,11 C9.55228475,11 10,11.4477153 10,12 C10,12.5522847 9.55228475,13 9,13 C8.44771525,13 8,12.5522847 8,12 C8,11.4477153 8.44771525,11 9,11 Z M14.8,4 L9.6,4 L9.59985321,4.78269085 C9.59995094,4.78844885 9.6,4.79421869 9.6,4.8 L9.599,4.816 L9.6,5.6 L14.8,5.6 L14.8,4 Z" id="Combined-Shape"></path>
        </g>
    </g>
</svg>