<?xml version="1.0" encoding="UTF-8"?>
<svg width="36px" height="36px" viewBox="0 0 24 24" version="1.1" xmlns="http://www.w3.org/2000/svg" xmlns:xlink="http://www.w3.org/1999/xlink">
    <title>Time/Clock/1.Outline@1x</title>
    <g id="Time/Clock/1.Outline" stroke="none" stroke-width="1" fill="none" fill-rule="evenodd">
        <path d="M12,2 C17.5228475,2 22,6.4771525 22,12 C22,17.5228475 17.5228475,22 12,22 C6.4771525,22 2,17.5228475 2,12 C2,6.4771525 6.4771525,2 12,2 Z M12,4 C7.581722,4 4,7.581722 4,12 C4,16.418278 7.581722,20 12,20 C16.418278,20 20,16.418278 20,12 C20,7.581722 16.418278,4 12,4 Z M12,7.14285714 C12.5128358,7.14285714 12.9355072,7.52889733 12.9932723,8.02623602 L13,8.14285714 L13,11 L14.5714286,11 C15.0842644,11 15.5069357,11.3860402 15.5647008,11.8833789 L15.5714286,12 C15.5714286,12.5128358 15.1853884,12.9355072 14.6880497,12.9932723 L14.5714286,13 L12,13 C11.4871642,13 11.0644928,12.6139598 11.0067277,12.1166211 L11,12 L11,8.14285714 C11,7.59057239 11.4477153,7.14285714 12,7.14285714 Z" id="Combined-Shape" fill="#19A79B"></path>
    </g>
</svg>