<?xml version="1.0" encoding="UTF-8"?>
<svg width="16px" height="16px" viewBox="0 0 16 16" version="1.1" xmlns="http://www.w3.org/2000/svg" xmlns:xlink="http://www.w3.org/1999/xlink">
    <title>Navigation/Close/1.Outline 2</title>
    <g id="Symbols" stroke="none" stroke-width="1" fill="none" fill-rule="evenodd">
        <g id="tag/edit" transform="translate(-120.000000, -8.000000)" fill="#1A3447">
            <g id="Navigation/Close/1.Outline" transform="translate(120.000000, 8.000000)">
                <path d="M4.40859963,3.47313641 L4.47140452,3.52859548 L8,7.05666667 L11.5285955,3.52859548 C11.788945,3.26824595 12.211055,3.26824595 12.4714045,3.52859548 C12.7117272,3.76891812 12.7302135,4.14707216 12.5268636,4.40859963 L12.4714045,4.47140452 L8.94333333,8 L12.4714045,11.5285955 C12.731754,11.788945 12.731754,12.211055 12.4714045,12.4714045 C12.2310819,12.7117272 11.8529278,12.7302135 11.5914004,12.5268636 L11.5285955,12.4714045 L8,8.94333333 L4.47140452,12.4714045 C4.21105499,12.731754 3.78894501,12.731754 3.52859548,12.4714045 C3.28827284,12.2310819 3.26978648,11.8529278 3.47313641,11.5914004 L3.52859548,11.5285955 L7.05666667,8 L3.52859548,4.47140452 C3.26824595,4.21105499 3.26824595,3.78894501 3.52859548,3.52859548 C3.76891812,3.28827284 4.14707216,3.26978648 4.40859963,3.47313641 Z" id="Close"></path>
            </g>
        </g>
    </g>
</svg>