<?xml version="1.0" encoding="UTF-8"?>
<svg width="24px" height="24px" viewBox="0 0 24 24" version="1.1" xmlns="http://www.w3.org/2000/svg" xmlns:xlink="http://www.w3.org/1999/xlink">
    <title>icon/denegado@1x</title>
    <g id="icon/denegado" stroke="none" stroke-width="1" fill="none" fill-rule="evenodd">
        <path d="M12,2 C17.5228475,2 22,6.4771525 22,12 C22,17.5228475 17.5228475,22 12,22 C6.4771525,22 2,17.5228475 2,12 C2,6.4771525 6.4771525,2 12,2 Z M9.61289944,8.20970461 C9.22060824,7.90467972 8.65337718,7.93240926 8.29289322,8.29289322 C7.90236893,8.68341751 7.90236893,9.31658249 8.29289322,9.70710678 L10.585,12 L8.29289322,14.2928932 L8.20970461,14.3871006 C7.90467972,14.7793918 7.93240926,15.3466228 8.29289322,15.7071068 C8.68341751,16.0976311 9.31658249,16.0976311 9.70710678,15.7071068 L12,13.415 L14.2928932,15.7071068 L14.3871006,15.7902954 C14.7793918,16.0953203 15.3466228,16.0675907 15.7071068,15.7071068 C16.0976311,15.3165825 16.0976311,14.6834175 15.7071068,14.2928932 L13.415,12 L15.7071068,9.70710678 L15.7902954,9.61289944 C16.0953203,9.22060824 16.0675907,8.65337718 15.7071068,8.29289322 C15.3165825,7.90236893 14.6834175,7.90236893 14.2928932,8.29289322 L12,10.585 L9.70710678,8.29289322 Z" id="Combined-Shape" fill="#C90000"></path>
    </g>
</svg>