<?xml version="1.0" encoding="UTF-8"?>
<svg width="24px" height="24px" viewBox="0 0 24 24" version="1.1" xmlns="http://www.w3.org/2000/svg" xmlns:xlink="http://www.w3.org/1999/xlink">
    <title>icon/positive/search copy 11</title>
    <g id="Symbols" stroke="none" stroke-width="1" fill="none" fill-rule="evenodd">
        <g id="footer/reclutador" transform="translate(-962.000000, -87.000000)" fill="#FFFFFF">
            <g id="Group-2" transform="translate(842.000000, 87.000000)">
                <g id="icon/positive/search-copy-8" transform="translate(120.000000, 0.000000)">
                    <path d="M15.238836,3.58393078 L15.3493282,3.58756393 C17.289043,3.79446684 18.7384508,4.23219138 20.1121473,5.18915905 C20.2409997,5.27892239 20.3384259,5.406867 20.390688,5.55495169 C22.2133363,10.7194257 22.6956023,15.2516267 21.8253808,17.4195215 C20.8766415,19.3155776 19.3639102,20.7763508 17.7218135,20.7763508 C16.8849432,20.7763508 15.6006894,19.1573639 15.1614839,17.8608365 L15.1614839,17.8608365 L15.1532487,17.8375951 C15.8982749,17.7121478 16.6562989,17.5378315 17.4374475,17.3146462 C17.8357238,17.200853 18.0663428,16.7857386 17.9525496,16.3874624 C17.8387564,15.9891861 17.4236421,15.758567 17.0253658,15.8723603 C13.7271844,16.8146978 10.927493,16.8146978 7.6293116,15.8723603 C7.23103534,15.758567 6.81592101,15.9891861 6.70212779,16.3874624 C6.58833457,16.7857386 6.81895364,17.200853 7.2172299,17.3146462 C8.0026023,17.5390383 8.76459933,17.7140315 9.51351295,17.8396257 L9.46536388,17.9929676 C9.04984999,19.2046913 7.99550068,20.6449463 7.20387629,20.7678953 L7.20387629,20.7678953 L7.09764064,20.7763508 C5.50412672,20.7763508 4.05835353,19.3101571 3.12771648,17.350889 C2.32680909,15.2483495 2.78512736,10.7240811 4.51824483,5.56568994 C4.56762271,5.41872331 4.6613334,5.29067105 4.78648149,5.19915426 C6.11507472,4.22759652 7.46571148,3.78985685 9.30291789,3.58782728 C9.63779563,3.55100224 9.95613527,3.74198987 10.0812555,4.05479033 L10.0812555,4.05479033 L10.842,5.955 L11.0733544,5.92496193 C11.4950374,5.8715702 11.8546784,5.8402559 12.1545615,5.83130091 L12.1545615,5.83130091 L12.3273387,5.82861328 C12.6586243,5.82861328 13.0753034,5.86089186 13.5813231,5.92496193 L13.5813231,5.92496193 L13.812,5.955 L14.573422,4.05479033 C14.6843403,3.77749441 14.9471569,3.59584512 15.238836,3.58393078 L15.238836,3.58393078 Z M9.38489793,10.4490285 C8.42899598,10.4490285 7.65408434,11.2239401 7.65408434,12.1798421 C7.65408434,13.135744 8.42899598,13.9106557 9.38489793,13.9106557 C10.3407999,13.9106557 11.1157115,13.135744 11.1157115,12.1798421 C11.1157115,11.2239401 10.3407999,10.4490285 9.38489793,10.4490285 Z M15.2697795,10.4490285 C14.3138775,10.4490285 13.5389659,11.2239401 13.5389659,12.1798421 C13.5389659,13.135744 14.3138775,13.9106557 15.2697795,13.9106557 C16.2256814,13.9106557 17.0005931,13.135744 17.0005931,12.1798421 C17.0005931,11.2239401 16.2256814,10.4490285 15.2697795,10.4490285 Z" id="Combined-Shape"></path>
                </g>
            </g>
        </g>
    </g>
</svg>