<?xml version="1.0" encoding="UTF-8"?>
<svg width="24px" height="24px" viewBox="0 0 24 24" version="1.1" xmlns="http://www.w3.org/2000/svg" xmlns:xlink="http://www.w3.org/1999/xlink">
    <title>icon/Dollar</title>
    <g id="Symbols" stroke="none" stroke-width="1" fill="none" fill-rule="evenodd">
        <g id="icon/Dollar" fill="#1A3447" fill-rule="nonzero">
            <g id="Group" transform="translate(5.000000, 1.000000)">
                <path d="M4.6,2.8 L9.44313763,2.80093086 C11.3198435,2.88196294 12.9587347,4.09595642 13.5831376,5.86759753 C13.7667185,6.38847806 13.493283,6.95955682 12.9724025,7.14313763 C12.4515219,7.32671845 11.8804432,7.053283 11.6968624,6.53240247 C11.3646992,5.58994378 10.524605,4.92668642 9.57853242,4.81450893 L9.4,4.8 L4.6,4.8 C3.16405965,4.8 2,5.96405965 2,7.4 C2,8.78071187 3.07623858,9.91005476 4.43557191,9.99488482 L4.6,10 L9.4,10 C11.9405098,10 14,12.0594902 14,14.6 C14,17.0699401 12.0533369,19.0852127 9.61056185,19.1952665 L9.4,19.2 L4.55686237,19.1990691 C2.68015648,19.1180371 1.04126528,17.9040436 0.416862366,16.1324025 C0.23328155,15.6115219 0.506716995,15.0404432 1.02759753,14.8568624 C1.54847806,14.6732815 2.11955682,14.946717 2.30313763,15.4675975 C2.63530082,16.4100562 3.47539495,17.0733136 4.42146758,17.1854911 L4.6,17.2 L9.4,17.2 C10.8359403,17.2 12,16.0359403 12,14.6 C12,13.2192881 10.9237614,12.0899452 9.56442809,12.0051152 L9.4,12 L4.6,12 C2.05949015,12 0,9.94050985 0,7.4 C0,4.93005987 1.94666314,2.91478728 4.38943815,2.80473351 L4.6,2.8 Z" id="Path"></path>
                <path d="M7,18 C7.51283584,18 7.93550716,18.3860402 7.99327227,18.8833789 L8,19 L8,21 C8,21.5522847 7.55228475,22 7,22 C6.48716416,22 6.06449284,21.6139598 6.00672773,21.1166211 L6,21 L6,19 C6,18.4477153 6.44771525,18 7,18 Z" id="Path"></path>
                <path d="M7,0 C7.51283584,0 7.93550716,0.38604019 7.99327227,0.883378875 L8,1 L8,3 C8,3.55228475 7.55228475,4 7,4 C6.48716416,4 6.06449284,3.61395981 6.00672773,3.11662113 L6,3 L6,1 C6,0.44771525 6.44771525,0 7,0 Z" id="Path"></path>
            </g>
        </g>
    </g>
</svg>