<?xml version="1.0" encoding="UTF-8"?>
<svg width="20px" height="20px" viewBox="0 0 20 20" version="1.1" xmlns="http://www.w3.org/2000/svg" xmlns:xlink="http://www.w3.org/1999/xlink">
    <title>Technology/Share/1.Outline</title>
    <g id="3.Reclutador" stroke="none" stroke-width="1" fill="none" fill-rule="evenodd">
        <g id="1.7.1.0-Darshana-reclutador" transform="translate(-442.000000, -386.000000)" fill="#1A3447">
            <g id="Descargas" transform="translate(440.000000, 384.000000)">
                <g id="Technology/Share/1.Outline" transform="translate(2.000000, 2.000000)">
                    <path d="M19,12 C19.5128358,12 19.9355072,12.3860402 19.9932723,12.8833789 L20,13 L20,17 C20,18.5976809 18.75108,19.9036609 17.1762728,19.9949073 L17,20 L3,20 C1.40231912,20 0.0963391206,18.75108 0.00509269341,17.1762728 L0,17 L0,13 C0,12.4477153 0.44771525,12 1,12 C1.51283584,12 1.93550716,12.3860402 1.99327227,12.8833789 L2,13 L2,17 C2,17.5128358 2.38604019,17.9355072 2.88337887,17.9932723 L3,18 L17,18 C17.5128358,18 17.9355072,17.6139598 17.9932723,17.1166211 L18,17 L18,13 C18,12.4477153 18.4477153,12 19,12 Z M10,0 C10.5128358,0 10.9355072,0.38604019 10.9932723,0.883378875 L11,1 L11,10.585 L14.2928932,7.29289322 C14.6533772,6.93240926 15.2206082,6.90467972 15.6128994,7.20970461 L15.7071068,7.29289322 C16.0675907,7.65337718 16.0953203,8.22060824 15.7902954,8.61289944 L15.7071068,8.70710678 L10.7071068,13.7071068 C10.6717127,13.7425008 10.6343256,13.774687 10.5953066,13.8036654 L10.4840621,13.8753288 L10.4840621,13.8753288 L10.371336,13.9287745 L10.371336,13.9287745 L10.265993,13.9641549 L10.265993,13.9641549 L10.1174742,13.9931658 L10.1174742,13.9931658 L10,14 L10,14 L9.92476146,13.9972121 L9.92476146,13.9972121 L9.79927424,13.9797599 L9.79927424,13.9797599 L9.68785748,13.9502619 L9.68785748,13.9502619 L9.57677845,13.9063266 L9.57677845,13.9063266 L9.47929125,13.8540045 L9.47929125,13.8540045 L9.38710056,13.7902954 L9.38710056,13.7902954 L9.29289322,13.7071068 L9.29289322,13.7071068 L4.29289322,8.70710678 C3.90236893,8.31658249 3.90236893,7.68341751 4.29289322,7.29289322 C4.65337718,6.93240926 5.22060824,6.90467972 5.61289944,7.20970461 L5.70710678,7.29289322 L9,10.585 L9,1 C9,0.44771525 9.44771525,0 10,0 Z" id="Shape"></path>
                </g>
            </g>
        </g>
    </g>
</svg>