<?xml version="1.0" encoding="UTF-8"?>
<svg width="72px" height="72px" viewBox="0 0 72 72" version="1.1" xmlns="http://www.w3.org/2000/svg" xmlns:xlink="http://www.w3.org/1999/xlink">
    <title>icon/error</title>
    <g id="Symbols" stroke="none" stroke-width="1" fill="none" fill-rule="evenodd">
        <g id="icon/error" fill="#C90000" fill-rule="nonzero">
            <path d="M36,0 C55.882251,0 72,16.117749 72,36 C72,55.882251 55.882251,72 36,72 C16.117749,72 0,55.882251 0,36 C0,16.117749 16.117749,0 36,0 Z M36,3.5 C18.0507456,3.5 3.5,18.0507456 3.5,36 C3.5,53.9492544 18.0507456,68.5 36,68.5 C53.9492544,68.5 68.5,53.9492544 68.5,36 C68.5,18.0507456 53.9492544,3.5 36,3.5 Z M26.0013364,22.6364803 L26.1936763,22.8063237 L37,33.6110417 L47.8063237,22.8063237 C48.6036441,22.0090032 49.8963559,22.0090032 50.6936763,22.8063237 C51.4296644,23.5423117 51.4862789,24.7004085 50.8635197,25.5013364 L50.6936763,25.6936763 L39.8889583,36.5 L50.6936763,47.3063237 C51.4909968,48.1036441 51.4909968,49.3963559 50.6936763,50.1936763 C49.9576883,50.9296644 48.7995915,50.9862789 47.9986636,50.3635197 L47.8063237,50.1936763 L37,39.3889583 L26.1936763,50.1936763 C25.3963559,50.9909968 24.1036441,50.9909968 23.3063237,50.1936763 C22.5703356,49.4576883 22.5137211,48.2995915 23.1364803,47.4986636 L23.3063237,47.3063237 L34.1110417,36.5 L23.3063237,25.6936763 C22.5090032,24.8963559 22.5090032,23.6036441 23.3063237,22.8063237 C24.0423117,22.0703356 25.2004085,22.0137211 26.0013364,22.6364803 Z" id="Shape"></path>
        </g>
    </g>
</svg>