<?xml version="1.0" encoding="UTF-8"?>
<svg width="24px" height="24px" viewBox="0 0 24 24" version="1.1" xmlns="http://www.w3.org/2000/svg" xmlns:xlink="http://www.w3.org/1999/xlink">
    <title>icon/verify/ 1. Experience@1x</title>
    <g id="icon/verify/-1.-Experience" stroke="none" stroke-width="1" fill="none" fill-rule="evenodd">
        <path d="M12.01,2.011 C12.7877863,2.011 13.5389311,2.29437067 14.123,2.808 L14.277,2.953 L14.975,3.651 C15.1665598,3.84131174 15.4167079,3.9614533 15.685,3.992 L15.82,4 L16.82,4 C18.5166787,3.99990466 19.9185014,5.32406772 20.015,7.018 L20.02,7.2 L20.02,8.2 C20.02,8.47 20.112,8.733 20.278,8.943 L20.368,9.043 L21.065,9.741 C22.264159,10.9333694 22.3285538,12.8529469 21.212,14.123 L21.067,14.277 L20.369,14.975 C20.1786883,15.1665598 20.0585467,15.4167079 20.028,15.685 L20.02,15.82 L20.02,16.82 C20.0200953,18.5166787 18.6959323,19.9185014 17.002,20.015 L16.82,20.02 L15.82,20.02 C15.5503822,20.0200887 15.28865,20.1109729 15.077,20.278 L14.977,20.368 L14.279,21.065 C13.0866306,22.264159 11.1670531,22.3285538 9.897,21.212 L9.743,21.067 L9.045,20.369 C8.85344017,20.1786883 8.60329206,20.0585467 8.335,20.028 L8.2,20.02 L7.2,20.02 C5.50332132,20.0200953 4.1014986,18.6959323 4.005,17.002 L4,16.82 L4,15.82 C3.99991125,15.5503822 3.90902714,15.28865 3.742,15.077 L3.652,14.977 L2.955,14.279 C1.75584098,13.0866306 1.69144621,11.1670531 2.808,9.897 L2.953,9.743 L3.651,9.045 C3.84131174,8.85344017 3.9614533,8.60329206 3.992,8.335 L4,8.2 L4,7.2 L4.005,7.018 C4.09743963,5.39379549 5.39379549,4.09743963 7.018,4.005 L7.2,4 L8.2,4 C8.46961784,3.99991125 8.73135,3.90902714 8.943,3.742 L9.043,3.652 L9.741,2.955 C10.3415412,2.35087483 11.1581685,2.011 12.01,2.011 Z M14.293,9.293 L11,12.585 L9.707,11.293 L9.613,11.21 C9.19587087,10.8874653 8.5999783,10.9442304 8.25124881,11.3397214 C7.90251932,11.7352123 7.92078934,12.3335237 8.293,12.707 L10.293,14.707 L10.387,14.79 C10.7850853,15.0988022 11.3507315,15.0632351 11.707,14.707 L15.707,10.707 L15.79,10.613 C16.0988022,10.2149147 16.0632351,9.64926853 15.707,9.293 C15.3165001,8.90261806 14.6834999,8.90261806 14.293,9.293 Z" id="Combined-Shape" fill="#19A79B"></path>
    </g>
</svg>