<?xml version="1.0" encoding="UTF-8"?>
<svg width="24px" height="24px" viewBox="0 0 24 24" version="1.1" xmlns="http://www.w3.org/2000/svg" xmlns:xlink="http://www.w3.org/1999/xlink">
    <title>icon/positive/favorite/repose_v2 copy 2</title>
    <g id="Symbols" stroke="none" stroke-width="1" fill="none" fill-rule="evenodd" opacity="0.48">
        <g id="Cards/1.job/2.-Hover" transform="translate(-551.000000, -24.000000)" fill="#7F8D98">
            <g id="icon/positive/favorite/repose_v2-copy" transform="translate(551.000000, 24.000000)">
                <path d="M12,4.5 C14.8211879,4.5 17.2852057,5.85001745 19.3748814,8.0635258 C20.0902915,8.82133052 20.711169,9.62994153 21.2374574,10.4391806 L21.3522355,10.6179167 L21.3522355,10.6179167 L21.4576853,10.7864409 L21.640506,11.0905075 L21.7857317,11.3466879 L21.8931745,11.5502898 C22.0356085,11.8331795 22.0356085,12.1668205 21.8931745,12.4497102 L21.8441877,12.5446456 L21.71783,12.7751232 L21.5537833,13.0558333 L21.3522355,13.3820833 L21.2374574,13.5608194 C20.711169,14.3700585 20.0902915,15.1786695 19.3748814,15.9364742 C17.2852057,18.1499825 14.8211879,19.5 12,19.5 C9.17881215,19.5 6.71479428,18.1499825 4.62511857,15.9364742 C3.90970851,15.1786695 3.28883097,14.3700585 2.76254262,13.5608194 L2.6477645,13.3820833 L2.6477645,13.3820833 L2.5423147,13.2135591 L2.35949396,12.9094925 L2.21426827,12.6533121 L2.10682549,12.4497102 C1.9643915,12.1668205 1.9643915,11.8331795 2.10682549,11.5502898 L2.15581228,11.4553544 L2.28216999,11.2248768 L2.44621669,10.9441667 L2.6477645,10.6179167 L2.76254262,10.4391806 C3.28883097,9.62994153 3.90970851,8.82133052 4.62511857,8.0635258 C6.71479428,5.85001745 9.17881215,4.5 12,4.5 Z M12,6.5 C9.80982422,6.5 7.82497845,7.58748255 6.07942688,9.4364742 C5.55699398,9.9898661 5.08876434,10.5785054 4.67840428,11.1726557 L4.38850303,11.6079431 L4.38850303,11.6079431 L4.144,11.999 L4.24959981,12.1718169 L4.43916193,12.4704306 C4.90364062,13.184629 5.4525074,13.8994555 6.07942688,14.5635258 C7.82497845,16.4125175 9.80982422,17.5 12,17.5 C14.1901758,17.5 16.1750216,16.4125175 17.9205731,14.5635258 C18.443006,14.0101339 18.9112357,13.4214946 19.3215957,12.8273443 L19.611497,12.3920569 L19.611497,12.3920569 L19.855,12 L19.7504002,11.8281831 L19.5608381,11.5295694 C19.0963594,10.815371 18.5474926,10.1005445 17.9205731,9.4364742 C16.1750216,7.58748255 14.1901758,6.5 12,6.5 Z M12,8.5625 C13.9063388,8.5625 15.4545455,10.0999552 15.4545455,12 C15.4545455,13.9000448 13.9063388,15.4375 12,15.4375 C10.0936612,15.4375 8.54545455,13.9000448 8.54545455,12 C8.54545455,10.0999552 10.0936612,8.5625 12,8.5625 Z M12,10.5625 C11.1951228,10.5625 10.5454545,11.2076566 10.5454545,12 C10.5454545,12.7923434 11.1951228,13.4375 12,13.4375 C12.8048772,13.4375 13.4545455,12.7923434 13.4545455,12 C13.4545455,11.2076566 12.8048772,10.5625 12,10.5625 Z" id="Shape"></path>
            </g>
        </g>
    </g>
</svg>