<?xml version="1.0" encoding="UTF-8"?>
<svg width="24px" height="24px" viewBox="0 0 24 24" version="1.1" xmlns="http://www.w3.org/2000/svg" xmlns:xlink="http://www.w3.org/1999/xlink">
    <title>Status/Heart/1.Outline 2</title>
    <g id="Symbols" stroke="none" stroke-width="1" fill="none" fill-rule="evenodd">
        <g id="Status/Heart/1.Outline" fill="#1A3447">
            <path d="M15.9937612,3.00638087 C14.5658255,3.07429379 13.2111519,3.68191799 12.1986148,4.71430661 L11.999,4.917 L11.8007603,4.71413909 C9.5587505,2.4292462 5.91574422,2.42924623 3.67373449,4.71413914 C1.44208853,6.98847005 1.4420885,10.6681833 3.67373443,12.9425142 L11.2859965,20.700377 C11.6779961,21.0998743 12.3215433,21.0998743 12.7135428,20.700377 L20.3258049,12.9425143 C21.3983586,11.8499588 22,10.3701772 22,8.82832667 C22,7.28647616 21.3983586,5.80669459 20.3256406,4.71397161 C19.2501485,3.6173937 17.7880879,3 16.262292,3 L15.9937612,3.00638087 Z M16.262292,5 C17.2494693,5 18.1973919,5.40028534 18.8980943,6.11472549 C19.6030623,6.83284048 20,7.80913816 20,8.82832667 C20,9.84751519 19.6030623,10.8238129 18.898423,11.5415929 L11.999,18.571 L5.10128074,11.5417603 C3.6329064,10.0453002 3.63290642,7.6113532 5.10128079,6.11489306 C6.5592914,4.62899492 8.91520335,4.6289949 10.373214,6.11489302 L11.2859965,7.04513447 C11.6779961,7.44463185 12.3215433,7.44463185 12.7135428,7.04513447 L13.6263254,6.11489301 C14.3271922,5.40028534 15.2751148,5 16.262292,5 Z" id="Path"></path>
        </g>
    </g>
</svg>