<?xml version="1.0" encoding="UTF-8"?>
<svg width="24px" height="24px" viewBox="0 0 24 24" version="1.1" xmlns="http://www.w3.org/2000/svg" xmlns:xlink="http://www.w3.org/1999/xlink">
    <title>icon/positive/favorite/active</title>
    <g id="Symbols" stroke="none" stroke-width="1" fill="none" fill-rule="evenodd">
        <g id="Status/Heart/1.Outline" fill="#19A79B" transform="translate(2.000000, 3.000000)">
            <path d="M13.9937612,0.00638086792 C12.5658255,0.0742937887 11.2111519,0.681917987 10.1986148,1.71430661 L9.999,1.917 L9.80076028,1.71413909 C7.5587505,-0.570753797 3.91574422,-0.570753769 1.67373449,1.71413914 C-0.557911473,3.98847005 -0.5579115,7.6681833 1.67373443,9.94251425 L9.28599653,17.700377 C9.6779961,18.0998743 10.3215433,18.0998743 10.7135428,17.700377 L18.3258049,9.94251426 C19.3983586,8.84995876 20,7.37017718 20,5.82832667 C20,4.28647616 19.3983586,2.80669459 18.3256406,1.71397161 C17.2501485,0.617393698 15.7880879,4.4408921e-16 14.262292,4.4408921e-16 L13.9937612,0.00638086792 Z" id="Path"></path>
        </g>
    </g>
</svg>