<?xml version="1.0" encoding="UTF-8"?>
<svg width="23px" height="23px" viewBox="0 0 23 23" version="1.1" xmlns="http://www.w3.org/2000/svg" xmlns:xlink="http://www.w3.org/1999/xlink">
	<title>
		Controls/Adjustment/1.Outline
	</title>
	<g id="Mobile-" stroke="none" stroke-width="1" fill="none" fill-rule="evenodd">
		<g id="1.0.0.0-Darshana-mobile" transform="translate(-333.000000, -113.000000)" fill="#1A3447">
			<g id="Controls/Adjustment/1.Outline" transform="translate(333.333333, 113.333333)">
				<path d="M13.5,0 C15.0855698,0 16.4248865,1.05433459 16.8551091,2.50016263 L21,2.5 C21.5522847,2.5 22,2.94771525 22,3.5 C22,4.01283584 21.6139598,4.43550716 21.1166211,4.49327227 L21,4.5 L16.8548109,4.5008388 C16.424268,5.94615223 15.0852037,7 13.5,7 C11.9147963,7 10.575732,5.94615223 10.1451891,4.5008388 L1,4.5 C0.44771525,4.5 0,4.05228475 0,3.5 C0,2.98716416 0.38604019,2.56449284 0.883378875,2.50672773 L1,2.5 L10.1448909,2.50016263 C10.5751135,1.05433459 11.9144302,0 13.5,0 Z M13.5,2 C12.6715729,2 12,2.67157288 12,3.5 L11.9999595,3.49090593 C11.9999865,3.49393409 12,3.49696547 12,3.5 C12.0049402,4.33335608 12.6746186,5 13.5,5 C14.3284271,5 15,4.32842712 15,3.5 C15,2.67157288 14.3284271,2 13.5,2 Z M6,7.5 C7.58556977,7.5 8.9248865,8.55433459 9.35510906,10.0001626 L21,10 C21.5522847,10 22,10.4477153 22,11 C22,11.5128358 21.6139598,11.9355072 21.1166211,11.9932723 L21,12 L9.35481091,12.0008388 C8.92426801,13.4461522 7.58520367,14.5 6,14.5 C4.41479633,14.5 3.07573199,13.4461522 2.64518909,12.0008388 L1,12 C0.44771525,12 0,11.5522847 0,11 C0,10.4871642 0.38604019,10.0644928 0.883378875,10.0067277 L1,10 L2.64489094,10.0001626 C3.0751135,8.55433459 4.41443023,7.5 6,7.5 Z M6,9.5 C5.17157288,9.5 4.5,10.1715729 4.5,11 L4.49995951,10.9909059 C4.49998648,10.9939341 4.5,10.9969655 4.5,11 C4.50494016,11.8333561 5.17461856,12.5 6,12.5 C6.82842712,12.5 7.5,11.8284271 7.5,11 C7.5,10.1715729 6.82842712,9.5 6,9.5 Z M17.25,15 C18.8355698,15 20.1748865,16.0543346 20.6051091,17.5001626 L21,17.5 C21.5522847,17.5 22,17.9477153 22,18.5 C22,19.0128358 21.6139598,19.4355072 21.1166211,19.4932723 L21,19.5 L20.6048109,19.5008388 C20.174268,20.9461522 18.8352037,22 17.25,22 C15.6647963,22 14.325732,20.9461522 13.8951891,19.5008388 L1,19.5 C0.44771525,19.5 8.8817842e-16,19.0522847 8.8817842e-16,18.5 C8.8817842e-16,17.9871642 0.38604019,17.5644928 0.883378875,17.5067277 L1,17.5 L13.8948909,17.5001626 C14.3251135,16.0543346 15.6644302,15 17.25,15 Z M17.25,17 C16.4215729,17 15.75,17.6715729 15.75,18.5 C15.75,19.3284271 16.4215729,20 17.25,20 C18.0784271,20 18.75,19.3284271 18.75,18.5 C18.75,17.6715729 18.0784271,17 17.25,17 Z" id="Combined-Shape">
				</path>
			</g>
		</g>
	</g>
</svg>
