<?xml version="1.0" encoding="UTF-8"?>
<svg width="16px" height="16px" viewBox="0 0 16 16" version="1.1" xmlns="http://www.w3.org/2000/svg" xmlns:xlink="http://www.w3.org/1999/xlink">
    <title>Icons/1. Outline/1. Basic/0.Icon</title>
    <g id="1.-guest-user" stroke="none" stroke-width="1" fill="none" fill-rule="evenodd">
        <g id="1.1.0.0-Darshana-Guest-User" transform="translate(-203.000000, -756.000000)" fill-rule="nonzero">
            <g id="Group-7" transform="translate(144.000000, 208.000000)">
                <g id="Group-6" transform="translate(0.000000, 480.000000)">
                    <g id="Group-4" transform="translate(0.000000, 56.000000)">
                        <g id="Group" transform="translate(59.000000, 8.000000)">
                            <g transform="translate(0.000000, 4.000000)" id="Icons/1.-Outline/1.-Basic/0.Icon">
                                <g id="Google__G__Logo" transform="translate(0.166667, 0.000000)">
                                    <path d="M15.66,8.18 C15.66,7.65333333 15.6133333,7.15333333 15.5333333,6.66666667 L8,6.66666667 L8,9.67333333 L12.3133333,9.67333333 C12.12,10.66 11.5533333,11.4933333 10.7133333,12.06 L10.7133333,14.06 L13.2866667,14.06 C14.7933333,12.6666667 15.66,10.6133333 15.66,8.18 Z" id="Path" fill="#4285F4"></path>
                                    <path d="M8,16 C10.16,16 11.9666667,15.28 13.2866667,14.06 L10.7133333,12.06 C9.99333333,12.54 9.08,12.8333333 8,12.8333333 C5.91333333,12.8333333 4.14666667,11.4266667 3.51333333,9.52666667 L0.86,9.52666667 L0.86,11.5866667 C2.17333333,14.2 4.87333333,16 8,16 Z" id="Path" fill="#34A853"></path>
                                    <path d="M3.51333333,9.52666667 C3.34666667,9.04666667 3.26,8.53333333 3.26,8 C3.26,7.46666667 3.35333333,6.95333333 3.51333333,6.47333333 L3.51333333,4.41333333 L0.86,4.41333333 C0.313333333,5.49333333 0,6.70666667 0,8 C0,9.29333333 0.313333333,10.5066667 0.86,11.5866667 L3.51333333,9.52666667 Z" id="Path" fill="#FBBC05"></path>
                                    <path d="M8,3.16666667 C9.18,3.16666667 10.2333333,3.57333333 11.0666667,4.36666667 L13.3466667,2.08666667 C11.9666667,0.793333333 10.16,0 8,0 C4.87333333,0 2.17333333,1.8 0.86,4.41333333 L3.51333333,6.47333333 C4.14666667,4.57333333 5.91333333,3.16666667 8,3.16666667 Z" id="Path" fill="#EA4335"></path>
                                </g>
                            </g>
                        </g>
                    </g>
                </g>
            </g>
        </g>
    </g>
</svg>