<?xml version="1.0" encoding="UTF-8"?>
<svg width="24px" height="24px" viewBox="0 0 24 24" version="1.1" xmlns="http://www.w3.org/2000/svg" xmlns:xlink="http://www.w3.org/1999/xlink">
    <title>icon/negative/favorite 2</title>
    <g id="Symbols" stroke="none" stroke-width="1" fill="none" fill-rule="evenodd">
        <g id="header/2.talent/1.solid/1.positive" transform="translate(-1256.000000, -24.000000)" fill="#1A3447">
            <g id="Technology/Headset/1.Outline" transform="translate(1256.000000, 24.000000)">
                <path d="M5,22 C3.40231912,22 2.09633912,20.7510799 2.00509269,19.1762727 L2,19 L2,12 C2,6.47715246 6.47715251,2 12,2 C17.4292399,2 21.8479317,6.32667075 21.9961582,11.7200952 L22,12 L22,19 C22,20.5976807 20.75108,21.9036607 19.1762728,21.9949072 L19,22 L18,22 C16.4023191,22 15.0963391,20.7510799 15.0050927,19.1762727 L15,19 L15,16 C15,14.402319 16.24892,13.096339 17.8237272,13.0050926 L18,13 L20,12.999 L20,12 C20,7.58172197 16.418278,4 12,4 C7.66508574,4 4.13545713,7.44783774 4.00380682,11.7508207 L4,12 L4,12.999 L6,13 C7.59768088,13 8.90366088,14.2489198 8.99490731,15.8237271 L9,16 L9,19 C9,19.350972 8.93973023,19.6878672 8.82897577,20.0009007 L12,20 C12.5522847,20 13,20.4477153 13,21 C13,21.5522847 12.5522847,22 12,22 L5,22 Z M20,14.999 L18,14.9999999 C17.4871642,14.9999999 17.0644928,15.3860401 17.0067277,15.8833787 L17,15.9999999 L17,18.9999999 C17,19.5128357 17.3860402,19.935507 17.8833789,19.9932721 L18,19.9999999 L19,19.9999999 C19.5128358,19.9999999 19.9355072,19.6139597 19.9932723,19.116621 L20,18.9999999 L20,14.999 Z M6,14.9999999 L4,14.999 L4,18.9999999 C4,19.5128357 4.38604019,19.935507 4.88337887,19.9932721 L5,19.9999999 L6,19.9999999 C6.51283584,19.9999999 6.93550716,19.6139597 6.99327227,19.116621 L7,18.9999999 L7,15.9999999 C7,15.487164 6.61395981,15.0644927 6.11662113,15.0067276 L6,14.9999999 Z" id="Shape"></path>
            </g>
        </g>
    </g>
</svg>