<?xml version="1.0" encoding="UTF-8"?>
<svg width="24px" height="24px" viewBox="0 0 24 24" version="1.1" xmlns="http://www.w3.org/2000/svg" xmlns:xlink="http://www.w3.org/1999/xlink">
    <title>icon/ID</title>
    <g id="Symbols" stroke="none" stroke-width="1" fill="none" fill-rule="evenodd">
        <g id="icon/ID" fill="#1A3447">
            <path d="M18,3 C20.209139,3 22,4.790861 22,7 L22,7 L22,17 C22,19.209139 20.209139,21 18,21 L18,21 L6,21 C3.790861,21 2,19.209139 2,17 L2,17 L2,7 C2,4.790861 3.790861,3 6,3 L6,3 Z M18,5 L6,5 C4.8954305,5 4,5.8954305 4,7 L4,7 L4,17 C4,18.1045695 4.8954305,19 6,19 L6,19 L18,19 C19.1045695,19 20,18.1045695 20,17 L20,17 L20,7 C20,5.8954305 19.1045695,5 18,5 L18,5 Z M17,15 C17.5522847,15 18,15.4477153 18,16 C18,16.5128358 17.6139598,16.9355072 17.1166211,16.9932723 L17,17 L7,17 C6.44771525,17 6,16.5522847 6,16 C6,15.4871642 6.38604019,15.0644928 6.88337887,15.0067277 L7,15 L17,15 Z M9,7 C10.6568542,7 12,8.34314575 12,10 C12,11.6568542 10.6568542,13 9,13 C7.34314575,13 6,11.6568542 6,10 C6,8.34314575 7.34314575,7 9,7 Z M17,11 C17.5522847,11 18,11.4477153 18,12 C18,12.5128358 17.6139598,12.9355072 17.1166211,12.9932723 L17,13 L15,13 C14.4477153,13 14,12.5522847 14,12 C14,11.4871642 14.3860402,11.0644928 14.8833789,11.0067277 L15,11 L17,11 Z M9,9 C8.44771525,9 8,9.44771525 8,10 C8,10.5522847 8.44771525,11 9,11 C9.55228475,11 10,10.5522847 10,10 C10,9.44771525 9.55228475,9 9,9 Z M17,7 C17.5522847,7 18,7.44771525 18,8 C18,8.51283584 17.6139598,8.93550716 17.1166211,8.99327227 L17,9 L15,9 C14.4477153,9 14,8.55228475 14,8 C14,7.48716416 14.3860402,7.06449284 14.8833789,7.00672773 L15,7 L17,7 Z" id="Combined-Shape"></path>
        </g>
    </g>
</svg>