<?xml version="1.0" encoding="UTF-8"?>
<svg width="24px" height="24px" viewBox="0 0 24 24" version="1.1" xmlns="http://www.w3.org/2000/svg" xmlns:xlink="http://www.w3.org/1999/xlink">
	<title>
		icon/Star/Line
	</title>
	<g id="Symbols" stroke="none" stroke-width="1" fill="none" fill-rule="evenodd">
		<g id="icon/Star/Line" fill="#0A3C4C" fill-rule="nonzero">
			<path d="M11.8243564,2.00679801 C11.0104616,2.06994123 10.2953719,2.56868456 9.93866323,3.32376117 L8.084,7.244 L3.95649114,7.87073024 C3.08365836,8.00279459 2.37503653,8.62631417 2.10933924,9.47918206 L2.06333931,9.64843459 C1.87816799,10.4416887 2.1043912,11.2757203 2.67750835,11.8587134 L5.689,14.923 L4.97766394,19.2608992 C4.8656722,19.9379887 5.0400875,20.6144476 5.46826984,21.1441149 L5.58090365,21.2736614 C6.28102292,22.0206548 7.40697516,22.2197079 8.31817204,21.7198759 L12,19.699 L15.6823986,21.7197935 C16.0175562,21.9040198 16.3852095,22 16.763961,22 C17.4505628,22 18.0964627,21.6839464 18.5326335,21.1434427 L18.6429905,20.9957537 C18.9897427,20.4918767 19.1246138,19.8759146 19.0224585,19.2594564 L18.31,14.923 L21.3225947,11.8582323 C21.9365457,11.2337017 22.1523797,10.3208843 21.8908593,9.47944398 L21.8318744,9.31191722 C21.5298637,8.54518032 20.8587508,7.99423958 20.0437969,7.87039776 L15.915,7.244 L14.0619461,3.32352523 C13.6798312,2.51466888 12.8861839,2 12.0001802,2 L11.8243564,2.00679801 Z M12.0001802,4 C12.1041597,4 12.1984697,4.06115873 12.2536942,4.17805716 L14.2022811,8.30001697 C14.4256056,8.77331426 14.8668102,9.10793026 15.3849808,9.18669553 L19.743611,9.84774152 C19.8506045,9.86400048 19.9404954,9.94309222 19.9811764,10.073675 C20.0251005,10.2150015 19.9907974,10.3600782 19.8962494,10.4562555 L16.7427592,13.6650298 C16.3833981,14.0310721 16.2216916,14.5487352 16.3048652,15.0548255 L17.049141,19.5850578 C17.0689971,19.7048857 17.0433487,19.8045062 16.9771934,19.8862221 C16.9155714,19.9625822 16.8391029,20 16.763961,20 C16.7248855,20 16.6881814,19.990418 16.6451842,19.9667837 L12.7465444,17.8273369 C12.2822189,17.5747937 11.7163151,17.5742149 11.2548121,17.826791 L7.35611027,19.9664686 C7.25206677,20.0235411 7.10990203,19.9938209 7.02450076,19.8878731 C6.9570072,19.8043811 6.93138215,19.7049959 6.95104367,19.5861238 L7.69515596,15.0546967 C7.77838863,14.5492346 7.61661417,14.0310847 7.25760611,13.6654017 L4.10381256,10.4566947 C4.00920257,10.3604544 3.97489946,10.2153777 4.0190222,10.0734131 C4.0594833,9.94353684 4.14955497,9.86428237 4.25604283,9.84817017 L8.61468799,9.18712203 C9.13306791,9.108325 9.57470933,8.77378692 9.79838811,8.29973947 L11.7468997,4.17832583 C11.8022455,4.06117056 11.8965526,4 12.0001802,4 Z" id="Path">
			</path>
		</g>
	</g>
</svg>
