<?xml version="1.0" encoding="UTF-8"?>
<svg width="24px" height="24px" viewBox="0 0 24 24" version="1.1" xmlns="http://www.w3.org/2000/svg" xmlns:xlink="http://www.w3.org/1999/xlink">
    <title>icon/positive/search copy 9</title>
    <g id="Symbols" stroke="none" stroke-width="1" fill="none" fill-rule="evenodd">
        <g id="footer/reclutador" transform="translate(-881.000000, -87.000000)" fill="#FFFFFF">
            <g id="Group-2" transform="translate(842.000000, 87.000000)">
                <g id="icon/positive/search-copy-6" transform="translate(39.000000, 0.000000)">
                    <path d="M15.6,8.4 C18.5823376,8.4 21,10.8176624 21,13.8 L21,20.1 L17.4,20.1 L17.4,13.8 C17.4,12.8058875 16.5941125,12 15.6,12 C14.6058875,12 13.8,12.8058875 13.8,13.8 L13.8,20.1 L10.2,20.1 L10.2,13.8 C10.2,10.8176624 12.6176624,8.4 15.6,8.4 Z M6.6,9.3 L6.6,20.1 L3,20.1 L3,9.3 L6.6,9.3 Z M4.8,3 C5.79411255,3 6.6,3.80588745 6.6,4.8 C6.6,5.79411255 5.79411255,6.6 4.8,6.6 C3.80588745,6.6 3,5.79411255 3,4.8 C3,3.80588745 3.80588745,3 4.8,3 Z" id="linkedin"></path>
                </g>
            </g>
        </g>
    </g>
</svg>