<?xml version="1.0" encoding="UTF-8"?>
<svg width="24px" height="24px" viewBox="0 0 24 24" version="1.1" xmlns="http://www.w3.org/2000/svg" xmlns:xlink="http://www.w3.org/1999/xlink">
    <title>icon/positive/link</title>
    <g id="Symbols" stroke="none" stroke-width="1" fill="none" fill-rule="evenodd">
        <g id="icon/positive/link" fill="#1A3447" fill-rule="nonzero">
            <path d="M11.5,7.94948974 C12.7093951,7.94948974 13.8678854,8.43629211 14.7142857,9.30014579 C15.1008045,9.69463489 15.0943433,10.3277669 14.6998542,10.7142857 C14.3053651,11.1008045 13.6722331,11.0943433 13.2857143,10.6998542 C12.8154919,10.2199355 12.1718862,9.94948974 11.5,9.94948974 C10.8953024,9.94948974 10.313512,10.1685508 9.85517538,10.5675109 L9.70710678,10.7071068 L5.70710678,14.7071068 C4.7169192,15.6972944 4.7169192,17.3027056 5.70710678,18.2928932 C6.65424273,19.2400292 8.16426765,19.281209 9.16035047,18.4164327 L9.29289322,18.2928932 L9.79289322,17.7928932 C10.1834175,17.4023689 10.8165825,17.4023689 11.2071068,17.7928932 C11.5675907,18.1533772 11.5953203,18.7206082 11.2902954,19.1128994 L11.2071068,19.2071068 L10.7071068,19.7071068 C8.93587061,21.4783429 6.06412939,21.4783429 4.29289322,19.7071068 C2.57700818,17.9912217 2.52338678,15.2425385 4.132029,13.4621036 L4.29289322,13.2928932 L8.28571429,9.30014579 C9.13211458,8.43629211 10.2906049,7.94948974 11.5,7.94948974 Z M19.7071068,4.29289327 C21.4229918,6.00877829 21.4766132,8.75746149 19.867971,10.5378964 L19.7071068,10.7071068 L15.7142857,14.6998542 C14.8678854,15.5637079 13.7093951,16.0505103 12.4999997,16.0505103 C11.2906049,16.0505103 10.1321146,15.5637079 9.28571429,14.6998542 C8.89919548,14.3053651 8.90565668,13.6722331 9.30014579,13.2857143 C9.69463489,12.8991955 10.3277669,12.9056567 10.7142857,13.3001458 C11.1845081,13.7800645 11.8281138,14.0505103 12.4999997,14.0505103 C13.1046976,14.0505103 13.686488,13.8314492 14.1448246,13.4324891 L14.2928932,13.2928932 L18.2928932,9.29289323 C19.2830808,8.30270564 19.2830808,6.69729439 18.2928932,5.70710683 C17.3457573,4.75997088 15.8357323,4.71879104 14.8396495,5.58356731 L14.7071068,5.70710678 L14.2071068,6.20710678 C13.8165825,6.59763107 13.1834175,6.59763107 12.7928932,6.20710678 C12.4324093,5.84662282 12.4046797,5.27939176 12.7097046,4.88710056 L12.7928932,4.79289322 L13.2928932,4.29289321 C15.0641294,2.52165709 17.9358706,2.52165711 19.7071068,4.29289327 Z" id="Shape"></path>
        </g>
    </g>
</svg>