<?xml version="1.0" encoding="UTF-8"?>
<svg width="24px" height="24px" viewBox="0 0 24 24" version="1.1" xmlns="http://www.w3.org/2000/svg" xmlns:xlink="http://www.w3.org/1999/xlink">
    <title>icon/Mail</title>
    <g id="Symbols" stroke="none" stroke-width="1" fill="none" fill-rule="evenodd">
        <g id="icon/Mail" fill="#1A3447">
            <path d="M20,3 C21.5932746,3 22.9033461,4.2531689 22.9948904,5.82418245 L23,6 L23,18 C23,19.5932746 21.7468311,20.9033461 20.1758175,20.9948904 L20,21 L4,21 C2.40672542,21 1.09665386,19.7468311 1.00510955,18.1758175 L1,18 L1,6 C1,4.40672542 2.2531689,3.09665386 3.82418245,3.00510955 L4,3 L20,3 Z M21,7.92 L12.5734623,13.8192319 C12.2674,14.0334756 11.8712918,14.0572804 11.5452193,13.8906465 L11.4265377,13.8192319 L3,7.921 L3,18 C3,18.5085927 3.38998022,18.934901 3.88422317,18.9932073 L4,19 L20,19 C20.5085927,19 20.934901,18.6100198 20.9932073,18.1157768 L21,18 L21,7.92 Z M20,5 L4,5 C3.61200142,5 3.27189207,5.22696691 3.10652962,5.55404305 L12,11.779 L20.8934704,5.55404305 C20.7464815,5.26330871 20.4614211,5.05167301 20.1273852,5.00823217 L20,5 Z" id="mail"></path>
        </g>
    </g>
</svg>
