<?xml version="1.0" encoding="UTF-8"?>
<svg width="41px" height="40px" viewBox="0 0 41 40" version="1.1" xmlns="http://www.w3.org/2000/svg" xmlns:xlink="http://www.w3.org/1999/xlink">
    <title>Status/Check/1.Outline</title>
    <g id="3.-Reclutador" stroke="none" stroke-width="1" fill="none" fill-rule="evenodd">
        <g id="1.1.2.0--Darshana-Reclutador" transform="translate(-700, -255)" fill="#19A79B">
            <g id="Group-5-Copy" transform="translate(512, 207)">
                <g id="Status/Check/1.Outline" transform="translate(191.8333, 53.0359)">
                    <path d="M26.5109065,0.299511853 C27.6235704,0.821167266 28.3339649,1.93945361 28.3333338,3.1674763 L28.3341802,6.84105682 C31.2091292,7.58142266 33.3333333,10.1913823 33.3333333,13.2974763 C33.3333333,16.4035703 31.2091292,19.0135299 28.3341802,19.7538958 L28.3333338,23.4266195 C28.3339649,24.655499 27.6235704,25.7737853 26.5109065,26.2954407 C25.3982427,26.8170962 24.0842399,26.6479174 23.1396927,25.8611784 L16.0616667,19.9633536 L14.999,19.963 L15,26.6308096 C15,28.3880793 13.6402037,29.8277515 11.9154372,29.9550001 L11.6666667,29.964143 L10,29.964143 C8.24273034,29.964143 6.80305813,28.6043466 6.67580956,26.8795802 L6.66666667,26.6308096 L6.666,19.964 L3.33333333,19.964143 C1.57606367,19.964143 0.136391464,18.6043466 0.00914289405,16.8795802 L0,16.6308096 L0,9.96414296 C0,8.1231938 1.49238417,6.63080963 3.33333333,6.63080963 L16.0616667,6.63002026 L23.1399998,0.733518298 C24.0842399,-0.052964849 25.3982427,-0.22214356 26.5109065,0.299511853 Z M11.666,19.963 L10,19.963 L10,26.6308096 L11.6666667,26.6308096 L11.666,19.963 Z M25,3.52168693 L17.7336407,9.57784509 C17.4341157,9.82744926 17.0565608,9.96414296 16.6666667,9.96414296 L14.999,9.964 L14.999,16.63 L16.6666667,16.6308096 C17.0565608,16.6308096 17.4341157,16.7675033 17.7336407,17.0171075 L25,23.0716869 L25,3.52168693 Z M11.666,16.63 L11.666,9.964 L3.33333333,9.96414296 L3.33333333,16.6308096 L11.666,16.63 Z M28.3333387,10.4100868 L28.3333387,16.1848658 C29.3296714,15.608516 30,14.531278 30,13.2974763 C30,12.0636746 29.3296714,10.9864366 28.3333387,10.4100868 Z" id="Combined-Shape"></path>
                </g>
            </g>
        </g>
    </g>
</svg>