<?xml version="1.0" encoding="UTF-8"?>
<svg width="24px" height="24px" viewBox="0 0 24 24" version="1.1" xmlns="http://www.w3.org/2000/svg" xmlns:xlink="http://www.w3.org/1999/xlink">
    <title>Status/Message-circle/1.Outline</title>
    <g id="Symbols" stroke="none" stroke-width="1" fill="none" fill-rule="evenodd">
        <g id="Status/Message-circle/1.Outline" fill="#1A3447">
            <path d="M13.055092,2.00151872 L12.5,1.99996869 C11.0252097,1.99618331 9.56783025,2.34136027 8.24914664,3.00743046 C5.03486902,4.61386369 3.00139217,7.90203903 3.00000007,11.4996415 L3.0062929,11.8679889 C3.04688751,12.9715012 3.28248792,14.0593546 3.70123475,15.0805335 L3.824,15.364 L2.0513167,20.6838007 L2.02191665,20.7900777 C1.85842188,21.5310963 2.57000419,22.197453 3.31622777,21.9487118 L8.635,20.175 L8.9195053,20.2987937 C10.0541999,20.7640679 11.2714656,21.003235 12.5026073,21.0000251 C16.0979895,20.9986363 19.3861648,18.9651595 20.9945046,15.7470872 C21.6586682,14.4321982 22.0038452,12.9748188 22.0000565,11.4974428 L22.0000565,11.0000285 C21.7323007,6.12019249 17.879836,2.26772776 13.055092,2.00151872 Z M12.4974143,3.99999666 L12.971,4 L12.944908,3.99848128 C16.7517828,4.2085286 19.7914999,7.24824564 20.0015472,11.0551205 L20.0000285,11.5000285 C20.0030374,12.6650042 19.7314558,13.811655 19.207402,14.8491751 C17.9357535,17.3935531 15.3398256,18.9989295 12.499613,19.0000286 C11.3350271,19.0030625 10.1883822,18.7314887 9.15085336,18.2074305 L9.02896213,18.1556811 C8.82145802,18.083393 8.59456045,18.0810825 8.38377223,18.1513452 L4.58,19.419 L5.8486833,15.6162563 C5.93299858,15.3633104 5.91280832,15.0871671 5.79259803,14.8491751 C5.26853978,13.8116463 4.996966,12.6650014 4.9999966,11.5026357 C5.00109895,8.66020293 6.60647541,6.06427503 9.14705875,4.79453309 C10.1883735,4.26857267 11.3350243,3.99699108 12.4974143,3.99999666 Z" id="Path"></path>
        </g>
    </g>
</svg>