<?xml version="1.0" encoding="UTF-8"?>
<svg width="24px" height="24px" viewBox="0 0 24 24" version="1.1" xmlns="http://www.w3.org/2000/svg" xmlns:xlink="http://www.w3.org/1999/xlink">
    <title>Navigation/More_Vertical/1.Outline 2</title>
    <g id="3.Reclutador" stroke="none" stroke-width="1" fill="none" fill-rule="evenodd">
        <g id="1.11.0.0-Darshana-reclutador" transform="translate(-1320.000000, -232.000000)" fill="#000000">
            <g id="Group-5" transform="translate(64.000000, 208.000000)">
                <g id="Navigation/More_Vertical/1.Outline-2" transform="translate(1256.000000, 24.000000)">
                    <g id="Navigation/More_Vertical/1.Outline" transform="translate(10.000000, 3.000000)">
                        <path d="M2,7 C0.8954305,7 0,7.8954305 0,9 C0,10.1045695 0.8954305,11 2,11 C3.1045695,11 4,10.1045695 4,9 C4,7.8954305 3.1045695,7 2,7 Z M9,7 C7.8954305,7 7,7.8954305 7,9 C7,10.1045695 7.8954305,11 9,11 C10.1045695,11 11,10.1045695 11,9 C11,7.8954305 10.1045695,7 9,7 Z M-5,7 C-6.1045695,7 -7,7.8954305 -7,9 C-7,10.1045695 -6.1045695,11 -5,11 C-3.8954305,11 -3,10.1045695 -3,9 C-3,7.8954305 -3.8954305,7 -5,7 Z" id="Combined-Shape" transform="translate(2.000000, 9.000000) rotate(-90.000000) translate(-2.000000, -9.000000) "></path>
                    </g>
                </g>
            </g>
        </g>
    </g>
</svg>