<?xml version="1.0" encoding="UTF-8"?>
<svg width="17px" height="14px" viewBox="0 0 17 14" version="1.1" xmlns="http://www.w3.org/2000/svg" xmlns:xlink="http://www.w3.org/1999/xlink">
  <!-- Generator: Sketch 63.1 (92452) - https://sketch.com -->
  <title>next-9</title>
  <desc>Created with Sketch.</desc>
  <g id="Desktop" stroke="none" stroke-width="1" fill="none" fill-rule="evenodd">
    <g id="lista" transform="translate(-1249.000000, -1470.000000)" fill="#FFFFFF" fill-rule="nonzero" stroke="#FFFFFF" stroke-width="0.25">
      <g id="next-9" transform="translate(1250.000000, 1471.000000)">
        <path d="M15,6.00010197 C15,5.85458509 14.9398607,5.71559202 14.8397649,5.61093947 L9.42641044,0.161260123 C9.21258185,-0.054025113 8.86642863,-0.0534814635 8.65314552,0.161260123 C8.43931692,0.376001708 8.43931692,0.724798221 8.65314552,0.939539807 L13.1335455,5.44961146 L0.546844808,5.44961146 C0.24501193,5.44965676 0,5.69597533 0,6.00010197 C0,6.30422861 0.24501193,6.55059248 0.546844808,6.55059248 L13.133,6.55059248 L8.65314552,11.0606641 C8.43931692,11.2754057 8.4398624,11.6242022 8.65314552,11.8389438 C8.86697411,12.0536854 9.21312733,12.0536854 9.42641044,11.8389438 L14.8397649,6.38926446 C14.9419972,6.28624286 14.9983636,6.14453154 15,6.00010197 Z" id="Arrow_Forward"></path>
      </g>
    </g>
  </g>
</svg>
