<?xml version="1.0" encoding="UTF-8"?>
<svg width="24px" height="24px" viewBox="0 0 24 24" version="1.1" xmlns="http://www.w3.org/2000/svg" xmlns:xlink="http://www.w3.org/1999/xlink">
    <title>icon/negative/notification 2</title>
    <g id="Symbols" stroke="none" stroke-width="1" fill="none" fill-rule="evenodd">
        <g id="header/2.talent/1.solid/1.positive" transform="translate(-1304.000000, -24.000000)" fill="#1A3447">
            <g id="icon/negative/notification" transform="translate(1304.000000, 24.000000)">
                <path d="M4.33333333,18 C3.30580274,18 2.94645464,16.6361503 3.84057988,16.129831 C4.6141598,15.6917734 5.15068237,14.9351437 5.31184154,14.067401 L5.333,13.924 L5.33443308,10.9531141 C5.45971704,8.28394859 6.90624456,5.87403735 9.15577962,4.50073442 L9.403,4.355 L9.41256547,4.31212752 C9.71053623,3.0420229 10.8155581,2.08282113 12.1570605,2.00509269 L12.3333333,2 C13.7534941,2 14.9431752,2.98680096 15.2541012,4.31212752 L15.263,4.355 C17.5730525,5.65605366 19.0948471,8.0213366 19.3147748,10.7106529 L19.3333333,11 L19.333,13.926 L19.3548251,14.067401 C19.5044729,14.873162 19.9777759,15.5831165 20.6639985,16.031161 L20.8260868,16.129831 C21.6858226,16.6166765 21.3866518,17.896357 20.4488959,17.9940738 L20.3333333,18 L16.3333333,18 C16.3333333,20.209139 14.5424723,22 12.3333333,22 C10.1911379,22 8.44225446,20.3160315 8.33822864,18.1996403 L8.33333333,18 L4.33333333,18 Z M10.3333333,18 C10.3333333,19.1045695 11.2287638,20 12.3333333,20 C13.3876951,20 14.2514985,19.1841222 14.3278476,18.1492623 L14.3333333,18 L10.3333333,18 Z M12.3333333,4 C11.8204975,4 11.3978262,4.38604019 11.3400611,4.88337887 L11.333,5.005 C11.3324108,5.08744987 11.3231359,5.16066621 11.3061188,5.23186291 L11.2750347,5.33725878 L11.2323182,5.43806205 C11.1682691,5.56971279 11.0751586,5.68795674 10.9568007,5.78213736 L10.8633579,5.84809445 L10.765,5.902 C8.82923644,6.81737456 7.53488675,8.68541735 7.34974631,10.7597777 L7.33333333,11 L7.33333333,14 L7.32608679,14.120169 C7.25723813,14.6889493 7.09238565,15.2337327 6.84485685,15.7345279 L6.703,16 L17.963,16 L17.9524022,15.9811673 C17.6719616,15.4854739 17.4753632,14.9404683 17.3767851,14.3674173 L17.3405799,14.120169 L17.3333333,14 L17.3344331,11.0468859 C17.2304026,8.83052522 15.9117213,6.85250324 13.9058617,5.90402874 C13.5951226,5.75709519 13.3844405,5.46261761 13.3414585,5.1274054 L13.3333333,5 C13.3333333,4.44771525 12.8856181,4 12.3333333,4 Z" id="Combined-Shape"></path>
            </g>
        </g>
    </g>
</svg>