<?xml version="1.0" encoding="UTF-8"?>
<svg width="24px" height="24px" viewBox="0 0 24 24" version="1.1" xmlns="http://www.w3.org/2000/svg" xmlns:xlink="http://www.w3.org/1999/xlink">
    <title>icon/Phone</title>
    <g id="Symbols" stroke="none" stroke-width="1" fill="none" fill-rule="evenodd">
        <g id="icon/Phone" fill="#7F8D98">
            <path d="M9,3 C9.36801413,3 9.70265963,3.20165026 9.87661697,3.51875128 L9.92847669,3.62860932 L11.9284767,8.62860932 C12.0955721,9.0463479 11.9621185,9.51864507 11.6145353,9.78896866 L11.5144958,9.85749293 L9.841,10.861 L9.90374365,10.9636687 C10.7005192,12.2288319 11.7711681,13.2994808 13.0363313,14.0962564 L13.138,14.158 L14.1425071,12.4855042 C14.3739881,12.0997026 14.8307638,11.9201742 15.256302,12.0333385 L15.3713907,12.0715233 L20.3713907,14.0715233 C20.7130832,14.2082003 20.9489027,14.5197121 20.9926497,14.8787391 L21,15 L21,19 C21,20.6568542 19.6568542,22 17.9393414,21.9981605 C9.36246868,21.4769379 2.52306208,14.6375313 2,6 C2,4.40231912 3.24891996,3.09633912 4.82372721,3.00509269 L5,3 L9,3 Z M8.323,5 L5,5 C4.44771525,5 4,5.44771525 3.99815857,5.93934143 C4.45805915,13.5071703 10.4928297,19.5419408 18,20 C18.5128358,20 18.9355072,19.6139598 18.9932723,19.1166211 L19,19 L19,15.677 L15.419,14.244 L14.3574929,16.0144958 C14.1103288,16.426436 13.6096491,16.5998156 13.1669673,16.4429969 L13.0576855,16.39686 C10.6887429,15.2285419 8.77145806,13.3112571 7.60314001,10.9423145 C7.39065178,10.5114624 7.51599848,9.99665284 7.88754223,9.70939941 L7.98550424,9.64250707 L9.755,8.58 L8.323,5 Z" id="Path"></path>
        </g>
    </g>
</svg>