<?xml version="1.0" encoding="UTF-8"?>
<svg width="24px" height="24px" viewBox="0 0 24 24" version="1.1" xmlns="http://www.w3.org/2000/svg" xmlns:xlink="http://www.w3.org/1999/xlink">
    <title>icon/projects</title>
    <g id="Symbols" stroke="none" stroke-width="1" fill="none" fill-rule="evenodd">
        <g id="icon/projects" fill="#19A79B">
            <path d="M7.61289944,2.20970461 L7.70710678,2.29289322 L12,6.585 L15.2928932,3.29289322 C16.787987,1.79779943 19.212013,1.79779943 20.7071068,3.29289322 C22.1506456,4.73643205 22.2004228,7.04594334 20.8564384,8.54920441 L20.7071068,8.70710678 L17.415,12 L21.7071068,16.2928932 C22.0675907,16.6533772 22.0953203,17.2206082 21.7902954,17.6128994 L21.7071068,17.7071068 L17.7071068,21.7071068 C17.3466228,22.0675907 16.7793918,22.0953203 16.3871006,21.7902954 L16.2928932,21.7071068 L12,17.415 L7.70710678,21.7071068 C7.55082647,21.8633871 7.34814508,21.9625983 7.13144398,21.9913276 L7,22 L3,22 C2.48716416,22 2.06449284,21.6139598 2.00672773,21.1166211 L2,21 L2,17 C2,16.7789863 2.07316447,16.565516 2.20608063,16.3919705 L2.29289322,16.2928932 L6.585,12 L2.29289322,7.70710678 C1.93240926,7.34662282 1.90467972,6.77939176 2.20970461,6.38710056 L2.29289322,6.29289322 L6.29289322,2.29289322 C6.65337718,1.93240926 7.22060824,1.90467972 7.61289944,2.20970461 Z M14.5,6.915 L4,17.414 L4,20 L6.584,20 L17.085,9.5 L14.5,6.915 Z M16,13.415 L13.415,16 L14.5,17.085 L15.2928932,16.2928932 C15.6834175,15.9023689 16.3165825,15.9023689 16.7071068,16.2928932 C17.0675907,16.6533772 17.0953203,17.2206082 16.7902954,17.6128994 L16.7071068,17.7071068 L15.915,18.5 L17,19.585 L19.585,17 L16,13.415 Z M7,4.415 L4.415,7 L5.5,8.085 L6.29289322,7.29289322 C6.68341751,6.90236893 7.31658249,6.90236893 7.70710678,7.29289322 C8.06759074,7.65337718 8.09532028,8.22060824 7.79029539,8.61289944 L7.70710678,8.70710678 L6.915,9.5 L8,10.585 L10.585,8 L7,4.415 Z M16.8300701,4.59471078 L16.7071068,4.70710678 L15.915,5.5 L18.5,8.085 L19.2928932,7.29289322 C19.9672692,6.61851719 20.0047346,5.54841559 19.4052892,4.83007005 L19.2928932,4.70710678 C18.6185172,4.03273075 17.5484156,3.99526542 16.8300701,4.59471078 Z" id="Shape"></path>
        </g>
    </g>
</svg>
