<?xml version="1.0" encoding="UTF-8"?>
<svg width="123px" height="24px" viewBox="0 0 123 24" version="1.1" xmlns="http://www.w3.org/2000/svg" xmlns:xlink="http://www.w3.org/1999/xlink">
    <title>Shape</title>
    <g id="Symbols" stroke="none" stroke-width="1" fill="none" fill-rule="evenodd">
        <g id="react-logo" fill="#FFFFFF" fill-rule="nonzero">
            <path d="M23.9956313,9.03651916 L31.3478304,16.4757682 L24.049541,23.8604694 L23.8161122,23.6242768 C19.963362,19.7253195 19.8865388,13.4528524 23.5854685,9.45923833 L23.9956313,9.03651916 Z M15.4806972,0.388410818 L23.1633624,8.16203882 L7.68266527,23.8260275 L0,16.0523994 L15.4806972,0.388410818 Z M41.9838129,9.99379307 L45.1818806,9.99379307 L45.1818806,11.2095558 C45.768355,10.6040646 46.2894856,10.1892499 46.7452723,9.9651119 C47.2584481,9.72156308 47.8232946,9.60193383 48.392909,9.61615771 C49.2364385,9.61615771 50.1177702,9.88650426 51.0369042,10.4271974 L49.5788186,13.3064678 C48.972903,12.8815617 48.3788682,12.6691085 47.796714,12.6691085 C46.0534917,12.6691085 45.1818806,13.9645412 45.1818806,16.5554066 L45.1818806,23.6141603 L41.9838129,23.6141603 L41.9838129,9.99379307 Z M67.6444988,17.54172 L57.7246567,17.54172 C57.815382,18.6602855 58.1847636,19.5494017 58.8328018,20.2090685 C59.4808398,20.8687354 60.3195089,21.1948508 61.3488093,21.1874149 C62.143736,21.1874149 62.8020346,21.0009874 63.3237052,20.6281322 C63.8453759,20.255277 64.4280701,19.5648045 65.0717879,18.5567147 L67.7724864,20.0385748 C67.3968889,20.6832638 66.9526447,21.286838 66.4472486,21.8391148 C66.0099376,22.3148637 65.5078086,22.7288223 64.955141,23.0692182 C64.4230657,23.3911657 63.8430912,23.6293325 63.2362202,23.7750935 C62.5798885,23.9293695 61.9069589,24.0048097 61.2321625,23.9997626 C59.1670813,23.9997626 57.508644,23.3470005 56.2568505,22.0414763 C55.0050571,20.7359521 54.3807804,18.9938368 54.383971,16.8151305 C54.383971,14.6629807 54.9904762,12.9203344 56.2033874,11.5871912 C57.4270992,10.2731689 59.0471943,9.61615771 61.0636726,9.61615771 C63.1017523,9.61615771 64.7126668,10.253517 65.8964163,11.5282355 C67.0801658,12.802954 67.6677202,14.5594099 67.6590797,16.7976031 L67.6444988,17.54172 Z M64.3621862,14.9699754 C63.9172001,13.291596 62.8414569,12.4529376 61.1349568,12.4539998 C60.7630989,12.4510021 60.3933907,12.5097193 60.0413926,12.6276801 C59.7040987,12.742368 59.3890903,12.9126329 59.109838,13.1311939 C58.8274716,13.3559159 58.5849481,13.6251337 58.3921359,13.927893 C58.185893,14.2517852 58.0328083,14.6056062 57.9385092,14.976349 L64.3621862,14.9699754 Z M83.7595847,9.99379307 L86.9722332,9.99379307 L86.9722332,23.6077867 L83.7595847,23.6077867 L83.7595847,22.1816953 C82.4419073,23.3948024 81.0259442,24.0008249 79.5116953,23.9997682 C77.596743,23.9997682 76.0144501,23.3193816 74.7648168,21.9586196 C73.5238239,20.5702387 72.9033275,18.8371527 72.9033275,16.7593615 C72.9033275,14.7176874 73.5238239,13.0180627 74.7648168,11.6604875 C75.9318365,10.3312899 77.6406035,9.58298962 79.4258302,9.61934451 C81.0362048,9.61934451 82.4807896,10.2715755 83.7595847,11.5760374 L83.7595847,9.99379307 Z M76.1678191,16.7593615 C76.1678191,18.0627612 76.5231599,19.1250266 77.2338416,19.9461578 C77.9118722,20.7509222 78.9255209,21.2083441 79.9880033,21.1890083 C81.176073,21.1890083 82.1330092,20.7885343 82.8588117,19.9875862 C83.5878546,19.1590191 83.9523759,18.105783 83.9523759,16.8278777 C83.9523759,15.5499723 83.5900147,14.4993918 82.8652921,13.6761361 C82.1351693,12.8656276 81.1874137,12.4603734 80.0220253,12.4603734 C78.9628141,12.4432069 77.9517549,12.8947808 77.2678636,13.6904767 C76.5345005,14.5147947 76.1678191,15.5377562 76.1678191,16.7593615 Z M104.223006,10.5801636 L104.223006,14.7596469 C103.493963,13.8832779 102.839984,13.2820357 102.26107,12.9559202 C101.652516,12.6109647 100.959199,12.4373218 100.257013,12.4539998 C99.122831,12.4256917 98.0310382,12.8784297 97.2598369,13.6968503 C96.4627502,14.5264796 96.0647468,15.5659063 96.0658268,16.8151305 C96.0658268,18.0898489 96.4492493,19.1377739 97.2160944,19.9589049 C97.9788862,20.7724625 99.0626153,21.2211278 100.187349,21.1890083 C100.896365,21.2032576 101.596809,21.0346031 102.218948,20.6998351 C102.787061,20.3811555 103.455081,19.7661038 104.223006,18.85468 L104.223006,23.0070755 C103.027561,23.6422032 101.693382,23.9828267 100.334777,23.9997626 C98.1951719,23.9997626 96.4044267,23.3193816 94.9625421,21.9586196 C93.5206575,20.5978576 92.8007952,18.8982329 92.8029553,16.8597456 C92.7640743,14.9187057 93.5586761,13.0514166 94.9917039,11.7162565 C96.4519496,10.3193774 98.2426946,9.62040678 100.363939,9.61926549 C101.589316,9.61661958 102.797442,9.88943577 103.896614,10.4149509 L104.223006,10.5801636 Z M110.330764,0 L113.528832,0 L113.528832,11.1266991 C114.666138,10.1207338 115.921172,9.61775111 117.293933,9.61775111 C118.856784,9.61775111 120.107498,10.1164847 121.046073,11.113952 C121.84316,11.978636 122.241163,13.359581 122.240092,15.2567871 L122.240092,23.6014131 L119.042015,23.6014131 L119.042015,15.556346 C119.042015,14.4664616 118.845444,13.6766673 118.452301,13.1869629 C118.059158,12.6972586 117.426781,12.4529376 116.555169,12.4539998 C115.437304,12.4539998 114.651018,12.7939247 114.196311,13.4737746 C113.771918,14.1083011 113.549809,15.1809815 113.529984,16.6918156 L113.528832,23.6061933 L110.330764,23.6061933 L110.330764,0 Z" id="Shape"></path>
        </g>
    </g>
</svg>