<?xml version="1.0" encoding="UTF-8"?>
<svg width="24px" height="24px" viewBox="0 0 24 24" version="1.1" xmlns="http://www.w3.org/2000/svg" xmlns:xlink="http://www.w3.org/1999/xlink">
    <title>icons/skills</title>
    <g id="Symbols" stroke="none" stroke-width="1" fill="none" fill-rule="evenodd">
        <g id="icons/skills" fill="#1A3447">
            <path d="M21,1.4999075 C21.8284271,1.4999075 22.5000925,2.17157288 22.5000925,3 L22.5000925,4.395 C22.5073763,6.58462933 21.6376432,8.68603427 20.085,10.23 L17.25,13.0575 L17.25,18.75 C17.2489479,18.978204 17.1440531,19.1935145 16.965,19.335 L13.215,22.335 C13.0830455,22.4408704 12.9191732,22.4990187 12.75,22.5000044 C12.65501,22.5002311 12.5608407,22.4824153 12.4725,22.4475 C12.2223791,22.3477907 12.0449033,22.1216522 12.0075,21.855 L11.3646004,17.3547029 C11.3105313,16.9762192 11.5470997,16.6232467 11.9049347,16.5216132 L12.0075,16.5 C12.4219886,16.4419716 12.805233,16.7304039 12.8642021,17.1447597 L13.32,20.3475 L15.75,18.39 L15.75,12.75 C15.7488474,12.5506478 15.8271101,12.3590391 15.9675,12.2175 L19.02,9.165 C20.2904487,7.90316947 21.0034025,6.18559896 21,4.395 L21,3 L19.605,3 C17.814401,2.99659749 16.0968305,3.70955129 14.835,4.98 L11.7825,8.0325 C11.6409609,8.17288989 11.4493522,8.25115257 11.25,8.25 L5.61,8.25 L3.6525,10.695 L6.85524026,11.1507979 C7.26959612,11.209767 7.55802841,11.5930114 7.5,12.0075 C7.44699128,12.3861337 7.1218182,12.6596601 6.74983333,12.6580764 L6.64529706,12.6503996 L2.145,12.0075 C1.87834778,11.9700967 1.65220933,11.7926209 1.5525,11.5425 C1.45152736,11.2905607 1.49455252,11.0037263 1.665,10.7925 L4.665,7.0425 C4.80497692,6.8606305 5.02051824,6.75285984 5.25,6.75 L10.9425,6.75 L13.77,3.915 C15.3139657,2.36235683 17.4153707,1.49262368 19.605,1.4999075 L21,1.4999075 Z M11.9944277,12.0012757 C12.287321,12.2941689 12.287321,12.7690427 11.9944277,13.0619359 L7.05705463,17.999309 C6.76416142,18.2922022 6.28928768,18.2922022 5.99639446,17.999309 C5.70350124,17.7064158 5.70350124,17.231542 5.99639446,16.9386488 L10.9337676,12.0012757 C11.2266608,11.7083825 11.7015345,11.7083825 11.9944277,12.0012757 Z" id="Shape"></path>
        </g>
    </g>
</svg>