<?xml version="1.0" encoding="UTF-8"?>
<svg width="33px" height="34px" viewBox="0 0 24 24" version="1.1" xmlns="http://www.w3.org/2000/svg" xmlns:xlink="http://www.w3.org/1999/xlink">
    <title>Icon/Smile</title>
    <g id="Symbols" stroke="none" stroke-width="1" fill="none" fill-rule="evenodd">
        <g id="Icon/Smile" fill="#19A79B">
            <path d="M12,2 C17.5228475,2 22,6.4771525 22,12 C22,17.5228475 17.5228475,22 12,22 C6.4771525,22 2,17.5228475 2,12 C2,6.4771525 6.4771525,2 12,2 Z M12,4 C7.581722,4 4,7.581722 4,12 C4,16.418278 7.581722,20 12,20 C16.418278,20 20,16.418278 20,12 C20,7.581722 16.418278,4 12,4 Z M16.2,13 C16.6418278,13.3313708 16.7313708,13.9581722 16.4,14.4 C16.1758682,14.6988424 15.7856564,15.10602 15.2319217,15.5087361 C14.29908,16.1871664 13.2153919,16.6 12,16.6 C10.7846081,16.6 9.70092003,16.1871664 8.7680783,15.5087361 C8.21434363,15.10602 7.82413179,14.6988424 7.6,14.4 C7.26862915,13.9581722 7.3581722,13.3313708 7.8,13 C8.20784105,12.6941192 8.77329269,12.746887 9.11850414,13.1043246 L9.31149446,13.3334897 C9.44905774,13.4853477 9.66362895,13.687051 9.9444217,13.8912639 C10.558455,14.3378336 11.2466419,14.6 12,14.6 C12.7533581,14.6 13.441545,14.3378336 14.0555783,13.8912639 C14.336371,13.687051 14.5509423,13.4853477 14.6885055,13.3334897 L14.8,13.2 C15.1313708,12.7581722 15.7581722,12.6686292 16.2,13 Z M9.309,8.3 C9.86128475,8.3 10.309,8.74771525 10.309,9.3 C10.309,9.81283584 9.92295981,10.2355072 9.42562113,10.2932723 L9.3,10.3 C8.74771525,10.3 8.3,9.85228475 8.3,9.3 C8.3,8.78716416 8.68604019,8.36449284 9.18337887,8.30672773 L9.309,8.3 Z M14.709,8.3 C15.2612847,8.3 15.709,8.74771525 15.709,9.3 C15.709,9.81283584 15.3229598,10.2355072 14.8256211,10.2932723 L14.709,10.3 C14.1477153,10.3 13.7,9.85228475 13.7,9.3 C13.7,8.78716416 14.0860402,8.36449284 14.5833789,8.30672773 L14.709,8.3 Z" id="Shape"></path>
        </g>
    </g>
</svg>
