<?xml version="1.0" encoding="UTF-8"?>
<svg width="24px" height="24px" viewBox="0 0 24 24" version="1.1" xmlns="http://www.w3.org/2000/svg" xmlns:xlink="http://www.w3.org/1999/xlink">
    <title>icon/study</title>
    <g id="Symbols" stroke="none" stroke-width="1" fill="none" fill-rule="evenodd">
        <g id="icon/study" fill="#1A3447">
            <path d="M8.36363636,3 C9.85066416,3 11.1709136,3.70696458 12.0002002,4.79993211 C12.7854608,3.76448919 14.0117233,3.07548658 15.4030031,3.00582826 L15.6363636,3 L21.0909091,3 C21.5571235,3 21.9413701,3.34745683 21.9938839,3.79508826 L22,3.90005351 L22,17.4008562 C22,17.8624359 21.6490544,18.2428627 21.1969283,18.2948544 L21.0909091,18.3009097 L14.7272727,18.3009097 C13.768762,18.3009097 12.9834863,19.0352434 12.9140779,19.9666726 L12.9090909,20.1010167 C12.9090909,20.6389797 12.543725,20.9357869 12.1405626,20.9914383 L12.0470033,21 L11.9529967,21 C11.5459578,20.9814496 11.1515176,20.7217433 11.0972458,20.2208811 L11.0859221,19.9666726 C11.0199842,19.0818148 10.3079759,18.3748358 9.41513679,18.30635 L9.27272727,18.3009097 L2.90909091,18.3009097 C2.44287651,18.3009097 2.05862985,17.9534529 2.00611612,17.5058214 L2,17.4008562 L2,3.90005351 C2,3.43847381 2.35094563,3.05804701 2.8030717,3.00605532 L2.90909091,3 L8.36363636,3 Z M8.36363636,4.80010702 L3.81818182,4.80010702 L3.81818182,16.5008027 L9.27272727,16.5008027 C9.80523323,16.5008027 10.3110054,16.6141258 10.7667828,16.8177422 L10.9589872,16.9104674 L11.0909091,16.9832313 L11.0909091,7.50026755 L11.0862794,7.34161261 C11.0095955,6.03129508 9.98917681,4.97164467 8.68795203,4.81899985 L8.52388435,4.80469072 L8.36363636,4.80010702 Z M20.1818182,4.80010702 L15.6363636,4.80010702 C14.1839265,4.80010702 12.9966719,5.92420182 12.9137206,7.34161261 L12.9090909,7.50026755 L12.9090909,16.9823313 L13.0410128,16.9104674 C13.429829,16.7086224 13.8600879,16.5744031 14.3158494,16.5235911 L14.5457815,16.5052087 L14.7272727,16.5008027 L20.1818182,16.5008027 L20.1818182,4.80010702 Z" id="Shape"></path>
        </g>
    </g>
</svg>