<?xml version="1.0" encoding="UTF-8"?>
<svg width="24px" height="24px" viewBox="0 0 24 24" version="1.1" xmlns="http://www.w3.org/2000/svg" xmlns:xlink="http://www.w3.org/1999/xlink">
    <title>icon/trash</title>
    <g id="Symbols" stroke="none" stroke-width="1" fill="none" fill-rule="evenodd">
        <g id="icon/trash" fill="#C90000" fill-rule="nonzero">
            <g id="Controls/Delete/1.Outline" transform="translate(3.000000, 2.000000)">
                <path d="M11,0 C12.0543618,0 12.9181651,0.815877791 12.9945143,1.85073766 L13,2 L13,4 L17,4 C17.5522847,4 18,4.44771525 18,5 C18,5.51283584 17.6139598,5.93550716 17.1166211,5.99327227 L17,6 L16.919,6 L16,17 C16,18.5976809 14.75108,19.9036609 13.1762728,19.9949073 L13,20 L5,20 C3.40231912,20 2.09633912,18.75108 2.0081899,17.2507345 L2.00345424,17.0830455 L1.079,6 L1,6 C0.44771525,6 0,5.55228475 0,5 C0,4.48716416 0.38604019,4.06449284 0.883378875,4.00672773 L1,4 L5,4 L5,2 C5,0.945638205 5.81587779,0.0818348781 6.85073766,0.00548573643 L7,0 L11,0 Z M14.913,6 L3.086,6 L4,17 C4,17.5128358 4.38604019,17.9355072 4.88337887,17.9932723 L5,18 L13,18 C13.5154658,18 13.9398399,17.6099903 13.9969406,17.041442 L14.0034542,16.9169545 L14.913,6 Z M7,8 C7.51283584,8 7.93550716,8.38604019 7.99327227,8.88337887 L8,9 L8,15 C8,15.5522847 7.55228475,16 7,16 C6.48716416,16 6.06449284,15.6139598 6.00672773,15.1166211 L6,15 L6,9 C6,8.44771525 6.44771525,8 7,8 Z M11,8 C11.5128358,8 11.9355072,8.38604019 11.9932723,8.88337887 L12,9 L12,15 C12,15.5522847 11.5522847,16 11,16 C10.4871642,16 10.0644928,15.6139598 10.0067277,15.1166211 L10,15 L10,9 C10,8.44771525 10.4477153,8 11,8 Z M11,2 L7,2 L7,4 L11,4 L11,2 Z" id="Combined-Shape"></path>
            </g>
        </g>
    </g>
</svg>