<?xml version="1.0" encoding="UTF-8"?>
<svg width="24px" height="24px" viewBox="0 0 24 24" version="1.1" xmlns="http://www.w3.org/2000/svg" xmlns:xlink="http://www.w3.org/1999/xlink">
    <title>icon/positive/search copy 10</title>
    <g id="Symbols" stroke="none" stroke-width="1" fill="none" fill-rule="evenodd">
        <g id="footer/reclutador" transform="translate(-922.000000, -87.000000)" fill="#7F8D98">
            <g id="Group-2" transform="translate(842.000000, 87.000000)">
                <g id="icon/positive/search-copy-6" transform="translate(80.000000, 0.000000)">
                    <path d="M22,4.00915079 C21.1294409,4.61145269 20.1655526,5.072117 19.1454545,5.37340353 C18.0239632,4.10860552 16.2167,3.66506869 14.6200741,4.26278894 C13.0234481,4.8605092 11.9770912,6.37234049 12,8.04840892 L12,8.94007738 C8.75514984,9.02260344 5.68365937,7.5062482 3.81818182,4.90081925 C3.81818182,4.90081925 0.181818182,12.9258354 8.36363636,16.4925093 C6.49138869,17.7390317 4.26105174,18.3640584 2,18.2758462 C10.1818182,22.7341885 20.1818182,18.2758462 20.1818182,8.02165887 C20.180981,7.77328786 20.1566341,7.52552954 20.1090909,7.28157404 C21.036912,6.38410357 21.6916613,5.25098885 22,4.00915079 Z" id="twitter"></path>
                </g>
            </g>
        </g>
    </g>
</svg>
