<svg xmlns="http://www.w3.org/2000/svg" xmlns:xlink="http://www.w3.org/1999/xlink" width="1080" zoomAndPan="magnify" viewBox="0 0 810 809.999993" height="1080" preserveAspectRatio="xMidYMid meet" version="1.0">
    <defs>
        <clipPath id="65313c5a22">
            <path d="M 163.082031 195.945312 L 601.832031 195.945312 L 601.832031 634.695312 L 163.082031 634.695312 Z M 163.082031 195.945312 " clip-rule="nonzero"/>
        </clipPath>
        <clipPath id="cafe583bc1">
            <path d="M 226 175.019531 L 728 175.019531 L 728 584 L 226 584 Z M 226 175.019531 " clip-rule="nonzero"/>
        </clipPath>
    </defs>
     <g clip-path="url(#65313c5a22)">
         <path fill="#00fff0" d="M 413.605469 218.585938 L 450.226562 206.691406 L 472.871094 237.84375 L 511.378906 237.84375 L 523.292969 274.480469 L 559.917969 286.378906 L 559.917969 324.886719 L 591.082031 347.53125 L 579.171875 384.167969 L 601.8125 415.320312 L 579.171875 446.472656 L 591.082031 483.109375 L 559.917969 505.753906 L 559.917969 544.261719 L 523.292969 556.160156 L 511.378906 592.796875 L 472.871094 592.796875 L 450.226562 623.949219 L 413.605469 612.050781 L 382.453125 634.679688 L 351.285156 612.050781 L 314.664062 623.949219 L 292.019531 592.796875 L 253.511719 592.796875 L 241.597656 556.160156 L 204.976562 544.261719 L 204.976562 505.753906 L 173.808594 483.109375 L 185.722656 446.472656 L 163.078125 415.320312 L 185.722656 384.167969 L 173.808594 347.53125 L 204.976562 324.886719 L 204.976562 286.378906 L 241.597656 274.480469 L 253.511719 237.84375 L 292.019531 237.84375 L 314.664062 206.691406 L 351.285156 218.585938 L 382.453125 195.960938 Z M 413.605469 218.585938 " fill-opacity="1" fill-rule="evenodd"/>
     </g>
     <path fill="#19A79B" d="M 277.152344 392.832031 C 268.351562 400.777344 267.675781 414.339844 275.609375 423.121094 C 291.871094 441.125 318.121094 470.1875 333.707031 487.445312 C 340.792969 495.292969 352.894531 495.90625 360.726562 488.832031 C 390.011719 462.382812 456.953125 401.917969 487.65625 374.191406 C 496.441406 366.253906 497.132812 352.683594 489.195312 343.898438 C 481.261719 335.113281 467.6875 334.421875 458.90625 342.355469 L 363.804688 428.25 C 355.960938 435.335938 343.859375 434.71875 336.785156 426.886719 C 328.046875 417.210938 316.480469 404.40625 307.429688 394.382812 C 299.496094 385.601562 285.9375 384.894531 277.152344 392.832031 Z M 277.152344 392.832031 " fill-opacity="1" fill-rule="evenodd"/>
     <g clip-path="url(#cafe583bc1)">
         <path fill="#19A79B" d="M 226.761719 382.070312 C 255.664062 294.164062 370.410156 327.757812 397.855469 426.082031 C 397.855469 426.082031 516.890625 198.59375 727.664062 175.042969 C 660.566406 231.175781 557.65625 334.003906 508.027344 407.484375 C 451.65625 490.957031 399.410156 588.390625 370.578125 582.917969 C 347.636719 578.582031 325.332031 442.207031 226.761719 382.09375 Z M 226.761719 382.070312 " fill-opacity="1" fill-rule="evenodd"/>
     </g>
</svg>