<?xml version="1.0" encoding="UTF-8"?>
<svg width="24px" height="24px" viewBox="0 0 24 24" version="1.1" xmlns="http://www.w3.org/2000/svg" xmlns:xlink="http://www.w3.org/1999/xlink">
    <title>icon/work</title>
    <g id="Symbols" stroke="none" stroke-width="1" fill="none" fill-rule="evenodd">
        <g id="icon/work" fill="#1A3447">
            <path d="M4,22 C2.40231912,22 1.09633912,20.75108 1.00509269,19.1762728 L1,19 L1,9 C1,7.40231912 2.24891996,6.09633912 3.82372721,6.00509269 L4,6 L7,6 L7,5 C7,3.40231912 8.24891996,2.09633912 9.82372721,2.00509269 L10,2 L14,2 C15.5976809,2 16.9036609,3.24891996 16.9949073,4.82372721 L17,5 L17,6 L20,6 C21.5976809,6 22.9036609,7.24891996 22.9949073,8.82372721 L23,9 L23,19 C23,20.5976809 21.75108,21.9036609 20.1762728,21.9949073 L20,22 L4,22 Z M7,8 L4,8 C3.48716416,8 3.06449284,8.38604019 3.00672773,8.88337887 L3,9 L3,19 C3,19.5128358 3.38604019,19.9355072 3.88337887,19.9932723 L4,20 L7,20 L7,8 Z M15,8 L9,8 L9,20 L15,20 L15,8 Z M20,8 L17,8 L17,20 L20,20 C20.5128358,20 20.9355072,19.6139598 20.9932723,19.1166211 L21,19 L21,9 C21,8.48716416 20.6139598,8.06449284 20.1166211,8.00672773 L20,8 Z M14,4 L10,4 C9.48716416,4 9.06449284,4.38604019 9.00672773,4.88337887 L9,5 L9,6 L15,6 L15,5 C15,4.48716416 14.6139598,4.06449284 14.1166211,4.00672773 L14,4 Z" id="Shape"></path>
        </g>
    </g>
</svg>