<svg xmlns="http://www.w3.org/2000/svg" viewBox="0 0 296 296">
  <path d="M211.46 151.45a66 66 0 0 1-7.69 32.07 55.51 55.51 0 0 1-21.67 22 63.91 63.91 0 0 1-32.18 8 61.75 61.75 0 0 1-31.8-8.59 64.26 64.26 0 0 1-23.2-23.2 63.17 63.17 0 0 1 0-63.6 64.29 64.29 0 0 1 23.2-23.21 61.75 61.75 0 0 1 31.8-8.59A59.93 59.93 0 0 1 192.47 103l-17.18 16.65a34.06 34.06 0 0 0-19.73-9.48 38.43 38.43 0 0 0-21.28 3.08 39.28 39.28 0 0 0-23.85 36.66 38.69 38.69 0 0 0 5.38 20.09 42 42 0 0 0 14.36 14.62 37 37 0 0 0 19.74 5.51 39.19 39.19 0 0 0 20.26-5.13 35.51 35.51 0 0 0 11.53-11 34.12 34.12 0 0 0 4.37-11.29h-36.15v-22.05h60.51a60.12 60.12 0 0 1 1.03 10.79Z"/>
</svg>