<?xml version="1.0" encoding="UTF-8"?>
<svg xmlns="http://www.w3.org/2000/svg" xmlns:xlink="http://www.w3.org/1999/xlink" width="32pt" height="32pt" viewBox="0 0 32 32" version="1.1">
<g id="surface1">
<path style=" stroke:none;fill-rule:nonzero;fill:rgb(25.882353%,52.156863%,95.686275%);fill-opacity:1;" d="M 31.976562 16.367188 C 31.976562 15.28125 31.886719 14.1875 31.695312 13.117188 L 16.320312 13.117188 L 16.320312 19.277344 L 25.125 19.277344 C 24.757812 21.265625 23.585938 23.023438 21.867188 24.140625 L 21.867188 28.136719 L 27.117188 28.136719 C 30.203125 25.351562 31.976562 21.234375 31.976562 16.367188 Z M 31.976562 16.367188 "/>
<path style=" stroke:none;fill-rule:nonzero;fill:rgb(20.392157%,65.882353%,32.54902%);fill-opacity:1;" d="M 16.320312 32 C 20.714844 32 24.421875 30.582031 27.125 28.136719 L 21.871094 24.140625 C 20.410156 25.117188 18.523438 25.667969 16.328125 25.667969 C 12.074219 25.667969 8.46875 22.851562 7.175781 19.066406 L 1.753906 19.066406 L 1.753906 23.1875 C 4.523438 28.589844 10.15625 32 16.320312 32 Z M 16.320312 32 "/>
<path style=" stroke:none;fill-rule:nonzero;fill:rgb(98.431373%,73.72549%,1.568627%);fill-opacity:1;" d="M 7.167969 19.066406 C 6.484375 17.078125 6.484375 14.925781 7.167969 12.941406 L 7.167969 8.820312 L 1.753906 8.820312 C -0.558594 13.339844 -0.558594 18.667969 1.753906 23.1875 Z M 7.167969 19.066406 "/>
<path style=" stroke:none;fill-rule:nonzero;fill:rgb(91.764706%,26.27451%,20.784314%);fill-opacity:1;" d="M 16.320312 6.332031 C 18.644531 6.296875 20.890625 7.15625 22.574219 8.730469 L 27.226562 4.164062 C 24.28125 1.445312 20.367188 -0.046875 16.320312 0 C 10.15625 0 4.523438 3.410156 1.753906 8.820312 L 7.167969 12.941406 C 8.457031 9.148438 12.066406 6.332031 16.320312 6.332031 Z M 16.320312 6.332031 "/>
</g>
</svg>
