<?xml version="1.0" encoding="UTF-8"?>
<svg version="1.1" width="20px" height="26px" viewBox="0 0 20.0 26.0" xmlns="http://www.w3.org/2000/svg" xmlns:xlink="http://www.w3.org/1999/xlink">
	<defs>
		<clipPath id="i0">
			<path d="M5.519,0 C5.537,0.391 5.536,0.785 5.538,1.176 L5.56225,4.309875 C5.56775,5.3545 5.567,6.399 5.549,7.443 C5.496,10.588 4.09,12.975 1.333,14.498 C0.891,14.742 0.446,14.982 0,15.22 L0,12.304 C2.121,11.171 3.048,9.379 2.998,6.983 C2.959,5.121 2.986,3.257 2.974,1.395 C3.666,0.997 4.36,0.599 5.059,0.214 C5.205,0.134 5.359,0.062 5.519,0 Z">
			</path>
		</clipPath>
		<clipPath id="i1">
			<path d="M6.41613338,0.744418344 C8.26813338,-0.267581656 10.1251334,-0.303581656 11.8701334,0.982418344 C12.5261334,1.46441834 12.9801334,2.07141834 13.2881334,2.75441834 C12.9221334,2.87541834 12.5551334,3.03741834 12.1891334,3.23841834 C11.7871334,3.45741834 11.3871334,3.68141834 10.9891334,3.90941834 C10.6211334,3.00441834 9.84513338,2.50641834 8.88813338,2.60041834 C8.45413338,2.64241834 8.00513338,2.80241834 7.62013338,3.01441834 C6.10513338,3.84841834 4.62113338,4.73841834 3.10613338,5.57441834 C2.69513338,5.80041834 2.55013338,6.07241834 2.55113338,6.53341834 C2.56613338,11.0784183 2.56013338,15.6244183 2.56013338,20.1704183 L2.56013338,20.6174183 C2.73613338,20.5304183 2.85213338,20.4754183 2.96513338,20.4154183 C3.90313338,19.9224183 4.83913338,19.4264183 5.77613338,18.9324183 C5.77613338,19.9074183 5.77613338,20.8804183 5.77713338,21.8544183 C4.94513338,22.2854183 4.11113338,22.7134183 3.27913338,23.1454183 C1.97913338,23.8204183 0.463133382,23.1804183 0.0941333823,21.8044183 C0.0251333823,21.5444183 0.00813338232,21.2644183 0.00813338232,20.9944183 C0.00213338232,18.5484183 0.00413338232,16.1034183 0.00413338232,13.6574183 L0.00828153047,8.86141834 L0.000133382323,6.46341834 C-0.00986661768,5.08941834 0.542133382,4.07741834 1.75513338,3.40241834 C3.31813338,2.53241834 4.84713338,1.60141834 6.41613338,0.744418344 Z">
			</path>
		</clipPath>
		<clipPath id="i2">
			<path d="M11.8711084,0.982418344 C13.0791084,1.87241834 13.6031084,3.18141834 13.7941084,4.62541834 C13.8741084,5.23341834 13.8681084,5.85541834 13.8721084,6.47141834 C13.8851084,8.55941834 13.9181084,10.6494183 13.8831084,12.7374183 C13.8301084,15.8834183 12.4231084,18.2694183 9.66610843,19.7924183 C7.56110843,20.9544183 5.41410843,22.0374183 3.28010843,23.1454183 C1.97910843,23.8204183 0.463108429,23.1804183 0.0941084293,21.8044183 C0.0251084293,21.5454183 0.00910842927,21.2644183 0.00810842927,20.9944183 C0.00210842927,18.5494183 0.00510842927,16.1034183 0.00410842927,13.6574183 L0.00822445023,8.86193686 C0.00761579404,8.06264057 0.00536947642,7.26341834 0,6.46441834 C-0.00889157073,5.09041834 0.542108429,4.07741834 1.75510843,3.40241834 C3.31810843,2.53241834 4.84710843,1.60141834 6.41610843,0.744418344 C8.26810843,-0.267581656 10.1251084,-0.303581656 11.8711084,0.982418344 Z M8.88810843,2.60041834 C8.45510843,2.64241834 8.00510843,2.80341834 7.62110843,3.01441834 C6.10510843,3.84841834 4.62110843,4.73841834 3.10610843,5.57441834 C2.69510843,5.80141834 2.55010843,6.07241834 2.55208806,6.53341834 C2.56610843,11.0794183 2.56010843,15.6254183 2.56010843,20.1714183 L2.56010843,20.6174183 C2.73610843,20.5304183 2.85210843,20.4754183 2.96610843,20.4164183 C4.71710843,19.4964183 6.46110843,18.5614183 8.22110843,17.6594183 C10.4221084,16.5294183 11.3821084,14.7174183 11.3311084,12.2774183 C11.2891084,10.2484183 11.3251084,8.21941834 11.3031084,6.18941834 C11.2971084,5.60041834 11.2671084,5.00041834 11.1471084,4.42741834 C10.8911084,3.20041834 10.0151084,2.49041834 8.88810843,2.60041834 Z">
			</path>
		</clipPath>
	</defs>
	<g transform="translate(8.332833382322503 5.294318344371933)">
		<g clip-path="url(#i0)">
			<polygon points="0,0 5.56526019,0 5.56526019,15.22 0,15.22 0,0" stroke="none" fill="#00FFFF">
			</polygon>
		</g>
	</g>
	<g clip-path="url(#i1)">
		<polygon points="0,1.55431223e-15 13.2881334,1.55431223e-15 13.2881334,23.416007 0,23.416007 0,1.55431223e-15" stroke="none" fill="#00FFFF">
		</polygon>
	</g>
	<g transform="translate(5.791224953048189 2.493700000000004)">
		<g clip-path="url(#i2)">
			<polygon points="-0.000105853409,-1.55431223e-15 13.898707,-1.55431223e-15 13.898707,23.416007 -0.000105853409,23.416007 -0.000105853409,-1.55431223e-15" stroke="none" fill="#00A99D">
			</polygon>
		</g>
	</g>
</svg>
