<svg xmlns="http://www.w3.org/2000/svg" viewBox="0 0 296.45 296.45">
    <path d="M150 1.77A148.23 148.23 0 1 0 298.23 150 148.24 148.24 0 0 0 150 1.77Zm-3.06 273.12c-42.65 0-88.89-32.62-85.71-38.89 18.16-35.91 80.87-53.94 80.87-53.94s-39.48-12.54-40.32-50.59 34.29-47.67 48.66-47.67c18.24 0 47.09 11.29 46.26 48.51s-40.56 49.75-40.56 49.75c59.75 16.87 82.79 54.78 82.79 54.78-26.93 27.92-63.56 38.05-91.99 38.05Zm106-55.2s-11.71-19.23-52.27-43.06c0 0 18.82-19.66 16.73-48.29-2.26-30.89-18.5-65.7-67.42-66.18-42.21-.42-68.04 30.84-69.29 66.18-.78 21.93 13 46.2 17.14 48.7 0 0-36.37 18.82-51.43 42.65 0 0-28.94-46.13-13.38-107 8.75-34.22 45.58-81.11 113.73-83.2C226.58 27 261.09 88.2 268 120.18c8.79 40.56.43 76.1-15 99.51Z" transform="translate(-1.77 -1.77)" />
</svg>