<svg xmlns="http://www.w3.org/2000/svg" viewBox="0 0 299.1 229.09">
    <path d="M22.13.07h-1.15a8.44 8.44 0 0 0-6.63 4.41 108.93 108.93 0 0 0-2 104.52 8.51 8.51 0 0 0 15-7.95 91.94 91.94 0 0 1 1.6-88.27A8.41 8.41 0 0 0 26 1.27a7 7 0 0 0-3.87-1.2Zm254.91 0a8.46 8.46 0 0 0-8.15 8.74 8.66 8.66 0 0 0 1.15 4 92.08 92.08 0 0 1 1.65 88.27 8.46 8.46 0 0 0 14.86 8.09l.15-.26a108.66 108.66 0 0 0-1.94-104.52A8.4 8.4 0 0 0 277.1.01ZM149.61 10.92a37.05 37.05 0 0 0-37 36.95v70.23a37 37 0 0 0 73.93 0V47.87a37 37 0 0 0-36.99-36.91Zm-84.64 5.63a6.17 6.17 0 0 0-.86 0 8.26 8.26 0 0 0-6.17 3.42 63.7 63.7 0 0 0-1.77 74.35 8.46 8.46 0 0 0 14-9.49 46.9 46.9 0 0 1 1.25-54.65 8.47 8.47 0 0 0-1.41-11.83 8.61 8.61 0 0 0-5.04-1.8Zm169.79 0a6.17 6.17 0 0 0-.86 0 8.44 8.44 0 0 0-6.2 13.57 46.9 46.9 0 0 1 1.25 54.65 8.474 8.474 0 0 0 14 9.55 63.84 63.84 0 0 0-1.69-74.35 8.47 8.47 0 0 0-6.5-3.42Zm-30.61 97.24a8.44 8.44 0 0 0-8.2 7.95 46.53 46.53 0 0 1-92.78 0 8.44 8.44 0 1 0-16.87.47 4.41 4.41 0 0 0 0 .89 63.76 63.76 0 0 0 54.74 57.77v31.3h-16.6a8.47 8.47 0 0 0 0 16.93h50.29a8.47 8.47 0 0 0 0-16.93H158V180.9a63.79 63.79 0 0 0 54.77-57.74 8.46 8.46 0 0 0-7.53-9.27 6.65 6.65 0 0 0-1.09-.07Z" />
</svg>