<svg xmlns="http://www.w3.org/2000/svg" viewBox="0 0 299.52 222.09">
    <path d="M98.47 134.4h39.76v39.76H98.47z" />
    <path d="M299.61 39H44.93v39L.24 77v152.8s1 15.12 5 20.5 12.43 10.75 21.5 10.75h244.98s15.35-5.71 20.61-13.11 6.95-11.76 7.28-17.47 0-191.47 0-191.47Zm-255 196.9s0 10-12.1 10-17.8-1.64-17.8-11V92.38h29.9ZM218 54.07v39.76h-39.77V54.07Zm67.19 174.72s-2 16.13-12.76 16.8-215.71 0-215.71 0 3.69-3 3.69-9.41c0-2.45-.1-29.94-.22-62.83h38.52v-39.76h39.76V93.83H98.71V54.07h39.76v39.76h39.76v39.76H218V93.83h39.74V54.07h27.43Z" transform="translate(-.24 -38.95)" />
</svg>