<svg viewBox="0 0 56 60" xmlns="http://www.w3.org/2000/svg">
  <path d="M37.4606 31.4592C37.4158 32.3721 37.5944 33.2822 37.9812 34.1121C38.3419 35.0287 38.8829 35.8651 39.5728 36.573C40.2627 37.2809 41.0877 37.8461 42 38.2357C41.3734 40.1607 40.4432 41.9754 39.2438 43.6125C37.6092 45.8193 35.9973 46.9485 34.4082 47C33.481 46.946 32.5722 46.721 31.7285 46.3364C30.7584 45.9409 29.726 45.7163 28.6778 45.6727C27.5752 45.7296 26.4916 45.9799 25.4774 46.412C24.7201 46.7389 23.9128 46.9376 23.0891 47C22.4133 46.9621 21.7529 46.7855 21.1499 46.4813C20.5468 46.1771 20.0143 45.7519 19.5862 45.233C18.4808 44.0812 17.5298 42.7933 16.7568 41.401C16.0924 40.243 15.5202 39.0356 15.0451 37.7896C14.375 35.8701 14.0234 33.8558 14.0038 31.8249C13.954 29.9308 14.3924 28.0554 15.2776 26.3756C16.0019 25.0209 17.0981 23.8964 18.4398 23.1315C19.6978 22.4114 21.1146 22.0067 22.5668 21.9525C23.8221 22.0571 25.053 22.3561 26.2146 22.8384C26.855 23.1219 27.5308 23.3196 28.224 23.4263C28.8643 23.3372 29.4898 23.1638 30.0837 22.9109C31.0232 22.5688 31.7699 22.3229 32.3129 22.1747C33.1347 21.9421 33.989 21.8426 34.8429 21.88C36.0822 21.9181 37.2963 22.2362 38.3924 22.8099C39.4885 23.3836 40.4376 24.1978 41.1673 25.1902C40.0099 25.7764 39.0459 26.678 38.3892 27.7888C37.7324 28.8996 37.4102 30.1731 37.4606 31.4592ZM33.2188 19.3784C32.6356 20.1799 31.8625 20.8274 30.9675 21.2641C30.0725 21.7008 29.0829 21.9134 28.0855 21.8831C27.9849 20.9179 28.0993 19.9426 28.4206 19.0259C28.7419 18.1092 29.2623 17.2733 29.9452 16.5773C30.5935 15.8487 31.3759 15.249 32.2508 14.8102C33.099 14.3476 34.038 14.0713 35.0037 14C35.0828 14.9578 34.9654 15.9216 34.6587 16.8334C34.352 17.7452 33.8622 18.5862 33.2188 19.3058V19.3784Z"/>
</svg>