<?xml version="1.0"?>
<svg xmlns="http://www.w3.org/2000/svg" width="264" viewBox="0 0 623.02 142.85">
  <defs>
    <style>.cls-5{fill:#bfe10e}.cls-7{fill:#fff}</style>
    <clipPath id="clip-path" transform="translate(-1.42 -.12)">
      <path fill="none" d="M357.29 12.09h267.15v130.84H357.29z"/>
    </clipPath>
  </defs>
  <g id="Capa_2">
    <g id="Layer_1">
      <path fill="#1e2324" d="M392.2 11.97l-36.33 71.56 36.59 59.29h230.56l-34.58-59.29 34.33-71.56H392.2z"/>
      <g clip-path="url(#clip-path)">
        <path d="M399.87 99.7a9.71 9.71 0 1 1-9.71-9.7 9.71 9.71 0 0 1 9.71 9.71" transform="translate(-1.42 -.12)" fill="#f60"/>
      </g>
      <path d="M253.35 11.97v130.88h139.76L356.4 83.37l36.71-71.4H253.35z"/>
      <path class="cls-5" d="M253.35 11.97v130.88l127.46-5.84-27.03-53.59L384 17.92l-130.65-5.95z"/>
      <path d="M30 0L0 142.85h331.45L361.47 0H30z"/>
      <path class="cls-5" d="M35.29 6.16L1.53 141.5l323.3-4.98L359.66 1.34 35.29 6.16z"/>
      <path fill="#7b990c" d="M331.45 142.85L364.31 11.8 361.47 0"/>
      <path d="M292.92 112.63l7.7-43.63c1.87-10.59 7.11-15.82 14.3-15.82a21.81 21.81 0 0 1 6 .79L326 32.34a21.09 21.09 0 0 0-6.51-.92c-5.49 0-11.25 3-16.45 11h-.39l.6-10.07-16.03.65-14 79.63zM240.5 73c3.76-21.31 6-24.19 11.2-24.19s6.27 3 2.54 24.19-6 24.19-10.94 24.19c-5.23 0-6.55-2.88-2.8-24.19m34-.13c5.72-32.43-1.3-41.58-19.73-41.58s-28.94 9.15-34.66 41.58c-5.79 32.82 1.58 41.45 19.89 41.45 18.57 0 28.72-8.63 34.51-41.45M196.22 71c-3.83 21.7-6.76 25-11.33 25-3 0-4.27-2.48-4.7-5.23l6.34-36c1.42-2.88 4-5 6.89-5 4.84 0 6 3 2.8 21.18m20.12 1.57c5.81-33-1.26-41.06-14.6-41.06a23.64 23.64 0 0 0-15.46 6.14l-1.89-5.62L170.63 33l-17.18 97.42h19.75l1.8-10.08 1.54-10.2.41-.13c2.55 2.62 5.92 3.53 9.84 3.53 14.25 0 24.78-13.73 29.57-40.93m-88.5-8.5c2.58-12.42 4.59-14.91 9.43-14.91 4.18 0 5.77 2.88 3.78 14.91zm2.48 49.69a54.26 54.26 0 0 0 19.6-3.8l1.13-17.52A36.29 36.29 0 0 1 136 95.76c-9.68 0-12.27-3.79-10.72-16.35h31.12c1-3.92 1.91-7.84 2.6-11.77 4.7-26.67-2.13-36.09-19-36.09-18.31 0-28.69 12.16-33.62 40.14-5.14 29.16 1.86 42.1 24 42.1m-53-22.75a7.22 7.22 0 0 1-6.6 4.84c-5.1 0-6.32-2.75-2.72-23.15 3.32-18.83 5.64-22.36 10.87-22.36 2.49 0 4.48 1.31 5 3.4zm15.94 21.57L111.49 8.94l-19.91.91-2.78 15.82-1.59 10.46-.31.26A13.24 13.24 0 0 0 76 31.3c-13.17 0-23 11.5-28.18 40.7-5.42 30.73.84 42 14.57 42a19.14 19.14 0 0 0 14.77-6.67h.39l.62 5.36z" transform="translate(-1.42 -.12)"/>
      <path class="cls-7" d="M447.35 58.23a13.6 13.6 0 0 0-5.58-1.18c-7.71 0-10.86 3.86-13.45 18.54-2.34 13.29.27 18.54 6.59 18.54a15.27 15.27 0 0 0 6.57-1.39l-1.33 13.61a24.61 24.61 0 0 1-11.06 2.57c-15.11 0-21.62-9.86-17.46-33.43 4.06-23 13.21-34.18 29.17-34.18 3.64 0 7.89.86 10 2.14zM462.91 109c-15 0-21-7.07-16.3-34C451.3 48.48 460 41 475 41s20.86 7.5 16.17 34.07c-4.72 26.87-13.04 33.93-28.26 33.93zm2.69-14c4.07 0 5.92-2.57 9-19.82s2.1-19.82-2.08-19.82-6.09 2.36-9.17 19.82S461.32 95 465.6 95zM540.63 107.62l8-45.21c.79-4.5-.49-6.32-3.38-6.32s-4.93 1.82-5.7 6.21l-8 45.32h-16.21l8-45.32c.79-4.5-.4-6.21-3.3-6.21a6.5 6.5 0 0 0-5.14 3l-8.56 48.54h-16.18l11.52-65.36 12.24-.75.93 5A18.52 18.52 0 0 1 527.73 41c5.57 0 9.19 2.57 10.9 6.86A18 18 0 0 1 552.91 41c9.32 0 14.36 7.29 11.9 21.21l-8 45.43z" transform="translate(-1.42 -.12)"/>
    </g>
  </g>
</svg>
