<svg width="373" height="215" data-name="Capa 1" xmlns="http://www.w3.org/2000/svg" viewBox="0 0 373 215"><path fill="#eeede7" d="M0 0h373v215H0z"/><g opacity=".3"><path fill="#575757" d="M105.8 84.5h161.4v46H105.8z"/><path d="M125.6 112.2c8.4 0 13.5-5.3 13.5-12s-4.6-10.9-13.1-10.9c-3.6 0-8.1.3-9.7.3h-4.1v4.1a38.4 38.4 0 0 0 4.5.6v25.3a36 36 0 0 0-4.5.6v4.2h15.6v-4.2a36.2 36.2 0 0 0-4.4-.6V112a16.1 16.1 0 0 0 2.2 0zm-2.2-17.4h2.3c4.6 0 6.6 2.3 6.6 5.8 0 3.8-2.9 6-7 6a13.5 13.5 0 0 1-2 0V94.7zM207.3 91.6l-3-4.4-8.8 6.4 2.4 3.6 9.4-5.6zM209.3 119V98.3h-6.5v12.4c0 4.5-2.7 8.3-6 8.3-2.5 0-3.2-1.6-3.2-4.2V98.3a79.8 79.8 0 0 0-10.8.4v4.2l4.2.5v13c0 4.5 1.8 8.2 7.6 8.2a9.5 9.5 0 0 0 8.8-5.1 29 29 0 0 0-.2 4.6 75.7 75.7 0 0 0 10.3-.4v-4.2c-1.3 0-2.9-.3-4.1-.5M219.2 124.2v-5.4l5-4.8c7.8-7.7 9-10 9-12.6s-1.9-5-5.5-5a12.5 12.5 0 0 0-7 2.4l-1.3-5.8a20.3 20.3 0 0 1 9.7-2.5c7.9 0 11.3 4.7 11.3 9.8 0 4.4-1.7 7.7-8.2 13.9l-4 3.8 9.4-.1h4v6.3h-22.4zM261.1 119.7v4.4h-17.4v-4.4a42.2 42.2 0 0 1 5.8-.7V96.3l-5.8 2.4-1-5.7 8.8-3.2h4.9v29.3a43.6 43.6 0 0 1 4.8.6M172.2 103.5h-.1a34 34 0 0 0 .4-5.2 72.6 72.6 0 0 0-10.6.5v4l4.5.6V124h6.5v-10.5c0-7 2.4-10.2 7.7-9.2l.3-6.5c-5-.4-7.5 2.5-8.7 5.7M161.8 109.3c0-6.4-3.3-11.5-10.8-11.5-7.7 0-12 5.8-12 13.6 0 9 4.5 13.1 12.6 13.1a25.3 25.3 0 0 0 9.3-1.7l-.7-5a18.4 18.4 0 0 1-7.4 1.6c-4.8 0-7.2-2.4-7.1-7h15.9a23.7 23.7 0 0 0 .2-3.1zm-6.6-1.4h-9.4c.3-3.2 2.2-5.3 5-5.3s4.5 2 4.4 5.3z" fill="#fff"/></g></svg>