<svg xmlns="http://www.w3.org/2000/svg" xmlns:xlink="http://www.w3.org/1999/xlink" width="120" height="80" viewBox="0 0 120 80"><defs><clipPath id="b"><rect width="120" height="80"/></clipPath></defs><g id="a" clip-path="url(#b)"><path d="M193.9,134.9c-5.323-1.331-9.315-3.992-13.307-7.984l7.984-6.654,1.331-3.992V94.976l3.992-3.992Zm25.283-9.315v1.331l-10.646,5.323-9.315,2.661h-2.661V92.315l9.315,2.661c5.323,0,9.315-3.992,13.307-9.315l-1.331-1.331a7.318,7.318,0,0,1-6.654,3.992c-2.661,0-6.654-1.331-10.646-5.323l-18.63,15.969v23.953l-1.331,2.661a23.953,23.953,0,0,1-2.661-27.945l7.984-7.984h1.331l-1.331-1.331c-6.654,3.992-10.646,6.654-13.307,10.646a26.614,26.614,0,0,0,22.622,43.913c6.654,0,11.976-2.661,17.3-6.654a13.629,13.629,0,0,0,6.654-7.984l1.331-1.331Z" transform="translate(-133.122 -73)" fill-rule="evenodd"/></g></svg>