<svg width="264" height="43" xmlns="http://www.w3.org/2000/svg"><g fill="#231F20" fill-rule="evenodd"><path d="M174.5 15.3c-1 .5-3 1.2-4.6 1.8v16.1c0 1.8-.1 3-.4 3.5-.1.6-.6 1-1.2 1.4v.7a34.9 34.9 0 0 1 9.8 3.6l9.5-6.6-.6-.9-4 2.8-6.8-2.7v-5.1l12.4-8.8-7.7-9.1-6.4 3.3zm1.6.1l7.2 8.1-7.2 5.1V15.4zM219.6 12l7.3 4.2-3.3 5-6.1-3.6v17.6l5.8 2.6 3-2.2.6 1-8 5.8a30.3 30.3 0 0 0-9.5-3.6v-.6c.6-.5 1-1 1.3-1.5.3-.7.4-1.8.4-3.3V17.6c3.7-1.4 6.1-3 8.5-5.6M254.3 12a27.5 27.5 0 0 1-9.5 5.4v15.9c0 1.5-.2 2.5-.4 3.2-.2.4-.7 1-1.3 1.5l.2.6c1.7 0 3.2.3 4.5.8 1.8.6 3.6 1.4 6.2 3 .9-.8 2.4-1.8 3.4-2.4 1.2-.7 3.6-1.8 6.4-3V15.8c-3.9-1-6.8-2-9.5-3.8m-1.3 5.8l4.4 2v17.7l-6.3-2.7V17.2c.9.1 1.2.4 1.9.6M113 12a27.8 27.8 0 0 1-9.6 5.4v15.9c0 1.5 0 2.5-.3 3.2a5 5 0 0 1-1.3 1.5l.2.6c1.7 0 3.2.3 4.5.8 1.7.6 3.5 1.4 6.2 3 .9-.8 2.5-1.8 3.4-2.4 1.2-.7 3.7-1.8 6.4-3V15.8c-3.8-1-6.9-2-9.4-3.8m-1.4 5.8l4.4 2v17.7l-6.3-2.7V17.2c1 .1 1.3.4 2 .6M52.4 36.5L51 37.7l-3.3-2.5v-28l2.2-2.3L44.4.4 39 4.9l2.3 2.3v24.2c0 2.3-.1 3.1-.2 3.4 0 .6-.3 1.1-.5 1.7-.3.4-.7.8-1.2 1.1v.4c1.3.4 2.8 1 3.6 1.5.8.5 2 1.5 3.7 3l6.4-5-.7-1zM83.4 36.4c-2-.3-4.1-1-5.4-1.7-1.2-.6-2.9-1.7-4.6-3.6 1.6-1.3 4.3-4 5.6-5.4a7 7 0 0 0 1.4-2.4l.2-3.2V7.7l2.8-2.4v31.1zm17.2-5.7l-.7.5c-2.3 2-4.7 3.2-6.8 4-2.2 1-4.5 1.4-7 1.4h-1.4V6.5c2.3 1.2 3.6 1.7 6.2 1.7 3.6 0 6.8-2.5 9.3-6.2l-1-.6C98 3.1 96.4 4 94.7 4c-2.2 0-4.7-1.2-8-3.3L74.4 11v12.5c0 3.4 0 4.3-.3 4.9a6 6 0 0 1-1.3 1.7A16.8 16.8 0 0 1 69 19.7c0-3.1.8-6 2.5-8.7 1.3-2 3-4.2 5.7-6.2l.4-.2-.7-.8-.3.2a30.8 30.8 0 0 0-9.3 7.6A19.3 19.3 0 0 0 83 42.2 21.1 21.1 0 0 0 96 38a23 23 0 0 0 4.7-5.7l.6-1-.7-.5z"/><path d="M204.7 12l-6.1 5.4c0-1-.5-1.7-.8-2.2-.6-1-1.8-2-3.4-3.2l-6.3 5.5.7.8c.7-.7 1.4-1.2 1.8-1.2.4 0 .8.2 1 .7.4.5.6 1.4.6 2.8v11.7c0 1.6-.1 2.7-.4 3.3-.2.6-.8 1.1-1.6 1.7v.6c1.2.4 2.7 1 3.8 1.6a27 27 0 0 1 3.7 3l6.6-5.1-.9-1-1.5 1.3-3.3-2.5V18.8l2-1.8c1.4 1.8 2.4 3 4 3 2.7 0 6.5-4.4 6.5-4.4l-.5-.6c-2.5 2.3-4.5-1.7-5.9-3M14.7 34.8a16 16 0 0 1-4.6-3.7c1.6-1.2 4.2-3.8 5.6-5.4.7-.8 1.1-1.6 1.3-2.3l.2-2.2 2.9 1.5v13.8c-2-.3-4.1-1-5.4-1.7zM20 5.4v11.2L17.3 19V7.8l2.8-2.4zm17.2 25.3l-.7.6c-2.3 2-4.8 3.2-6.9 4-2 1-4.5 1.3-7 1.3h-1.4V23.2a7 7 0 0 0 2.4.5c3.1 0 6.3-3.2 8.5-6.4l-1-.6c-1 1.4-2.2 2.2-3.8 2.2-1.6 0-3.6-.9-6-2.4v-10c2.3 1.3 3.5 1.8 6.1 1.8 3.6 0 6.9-2.5 9.4-6.3l-1-.5C34.8 3.1 33.3 4 31.4 4c-2.1 0-4.6-1.2-7.9-3.3L11 11v12.6c0 3.3-.1 4.3-.3 4.9-.3.6-1.3 1.6-1.3 1.6A16.4 16.4 0 0 1 8.2 11c1.3-2 3-4.2 5.7-6.1l.4-.2-.7-.8-.3.2a30.8 30.8 0 0 0-9.4 7.5 19.6 19.6 0 0 0 6 28.2 20.2 20.2 0 0 0 16.7 1.3c2.4-.8 4.4-1.9 6-3.2 1.7-1.3 3.2-3.1 4.8-5.7l.6-1-.7-.5zM161.1 16.5l3-3 .7.8c-1 1-1.7 1.7-2 2.3-.4.5-.7 1-.8 1.6l-.1 3.4v12.5c0 1.5.1 2.5.5 3 .3.5.5.7.8.7.4 0 .6-.3 1.6-1.1l.7.8-6.2 4.9c-1.3-1-2.4-2-2.8-2.8-.6-1-1-2-1-3.1v-17l-3-2.5-3.4 3.2v15.6l2.2 2.5-5.3 4-5.4-4 2.1-2.5V22.1c0-2-.2-2.5-.4-3-.3-.6-1.2-1.4-2.4-2.2l-3.5 2.9v16l2.4 2.5-5.5 4-5.4-4 2.3-2.5V21.1c0-1.5-.4-2.6-.8-3.3-.3-.5-.6-.8-.9-.8-.3 0-1 .5-2 1.2l-.6-1 6.5-5.2 2.6 2.2c.5.6 1 1.1 1 1.7.3.6.4 1.2.4 2.6l7.8-6.5c1.8 1.5 3 2.6 3.7 3.5.6 1 1 1.7 1 3.4l7.5-6.9 4.7 4.5zM228.9 6c1.4 1.9 3.1 3.9 4.7 3.9 2.7 0 6.6-4.4 6.6-4.4l-.6-.5c-2.5 2.2-4.5-1.7-5.8-3l-5 4zM240 36.7c-1 .8-1.2 1.1-1.6 1.1-.3 0-.6-.2-1-.7-.2-.5-.5-1.5-.5-3V18.7l2.3-2.2-5.4-4.6-5.5 4.6 2.3 2.2v17.8c0 1.1.4 2.1 1 3.1.4.7 1.5 1.7 3 2.8l6-4.9-.7-.8z"/></g></svg>