<svg width="264" height="55" id="Capa_1" xmlns="http://www.w3.org/2000/svg" viewBox="0 0 1920 547"><style>.st0{fill:#0e6dc1}.st1{fill:#fff}.st2{fill:#ebc12f}</style><path class="st0" d="M1.2-.2H1920v547H1.2z"/><path class="st1" d="M398.4 185.2c0-81.1-55.9-128.4-157.2-128.4-43 0-97 2.5-116.7 2.5h-48V109c16 3.1 35 6.1 53.4 7.4v300.3c-18.4 1.2-37.5 4.3-53.4 7.4v49.7h186.7v-49.7c-16-3.1-35-6.1-53.4-7.4v-89.1c9.8 1.2 19.1 1.2 26.4 1.2 100.8.1 162.2-63.1 162.2-143.6"/><path class="st0" d="M315.5 190.1c0 44.8-33.8 71.9-82.3 72.5-7.4 0-15.4-.6-23.4-1.8V122.6c9.2-.6 17.8-.6 27.6-.6 54.7-.1 78.1 26.4 78.1 68.1"/><path class="st1" d="M1207.1 84.2l-36.2-52.8-103.8 76.8 28.8 42.3zM1231.7 409.6V163.9c-26.1-.8-53.2-.3-78.6 1V312c0 53.4-31.3 98.3-71.2 98.3-28.9 0-37.5-19-37.5-50.4v-196c-45.5-1.2-92.7.6-128.4 4.9v49.8c16 1.2 35.6 3.7 50.4 6.1v154.2c0 53.4 22.1 97 90.9 97 49.8 0 85.4-25.2 103.8-60.8h1.2c-3.1 17.2-3.7 39.9-3.7 55.3 39.9 1.2 87.2-.6 122.8-4.9v-49.8c-15.9-1.2-34.9-3.7-49.7-6.1"/><path class="st2" d="M1348.2 471.1v-63l59.3-58.1c92.7-90.8 108.4-117.5 108.4-149.6 0-33.3-23-58.7-66-58.7-32.7 0-63 13.3-83.6 27.9l-15.2-69c30.3-17 71.5-29.7 115.7-29.7 93.3 0 134.5 55.7 134.5 116.3 0 52.1-20.6 92.1-98.1 165.3l-47.9 44.8v.6c28.5-.6 67.8-1.2 112-1.2h48.5v74.5h-267.6zM1848.1 418.4V471H1641v-52.6c21.8-4.2 46-6.7 69-7.9V139.8l-69.6 27.9-12.1-67.3 104.8-38.1h57.5v348.3c18.1 1.2 38.1 4.2 57.5 7.8"/><path class="st1" d="M790 225.9h-1.2c3.7-21.5 5.5-46.1 5.5-62-41.1-1.2-88.4.6-127.1 5.5v49.1c17.8 1.2 38.7 3.7 53.4 6.1v245.1h78V345.1c0-84.8 28.3-121.6 90.9-109.9l3.7-76.8c-59-4.9-88.5 28.9-103.2 67.5M666.2 294.7c0-76.2-39.3-136.4-128.4-136.4-91.5 0-143.1 68.2-143.1 161.5 0 107.5 54.1 156 150.5 156 37.5 0 77.4-6.8 110.6-20.3l-8.6-59.6c-28.9 12.9-59.6 18.4-88.5 18.4-56.5 0-84.8-27.7-84.1-83.5h189.2c1.8-14 2.4-25.6 2.4-36.1"/><path class="st0" d="M588.2 278.2H475.8c4.3-38.1 27-62.7 59.6-62.7 33.2 0 54.1 22.7 52.8 62.7"/></svg>