<svg xmlns="http://www.w3.org/2000/svg" xmlns:xlink="http://www.w3.org/1999/xlink" width="100" height="80" viewBox="0 0 100 80"><defs><clipPath id="b"><rect width="100" height="80"/></clipPath></defs><g id="a" clip-path="url(#b)"><g transform="translate(-101.2 -69.3)"><path d="M127.471,115.4c9.573,0,15.385-6.04,15.385-13.675S137.613,89.3,127.927,89.3c-4.1,0-9.231.342-11.054.342H112.2v4.672a43.763,43.763,0,0,0,5.128.684V123.83a41.021,41.021,0,0,0-5.128.684V129.3h17.778v-4.786a41.254,41.254,0,0,0-5.014-.684v-8.661a18.349,18.349,0,0,0,2.507,0Zm-2.507-19.829h2.621c5.242,0,7.521,2.621,7.521,6.61,0,4.33-3.3,6.838-7.977,6.838a15.385,15.385,0,0,1-2.279,0V95.454Zm18.006,33.5v-6.154l5.7-5.47c8.889-8.775,10.256-11.4,10.256-14.359s-2.165-5.7-6.268-5.7a14.245,14.245,0,0,0-7.977,2.735l-1.482-6.61a23.134,23.134,0,0,1,11.054-2.849c9,0,12.878,5.356,12.878,11.168,0,5.014-1.937,8.775-9.345,15.84l-4.558,4.33,10.712-.114H168.5v7.179Zm47.749-5.128v5.014H170.89v-5.014a48.089,48.089,0,0,1,6.61-.8V97.277l-6.61,2.735-1.14-6.5,10.029-3.647h5.584v33.39a49.683,49.683,0,0,1,5.47.684" transform="translate(0 0)"/></g></g></svg>