<svg xmlns="http://www.w3.org/2000/svg" xmlns:xlink="http://www.w3.org/1999/xlink" width="240" height="150" viewBox="0 0 240 150"><defs><style>.a{clip-path:url(#b);}.b{fill:none;}.c{fill:#fff;}.d{fill:#084d95;}</style><clipPath id="b"><rect width="240" height="150"/></clipPath></defs><g id="a" class="a"><g transform="translate(0.284)"><rect class="b" width="240" height="150" rx="1.6" transform="translate(-0.284)"/><path class="c" d="M54.475,55.991A25.772,25.772,0,0,0,80.4,31.418,25.322,25.322,0,0,0,54.475,6.446H42.788A24.423,24.423,0,0,0,17.815,31.418,24.973,24.973,0,0,0,42.788,55.991Z" transform="translate(71.136 25.719)"/><path class="d" d="M46.1,43V16.18A14.384,14.384,0,0,1,46.1,43M26.571,29.565a14.385,14.385,0,0,1,9.242-13.436l0,26.821a14.384,14.384,0,0,1-9.24-13.435M40.955,6.84A22.675,22.675,0,1,0,63.63,29.515,22.675,22.675,0,0,0,40.955,6.84" transform="translate(73.019 27.322)"/><path class="c" d="M16.735,31.971c0,2,1.448,2.248,2.747,2.248a7.292,7.292,0,0,0,7.542-8.191,7.891,7.891,0,0,0-8.191-8.441H16.784ZM14.187,19.685c0-2.347-1.249-2.2-2.4-2.248v-.7h7.642a9.539,9.539,0,0,1,10.488,9.19c0,2.6-1.5,9.14-10.788,9.14H11.74v-.7c1.548,0,2.347,0,2.4-2Z" transform="translate(46.895 66.67)"/><path class="c" d="M18.347,19.2a1.3,1.3,0,0,1,0-2.547,1.274,1.274,0,1,1,0,2.547M15.55,34.53h.5c.749,0,1.249,0,1.249-.849V26.589c0-1.149-.4-1.3-1.349-1.848v-.4l2.8-.949a.9.9,0,0,1,.45,0V33.731c0,.849.6.849,1.3.849h.45v.7H15.55Z" transform="translate(62.114 66.508)"/><path class="c" d="M18.568,21.466c0-.949-.3-1.249-1.5-1.748v-.5a34.459,34.459,0,0,0,3.446-1.249v1.948a7.692,7.692,0,0,1,4.695-1.8c2.248,0,3,1.648,3,3.646v6.743c0,.849.6.849,1.3.849h.45v.7H24.362v-.7h.45c.749,0,1.249,0,1.249-.849V21.616a2.1,2.1,0,0,0-2.4-2.248,6.992,6.992,0,0,0-3.047,1.249v7.741c0,.849.6.849,1.3.849h.45v.7H16.82v-.7h.45c.749,0,1.249,0,1.249-.849Z" transform="translate(67.187 71.781)"/><path class="c" d="M26.308,21.874c.649,0,.749-.35.749-.649a2.2,2.2,0,0,0-2.3-2.4c-1.6,0-2.7,1.2-3,3.047Zm-4.645.849a6.593,6.593,0,0,0,0,1.5,4.4,4.4,0,0,0,3.846,4.545,4.994,4.994,0,0,0,3.546-1.748l.35.35a6.143,6.143,0,0,1-4.995,2.947,5.244,5.244,0,0,1-4.994-5.694c0-4.995,3.446-6.643,5.294-6.643a4.145,4.145,0,0,1,4.445,4.1,3.347,3.347,0,0,1,0,.45h0Z" transform="translate(77.477 71.773)"/><path class="c" d="M21.5,29.3h.7c.749,0,1.249,0,1.249-.849V21.057c0-.8-.949-.949-1.349-1.2v-.4c1.9-.8,2.947-1.5,3.2-1.5s0,0,0,.35v2.347h0c.649-1,1.748-2.7,3.346-2.7a1.448,1.448,0,0,1,1.5,1.4,1.249,1.249,0,0,1-1.249,1.349c-.8,0-.8-.649-1.748-.649a2.2,2.2,0,0,0-1.9,2.2V28.4c0,.849.5.849,1.249.849h1.448v.7H21.5Z" transform="translate(85.881 71.741)"/><path class="c" d="M24.039,26.294a3.446,3.446,0,0,0,3.3,3.2,1.848,1.848,0,0,0,2.1-1.848c0-3.1-5.694-2.1-5.694-6.293A3.6,3.6,0,0,1,27.785,18a6.892,6.892,0,0,1,3,.749V21.4h-.6a2.7,2.7,0,0,0-2.847-2.6,1.848,1.848,0,0,0-2.048,1.748c0,3.047,6.093,2.1,6.093,6.243,0,1.748-1.4,3.546-4.5,3.546a6.892,6.892,0,0,1-3.2-.9l-.3-3Z" transform="translate(93.431 71.798)"/><path class="c" d="M42.961,22.019h-.649a4.994,4.994,0,0,0-5.594-4.3,7.492,7.492,0,0,0-7.542,8.291,8.541,8.541,0,0,0,7.791,9.09,5.344,5.344,0,0,0,5.294-4.545h.6l-.6,3.846a14.684,14.684,0,0,1-5.794,1.4,9.34,9.34,0,0,1-9.989-9.989,9.639,9.639,0,0,1,9.989-9.24,18.929,18.929,0,0,1,6.193,1.4Z" transform="translate(105.674 66.183)"/><path class="c" d="M30,35.689h.5c.749,0,1.249,0,1.249-.849V20.256c0-1.7-.4-1.748-1.4-2.048v-.4a16.382,16.382,0,0,0,2.7-1.149l.6-.3V34.79c0,.849.6.849,1.3.849h.45v.7H30Z" transform="translate(119.834 65.35)"/><path class="c" d="M42.188,28.149c0,.45.3.5.749.5h1.049V29.2a27.168,27.168,0,0,0-3.8.8h0V27.749a7.042,7.042,0,0,1-4.645,2.2,2.847,2.847,0,0,1-2.9-3.1V20.158c0-.7,0-1.349-1.548-1.448v-.5h3.4c.3,0,.3,0,.3.749V25.7c0,.8,0,3.047,2.3,3.047a5.844,5.844,0,0,0,3.147-1.6V19.908c0-.5-1.249-.8-2.2-1.049v-.45a27.018,27.018,0,0,0,4.1-.35c.25,0,0,0,0,.45Z" transform="translate(124.228 72.141)"/><path class="c" d="M37.076,33.441a2.8,2.8,0,0,0,2.7,2.7c2.8,0,4-2.747,4-4.994a5,5,0,0,0-4.2-4.994,4.045,4.045,0,0,0-2.5,1.249Zm0-7.142a6.643,6.643,0,0,1,3.9-1.9A4.994,4.994,0,0,1,45.966,29.9a6.593,6.593,0,0,1-6.243,6.842,7.742,7.742,0,0,1-3.646-.9l-.8.6-.549-.3a31.118,31.118,0,0,0,.35-4.645V20.256c0-1.7-.4-1.748-1.4-2.048v-.4a16.581,16.581,0,0,0,2.7-1.149l.6-.3v.35Z" transform="translate(134.534 65.35)"/><path class="c" d="M11.73,31.05h0c.5,0,1.049,0,1.049-.8V22.759c0-.749-.549-.8-1.049-.8h0v-.45h4.345v.45h0c-.5,0-1.049,0-1.049.8V30.2c0,.749.549.8,1.049.8h0v.45H11.73Z" transform="translate(46.855 85.922)"/><path class="c" d="M16.105,31.4v-.3h0c-.5,0-1.1,0-1.1-.9V22.759c0-.8.6-.9,1.1-.9h0v-.3H11.86v.3h0c.5,0,1.1,0,1.1.9V30.2c0,.8-.6.9-1.1.9h0v.3h4.245m0,0h-4.4v-.45h.25c.5,0,1,0,1-.749V22.759c0-.7-.45-.749-1-.749h-.25v-.5h4.5v.5h-.25c-.5,0-1,0-1,.749V30.2c0,.7.5.749,1,.749h.25v.5Z" transform="translate(46.775 85.922)"/><path class="c" d="M22.12,28.652h0V23.308a1.2,1.2,0,0,0-1.249-1.349h-.3v-.45h3.7v.45h0c-.6,0-1.249,0-1.249,1.8V30.25a9.34,9.34,0,0,0,0,1.448h-.549l-7.342-8.191V29.4c0,1.249,0,1.648,1.349,1.648h0v.45h-3.8v-.45h0c1,0,1.3-.649,1.3-1.8V23.258a1.3,1.3,0,0,0-1.3-1.3h0v-.45h2.9Z" transform="translate(50.65 85.922)"/><path class="c" d="M21.99,28.732Zm0,0Zm.3,2.947h.45a9.089,9.089,0,0,1,0-1.4V24.037c0-1.7.7-1.848,1.349-1.848h0v-.3H20.441v.3h.25a1.249,1.249,0,0,1,1.3,1.4v5.394h0L15.647,21.79H12.8v.3h0a1.349,1.349,0,0,1,1.349,1.349v5.993c0,1.149-.3,1.848-1.349,1.9h0v.3h3.646v-.3h0c-1.1,0-1.4-.5-1.4-1.748V23.438Zm.549,0h-.6L15,23.638v5.694c0,1.249,0,1.6,1.3,1.6h.3v.5H12.7v-.5h.25c.949,0,1.2-.6,1.249-1.748V23.188a1.249,1.249,0,0,0-1.249-1.2H12.7v-.5h3l6.243,7.042V23.538a1.141,1.141,0,0,0-1.2-1.3h-.4v-.5h3.846v.5h0c-.6,0-1.2,0-1.2,1.748V30.48a9.589,9.589,0,0,0,0,1.448h0Z" transform="translate(50.73 85.842)"/><path class="c" d="M16.878,22.569c-1.049,0-1.1.25-1.349,1.3h-.45v-1.2a9.242,9.242,0,0,0,0-1.2h.35c0,.45.45.4.849.4h7.342c.4,0,.749,0,.749-.45h.35v2.3h-.45c0-.549,0-1.349-1.049-1.349H20.874v7.592c0,1.1.5,1.249,1.2,1.249h.25v.45H17.577v-.45h.25c.8,0,1.2,0,1.2-1.2V22.569Z" transform="translate(60.236 85.562)"/><path class="c" d="M22.112,31.829H17.118v-.5h.35c.8,0,1.1,0,1.1-1.149V22.589h0V30.28c0,1.149-.45,1.249-1.249,1.249h0v.3h4.595v-.3h0c-.7,0-1.249,0-1.249-1.3V22.439h2.4c.949,0,1.1.8,1.1,1.349h.3v-2.2h0c0,.4-.45.45-.849.45H16.119c-.35,0-.7,0-.849-.4h0a9.039,9.039,0,0,1,0,1.149v1.149h.3c0-1,.3-1.3,1.4-1.3h0c-1.049,0-1.049,0-1.249,1.249H15.17v-1.2a7.99,7.99,0,0,0,0-1.2h.45c0,.35.35.35.7.35h7.442c.4,0,.7,0,.7-.4h.45v2.3h-.5c0-.549,0-1.3-1-1.3h-2.3v7.542c0,1.1.45,1.149,1.1,1.149h.35v.5Z" transform="translate(60.596 85.642)"/><path class="c" d="M17.16,31.05h0c.5,0,1.049,0,1.049-.8V22.759c0-.749-.549-.8-1.049-.8h0v-.45h7.192v2.2H23.9c0-.949,0-1.648-1.748-1.648h-2v3.746h1.7c.849,0,1.049-.5,1.149-1.249h.45v3.3H23c0-.849,0-1.4-1.1-1.4h-1.7v3.3c0,.949.849.949,1.748.949,1.7,0,2.447,0,2.9-1.748h.4a12.106,12.106,0,0,1-.5,2.248H17.16Z" transform="translate(68.545 85.922)"/><path class="c" d="M24.792,31.4a10.969,10.969,0,0,1,.45-2.148h-.3C24.492,30.85,23.693,31,21.995,31c-.9,0-1.8,0-1.8-1V26.6h1.748c1,0,1.1.6,1.149,1.4h.3V24.856h-.3c0,.749-.3,1.249-1.2,1.249H20.147V22.259h2.048c1.5,0,1.748.749,1.8,1.648h.3v-2.1H17.3v.3h0c.5,0,1.1,0,1.1.9V30.45c0,.8-.6.9-1.1.9h0v.3h7.492m0,0H17.15V31.2h.25c.5,0,1,0,1-.749V22.759c0-.7-.45-.749-1-.749h-.25v-.5h7.342v2.2h-.5c0-.9,0-1.6-1.7-1.6H20.4v3.6h1.648c.8,0,.949-.45,1.049-1.2h.549v3.246h-.5c0-.849,0-1.349-1.049-1.349H20.446v3.246c0,.849.749.849,1.7.849,1.7,0,2.4,0,2.847-1.7h.45a12.106,12.106,0,0,1-.5,2.248h0Z" transform="translate(68.505 85.922)"/><path class="c" d="M21.977,26.355h.7c1.448,0,2.2-.549,2.2-2.2a1.948,1.948,0,0,0-2.1-2.1h-.8Zm-1.8-3.3c0-1.049-.549-1.1-1-1.1h-.25v-.45h4.5c1.8,0,3.4.5,3.4,2.5a2.7,2.7,0,0,1-2,2.5l2.447,3.646a1.6,1.6,0,0,0,1.4.849v.45H25.922A39.306,39.306,0,0,1,22.976,26.8h-.949v3.047c0,1.1.5,1.149,1.149,1.149h.25v.45h-4.5V31h.35c.549,0,1,0,1-.749Z" transform="translate(75.615 85.922)"/><path class="c" d="M22.8,26.295c1.4,0,2.1-.5,2.148-2.148a1.9,1.9,0,0,0-2.048-2h-.749v4.145Zm-.7,0h0V21.95h.849A2,2,0,0,1,25.093,24.1c0,1.7-.849,2.3-2.248,2.3Zm0,.4h1a44.105,44.105,0,0,0,2.9,4.595h2.7v-.3a1.648,1.648,0,0,1-1.4-.9l-2.5-3.7h0a2.647,2.647,0,0,0,1.948-2.447c0-2-1.548-2.447-3.346-2.447H18.95v.3h0c.45,0,1.1,0,1.1,1.149V30.19c0,.549-.549.849-1.1.849h0v.3h4.4v-.3h0c-.649,0-1.249,0-1.249-1.2v-3.1Zm6.643,4.745h-2.8A39.956,39.956,0,0,1,23,26.844h-.849v3c0,1.049.45,1.049,1.1,1.1h.3v.5H18.9v-.5h.5c.5,0,.949,0,.949-.7V23.048c0-1-.5-1-.949-1h-.3v-.5h4.545c1.8,0,3.446.5,3.446,2.6a2.747,2.747,0,0,1-1.948,2.547l2.4,3.6a1.548,1.548,0,0,0,1.349.849h0v.5Z" transform="translate(75.495 85.882)"/><path class="c" d="M30.04,28.652h0V23.308a1.2,1.2,0,0,0-1.249-1.349h-.3v-.45h3.746v.45h0c-.6,0-1.249,0-1.249,1.8V30.25a9.989,9.989,0,0,0,0,1.448H30.44L23.1,23.508V29.4c0,1.249,0,1.648,1.349,1.648h0v.45H21v-.45h0c1,0,1.3-.649,1.3-1.8V23.258a1.3,1.3,0,0,0-1.3-1.3h0v-.45h2.9Z" transform="translate(83.884 85.922)"/><path class="c" d="M30.23,28.732Zm0,0Zm.3,2.947h.7a9.591,9.591,0,0,1,0-1.4V24.037c0-1.7.7-1.848,1.349-1.848h0v-.3H28.931v.3h.25a1.249,1.249,0,0,1,1.3,1.4v5.394h0L24.136,21.79h-2.9v.3h0a1.349,1.349,0,0,1,1.349,1.349v5.993c0,1.149-.3,1.848-1.349,1.9h0v.3h3.646v-.3h0c-1.1,0-1.4-.5-1.4-1.748V23.438Zm.549,0h-.6l-7.242-8.041v5.694c0,1.249,0,1.6,1.3,1.6h.3v.5h-3.9v-.5h.3c.949,0,1.2-.6,1.249-1.748V23.188a1.2,1.2,0,0,0-1.249-1.2h-.25v-.5h3l6.243,7.042V23.388a1.141,1.141,0,0,0-1.2-1.3h-.4v-.5h3.9v.5h-.3c-.6,0-1.2,0-1.2,1.748V30.33a9.19,9.19,0,0,0,0,1.448h0Z" transform="translate(83.644 85.842)"/><path class="c" d="M27.8,23.348h0l-1.349,4.046H29.1Zm-2.1,6.293a5.894,5.894,0,0,0-.3,1.1c0,.45.6.5,1.049.5h0v.45H23.21v-.45h0a1.3,1.3,0,0,0,1.249-.949l2.7-6.493a11.735,11.735,0,0,0,.549-1.748,7.443,7.443,0,0,0,1.3-.6h0v.35l2.747,7.392A3.641,3.641,0,0,0,32.3,30.64a.9.9,0,0,0,.949.549h0v.45h-4.1v-.45h0c.35,0,.9,0,.9-.4a4.345,4.345,0,0,0-.3-1.049L29.2,28.093H26.157Z" transform="translate(92.712 85.682)"/><path class="c" d="M28.075,23.438Zm-1.2,3.946h2.5l-1.249-3.8Zm0,0,1.349-4.145h0l1.349,4.145Zm2.9,4.2h4v-.3h0a.949.949,0,0,1-1-.6,4.747,4.747,0,0,0-.549-1.448L29.573,21.79v-.35h0a5.344,5.344,0,0,1-1.249.549,12.089,12.089,0,0,1-.549,1.8l-2.3,6.543a1.349,1.349,0,0,1-1.3.949h0v.3h3.147v-.3h0c-.45,0-1.1,0-1.149-.549a5.945,5.945,0,0,1,.3-1.149h0l.45-1.548h3.346l.549,1.7a4.5,4.5,0,0,1,.3,1.049c0,.449-.6.449-.949.449h0Zm4.046,0H29.473v-.5h0c.35,0,.8,0,.8-.35a4.395,4.395,0,0,0-.3-1l-.549-1.6H26.277l-.45,1.448a6.043,6.043,0,0,0-.3,1.1c0,.35.549.45,1,.45h0v.5h-3.4v-.5h0a1.2,1.2,0,0,0,1.2-.9l3.147-6.393a17.38,17.38,0,0,0,.549-1.8,7.642,7.642,0,0,0,1.3-.6h0v.35l2.8,7.442a3.641,3.641,0,0,0,.549,1.448.849.849,0,0,0,.9.549h0v.5Z" transform="translate(92.392 85.642)"/><path class="c" d="M26.8,22.569c-1.049,0-1.1.25-1.349,1.3H25v-1.2a8.638,8.638,0,0,0,0-1.2h.35c0,.45.45.4.849.4h7.342c.4,0,.749,0,.749-.45h.7v2.3h-.45c0-.549,0-1.349-1.049-1.349H31.143v7.592c0,1.1.5,1.249,1.2,1.249h.25v.45H27.847v-.45h.25c.8,0,1.2,0,1.2-1.2V22.569Z" transform="translate(99.862 85.562)"/><path class="c" d="M32.392,31.829H27.4v-.5h.35c.8,0,1.1,0,1.1-1.149V22.589h0V30.28c0,1.149-.45,1.249-1.249,1.249h0v.3h4.595v-.3h0c-.7,0-1.249,0-1.249-1.3V22.439h2.4c.949,0,1.1.8,1.1,1.349h.3v-2.2h0c0,.4-.45.45-.8.45H26.4c-.35,0-.7,0-.849-.4h0a7.89,7.89,0,0,1,0,1.149v1.149h.3c0-1,.3-1.3,1.4-1.3h0c-1.049,0-1.049,0-1.249,1.249H25v-1.2a8.042,8.042,0,0,0,0-1.2h.449c0,.35.35.35.7.35h7.442c.4,0,.7,0,.7-.4h.7v2.3h-.5c0-.549,0-1.3-1-1.3h-2.5v7.542c0,1.1.45,1.149,1.1,1.149h.35v.5Z" transform="translate(99.862 85.642)"/><path class="c" d="M27.1,31.05h0c.5,0,1.049,0,1.049-.8V22.759c0-.749-.549-.8-1.049-.8h0v-.45h4.5v.45h0c-.5,0-1.049,0-1.049.8V30.2c0,.749.549.8,1.049.8h0v.45H27.1Z" transform="translate(108.25 85.922)"/><path class="c" d="M31.515,31.4v-.3h0c-.5,0-1.1,0-1.1-.9V22.759c0-.8.6-.9,1.1-.9h0v-.3H27.27v.3h0c.5,0,1.1,0,1.1.9V30.2c0,.8-.6.9-1.1.9h0v.3h4.245m0,0h-4.4v-.45h.25c.5,0,1,0,1-.749V22.759c0-.7-.5-.749-1-.749h-.25v-.5h4.4v.5h-.25c-.549,0-1,0-1,.749V30.2c0,.7.45.749,1,.749h.25v.5Z" transform="translate(108.33 85.922)"/><path class="c" d="M33.389,31.385c2.747,0,3.246-2.447,3.246-4.5s-1.1-4.595-3.5-4.595-3.246,2.248-3.246,4.145,1.149,4.995,3.5,4.995m0-9.989a4.995,4.995,0,0,1,5.444,4.995,4.994,4.994,0,0,1-5.394,5.444A4.995,4.995,0,0,1,28.1,26.89a4.994,4.994,0,0,1,5.244-5.244" transform="translate(112.2 85.586)"/><path class="c" d="M30.079,26.519c0-1.9.749-4.2,3.3-4.2s3.546,2.6,3.546,4.645-.5,4.595-3.3,4.595h0c2.7,0,3.2-2.4,3.2-4.445s-1.1-4.545-3.446-4.545-3.147,2.2-3.2,4.1,1.149,4.995,3.4,4.995h0c-2.347,0-3.546-2.5-3.546-4.995m-2,.5a5.244,5.244,0,0,1,5.344-5.344h0a5,5,0,1,0,.3,9.989,4.994,4.994,0,0,0,5.344-5.394,4.995,4.995,0,0,0-5.394-4.995h0a4.994,4.994,0,0,1,5.544,4.995,5.294,5.294,0,0,1-5.444,5.544,4.994,4.994,0,0,1-5.394-4.995" transform="translate(111.965 85.458)"/><path class="c" d="M39.64,28.652h0V23.308a1.2,1.2,0,0,0-1.249-1.349h-.3v-.45h3.746v.45h0c-.6,0-1.249,0-1.249,1.8V30.25a8.894,8.894,0,0,0,0,1.448h-.549L32.7,23.508V29.4c0,1.249,0,1.648,1.349,1.648h0v.45h-3.8v-.45h0c1,0,1.3-.649,1.3-1.8V23.258a1.3,1.3,0,0,0-1.3-1.3h0v-.45h2.9Z" transform="translate(120.833 85.922)"/><path class="c" d="M39.71,28.732Zm0,0Zm.3,2.947h.45a9.987,9.987,0,0,1,0-1.4V24.037c0-1.7.7-1.848,1.349-1.848h0v-.3H38.161v.3h0a1.249,1.249,0,0,1,1.3,1.4v5.394h0L33.117,21.79H30.27v.3h0a1.349,1.349,0,0,1,1.349,1.349v5.993c0,1.149-.3,1.848-1.349,1.9h0v.3h3.846v-.3h0c-1.1,0-1.4-.5-1.4-1.748V23.438Zm.549,0h-.6l-7.242-8.041v5.694c0,1.249,0,1.6,1.3,1.6h.1v.5h-3.9v-.5h.25c.949,0,1.2-.6,1.2-1.748V23.188a1.2,1.2,0,0,0-1.249-1.2h0v-.5h3l6.243,7.042V23.538a1.141,1.141,0,0,0-1.2-1.3h-.35v-.5h3.9v.5h-.3c-.6,0-1.2,0-1.2,1.748V30.48a9.188,9.188,0,0,0,0,1.448h0Z" transform="translate(120.713 85.842)"/><path class="c" d="M37.245,23.348h0L35.9,27.393h2.647ZM35,29.691a6.093,6.093,0,0,0-.3,1.1c0,.449.6.5,1.049.5h0v.45H32.5v-.45h0a1.3,1.3,0,0,0,1.249-.949l2.3-6.543a11.688,11.688,0,0,0,.5-1.748,7.39,7.39,0,0,0,1.3-.6h0v.35l3.346,7.392a3.641,3.641,0,0,0,.549,1.448.9.9,0,0,0,.949.549h0v.45h-4.1v-.45h0c.35,0,.9,0,.9-.4a4.492,4.492,0,0,0-.3-1.049l-.549-1.648H35.4Z" transform="translate(129.821 85.682)"/><path class="c" d="M37.3,23.438Zm-1.2,3.946h2.5l-1.249-3.8Zm0,0,1.349-4.145h0L38.8,27.383Zm2.9,4.2h4v-.3h0a.949.949,0,0,1-1-.6,4.747,4.747,0,0,0-.549-1.448L38.8,21.79v-.35h0a5.344,5.344,0,0,1-1.249.549,12.086,12.086,0,0,1-.549,1.8l-2.3,6.543a1.348,1.348,0,0,1-1.3.949h0v.3h3.147v-.3h0c-.45,0-1.1,0-1.149-.549a6.045,6.045,0,0,1,.3-1.149h0l.45-1.548H39.5l.549,1.7a4.3,4.3,0,0,1,.3,1.049c0,.45-.6.45-.949.45h0Zm4.046,0H38.9v-.5h0c.35,0,.8,0,.8-.35a4.4,4.4,0,0,0-.3-1l-.549-1.6H35.706l-.549,1.6a5.493,5.493,0,0,0-.3,1.1c0,.35.549.45,1,.45h0v.5h-3.4v-.5h0a1.249,1.249,0,0,0,1.2-.9l2.3-6.543a17.429,17.429,0,0,0,.549-1.8,7.593,7.593,0,0,0,1.3-.6h0v.35l3.6,7.442a3.641,3.641,0,0,0,.549,1.448.849.849,0,0,0,.9.549h0v.5Z" transform="translate(129.661 85.642)"/><path class="c" d="M37.747,30.051c0,.549.4.749.849.8a9.989,9.989,0,0,0,1.9,0,2.048,2.048,0,0,0,1.349-.749,3.247,3.247,0,0,0,.449-1.049h.4a11.424,11.424,0,0,1-.549,2.447H34.65v-.45h0c.5,0,1.049,0,1.049-.949V22.759c0-.749-.549-.8-1.049-.8h0v-.45h4.4v.45H38.7c-.549,0-.949,0-.949.749Z" transform="translate(138.409 85.922)"/><path class="c" d="M42.182,31.4a12.611,12.611,0,0,1,.5-2.3h-.3a3.3,3.3,0,0,1-.449,1,2.148,2.148,0,0,1-1.4.8h-1.9c-.45,0-.9,0-.9-.849V22.709c0-.8.5-.849,1.049-.849h.3v-.3h-4.3v.3h0c.5,0,1.149,0,1.149.9V30.1c0,.9-.6,1-1.149,1h0v.3h7.442m0,0H34.64v-.5h.25c.5,0,1,0,1-.9V22.759c0-.7-.5-.749-1-.749h-.25v-.5h4.545v.5h-.4c-.549,0-.9,0-.9.7v7.342c0,.549.35.7.8.749h1.848a2,2,0,0,0,1.349-.749,3.047,3.047,0,0,0,.449-1h.549a11.423,11.423,0,0,1-.549,2.447h0Z" transform="translate(138.369 85.922)"/></g></g></svg>