<svg xmlns="http://www.w3.org/2000/svg" xmlns:xlink="http://www.w3.org/1999/xlink" width="240" height="150" viewBox="0 0 240 150"><defs><style>.a{clip-path:url(#b);}.b{fill:none;}.c{fill:#fff;}.d{fill:#0073a3;}</style><clipPath id="b"><rect width="240" height="150"/></clipPath></defs><g id="a" class="a"><rect class="b" width="240" height="150" rx="1.6"/><path class="c" d="M53.938,39.531v-2.4l-1.151,2.4H42.777l-1.251-2.552v2.552H23.007l-2.2-5H17.1l-2.3,5H5.14V23.866L12.2,8H25.71l1.9,4.554V8H44.178l3.654,7.607L51.385,8h52.2a8.91,8.91,0,0,1,4.556,1.252V8H121.3V9.752A10.71,10.71,0,0,1,127.159,8h23.223l2.052,4.6V8h15.015l2.7,4.6V8h14.214V39.731H169.6l-3.453-5.505v5.505H148.03l-2.552-5.656h-3.553l-2.352,5.455H128.561a14.214,14.214,0,0,1-7.157-2.252v2.252H99.532V32.124c0-1.051-.8-1-.8-1h-.8v8.408Z" transform="translate(20.585 32.039)"/><path class="c" d="M12.71,15.67H41.488l4.154,4.7,4.254-4.7H72.018a10.01,10.01,0,0,1,4.054,1.1v-1.1H95.741a10.01,10.01,0,0,1,4.6,1.251V15.67H125.67v1.151a8.609,8.609,0,0,1,4.2-1.151h16.466v1.151a10.01,10.01,0,0,1,4.254-1.151h12.963V45.7a7.157,7.157,0,0,1-5,1.9H141.286V46.65a8.758,8.758,0,0,1-4.1.951H91.837V39.794c0-.751-.35-.9-1-.9h-.6v8.458H76.022V38.943a9.509,9.509,0,0,1-4.2.851h-5v7.557H49.2l-3.954-5-4.254,5H12.71Z" transform="translate(50.902 62.757)"/><path class="d" d="M30.82,16.63H48.888v4.8H36.375v4.254H48.537v4.254H36.375V34.4H48.888v4.7H30.82Z" transform="translate(123.431 66.601)"/><path class="d" d="M50.888,25.477c6.807.35,7.357,3.754,7.357,7.357a6.556,6.556,0,0,1-7.057,6.456H39.577v-5h9.059c1.552,0,3.8,0,3.8-2.152,0-1-.4-1.7-2.052-1.852-.7,0-3.4-.25-3.8-.25-6.106,0-7.557-3.2-7.557-6.907a6.206,6.206,0,0,1,6.556-6.506H57.194v5H48.936c-1.952,0-4,0-4,1.952,0,1.4,1.051,1.652,2.352,1.8Z" transform="translate(156.265 66.513)"/><path class="d" d="M46.658,25.477c6.807.35,7.357,3.754,7.357,7.357a6.556,6.556,0,0,1-7.057,6.456H35.447v-5h9.059c1.552,0,3.8,0,3.8-2.152,0-1-.4-1.7-2.052-1.852-.7,0-3.4-.25-3.8-.25-6.156,0-7.557-3.2-7.557-6.907a6.206,6.206,0,0,1,6.556-6.506H52.964v5H44.456c-1.952,0-4,0-4,1.952,0,1.4,1.051,1.652,2.352,1.8Z" transform="translate(139.724 66.513)"/><path class="d" d="M67.012,16.8H47.643l-6.456,6.807L35.081,16.6H13.46V39.072H34.531l6.657-7.257,6.456,7.457H58.2V31.615h7.407c2.853,0,8.108,0,8.108-7.958A6.206,6.206,0,0,0,67.012,16.8ZM31.628,34.518H18.865V30.063H31.177V25.809H18.865V21.6H32.278l5.355,6.106Zm21.121,2.6-7.908-9.409,7.908-8.759ZM65.211,27.11H58.3V21.6h6.907a2.7,2.7,0,1,1,0,5.405Z" transform="translate(53.906 66.481)"/><path class="d" d="M43.227,28.881a6.156,6.156,0,0,0,3.8-6.206,5.956,5.956,0,0,0-6.606-6.006H26.06V39.141h5.505V31.183h7.207c1.9,0,2.653,1.9,2.7,3.8v4.1H46.83v-4.6C46.83,30.882,45.779,29.181,43.227,28.881Zm-5-2.3H31.565v-5h6.907a2.653,2.653,0,0,1,3.053,2.6c0,1.4-.751,2.4-3.053,2.4Z" transform="translate(104.367 66.613)"/><rect class="d" width="5.505" height="22.522" transform="translate(132.63 44.393)"/><path class="d" d="M17.47,8.88H35.538v4.8H23.025v4.254H35.187v4.254H23.025v4.454H35.538v4.7H17.47Z" transform="translate(69.965 35.563)"/><path class="d" d="M38.9,21.121a6.156,6.156,0,0,0,3.8-6.206,5.956,5.956,0,0,0-6.606-6.006H21.73V31.381h5.505V23.423h7.207c1.9,0,2.653,1.9,2.7,3.8v4.1H42.5v-4.6C42.55,23.122,41.5,21.421,38.9,21.121Zm-5-2.3H27.285v-5h6.907a2.653,2.653,0,0,1,3.053,2.6c-.05,1.4-.851,2.4-3.1,2.4Z" transform="translate(87.026 35.535)"/><path class="d" d="M54.258,8.88,47.5,23.895,40.745,8.88H32.086V30.5L22.427,8.88H15.12L5.11,31.352h6.006l2.152-5H24.279l2.2,5H37.592V14.485L44.949,31.2h5l7.557-16.416V31.2h5.505V8.88ZM15.37,21.492l3.3-7.858,3.4,7.858Z" transform="translate(20.465 35.563)"/><path class="d" d="M82.413,8.87V24.535L73.054,8.87H64.9V29.991L55.487,8.92H48.18L40.572,26.337H37.019c-1.351-.25-3.4-1.2-3.453-5v-1.8c0-5.255,2.853-5.656,6.506-5.656h3.4v-5H36.318c-2.5,0-7.958,1.9-8.158,11.161,0,6.206,2.6,11.361,8.709,11.361h7.257l2.152-5H57.389l2.2,5H70.4V14.926l10.01,16.466h7.507V8.87ZM48.43,21.532l3.3-7.858,3.453,7.858Z" transform="translate(112.778 35.523)"/></g></svg>