<svg xmlns="http://www.w3.org/2000/svg" xmlns:xlink="http://www.w3.org/1999/xlink" width="240" height="150" viewBox="0 0 240 150"><defs><style>.a{clip-path:url(#b);}.b{fill:none;}.c{fill:#fff;}.d{fill:#fff;}</style><clipPath id="b"><rect width="240" height="150"/></clipPath></defs><g id="a" class="a"><g transform="translate(-0.149)"><rect class="b" width="240" height="150" rx="1.6" transform="translate(0.149)"/><path class="c" d="M31.5,55.594H19.74L27.1,10.5H38.809Z" transform="translate(79.056 42.051)"/><path class="c" d="M50.21,10.62,39,41.6l-1.3-6.657h0l-3.954-20.27a5,5,0,0,0-5.555-4.054H9.67v.751a43.793,43.793,0,0,1,12.262,5l10.01,39.138H44.154L62.822,10.47Z" transform="translate(38.727 41.931)"/><path class="c" d="M61.13,55.566H71.891L62.482,10.522H53.073a5.405,5.405,0,0,0-5.405,3.353L30,55.566H42.212l2.8-6.707H60.029ZM48.218,39.6l6.156-16.866L57.827,39.6Z" transform="translate(120.147 42.08)"/><path class="c" d="M57,21.961,58.654,12.3a33.883,33.883,0,0,0-10.56-1.952c-5.806,0-19.669,2.552-19.669,15.015S44.641,37.176,44.641,43.282s-14.564,5-19.369,1.151L23.52,54.443A32.882,32.882,0,0,0,36.783,57c8.008,0,20.02-4.154,20.02-15.415S40.537,28.618,40.537,23.613,52,19.159,57,21.961Z" transform="translate(94.195 41.451)"/><path class="d" d="M37.7,34.856l-3.954-20.27a5,5,0,0,0-5.555-4.054H9.67v.751a45.494,45.494,0,0,1,17.417,8.759A35.034,35.034,0,0,1,37.7,34.856Z" transform="translate(38.727 42.019)"/></g></g></svg>