<svg xmlns="http://www.w3.org/2000/svg" xmlns:xlink="http://www.w3.org/1999/xlink" width="18" height="14" viewBox="0 0 18 14"><defs><style>.a{clip-path:url(#b);}.b{fill:#fff;}</style><clipPath id="b"><rect width="18" height="14"/></clipPath></defs><g id="a" class="a"><path class="b" d="M8.255,30h13.49A2.258,2.258,0,0,0,24,27.745v-9.49A2.258,2.258,0,0,0,21.745,16H8.255A2.258,2.258,0,0,0,6,18.255v9.49A2.258,2.258,0,0,0,8.255,30ZM12,24H8V22h4ZM8,27.745V26h4v1.745a2.159,2.159,0,0,0,.026.255H8.255A.255.255,0,0,1,8,27.745ZM22,24H18V22.255A.255.255,0,0,1,18.255,22h3.49A2.16,2.16,0,0,0,22,21.974V24Zm-.255,4H17.974A2.16,2.16,0,0,0,18,27.745V26h4v1.745A.255.255,0,0,1,21.745,28Zm0-10a.255.255,0,0,1,.255.255v1.49a.255.255,0,0,1-.255.255h-3.49A2.258,2.258,0,0,0,16,22.255v5.49a.255.255,0,0,1-.255.255h-1.49A.255.255,0,0,1,14,27.745v-9.49A.255.255,0,0,1,14.255,18ZM8.255,18h3.771a2.159,2.159,0,0,0-.026.255V20H8V18.255A.255.255,0,0,1,8.255,18Z" transform="translate(-6 -16)"/></g></svg>