<svg xmlns="http://www.w3.org/2000/svg" xmlns:xlink="http://www.w3.org/1999/xlink" width="240" height="150" viewBox="0 0 240 150"><defs><style>.a{clip-path:url(#b);}.b,.f{fill:none;}.c{fill:#fbb231;}.c,.d,.e{fill-rule:evenodd;}.d{fill:#ec1c2e;}.e{fill:#fff;}.f{stroke:#fff;stroke-miterlimit:2.613;stroke-width:0.216px;}</style><clipPath id="b"><rect width="240" height="150"/></clipPath></defs><g id="a" class="a"><g transform="translate(-0.433)"><rect class="b" width="240" height="150" rx="1.6" transform="translate(0.433)"/><path class="c" d="M64.2,92.574l2.2-.05,2.2-.15,2.152-.3,2.152-.35,2.1-.5,2.052-.551,2-.7,1.952-.8,1.9-.851,1.852-.951,1.8-1.051,1.8-1.1,1.652-1.2,1.652-1.3,1.552-1.351,1.5-1.4,1.451-1.5,1.351-1.6,1.251-1.6,1.2-1.7,1.151-1.752,1.051-1.8.951-1.852.851-1.952.751-1.952.7-2,.6-2.052.45-2.1.4-2.1.25-2.152.2-2.2.05-2.252-.05-2.2-.2-2.152-.25-2.152-.4-2.1-.45-2.1-.6-2.052-.7-2-.751-1.952-.851-1.9-.951-1.852-1.051-1.8-1.151-1.752-1.2-1.652-1.251-1.652L96.183,20.5,94.732,19l-1.5-1.4L91.679,16.25l-1.652-1.3-1.652-1.2-1.8-1.151-1.8-1-1.852-.951-1.9-.851-1.952-.8-2-.651-2.052-.6-2.1-.5-2.152-.35-2.152-.3-2.2-.15-2.2-.05L62,6.44l-2.2.15-2.152.3-2.1.35-2.1.5-2.052.6-2,.651-1.952.8-1.9.851-1.852.951-1.8,1-1.752,1.151-1.652,1.2-1.652,1.3L35.274,17.6l-1.5,1.4-1.451,1.5-1.3,1.552-1.3,1.652-1.2,1.652-1.1,1.752-1.051,1.8-.951,1.852-.851,1.9-.8,1.952-.651,2-.6,2.052-.45,2.1-.4,2.1-.25,2.152-.15,2.152-.1,2.2.1,2.252.15,2.2.25,2.152.4,2.1.45,2.1.6,2.052.651,2,.8,1.952.851,1.952L26.365,70l1.051,1.8,1.1,1.752,1.2,1.7,1.3,1.6,1.3,1.6,1.451,1.5,1.5,1.4,1.552,1.351,1.652,1.3,1.652,1.2,1.752,1.1,1.8,1.051,1.852.951,1.9.851,1.952.8,2,.7,2.052.551,2.1.5,2.1.35,2.152.3,2.2.15,2.2.05Z" transform="translate(84.743 25.591)"/><path class="d" d="M52.8,92.574l2.2-.05,2.2-.15,2.152-.3,2.1-.35,2.1-.5,2.052-.551,2-.7,1.952-.8,1.9-.851,1.852-.951,1.8-1.051,1.752-1.1,1.652-1.2,1.652-1.3,1.552-1.351,1.5-1.4,1.4-1.5,1.351-1.6,1.3-1.6,1.2-1.7,1.1-1.752L90.639,70l.951-1.852.851-1.952.8-1.952.651-2,.551-2.052.5-2.1.4-2.1.25-2.152.15-2.2.05-2.252-.05-2.2-.15-2.152-.25-2.152-.4-2.1-.5-2.1-.551-2.052-.651-2-.8-1.952-.851-1.9-.951-1.852-1.051-1.8-1.1-1.752-1.2-1.652-1.3-1.652L84.633,20.5l-1.4-1.5-1.5-1.4L80.179,16.25l-1.652-1.3-1.652-1.2L75.124,12.6l-1.8-1-1.852-.951-1.9-.851-1.952-.8-2-.651-2.052-.6-2.1-.5-2.1-.35-2.152-.3L55,6.44l-2.2-.05-2.2.05-2.2.15-2.152.3-2.152.35-2.1.5-2.052.6-2,.651-1.952.8-1.9.851-1.852.951-1.8,1-1.8,1.151-1.652,1.2-1.652,1.3L23.774,17.6l-1.5,1.4-1.451,1.5L19.47,22.055l-1.251,1.652-1.251,1.652-1.1,1.752-1.051,1.8-.951,1.852-.851,1.9-.8,1.952-.651,2-.6,2.052-.45,2.1-.4,2.1-.3,2.152L9.66,47.18l-.05,2.2.05,2.252.15,2.2.3,2.152.4,2.1.45,2.1.6,2.052.651,2,.8,1.952.851,1.952L14.815,70l1.051,1.8,1.1,1.752,1.251,1.7,1.251,1.6,1.351,1.6,1.451,1.5,1.5,1.4,1.552,1.351,1.652,1.3,1.652,1.2,1.8,1.1,1.8,1.051,1.852.951,1.9.851,1.952.8,2,.7,2.052.551,2.1.5,2.152.35,2.152.3,2.2.15,2.2.05Z" transform="translate(38.487 25.591)"/><path class="c" d="M22.99,11.572H45.912V9.22H24.992l-2,2.352Z" transform="translate(92.072 36.925)"/><path class="c" d="M22.31,12.612H48.636V10.26H23.661L22.31,12.612Z" transform="translate(89.349 41.09)"/><path class="c" d="M21.79,13.652H50.718V11.3H22.841L21.79,13.652Z" transform="translate(87.267 45.255)"/><path class="c" d="M21.44,14.692H52.12V12.34H22.191l-.751,2.352Z" transform="translate(85.865 49.42)"/><path class="c" d="M22.251,19.672H51.93v-2.3H21.5l.751,2.3Z" transform="translate(86.105 69.565)"/><path class="c" d="M22.971,20.712H50.448v-2.3H21.87l1.1,2.3Z" transform="translate(87.587 73.73)"/><path class="c" d="M23.861,21.792H48.285V19.44H22.41l1.451,2.352Z" transform="translate(89.75 77.855)"/><path class="c" d="M25.192,22.832h20.17V20.48H23.14l2.052,2.352Z" transform="translate(92.673 82.02)"/><path class="c" d="M21.24,15.732H52.921V13.38H21.69l-.45,2.352Z" transform="translate(85.064 53.585)"/><path class="c" d="M25.09,18.682H37.2V16.33H25.54l-.45,2.352Z" transform="translate(100.483 65.4)"/><path class="c" d="M25.29,17.642H36.4V15.29H25.69l-.4,2.352Z" transform="translate(101.284 61.235)"/><path class="c" d="M21.08,15.29h3.1v2.352H21.23l-.15-2.352Z" transform="translate(84.423 61.235)"/><path class="e" d="M29.682,17.644h-.2l-.25-.05h-.15l-.2-.05h-.2l-.15-.05h-.2l-.2-.05-.2-.05h-.5l-.25-.05h-.35l-.3.05h-.4l-.4.05-.3.05-.3.05-.25.05-.2.1-.2.1-.2.15-.15.1-.1.15-.1.15-.1.15v.35l.05.2.05.2.1.2.15.2.3.25.35.2.4.2.45.15.45.15.5.2.45.15.5.2.4.25.4.3.4.35.3.45.2.551.15.651.1.8-.1.9-.1.7-.15.6-.25.551-.3.45-.3.45-.4.35-.4.3-.45.3-.45.2-.5.2-.5.15-.5.1-.5.1-.5.05-.45.05H21.524l-.5-.05h-.45l-.35-.05h-.35l-.35-.05-.3-.05-.3-.05-.25-.05-.25-.05-.25-.05-.25-.1-.2-.1-.25-.1.651-3.2.1.05.2.05.2.05.25.05.25.05.3.05.3.1.35.05.35.05.4.05.4.05.4.05h.4l.45.05h.4l.4-.05.45-.05.35-.15.25-.15.2-.2.15-.2.1-.25.1-.2.05-.25v-.4l-.1-.35-.25-.3-.4-.25-.4-.25-.5-.2-.6-.2-.551-.25-.6-.25-.551-.3-.5-.35-.45-.45-.35-.6-.3-.651-.1-.751v-.951l.05-.551.1-.551.15-.5.2-.45.25-.45.25-.35.3-.4.35-.3.45-.3.45-.2.5-.25.6-.15.651-.1.7-.1.8-.1h1.9l.45.05h.4l.35.05h.35l.25.05h.3l.25.05.2.05h.2l.15.05h.15l.15.05h.1l.1.05-.7,3.253Z" transform="translate(69.965 56.028)"/><path class="f" d="M29.682,17.644h-.2l-.25-.05h-.15l-.2-.05h-.2l-.15-.05h-.2l-.2-.05-.2-.05h-.5l-.25-.05h-.35l-.3.05h-.4l-.4.05h0l-.3.05-.3.05-.25.05-.2.1-.2.1-.2.15-.15.1-.1.15-.1.15-.1.15v.35l.05.2.05.2.1.2.15.2h0l.3.25.35.2.4.2.45.15.45.15.5.2.45.15.5.2.4.25.4.3.4.35.3.45.2.551.15.651.1.8-.1.9h0l-.1.7-.15.6-.25.551-.3.45-.3.45-.4.35-.4.3-.45.3-.45.2-.5.2-.5.15-.5.1-.5.1-.5.05-.45.05H21.524l-.5-.05h-.45l-.35-.05h-.35l-.35-.05-.3-.05-.3-.05-.25-.05-.25-.05-.25-.05-.25-.1-.2-.1-.25-.1.651-3.2h0l.1.05.2.05.2.05.25.05.25.05.3.05.3.1.35.05.35.05.4.05.4.05.4.05h.4l.45.05h.4l.4-.05h0l.45-.05.35-.15.25-.15.2-.2.15-.2.1-.25.1-.2.05-.25h0v-.4l-.1-.35-.25-.3-.4-.25-.4-.25-.5-.2-.6-.2-.551-.25-.6-.25-.551-.3-.5-.35-.45-.45-.35-.6-.3-.651-.1-.751v-.951h0l.05-.551.1-.551.15-.5.2-.45.25-.45.25-.35.3-.4.35-.3.45-.3.45-.2.5-.25.6-.15.651-.1.7-.1.8-.1h1.9l.45.05h.4l.35.05h.35l.25.05h.3l.25.05.2.05h.2l.15.05h.15l.15.05h.1l.1.05-.7,3.253" transform="translate(69.965 56.028)"/><path class="e" d="M22.873,13.35h4.054l-.6,3.5h2.452l-.551,3.3-2.552-.1-1.4,8.158v.25l.05.25.15.2.2.15.25.1.3.1.3.05.35.05.35-.05h.3l.25-.05.2-.05.2-.05.15-.05.1-.05h0l-.5,2.7-.1.05-.1.05-.1.1-.1.05-.1.05-.15.05-.1.05h-.15l-.15.05-.15.05h-.15l-.2.05-.15.05h-.25l-.2.05H23.423l-.6-.05-.5-.05-.45-.05-.4-.1-.35-.15-.25-.15-.25-.15-.2-.2-.15-.2-.1-.25-.1-.25v-.3l-.05-.3v-.3l.05-.35.05-.35L22.873,13.35Z" transform="translate(80.178 53.465)"/><path class="f" d="M22.873,13.35h4.054l-.6,3.5h2.452l-.551,3.3-2.552-.1-1.4,8.158h0v.25l.05.25.15.2.2.15.25.1.3.1.3.05.35.05h0l.35-.05h.3l.25-.05.2-.05.2-.05.15-.05.1-.05h0l-.5,2.7h0l-.1.05-.1.05-.1.1-.1.05-.1.05-.15.05-.1.05h-.15l-.15.05-.15.05h-.15l-.2.05-.15.05h-.25l-.2.05H23.423l-.6-.05-.5-.05-.45-.05-.4-.1-.35-.15-.25-.15-.25-.15-.2-.2-.15-.2-.1-.25-.1-.25v-.3l-.05-.3v-.3l.05-.35.05-.35L22.873,13.35" transform="translate(80.178 53.465)"/><path class="f" d="M25.814,23.049h0l-.05.25v.551l.05.3.1.25.15.25.15.3.15.25.25.25.2.2.25.2.25.2.25.15.3.15.3.1.25.05h0l.4.05.35.05.4.05h.35l.4.05h.4l.35-.05h.4l.4-.05.4-.1.4-.1.4-.1.4-.15.4-.2.4-.2.45-.25-.6,3.553h0l-.2.1-.25.15-.25.05-.2.1-.2.1-.25.05-.25.05-.25.05-.25.05-.3.05h-.3l-.35.05h-2.4l-.7-.05-.751-.1-.7-.2-.7-.2-.7-.3-.651-.35-.6-.4-.6-.5-.5-.6-.4-.7-.35-.751-.25-.851-.15-1L21.56,22.8l.05-1.2h0l.1-.45.05-.551.15-.551.15-.651.2-.6.25-.651.35-.6.4-.651.5-.551.551-.551.651-.5.7-.45.851-.35.951-.25,1.051-.2,1.151-.05h.6l.6.1.551.1.6.1.6.25.551.25.551.35.45.4.45.5.35.6.3.651.2.751.1.9.05,1-.1,1.1-.25,1.2-.05.9H24.613l.7-2.853H31.67v-.751l-.05-.3-.05-.3-.1-.25-.1-.25-.15-.25-.15-.2-.15-.15-.2-.15-.2-.15-.25-.1-.2-.1-.25-.05-.25-.05h-.551l-.25.05-.25.05-.2.1-.25.1-.25.15-.2.15-.2.15-.2.2-.15.25-.15.2-.15.25-.15.3-.1.25-.05.3-.1.3-.551,3" transform="translate(86.345 56.028)"/><path class="e" d="M41.235,18.275l-.2-.1-.2-.1-.2-.1-.2-.1-.25-.1-.25-.1-.25-.05-.25-.1-.25-.1-.3-.05-.3-.05-.3-.05h-.35l-.35-.05H36.53l-.4.05-.35.05-.45.05-.4.1-.4.15-.4.2-.4.3-.4.3-.35.4-.4.45-.35.551-.3.6-.3.751-.3.8-.2.951-.1.5-.05.551-.05.5.05.45v.5l.1.5.15.4.15.45.25.4.25.4.3.3.35.3.4.3.45.2.5.2.551.1.15.05.25.05.25.05h.3l.3.05h.7l.35-.05.4-.05.35-.05.4-.1.35-.1.35-.2.35-.15.3-.25.3-.25-.651,3.854-.1.1-.1.05-.1.15-.15.05-.15.15-.2.05-.25.15-.25.05-.3.1-.4.1-.45.05-.5.05-.551.05h-1.4l-.8-.05-.7-.1-.651-.1-.7-.25-.651-.3-.651-.35-.6-.4-.551-.5-.551-.6-.5-.651-.4-.751-.35-.8-.25-.9-.15-.951-.1-1.051.05-1.151.15-1.2.1-.551.15-.6.15-.551.15-.551.15-.5.2-.551.2-.45.2-.45.2-.45.2-.45.25-.4.3-.35.25-.4.25-.35.3-.3.35-.3.3-.3.35-.25.35-.25.35-.25.4-.2.4-.2.4-.15.4-.2.45-.15.45-.1.5-.1.45-.1.5-.05.551-.05.5-.05h1.051l.45.05.4.05.45.05.4.05.4.1.4.05.35.1.3.1.3.05.3.1.2.1.2.05.2.05.1.1h.1l-.7,4.054Z" transform="translate(105.609 52.945)"/><path class="f" d="M41.235,18.275h0l-.2-.1-.2-.1-.2-.1-.2-.1-.25-.1-.25-.1-.25-.05-.25-.1-.25-.1-.3-.05-.3-.05-.3-.05h-.35l-.35-.05H36.53l-.4.05-.35.05-.45.05-.4.1-.4.15-.4.2-.4.3-.4.3-.35.4-.4.45-.35.551-.3.6-.3.751-.3.8-.2.951h0l-.1.5-.05.551-.05.5.05.45v.5l.1.5.15.4.15.45.25.4.25.4.3.3.35.3.4.3.45.2.5.2.551.1h0l.15.05.25.05.25.05h.3l.3.05h.7l.35-.05.4-.05.35-.05.4-.1.35-.1.35-.2.35-.15.3-.25.3-.25-.651,3.854h0l-.1.1-.1.05-.1.15-.15.05-.15.15-.2.05-.25.15-.25.05-.3.1-.4.1-.45.05-.5.05-.551.05h-1.4l-.8-.05h0l-.7-.1-.651-.1-.7-.25-.651-.3-.651-.35-.6-.4-.551-.5-.551-.6-.5-.651-.4-.751-.35-.8-.25-.9-.15-.951-.1-1.051.05-1.151.15-1.2h0l.1-.551.15-.6.15-.551.15-.551.15-.5.2-.551.2-.45.2-.45.2-.45.2-.45.25-.4.3-.35.25-.4.25-.35.3-.3.35-.3.3-.3.35-.25.35-.25.35-.25.4-.2.4-.2.4-.15.4-.2.45-.15.45-.1.5-.1.45-.1.5-.05.551-.05.5-.05h1.051l.45.05.4.05.45.05.4.05.4.1.4.05.35.1.3.1.3.05.3.1.2.1.2.05.2.05.1.1h.1l-.7,4.054" transform="translate(105.609 52.945)"/><path class="e" d="M47.143,32.379H43.089l.3-1.6v-.15l-.25.3-.2.25-.25.25-.3.2-.25.2-.25.15-.25.15-.3.1-.25.1-.3.1-.25.05-.3.05-.3.05h-.3l-.25.05h-.3l-.751-.05-.7-.2-.651-.25-.6-.3-.5-.45-.45-.5-.45-.5-.35-.651-.25-.651-.25-.651-.15-.7-.1-.751-.05-.751v-.751l.05-.751.15-.751.2-.851.3-.8.3-.751.35-.7.4-.651.4-.6.45-.5.5-.5.5-.4.551-.35.551-.35.551-.25.551-.2.6-.15.6-.05.6-.05h.4l.4.05.4.1.35.1.3.1.3.15.3.15.25.15.25.2.2.15.2.2.15.2.15.2.15.2.1.15.1.2h0l1-5.756H50.4L47.143,32.379Z" transform="translate(135.485 53.505)"/><path class="f" d="M47.143,32.379H43.089l.3-1.6v-.15h0l-.25.3-.2.25-.25.25-.3.2-.25.2-.25.15-.25.15-.3.1-.25.1-.3.1-.25.05-.3.05-.3.05h-.3l-.25.05h-.3l-.751-.05-.7-.2-.651-.25-.6-.3-.5-.45-.45-.5-.45-.5-.35-.651-.25-.651-.25-.651-.15-.7-.1-.751-.05-.751v-.751l.05-.751.15-.751h0l.2-.851.3-.8.3-.751.35-.7.4-.651.4-.6.45-.5.5-.5.5-.4.551-.35.551-.35.551-.25.551-.2.6-.15.6-.05.6-.05h.4l.4.05.4.1.35.1.3.1.3.15.3.15.25.15.25.2.2.15.2.2.15.2.15.2.15.2.1.15.1.2h0l1-5.756H50.4L47.143,32.379" transform="translate(135.485 53.505)"/><path class="c" d="M36.812,23.308l.4-.05.4-.05.35-.1.35-.15.3-.2.25-.2.3-.25.25-.3.2-.25.2-.35.2-.3.15-.35.15-.4.15-.35.1-.4.05-.4.05-.4.05-.4v-.8l-.05-.4-.05-.35-.1-.35-.1-.35-.15-.3-.2-.25-.2-.25-.2-.2-.25-.15-.25-.15-.3-.05-.3-.05-.35.05-.4.05-.3.1-.35.15-.3.2-.3.25-.25.25-.25.25-.2.3-.2.35-.2.35-.15.4-.15.4-.1.35-.15.45-.05.4-.1.651.05.7.1.7.2.7.25.6.4.45.45.35.6.1Z" transform="translate(139.21 59.072)"/><path class="e" d="M27.9,26.572l-.551,3.2h-3.7l.1-.6.1-.5.05-.4.05-.25-.2.25-.25.25-.25.2-.3.2-.35.2-.35.15-.4.2-.4.15-.4.1-.4.15-.45.05-.45.05-.4.05h-.4l-.45-.05-.35-.05-.551-.1-.45-.15-.4-.2-.35-.25-.35-.2-.3-.25-.2-.3-.2-.3-.2-.3-.15-.3-.1-.3-.1-.35-.05-.35-.05-.3v-.651l.05-.551.05-.551.15-.5.2-.5.25-.5.25-.4.3-.4.35-.35.35-.35.4-.3.45-.3.4-.2.5-.2.45-.15.5-.15.5-.1h.1l.1-.05h.35l.2-.05h.2l.25-.05h.25l.25-.05h.3l.2-.05h.45l.2-.05h.5l.35.05h.9l.2.05h.2l.05-.1.05-.25.1-.35v-.25l-.05-.3-.1-.3-.2-.3-.25-.2-.25-.2-.3-.1-.35-.1-.4-.05H21.4l-.45.05-.5.05H20l-.45.1-.45.05-.4.05-.4.1-.35.05-.3.1-.25.1-.2.1-.2.05,1.051-3.5.35-.1.3-.15.35-.1.35-.05.35-.1.35-.05.4-.05h.4l.4-.05h.4l.45-.05h1.4l.5.05h.5l.4.05.45.05.45.1.45.15.45.15.45.2.45.25.4.3.35.3.35.35.25.4.25.45.15.45.05.5v.551l-.05.551-1.5,7.708Z" transform="translate(58.832 56.108)"/><path class="f" d="M27.9,26.572l-.551,3.2h-3.7l.1-.6.1-.5.05-.4.05-.25h0l-.2.25-.25.25-.25.2-.3.2-.35.2-.35.15-.4.2-.4.15-.4.1-.4.15-.45.05-.45.05-.4.05h-.4l-.45-.05-.35-.05h0l-.551-.1-.45-.15-.4-.2-.35-.25-.35-.2-.3-.25-.2-.3-.2-.3-.2-.3-.15-.3-.1-.3-.1-.35-.05-.35-.05-.3v-.651h0l.05-.551.05-.551.15-.5.2-.5.25-.5.25-.4.3-.4.35-.35.35-.35.4-.3.45-.3.4-.2.5-.2.45-.15.5-.15.5-.1h.1l.1-.05h.35l.2-.05h.2l.25-.05h.25l.25-.05h.3l.2-.05h.45l.2-.05h.5l.35.05h.9l.2.05h.2l.05-.1.05-.25.1-.35v-.25h0l-.05-.3-.1-.3-.2-.3-.25-.2-.25-.2-.3-.1-.35-.1-.4-.05H21.4l-.45.05-.5.05H20l-.45.1-.45.05-.4.05-.4.1-.35.05-.3.1-.25.1-.2.1-.2.05,1.051-3.5h0l.35-.1.3-.15.35-.1.35-.05.35-.1.35-.05.4-.05h.4l.4-.05h.4l.45-.05h1.4l.5.05h.5l.4.05.45.05.45.1.45.15.45.15.45.2.45.25.4.3.35.3.35.35.25.4.25.45.15.45.05.5v.551l-.05.551-1.5,7.708" transform="translate(58.832 56.108)"/><path class="d" d="M20.8,15.96v-.1l-.05-.05-.1-.05h-.15l-.15-.05h-.851l-.25.05h-.25l-.2.05h-.25l-.2.05-.15.05-.2.05-.1.05-.1.05-.15.05-.15.05-.2.1-.2.1-.2.1-.2.1-.2.15-.15.15-.2.15-.15.2-.15.2-.1.2-.1.25-.05.2v.5l.1.4.1.3.2.2.2.15.25.1.25.05h.7l.35-.05.4-.05.3-.1.3-.1.3-.15.25-.1.2-.2.2-.15.15-.15.15-.15.15-.2.1-.15.05-.2.1-.15.05-.15.1-.45.1-.45.1-.45.05-.4Z" transform="translate(62.436 62.917)"/><path class="e" d="M14.384,32.419H10.43l3.3-19.069H20.59l.7,11.311L26,13.35H33.2L29.849,32.419H25.9l2.5-14.264h-.2L22.292,32.419H17.837l-.05-.6-.1-1.552-.1-2.252-.15-2.6-.15-2.6-.15-2.3-.1-1.652v-.7h-.25l-2.4,14.264Z" transform="translate(41.771 53.465)"/><path class="f" d="M14.384,32.419H10.43l3.3-19.069H20.59l.7,11.311L26,13.35H33.2L29.849,32.419H25.9l2.5-14.264h-.2L22.292,32.419H17.837l-.05-.6-.1-1.552-.1-2.252-.15-2.6-.15-2.6-.15-2.3-.1-1.652v-.7h-.25l-2.4,14.264" transform="translate(41.771 53.465)"/><path class="e" d="M42.283,26.572l-.6,3.2H38.029l.05-.6v-.9l.05-.15-.2.2-.25.2-.25.2-.25.25-.35.15-.35.2-.35.15-.35.15-.4.1-.4.15-.4.05-.4.05-.45.05h-.4l-.4-.05-.4-.05-.5-.1-.45-.15-.45-.2-.35-.25-.3-.2-.3-.25-.25-.3-.2-.3-.15-.3-.15-.3-.1-.3-.1-.35-.05-.35-.05-.3v-1.2l.1-.551.15-.5.15-.5.25-.5.25-.4.3-.4.35-.35.4-.35.4-.3.4-.3.45-.2.45-.2.5-.15.45-.15.5-.1h.1l.1-.05h.35l.2-.05h.2l.25-.05h.25l.25-.05h.25l.25-.05h.45l.2-.05h.5l.35.05h.9l.25.05h.2v-.1l.05-.25.05-.35.05-.25-.05-.3-.15-.3-.15-.3-.25-.2-.25-.2-.3-.1-.35-.1-.35-.05H35.827l-.45.05-.5.05h-.45l-.45.1-.45.05-.4.05-.4.1-.35.05-.3.1-.25.1-.2.1-.15.05,1-3.5.3-.1.35-.15.35-.1.35-.05.35-.1.35-.05.4-.05h.4l.4-.05h.4l.45-.05h1.351l.5.05h.5l.4.05.45.05.45.1.45.15.45.15.45.2.45.25.4.3.35.3.35.35.25.4.25.45.15.45.1.5v.551l-.1.551-1.5,7.708Z" transform="translate(116.622 56.108)"/><path class="e" d="M31.71,19.823l.1-.05.6-3.253h-.2l-.6,3.2.1-.1v.2h.05l.05-.05-.1.05Z" transform="translate(126.595 66.161)"/><path class="e" d="M30.88,17.24l.1.1h3.654v-.2H30.98l.1.1h-.2v.1h.1l-.1-.1Z" transform="translate(123.671 68.644)"/><path class="e" d="M31.13,16.96l-.1-.15-.1.25v.9l-.05.6h.2l.05-.6v-1l-.15-.15.15.15Z" transform="translate(123.671 67.322)"/><path class="e" d="M29.8,18.812h0l.4.05.4.05H31l.45-.05.4-.05.4-.05.4-.15.4-.1.4-.15.35-.15.35-.2.3-.2.3-.2.3-.2.2-.25.2-.2-.15-.15-.2.25-.2.2-.25.2-.25.2-.35.2-.3.15-.35.2-.4.1-.35.15-.4.1-.45.1-.35.05H31l-.4.05-.4-.05-.35-.05h0l-.05.15Z" transform="translate(119.346 67.322)"/><path class="e" d="M29.1,16.33h0v.3l.05.35v.35l.1.3.05.35.1.3.15.35.2.3.2.3.25.3.25.25.35.25.4.25.4.15.5.15.5.15.05-.15-.551-.15-.45-.15-.4-.2-.35-.2-.3-.2-.3-.25-.2-.3-.2-.25-.15-.35-.15-.3-.1-.3-.1-.3-.05-.35-.05-.3V16.33h-.2Z" transform="translate(116.542 65.4)"/><path class="e" d="M34.305,15.21h0l-.5.1-.5.15-.5.15-.45.2-.45.25-.45.3-.35.3-.4.3-.35.4-.3.4-.3.45-.2.45-.2.5-.15.551-.05.551-.05.551h.2v-.551l.1-.551.1-.5.2-.5.25-.45.25-.4.3-.4.3-.35.4-.3.4-.35.4-.25.45-.2.45-.25.45-.15.45-.1.5-.1h0v-.2Z" transform="translate(116.542 60.914)"/><path class="e" d="M33.143,15.15h-.15l-.2.05h-.45l-.25.05h-.25l-.25.05-.25.05h-.25l-.2.05h-.2l-.2.05h-.35v.2h.1l.1-.05h.15l.2-.05h.2l.2-.05h.25l.25-.05h.5l.25-.05h.25l.2-.05h.35v-.2Z" transform="translate(120.707 60.674)"/><path class="e" d="M32.692,15.35l.1-.1h-.2l-.25-.05h-.9l-.35-.05h-.35v.2h.7l.35.05h.8l.15.05h.05l.1-.1-.1.1h.05l.05-.1Z" transform="translate(123.11 60.674)"/><path class="e" d="M31.28,15h0l-.05.25-.05.3v.25l-.05.15h.2v-.1l.05-.25.05-.35.05-.25h-.2Z" transform="translate(124.672 60.073)"/><path class="e" d="M30.81,14.87h0l.35.05.3.05.3.15.25.2.2.2.2.2.1.3.05.3h.2l-.1-.35-.1-.3-.2-.3-.25-.2-.25-.2-.35-.15-.3-.1-.4-.05v.2Z" transform="translate(123.391 58.752)"/><path class="e" d="M29.57,15.571l.15.1.15-.1.15-.1.25-.05.35-.1.35-.1.35-.05.45-.05.4-.1.45-.05.45-.05.5-.05h2.2v-.15l-.4-.05H34.024l-.45.05-.5.05-.45.05-.45.05-.45.05-.4.05-.4.1-.35.05-.3.1-.3.1-.2.1-.2.1.15.1-.15-.05Z" transform="translate(118.425 58.752)"/><path class="e" d="M30.621,14.14l-.05.05-1,3.5.15.05,1.051-3.5-.05.05-.1-.15h-.05v.05l.05-.05Z" transform="translate(118.425 56.629)"/><path class="e" d="M36.286,14.04h-.5l-.5-.05H33.934l-.45.05h-.4l-.4.05h-.4l-.4.1-.35.05-.4.05-.35.1-.35.1-.3.1-.35.15.1.15.3-.15.35-.1.3-.1.35-.05.35-.1.35-.05.4-.05.4-.05h3.6v-.2Z" transform="translate(119.266 56.028)"/><path class="e" d="M36.035,18.955h0l.1-.6V17.8l-.1-.5-.2-.5-.2-.45-.3-.4-.35-.35-.35-.35-.45-.25-.4-.3-.5-.2-.45-.15-.45-.15-.45-.1-.45-.05-.4-.05v.2h.4l.4.1.45.1.45.1.45.2.45.2.45.25.35.25.4.35.3.3.3.4.2.4.15.45.1.5v.551l-.05.551h0l.15.05Z" transform="translate(124.472 56.068)"/><path class="e" d="M31.93,22.688h0l1.5-7.657-.15-.05L31.73,22.688h.2Z" transform="translate(127.075 59.993)"/><path class="c" d="M35.175,16l-.05-.1-.05-.05-.1-.05-.15-.05h-.15l-.2-.05h-.2l-.25.05h-.2l-.25.05h-.25l-.2.05-.2.05h-.2l-.2.05-.15.05h-.1l-.1.05-.15.05-.15.05-.2.1-.2.1-.2.1-.15.1-.2.15-.2.15-.15.15-.15.2-.15.2-.1.25-.1.2-.05.25v.5l.1.4.1.3.15.2.25.15.25.1.25.05h.651l.4-.05.4-.1.35-.1.3-.1.3-.15.25-.15.2-.15.25-.15.15-.2.15-.2.15-.15.1-.2.05-.15.05-.2.05-.15.1-.4.05-.45.05-.4.05-.35Z" transform="translate(120.227 62.877)"/><path class="e" d="M37.03,18.372l.05-.35.1-.4.2-.35.25-.3.3-.25.35-.15.4-.15.4-.05.4.05.35.15.35.15.35.25.2.3.2.35.15.4v.35h-.4l-.05-.3-.05-.3-.15-.3-.2-.25-.25-.2-.25-.15-.3-.1h-.7l-.3.1-.3.15-.25.2-.15.25-.15.3-.1.3v.3Z" transform="translate(148.301 65.56)"/><path class="e" d="M37.29,17.491v-.9h1l.15.05.1.05.1.05.1.1.05.1v.1l.05.1-.05.1v.1l-.05.1-.05.05h-.6l.05-.05h.1l.1-.05h.1l.05-.05v-.05l.05-.05v-.2l-.05-.05-.05-.05h-.1l-.1-.05H37.69v.6Z" transform="translate(149.342 66.441)"/><path class="e" d="M37.03,16.77v.05l.05.45.1.4.2.35.25.25.3.25.35.2.4.1.4.05.4-.05.35-.1.35-.2.35-.25.2-.25.2-.35.15-.4.05-.45-.05-.05h-.4v.05l-.05.35-.05.35-.15.25-.2.25-.25.2-.25.15-.3.1-.35.05-.35-.05-.3-.1-.3-.15-.25-.2-.15-.25-.15-.25-.1-.35v-.4Z" transform="translate(148.301 67.162)"/><path class="e" d="M37.29,16.77v.851h.4v-.7h.35l.4.7h.3l-.4-.7h.1l.1-.05h.05l.1-.1h-1.4Z" transform="translate(149.342 67.162)"/><path class="f" d="M37,17.941h0V16.49h2.853v1.451h0v1.451H37V17.941m1.7.8h-.35V16.99H39.7v.4h0v.3h-.2l.45.751h-.3l-.45-.751h-.35v.751m.35-.851h-.35v.6h.35m0,1.752h.9v-.951h0v-.951H38.3v.951h0v.951h.951" transform="translate(148.181 66.041)"/><path class="e" d="M31.97,29.735h4.1l1.451-8.258.05-.3.1-.35.1-.3.1-.35.15-.3.15-.3.2-.3.25-.25.25-.25.3-.25.35-.2.35-.2.4-.15.5-.1.5-.1h.951l.651-3.754-.45.05-.35.05-.4.05-.35.1-.3.1-.3.15-.3.15-.25.2-.3.2-.25.2-.2.25-.25.2-.2.25-.2.3-.25.25-.2.3.45-2.653h-4.1l-2.7,15.565Z" transform="translate(128.036 56.149)"/><path class="f" d="M31.97,29.735h4.1l1.451-8.258h0l.05-.3.1-.35.1-.3.1-.35.15-.3.15-.3.2-.3.25-.25.25-.25.3-.25.35-.2.35-.2.4-.15.5-.1.5-.1h.951l.651-3.754h0l-.45.05-.35.05-.4.05-.35.1-.3.1-.3.15-.3.15-.25.2-.3.2-.25.2-.2.25-.25.2-.2.25-.2.3-.25.25-.2.3.45-2.653h-4.1l-2.7,15.565h0" transform="translate(128.036 56.149)"/><path class="e" d="M24.28,29.735h4.154l1.4-8.258.05-.3.05-.35.1-.3.1-.25.1-.3.15-.3.2-.25.2-.25.2-.2.3-.25.3-.15.35-.15.4-.15.45-.1.5-.1.551-.05h.05l.05.05h.25l.05.05h.05v-.05l.05-.2.05-.25.1-.3.1-.4.1-.4.15-.4.1-.4.1-.3.15-.25.15-.3.15-.25.15-.2.1-.2.05-.1h.05l-.1-.05h-.25l-.1-.05h-.25l-.45.05-.4.05-.35.05-.35.1-.35.1-.3.15-.3.15-.25.15-.25.2-.2.2-.25.25-.2.25-.2.25-.2.25-.25.3-.2.3.5-2.653H26.983l-2.7,15.565Z" transform="translate(97.239 56.149)"/><path class="f" d="M24.28,29.735h4.154l1.4-8.258h0l.05-.3.05-.35.1-.3.1-.25.1-.3.15-.3.2-.25.2-.25.2-.2.3-.25.3-.15.35-.15.4-.15.45-.1.5-.1.551-.05h.05l.05.05h.25l.05.05h.05v-.05l.05-.2.05-.25.1-.3.1-.4.1-.4.15-.4.1-.4h0l.1-.3.15-.25.15-.3.15-.25.15-.2.1-.2.05-.1h.05l-.1-.05h-.25l-.1-.05h-.25l-.45.05-.4.05-.35.05-.35.1-.35.1-.3.15-.3.15-.25.15-.25.2-.2.2-.25.25-.2.25-.2.25-.2.25-.25.3-.2.3.5-2.653H26.983l-2.7,15.565h0" transform="translate(97.239 56.149)"/><path class="c" d="M37.04,21.5v-.05l.1-.4.2-.3.25-.3.3-.25.35-.15.4-.1.4-.05.4.05.35.1.35.15.35.25.2.3.2.3.15.4v.05h-.45l-.05-.3-.15-.3-.2-.25-.25-.2-.25-.15-.3-.1-.35-.05-.35.05-.3.1-.3.15-.25.2-.15.25-.15.3-.1.3Z" transform="translate(148.341 79.697)"/><path class="c" d="M37.29,20.62v-.5h1.151l.1.05.1.05.1.1.05.05v.1l.05.15h-.3v-.15l-.05-.05-.05-.05h-.05l-.05-.05H37.69v.3Z" transform="translate(149.342 80.578)"/><path class="c" d="M37.03,20.52l.05-.3h.4v.3Z" transform="translate(148.301 80.979)"/><path class="c" d="M37.29,20.52v-.3h.4v.3h.35l.1-.05h.1l.1-.05h.1l.05-.05v-.05l.05-.05v-.05h.3l-.05.1v.1l-.05.05-.05.05Z" transform="translate(149.342 80.979)"/><path class="c" d="M37.8,20.52l-.05-.3h.45l.05.3Z" transform="translate(151.185 80.979)"/><path class="c" d="M37.03,20.28v.05l.05.45.1.35.2.35.25.35.3.25.35.15.4.1.4.05.4-.05.35-.1.35-.15.35-.25.2-.35.2-.35.15-.35.05-.45v-.05h-.45v.05l-.05.35-.05.35-.15.25-.2.25-.25.2-.25.15-.3.1-.35.05-.35-.05-.3-.1-.3-.15-.25-.2-.15-.25-.15-.25-.1-.35v-.4Z" transform="translate(148.301 81.219)"/><path class="c" d="M37.29,20.28v.851h.4v-.7h.35l.4.7h.3l-.4-.7h.1l.1-.05.05-.05.1-.05h-1.4Z" transform="translate(149.342 81.219)"/><path class="e" d="M34.823,18.484v-1.6l-.3-.651-.35-.6-.45-.5-.5-.4-.5-.35-.551-.25H26.965l-.951.25-.851.35-.751.45-.651.5-.551.551-.45.6-.4.6-.35.651-.25.651v6.556l.35.751.4.651.5.6.551.5.6.4.651.35.7.3h7.407l.6-3.553H25.864v-1.8h9.409v-3.2Zm-3.954,1.351H25.564V18.484h1.752v1.6Z" transform="translate(87.146 56.589)"/></g></g></svg>